  0
SECTION
  2
HEADER
  9
$ACADVER
  1
AC1009
  9
$INSBASE
 10
0.0
 20
0.0
 30
0.0
  9
$EXTMIN
 10
-0.0000001517079227
 20
-0.0000001334724972
 30
0.0
  9
$EXTMAX
 10
171.90954130928111
 20
77.324513826362022
 30
0.0
  9
$LIMMIN
 10
0.0
 20
0.0
  9
$LIMMAX
 10
297.0
 20
210.0
  9
$ORTHOMODE
 70
     1
  9
$REGENMODE
 70
     1
  9
$FILLMODE
 70
     1
  9
$QTEXTMODE
 70
     0
  9
$MIRRTEXT
 70
     1
  9
$DRAGMODE
 70
     2
  9
$LTSCALE
 40
1.0
  9
$OSMODE
 70
    57
  9
$ATTMODE
 70
     1
  9
$TEXTSIZE
 40
6.4000000000000012
  9
$TRACEWID
 40
0.05
  9
$TEXTSTYLE
  7
STANDARD
  9
$CLAYER
  8
0
  9
$CELTYPE
  6
CONTINUOUS
  9
$CECOLOR
 62
     7
  9
$DIMSCALE
 40
1.0
  9
$DIMASZ
 40
3.0
  9
$DIMEXO
 40
1.0
  9
$DIMDLI
 40
0.0
  9
$DIMRND
 40
0.0
  9
$DIMDLE
 40
0.0
  9
$DIMEXE
 40
1.0
  9
$DIMTP
 40
0.0
  9
$DIMTM
 40
0.0
  9
$DIMTXT
 40
3.2000000000000002
  9
$DIMCEN
 40
0.0
  9
$DIMTSZ
 40
0.0
  9
$DIMTOL
 70
     0
  9
$DIMLIM
 70
     0
  9
$DIMTIH
 70
     0
  9
$DIMTOH
 70
     0
  9
$DIMSE1
 70
     0
  9
$DIMSE2
 70
     0
  9
$DIMTAD
 70
     1
  9
$DIMZIN
 70
     8
  9
$DIMBLK
  1

  9
$DIMASO
 70
     1
  9
$DIMSHO
 70
     1
  9
$DIMPOST
  1

  9
$DIMAPOST
  1

  9
$DIMALT
 70
     0
  9
$DIMALTD
 70
     2
  9
$DIMALTF
 40
0.04
  9
$DIMLFAC
 40
1.0
  9
$DIMTOFL
 70
     1
  9
$DIMTVP
 40
1.0
  9
$DIMTIX
 70
     1
  9
$DIMSOXD
 70
     0
  9
$DIMSAH
 70
     0
  9
$DIMBLK1
  1

  9
$DIMBLK2
  1

  9
$DIMSTYLE
  2
MISUMI
  9
$DIMCLRD
 70
     0
  9
$DIMCLRE
 70
     0
  9
$DIMCLRT
 70
     0
  9
$DIMTFAC
 40
0.6
  9
$DIMGAP
 40
1.0
  9
$LUNITS
 70
     2
  9
$LUPREC
 70
     4
  9
$SKETCHINC
 40
0.1
  9
$FILLETRAD
 40
0.0
  9
$AUNITS
 70
     0
  9
$AUPREC
 70
     0
  9
$MENU
  1
acad
  9
$ELEVATION
 40
0.0
  9
$PELEVATION
 40
0.0
  9
$THICKNESS
 40
0.0
  9
$LIMCHECK
 70
     0
  9
$BLIPMODE
 70
     1
  9
$CHAMFERA
 40
0.5
  9
$CHAMFERB
 40
0.5
  9
$SKPOLY
 70
     0
  9
$TDCREATE
 40
2451464.6006649309
  9
$TDUPDATE
 40
2453776.702273577
  9
$TDINDWG
 40
0.1776425579
  9
$TDUSRTIMER
 40
0.1776405556
  9
$USRTIMER
 70
     1
  9
$ANGBASE
 50
0.0
  9
$ANGDIR
 70
     0
  9
$PDMODE
 70
     0
  9
$PDSIZE
 40
0.0
  9
$PLINEWID
 40
0.0
  9
$COORDS
 70
     0
  9
$SPLFRAME
 70
     0
  9
$SPLINETYPE
 70
     6
  9
$SPLINESEGS
 70
     8
  9
$ATTDIA
 70
     0
  9
$ATTREQ
 70
     1
  9
$HANDLING
 70
     1
  9
$HANDSEED
  5
C50
  9
$SURFTAB1
 70
     6
  9
$SURFTAB2
 70
     6
  9
$SURFTYPE
 70
     6
  9
$SURFU
 70
     6
  9
$SURFV
 70
     6
  9
$UCSNAME
  2

  9
$UCSORG
 10
0.0
 20
0.0
 30
0.0
  9
$UCSXDIR
 10
1.0
 20
0.0
 30
0.0
  9
$UCSYDIR
 10
0.0
 20
1.0
 30
0.0
  9
$PUCSNAME
  2

  9
$PUCSORG
 10
0.0
 20
0.0
 30
0.0
  9
$PUCSXDIR
 10
1.0
 20
0.0
 30
0.0
  9
$PUCSYDIR
 10
0.0
 20
1.0
 30
0.0
  9
$USERI1
 70
     0
  9
$USERI2
 70
     0
  9
$USERI3
 70
     0
  9
$USERI4
 70
     0
  9
$USERI5
 70
     0
  9
$USERR1
 40
0.0
  9
$USERR2
 40
0.0
  9
$USERR3
 40
0.0
  9
$USERR4
 40
0.0
  9
$USERR5
 40
0.0
  9
$WORLDVIEW
 70
     1
  9
$SHADEDGE
 70
     3
  9
$SHADEDIF
 70
    70
  9
$TILEMODE
 70
     1
  9
$MAXACTVP
 70
    16
  9
$PLIMCHECK
 70
     0
  9
$PEXTMIN
 10
1.0000000000000000E+020
 20
1.0000000000000000E+020
 30
1.0000000000000000E+020
  9
$PEXTMAX
 10
-1.0000000000000000E+020
 20
-1.0000000000000000E+020
 30
-1.0000000000000000E+020
  9
$PLIMMIN
 10
0.0
 20
0.0
  9
$PLIMMAX
 10
12.0
 20
9.0
  9
$UNITMODE
 70
     0
  9
$VISRETAIN
 70
     0
  9
$PLINEGEN
 70
     0
  9
$PSLTSCALE
 70
     1
  0
ENDSEC
  0
SECTION
  2
TABLES
  0
TABLE
  2
VPORT
 70
     2
  0
VPORT
  2
*ACTIVE
 70
     0
 10
0.0
 20
0.0
 11
1.0
 21
1.0
 12
96.769707219488723
 22
47.188421169604759
 13
0.0
 23
0.0
 14
10.0
 24
10.0
 15
10.0
 25
10.0
 16
0.0
 26
0.0
 36
1.0
 17
0.0
 27
0.0
 37
0.0
 40
148.45823484107709
 41
1.5717852684144811
 42
50.0
 43
0.0
 44
0.0
 50
0.0
 51
0.0
 71
     0
 72
   100
 73
     1
 74
     0
 75
     0
 76
     0
 77
     0
 78
     0
  0
ENDTAB
  0
TABLE
  2
LTYPE
 70
     2
  0
LTYPE
  2
CONTINUOUS
 70
     0
  3
Solid line
 72
    65
 73
     0
 40
0.0
  0
LTYPE
  2
CENTER
 70
     0
  3
Center ____ _ ____ _ ____ _ ____ _ ____ _ ____
 72
    65
 73
     4
 40
2.0
 49
1.25
 49
-0.25
 49
0.25
 49
-0.25
  0
ENDTAB
  0
TABLE
  2
LAYER
 70
     2
  0
LAYER
  2
0
 70
     0
 62
     7
  6
CONTINUOUS
  0
LAYER
  2
CENTER
 70
     0
 62
     1
  6
CENTER
  0
ENDTAB
  0
TABLE
  2
STYLE
 70
     1
  0
STYLE
  2
STANDARD
 70
     0
 40
0.0
 41
1.0
 50
0.0
 71
     0
 42
6.4000000000000012
  3
txt
  4

  0
ENDTAB
  0
TABLE
  2
VIEW
 70
     0
  0
ENDTAB
  0
TABLE
  2
UCS
 70
     0
  0
ENDTAB
  0
TABLE
  2
APPID
 70
     2
  0
APPID
  2
ACAD
 70
     0
  0
APPID
  2
ACAD_DSTYLE_DIMTEXT_FILL
 70
     0
  0
ENDTAB
  0
TABLE
  2
DIMSTYLE
 70
     1
  0
DIMSTYLE
  2
MISUMI
 70
     0
  3

  4

  5

  6

  7

 40
1.0
 41
3.0
 42
1.0
 43
0.0
 44
1.0
 45
0.0
 46
0.0
 47
0.0
 48
0.0
140
3.2000000000000002
141
0.0
142
0.0
143
0.04
144
1.0
145
1.0
146
0.6
147
1.0
 71
     0
 72
     0
 73
     0
 74
     0
 75
     0
 76
     0
 77
     1
 78
     8
170
     0
171
     2
172
     1
173
     0
174
     1
175
     0
176
     0
177
     0
178
     0
  0
ENDTAB
  0
ENDSEC
  0
SECTION
  2
BLOCKS
  0
BLOCK
  8
0
  2
$MODEL_SPACE
 70
     0
 10
0.0
 20
0.0
 30
0.0
  3
$MODEL_SPACE
  1

  0
ENDBLK
  5
BF7
  8
0
  0
BLOCK
 67
     1
  8
0
  2
$PAPER_SPACE
 70
     0
 10
0.0
 20
0.0
 30
0.0
  3
$PAPER_SPACE
  1

  0
ENDBLK
  5
BF3
 67
     1
  8
0
  0
ENDSEC
  0
SECTION
  2
ENTITIES
  0
TEXT
  5
406
  8
0
  6
CONTINUOUS
 62
     7
 10
-0.0000001517079227
 20
8.5987117520439256
 30
0.0
 40
4.0
  1
HFSP5-2550-50
  0
TEXT
  5
407
  8
0
  6
CONTINUOUS
 62
     7
 10
-0.0000001517079227
 20
-0.000000133472497
 30
0.0
 40
4.0
  1
HP52550
  0
LINE
  5
538
  8
0
  6
CONTINUOUS
 62
     7
 10
51.717075888492737
 20
53.824513826362008
 30
0.0
 11
54.752610888492718
 21
56.860047826361992
 31
0.0
  0
LINE
  5
539
  8
0
  6
CONTINUOUS
 62
     7
 10
52.588396169677956
 20
52.574513826362029
 30
0.0
 11
53.338396416751387
 21
53.324513826362001
 31
0.0
  0
LINE
  5
53A
  8
0
  6
CONTINUOUS
 62
     7
 10
70.788143888492741
 20
53.824513826362029
 30
0.0
 11
71.75261088849274
 21
53.824513826362029
 31
0.0
  0
LINE
  5
53B
  8
0
  6
CONTINUOUS
 62
     7
 10
70.788143888492741
 20
53.824513826362029
 30
0.0
 11
67.752610888492725
 21
56.86004682636203
 31
0.0
  0
LINE
  5
53C
  8
0
  6
CONTINUOUS
 62
     7
 10
69.916823544933095
 20
52.574513826362008
 30
0.0
 11
69.166823544933081
 21
53.324513826362001
 31
0.0
  0
LINE
  5
53E
  8
0
  6
CONTINUOUS
 62
     7
 10
67.252610888492725
 20
69.360046826361994
 30
0.0
 11
64.217077888492753
 21
66.324513826362022
 31
0.0
  0
LINE
  5
53F
  8
0
  6
CONTINUOUS
 62
     7
 10
70.788145888492735
 20
65.824513826361979
 30
0.0
 11
67.752610888492725
 21
62.788979826362031
 31
0.0
  0
LINE
  5
540
  8
0
  6
CONTINUOUS
 62
     7
 10
51.71707788849271
 20
65.824513826362022
 30
0.0
 11
54.752610888492718
 21
62.788979826362052
 31
0.0
  0
LINE
  5
541
  8
0
  6
CONTINUOUS
 62
     7
 10
55.252610888492747
 20
69.360048826362004
 30
0.0
 11
58.288145888492721
 21
66.324513826362022
 31
0.0
  0
LINE
  5
542
  8
CENTER
  6
CENTER
 62
     1
 10
43.752610888492718
 20
47.324513826362022
 30
0.0
 11
78.75261088849274
 21
47.324513826362022
 31
0.0
  0
LINE
  5
543
  8
0
  6
CONTINUOUS
 62
     7
 10
53.338396416751387
 20
53.324513826362001
 30
0.0
 11
69.166823544933081
 21
53.324513826362001
 31
0.0
  0
LINE
  5
544
  8
0
  6
CONTINUOUS
 62
     7
 10
53.33839732611964
 20
41.324513826362001
 30
0.0
 11
69.166824450865818
 21
41.324513826362001
 31
0.0
  0
LINE
  5
545
  8
0
  6
CONTINUOUS
 62
     7
 10
51.05261088849273
 20
52.574513826362029
 30
0.0
 11
52.588396169677956
 21
52.574513826362029
 31
0.0
  0
LINE
  5
546
  8
0
  6
CONTINUOUS
 62
     7
 10
69.916823544933095
 20
52.574513826362008
 30
0.0
 11
71.452610888492742
 21
52.574513826362029
 31
0.0
  0
ARC
  5
547
  8
0
  6
CONTINUOUS
 62
     7
 10
71.452610888492742
 20
51.574513826362029
 30
0.0
 40
1.0
 50
0.0
 51
90.0
  0
ARC
  5
548
  8
0
  6
CONTINUOUS
 62
     7
 10
51.052610888492708
 20
51.574513826362029
 30
0.0
 40
1.0
 50
90.0
 51
180.0
  0
LINE
  5
549
  8
0
  6
CONTINUOUS
 62
     7
 10
51.052610888492708
 20
42.074513826362008
 30
0.0
 11
52.58839732611964
 21
42.074513826361994
 31
0.0
  0
LINE
  5
54A
  8
0
  6
CONTINUOUS
 62
     7
 10
69.916824450865846
 20
42.074513826362008
 30
0.0
 11
71.452610888492742
 21
42.074513826362008
 31
0.0
  0
ARC
  5
54B
  8
0
  6
CONTINUOUS
 62
     7
 10
51.052610888492708
 20
43.074513826362008
 30
0.0
 40
1.0
 50
180.0
 51
270.0
  0
LINE
  5
54C
  8
CENTER
  6
CENTER
 62
     1
 10
55.352610888492741
 20
59.824513826362022
 30
0.0
 11
67.152610888492731
 21
59.824513826362022
 31
0.0
  0
LINE
  5
54D
  8
0
  6
CONTINUOUS
 62
     7
 10
50.752610888492732
 20
65.824513826362022
 30
0.0
 11
51.71707788849271
 21
65.824513826362022
 31
0.0
  0
LINE
  5
54E
  8
0
  6
CONTINUOUS
 62
     7
 10
50.752610888492732
 20
53.824513826362029
 30
0.0
 11
51.717075888492737
 21
53.824513826362008
 31
0.0
  0
LINE
  5
54F
  8
0
  6
CONTINUOUS
 62
     7
 10
70.788145888492735
 20
65.824513826361979
 30
0.0
 11
71.75261088849274
 21
65.824513826362022
 31
0.0
  0
LINE
  5
550
  8
0
  6
CONTINUOUS
 62
     7
 10
70.788143888492741
 20
53.824513826362029
 30
0.0
 11
71.75261088849274
 21
53.824513826362029
 31
0.0
  0
LINE
  5
551
  8
0
  6
CONTINUOUS
 62
     7
 10
71.75261088849274
 20
62.824513826362029
 30
0.0
 11
73.452610888492742
 21
62.824513826362029
 31
0.0
  0
ARC
  5
552
  8
0
  6
CONTINUOUS
 62
     7
 10
73.452610888492742
 20
63.124513826362019
 30
0.0
 40
0.3
 50
270.0
 51
0.0
  0
LINE
  5
553
  8
0
  6
CONTINUOUS
 62
     7
 10
71.75261088849274
 20
56.824513826362029
 30
0.0
 11
73.452610888492742
 21
56.824513826362029
 31
0.0
  0
ARC
  5
554
  8
0
  6
CONTINUOUS
 62
     7
 10
73.452610888492742
 20
56.524513826362018
 30
0.0
 40
0.3
 50
0.0
 51
90.0
  0
LINE
  5
555
  8
0
  6
CONTINUOUS
 62
     7
 10
49.052610888492737
 20
62.824513826362029
 30
0.0
 11
50.752610888492732
 21
62.824513826362029
 31
0.0
  0
ARC
  5
556
  8
0
  6
CONTINUOUS
 62
     7
 10
49.052610888492737
 20
63.124513826362019
 30
0.0
 40
0.3
 50
180.0
 51
270.0000000000004
  0
LINE
  5
557
  8
0
  6
CONTINUOUS
 62
     7
 10
49.05261088849273
 20
56.824513826362029
 30
0.0
 11
50.752610888492732
 21
56.824513826362029
 31
0.0
  0
ARC
  5
558
  8
0
  6
CONTINUOUS
 62
     7
 10
49.052610888492723
 20
56.524513826362018
 30
0.0
 40
0.3
 50
90.000000000000384
 51
180.0
  0
LINE
  5
559
  8
CENTER
  6
CENTER
 62
     1
 10
55.352610888492741
 20
34.82451382636205
 30
0.0
 11
67.152610888492731
 21
34.82451382636205
 31
0.0
  0
LINE
  5
55A
  8
0
  6
CONTINUOUS
 62
     7
 10
50.752610888492732
 20
40.824513826362008
 30
0.0
 11
51.717076982560002
 21
40.824513826361994
 31
0.0
  0
LINE
  5
55B
  8
0
  6
CONTINUOUS
 62
     7
 10
70.788144794425492
 20
40.824513826361994
 30
0.0
 11
71.75261088849274
 21
40.824513826362008
 31
0.0
  0
LINE
  5
55C
  8
0
  6
CONTINUOUS
 62
     7
 10
50.752610888492732
 20
28.824513826362001
 30
0.0
 11
51.71707788849271
 21
28.824513826362001
 31
0.0
  0
LINE
  5
55D
  8
0
  6
CONTINUOUS
 62
     7
 10
70.788144794425492
 20
28.824513826362001
 30
0.0
 11
71.75261088849274
 21
28.824513826362001
 31
0.0
  0
LINE
  5
55E
  8
0
  6
CONTINUOUS
 62
     7
 10
49.052610888492723
 20
37.824513826362022
 30
0.0
 11
50.752610888492732
 21
37.824513826362022
 31
0.0
  0
ARC
  5
55F
  8
0
  6
CONTINUOUS
 62
     7
 10
49.052610888492723
 20
38.124513826362033
 30
0.0
 40
0.3
 50
180.0
 51
270.00000000000028
  0
LINE
  5
560
  8
0
  6
CONTINUOUS
 62
     7
 10
71.75261088849274
 20
37.824513826362001
 30
0.0
 11
73.452610888492742
 21
37.824513826362001
 31
0.0
  0
LINE
  5
561
  8
0
  6
CONTINUOUS
 62
     7
 10
49.052610888492723
 20
31.824513826362029
 30
0.0
 11
50.752610888492732
 21
31.824513826362029
 31
0.0
  0
ARC
  5
562
  8
0
  6
CONTINUOUS
 62
     7
 10
49.052610888492723
 20
31.524513826362039
 30
0.0
 40
0.3
 50
90.000000000000185
 51
180.0
  0
LINE
  5
563
  8
0
  6
CONTINUOUS
 62
     7
 10
71.75261088849274
 20
31.824513826362018
 30
0.0
 11
73.452610888492742
 21
31.824513826362018
 31
0.0
  0
ARC
  5
564
  8
0
  6
CONTINUOUS
 62
     7
 10
73.452610888492742
 20
31.524513826361989
 30
0.0
 40
0.3
 50
0.0
 51
90.000000000000185
  0
LINE
  5
569
  8
0
  6
CONTINUOUS
 62
     7
 10
55.252610888492747
 20
70.324513826361979
 30
0.0
 11
58.252610888492732
 21
70.324513826361979
 31
0.0
  0
LINE
  5
56A
  8
0
  6
CONTINUOUS
 62
     7
 10
58.288145888492721
 20
66.324513826362022
 30
0.0
 11
60.73299514622213
 21
66.324513826361965
 31
0.0
  0
LINE
  5
56B
  8
0
  6
CONTINUOUS
 62
     7
 10
61.772225630763408
 20
66.324513826361965
 30
0.0
 11
64.217077888492753
 21
66.324513826362022
 31
0.0
  0
LINE
  5
56C
  8
0
  6
CONTINUOUS
 62
     7
 10
64.252610888492725
 20
70.324513826361979
 30
0.0
 11
67.252610888492725
 21
70.324513826361979
 31
0.0
  0
LINE
  5
56E
  8
0
  6
CONTINUOUS
 62
     7
 10
51.502610888492732
 20
23.574513826362018
 30
0.0
 11
53.276413221405171
 21
23.574513826362018
 31
0.0
  0
ARC
  5
56F
  8
0
  6
CONTINUOUS
 62
     7
 10
51.502610888492732
 20
25.074513826362029
 30
0.0
 40
1.5
 50
180.0
 51
270.0
  0
LINE
  5
572
  8
0
  6
CONTINUOUS
 62
     7
 10
55.252610888492747
 20
24.324513826362018
 30
0.0
 11
58.252610888492732
 21
24.324513826362018
 31
0.0
  0
LINE
  5
573
  8
0
  6
CONTINUOUS
 62
     7
 10
58.288144794425449
 20
28.324513826362018
 30
0.0
 11
60.732996146222057
 21
28.324513826362018
 31
0.0
  0
LINE
  5
574
  8
0
  6
CONTINUOUS
 62
     7
 10
61.772226630763292
 20
28.324513826362018
 30
0.0
 11
64.217077888492753
 21
28.324513826362018
 31
0.0
  0
LINE
  5
575
  8
0
  6
CONTINUOUS
 62
     7
 10
64.252610888492725
 20
24.324513826362018
 30
0.0
 11
67.252610888492725
 21
24.324513826362018
 31
0.0
  0
LINE
  5
576
  8
CENTER
  6
CENTER
 62
     1
 10
61.252610888492718
 20
77.324513826362022
 30
0.0
 11
61.252610888492711
 21
17.324513826362018
 31
0.0
  0
LINE
  5
577
  8
0
  6
CONTINUOUS
 62
     7
 10
67.252610888492725
 20
70.324513826361979
 30
0.0
 11
67.252610888492725
 21
69.360046826361994
 31
0.0
  0
LINE
  5
578
  8
0
  6
CONTINUOUS
 62
     7
 10
55.252610888492747
 20
70.324513826361979
 30
0.0
 11
55.252610888492747
 21
69.360048826362004
 31
0.0
  0
LINE
  5
579
  8
0
  6
CONTINUOUS
 62
     7
 10
64.252610888492725
 20
71.92451382636203
 30
0.0
 11
64.252610888492725
 21
70.324513826361979
 31
0.0
  0
LINE
  5
57A
  8
0
  6
CONTINUOUS
 62
     7
 10
58.252610888492732
 20
71.924513826362016
 30
0.0
 11
58.252610888492732
 21
70.324513826361979
 31
0.0
  0
LINE
  5
57B
  8
0
  6
CONTINUOUS
 62
     7
 10
67.252610888492725
 20
25.288980826362
 30
0.0
 11
67.252610888492725
 21
24.324513826362018
 31
0.0
  0
LINE
  5
57C
  8
0
  6
CONTINUOUS
 62
     7
 10
55.252610888492747
 20
25.288979920429281
 30
0.0
 11
55.252610888492747
 21
24.324513826362018
 31
0.0
  0
LINE
  5
57D
  8
0
  6
CONTINUOUS
 62
     7
 10
64.252610888492725
 20
24.324513826362018
 30
0.0
 11
64.252610888492725
 21
22.724513826362021
 31
0.0
  0
LINE
  5
57E
  8
0
  6
CONTINUOUS
 62
     7
 10
58.252610888492732
 20
24.324513826362018
 30
0.0
 11
58.252610888492732
 21
22.724513826362021
 31
0.0
  0
LINE
  5
580
  8
0
  6
CONTINUOUS
 62
     7
 10
73.752610888492697
 20
71.324513826362022
 30
0.0
 11
73.752610888492697
 21
63.124513826362019
 31
0.0
  0
LINE
  5
581
  8
0
  6
CONTINUOUS
 62
     7
 10
73.752610888492697
 20
56.524513826362018
 30
0.0
 11
73.752610888492697
 21
38.124513826361998
 31
0.0
  0
ARC
  5
582
  8
0
  6
CONTINUOUS
 62
     7
 10
73.452610888492742
 20
38.124513826362012
 30
0.0
 40
0.3
 50
270.00000000000028
 51
0.0
  0
LINE
  5
583
  8
0
  6
CONTINUOUS
 62
     7
 10
71.75261088849274
 20
65.824513826362022
 30
0.0
 11
71.75261088849274
 21
62.824513826362029
 31
0.0
  0
LINE
  5
584
  8
0
  6
CONTINUOUS
 62
     7
 10
67.752610888492725
 20
62.788979826362031
 30
0.0
 11
67.75261088849274
 21
60.344129568632617
 31
0.0
  0
LINE
  5
585
  8
0
  6
CONTINUOUS
 62
     7
 10
67.75261088849274
 20
59.304899084091332
 30
0.0
 11
67.752610888492725
 21
56.86004682636203
 31
0.0
  0
LINE
  5
586
  8
0
  6
CONTINUOUS
 62
     7
 10
71.75261088849274
 20
56.824513826362029
 30
0.0
 11
71.75261088849274
 21
53.824513826362029
 31
0.0
  0
LINE
  5
587
  8
0
  6
CONTINUOUS
 62
     7
 10
72.452610888492742
 20
51.574513826362029
 30
0.0
 11
72.452610888492742
 21
43.074513826362029
 31
0.0
  0
ARC
  5
588
  8
0
  6
CONTINUOUS
 62
     7
 10
71.452610888492742
 20
43.074513826362029
 30
0.0
 40
1.0
 50
270.0
 51
0.0
  0
LINE
  5
589
  8
0
  6
CONTINUOUS
 62
     7
 10
73.752610888492697
 20
31.524513826361989
 30
0.0
 11
73.752610888492697
 21
23.324513826362018
 31
0.0
  0
LINE
  5
58A
  8
0
  6
CONTINUOUS
 62
     7
 10
71.75261088849274
 20
40.824513826362008
 30
0.0
 11
71.75261088849274
 21
37.824513826362001
 31
0.0
  0
LINE
  5
58B
  8
0
  6
CONTINUOUS
 62
     7
 10
67.752610888492725
 20
37.788979920429277
 30
0.0
 11
67.752610888492725
 21
35.344129568632603
 31
0.0
  0
LINE
  5
58C
  8
0
  6
CONTINUOUS
 62
     7
 10
67.752610888492725
 20
34.30489908409136
 30
0.0
 11
67.752610888492725
 21
31.860047826362031
 31
0.0
  0
LINE
  5
58D
  8
0
  6
CONTINUOUS
 62
     7
 10
71.75261088849274
 20
31.824513826362018
 30
0.0
 11
71.75261088849274
 21
28.824513826362001
 31
0.0
  0
LINE
  5
58E
  8
0
  6
CONTINUOUS
 62
     7
 10
48.752610888492718
 20
23.324513826362018
 30
0.0
 11
48.752610888492718
 21
31.524513826362028
 31
0.0
  0
LINE
  5
58F
  8
0
  6
CONTINUOUS
 62
     7
 10
50.002610888492718
 20
25.074513826362011
 30
0.0
 11
50.002610888492718
 21
26.848316159274489
 31
0.0
  0
LINE
  5
590
  8
0
  6
CONTINUOUS
 62
     7
 10
48.752610888492718
 20
38.124513826362033
 30
0.0
 11
48.75261088849274
 21
56.524513826362018
 31
0.0
  0
LINE
  5
591
  8
0
  6
CONTINUOUS
 62
     7
 10
48.75261088849274
 20
63.124513826362019
 30
0.0
 11
48.75261088849274
 21
71.324513826362022
 31
0.0
  0
LINE
  5
592
  8
0
  6
CONTINUOUS
 62
     7
 10
50.05261088849273
 20
43.074513826362008
 30
0.0
 11
50.052610888492737
 21
51.574513826362029
 31
0.0
  0
LINE
  5
593
  8
0
  6
CONTINUOUS
 62
     7
 10
50.752610888492732
 20
28.824513826362001
 30
0.0
 11
50.752610888492732
 21
31.824513826362029
 31
0.0
  0
LINE
  5
594
  8
0
  6
CONTINUOUS
 62
     7
 10
54.752610888492718
 20
31.860046826362041
 30
0.0
 11
54.752610888492718
 21
34.304898084091377
 31
0.0
  0
LINE
  5
595
  8
0
  6
CONTINUOUS
 62
     7
 10
54.752610888492718
 20
35.344128568632691
 30
0.0
 11
54.752610888492718
 21
37.788979920429277
 31
0.0
  0
LINE
  5
596
  8
0
  6
CONTINUOUS
 62
     7
 10
50.752610888492732
 20
37.824513826362022
 30
0.0
 11
50.752610888492732
 21
40.824513826362008
 31
0.0
  0
LINE
  5
597
  8
0
  6
CONTINUOUS
 62
     7
 10
50.752610888492732
 20
53.824513826362029
 30
0.0
 11
50.752610888492732
 21
56.824513826362029
 31
0.0
  0
LINE
  5
598
  8
0
  6
CONTINUOUS
 62
     7
 10
50.752610888492732
 20
62.824513826362029
 30
0.0
 11
50.752610888492732
 21
65.824513826362022
 31
0.0
  0
LINE
  5
599
  8
0
  6
CONTINUOUS
 62
     7
 10
54.752610888492718
 20
56.860047826361992
 30
0.0
 11
54.752610888492718
 21
59.304898084091377
 31
0.0
  0
LINE
  5
59A
  8
0
  6
CONTINUOUS
 62
     7
 10
54.752610888492718
 20
60.344128568632662
 30
0.0
 11
54.752610888492718
 21
62.788979826362052
 31
0.0
  0
ARC
  5
59B
  8
0
  6
CONTINUOUS
 62
     7
 10
49.752610888492718
 20
23.324513826362018
 30
0.0
 40
1.0
 50
180.0
 51
216.8698976458443
  0
ARC
  5
59C
  8
0
  6
CONTINUOUS
 62
     7
 10
49.752610888492718
 20
71.324513826362079
 30
0.0
 40
1.0
 50
143.1301023541605
 51
180.00000000000321
  0
ARC
  5
59D
  8
0
  6
CONTINUOUS
 62
     7
 10
72.75261088849274
 20
71.324513826362093
 30
0.0
 40
1.0
 50
359.99999999999511
 51
36.869897645838648
  0
ARC
  5
59E
  8
0
  6
CONTINUOUS
 62
     7
 10
72.75261088849274
 20
23.324513826361969
 30
0.0
 40
1.0
 50
323.13010235415987
 51
0.0000000000032774
  0
LINE
  5
59F
  8
0
  6
CONTINUOUS
 62
     7
 10
55.05261088849273
 20
34.82451332636203
 30
0.0
 11
54.752610888492711
 21
34.304898084091377
 31
0.0
  0
LINE
  5
5A0
  8
0
  6
CONTINUOUS
 62
     7
 10
55.05261088849273
 20
34.82451332636203
 30
0.0
 11
54.752610888492718
 21
35.344128568632691
 31
0.0
  0
LINE
  5
5A1
  8
0
  6
CONTINUOUS
 62
     7
 10
61.252611388492689
 20
28.624513826362001
 30
0.0
 11
61.772226630763342
 21
28.32451382636199
 31
0.0
  0
LINE
  5
5A2
  8
0
  6
CONTINUOUS
 62
     7
 10
61.252611388492689
 20
28.624513826362001
 30
0.0
 11
60.732996146222042
 21
28.32451382636199
 31
0.0
  0
LINE
  5
5A3
  8
0
  6
CONTINUOUS
 62
     7
 10
67.452610888492728
 20
34.824514326361992
 30
0.0
 11
67.75261088849274
 21
35.344129568632631
 31
0.0
  0
LINE
  5
5A4
  8
0
  6
CONTINUOUS
 62
     7
 10
67.452610888492728
 20
34.824514326361992
 30
0.0
 11
67.75261088849274
 21
34.304899084091332
 31
0.0
  0
LINE
  5
5A5
  8
0
  6
CONTINUOUS
 62
     7
 10
55.05261088849273
 20
59.82451332636203
 30
0.0
 11
54.752610888492718
 21
59.304898084091377
 31
0.0
  0
LINE
  5
5A6
  8
0
  6
CONTINUOUS
 62
     7
 10
55.05261088849273
 20
59.82451332636203
 30
0.0
 11
54.752610888492718
 21
60.344128568632662
 31
0.0
  0
LINE
  5
5A7
  8
0
  6
CONTINUOUS
 62
     7
 10
67.452610888492728
 20
59.824514326361978
 30
0.0
 11
67.75261088849274
 21
60.344129568632617
 31
0.0
  0
LINE
  5
5A8
  8
0
  6
CONTINUOUS
 62
     7
 10
67.452610888492728
 20
59.824514326361978
 30
0.0
 11
67.75261088849274
 21
59.304899084091332
 31
0.0
  0
LINE
  5
5A9
  8
0
  6
CONTINUOUS
 62
     7
 10
61.252610388492741
 20
66.024513826362025
 30
0.0
 11
60.732995146222102
 21
66.324513826362022
 31
0.0
  0
LINE
  5
5AA
  8
0
  6
CONTINUOUS
 62
     7
 10
61.252610388492741
 20
66.024513826362025
 30
0.0
 11
61.772225630763408
 21
66.324513826362022
 31
0.0
  0
LINE
  5
5AB
  8
0
  6
CONTINUOUS
 62
     7
 10
51.717076982559959
 20
28.824513826362001
 30
0.0
 11
54.752610888492718
 21
31.86004773229476
 31
0.0
  0
LINE
  5
5AC
  8
0
  6
CONTINUOUS
 62
     7
 10
55.252610888492747
 20
25.288979920429281
 30
0.0
 11
58.288144794425449
 21
28.324513826362018
 31
0.0
  0
LINE
  5
5AD
  8
0
  6
CONTINUOUS
 62
     7
 10
67.752610888492725
 20
31.86004773229476
 30
0.0
 11
70.788144794425492
 21
28.824513826362001
 31
0.0
  0
LINE
  5
5AE
  8
0
  6
CONTINUOUS
 62
     7
 10
64.217076982560002
 20
28.324513826362018
 30
0.0
 11
67.252610888492725
 21
25.288979920429281
 31
0.0
  0
LINE
  5
5AF
  8
0
  6
CONTINUOUS
 62
     7
 10
51.717076982560002
 20
40.824513826361994
 30
0.0
 11
54.752610888492718
 21
37.788979920429277
 31
0.0
  0
LINE
  5
5B0
  8
0
  6
CONTINUOUS
 62
     7
 10
52.58839732611964
 20
42.074513826361994
 30
0.0
 11
53.33839732611964
 21
41.324513826362001
 31
0.0
  0
LINE
  5
5B1
  8
0
  6
CONTINUOUS
 62
     7
 10
51.717076982560002
 20
40.824513826361994
 30
0.0
 11
54.752610888492718
 21
37.788979920429277
 31
0.0
  0
LINE
  5
5B2
  8
0
  6
CONTINUOUS
 62
     7
 10
67.752610888492725
 20
37.788979920429277
 30
0.0
 11
70.788144794425492
 21
40.824513826361994
 31
0.0
  0
LINE
  5
5B3
  8
0
  6
CONTINUOUS
 62
     7
 10
69.166824450865818
 20
41.324513826362001
 30
0.0
 11
69.916824450865846
 21
42.074513826362008
 31
0.0
  0
LINE
  5
5B4
  8
0
  6
CONTINUOUS
 62
     7
 10
52.484486801779539
 20
27.4706033020219
 30
0.0
 11
51.777380020593
 21
26.763496520835389
 31
0.0
  0
LINE
  5
5B5
  8
0
  6
CONTINUOUS
 62
     7
 10
53.89870036415266
 20
26.056389739648811
 30
0.0
 11
53.191593582966092
 21
25.34928295846229
 31
0.0
  0
LINE
  5
5B6
  8
0
  6
CONTINUOUS
 62
     7
 10
53.191593582966078
 20
25.34928295846229
 30
0.0
 11
53.771387968235757
 21
24.769488573192611
 31
0.0
  0
LINE
  5
5B7
  8
0
  6
CONTINUOUS
 62
     7
 10
51.777380020593
 20
26.763496520835389
 30
0.0
 11
51.197585635323321
 21
27.343290906105072
 31
0.0
  0
LINE
  5
5B8
  8
0
  6
CONTINUOUS
 62
     7
 10
53.89870036415266
 20
27.4706033020219
 30
0.0
 11
53.89870036415266
 21
27.4706033020219
 31
0.0
  0
ARC
  5
5B9
  8
0
  6
CONTINUOUS
 62
     7
 10
53.191593582966092
 20
26.763496520835371
 30
0.0
 40
1.0
 50
44.999999999999517
 51
135.00000000000011
  0
ARC
  5
5BA
  8
0
  6
CONTINUOUS
 62
     7
 10
53.191593582966078
 20
26.763496520835371
 30
0.0
 40
1.0
 50
315.00000000000028
 51
44.999999999999922
  0
ARC
  5
5BB
  8
0
  6
CONTINUOUS
 62
     7
 10
50.702610888492742
 20
26.8483161592745
 30
0.0
 40
0.7
 50
44.999999999999922
 51
180.0000000000004
  0
ARC
  5
5BC
  8
0
  6
CONTINUOUS
 62
     7
 10
53.276413221405171
 20
24.274513826362021
 30
0.0
 40
0.7
 50
270.0
 51
45.000000000000313
  0
LINE
  5
5BD
  8
0
  6
CONTINUOUS
 62
     7
 10
72.502610888492697
 20
25.074513826362011
 30
0.0
 11
72.502610888492697
 21
26.84831615927445
 31
0.0
  0
ARC
  5
5BE
  8
0
  6
CONTINUOUS
 62
     7
 10
71.002610888492697
 20
25.074513826362011
 30
0.0
 40
1.5
 50
270.0
 51
0.0
  0
LINE
  5
5BF
  8
0
  6
CONTINUOUS
 62
     7
 10
71.002610888492697
 20
23.574513826362018
 30
0.0
 11
69.228808555580258
 21
23.574513826362018
 31
0.0
  0
LINE
  5
5C0
  8
0
  6
CONTINUOUS
 62
     7
 10
68.606521412832834
 20
26.056389739648811
 30
0.0
 11
69.313628194019358
 21
25.349282958462279
 31
0.0
  0
LINE
  5
5C1
  8
0
  6
CONTINUOUS
 62
     7
 10
70.020734975205912
 20
27.4706033020219
 30
0.0
 11
70.727841756392451
 21
26.763496520835371
 31
0.0
  0
LINE
  5
5C2
  8
0
  6
CONTINUOUS
 62
     7
 10
70.727841756392451
 20
26.763496520835361
 30
0.0
 11
71.307636141662115
 21
27.34329090610505
 31
0.0
  0
LINE
  5
5C3
  8
0
  6
CONTINUOUS
 62
     7
 10
69.313628194019358
 20
25.349282958462279
 30
0.0
 11
68.733833808749679
 21
24.769488573192589
 31
0.0
  0
LINE
  5
5C4
  8
0
  6
CONTINUOUS
 62
     7
 10
68.606521412832834
 20
27.470603302021921
 30
0.0
 11
68.606521412832834
 21
27.4706033020219
 31
0.0
  0
ARC
  5
5C5
  8
0
  6
CONTINUOUS
 62
     7
 10
69.313628194019358
 20
26.763496520835371
 30
0.0
 40
1.0
 50
134.9999999999996
 51
224.9999999999998
  0
ARC
  5
5C6
  8
0
  6
CONTINUOUS
 62
     7
 10
69.313628194019358
 20
26.763496520835371
 30
0.0
 40
1.0
 50
44.999999999999922
 51
135.00000000000011
  0
ARC
  5
5C7
  8
0
  6
CONTINUOUS
 62
     7
 10
69.228808555580258
 20
24.274513826362011
 30
0.0
 40
0.7
 50
135.00000000000011
 51
270.00000000000063
  0
ARC
  5
5C8
  8
0
  6
CONTINUOUS
 62
     7
 10
71.802610888492723
 20
26.848316159274461
 30
0.0
 40
0.7
 50
0.0
 51
135.00000000000011
  0
LINE
  5
5C9
  8
0
  6
CONTINUOUS
 62
     7
 10
51.502610888492747
 20
71.074513826362022
 30
0.0
 11
53.276413221405178
 21
71.074513826362022
 31
0.0
  0
ARC
  5
5CA
  8
0
  6
CONTINUOUS
 62
     7
 10
51.502610888492732
 20
69.574513826362022
 30
0.0
 40
1.5
 50
90.0
 51
180.0
  0
LINE
  5
5CB
  8
0
  6
CONTINUOUS
 62
     7
 10
50.00261088849274
 20
69.574513826362022
 30
0.0
 11
50.00261088849274
 21
67.800711493449569
 31
0.0
  0
LINE
  5
5CC
  8
0
  6
CONTINUOUS
 62
     7
 10
52.484486801779539
 20
67.178424350702116
 30
0.0
 11
51.777380020593
 21
67.885531131888655
 31
0.0
  0
LINE
  5
5CD
  8
0
  6
CONTINUOUS
 62
     7
 10
53.89870036415266
 20
68.592637913075194
 30
0.0
 11
53.1915935829661
 21
69.299744694261719
 31
0.0
  0
LINE
  5
5CE
  8
0
  6
CONTINUOUS
 62
     7
 10
53.191593582966092
 20
69.299744694261719
 30
0.0
 11
53.771387968235771
 21
69.879539079531426
 31
0.0
  0
LINE
  5
5CF
  8
0
  6
CONTINUOUS
 62
     7
 10
51.777380020593
 20
67.885531131888655
 30
0.0
 11
51.197585635323321
 21
67.30573674661899
 31
0.0
  0
LINE
  5
5D0
  8
0
  6
CONTINUOUS
 62
     7
 10
53.89870036415266
 20
67.178424350702116
 30
0.0
 11
53.89870036415266
 21
67.178424350702116
 31
0.0
  0
ARC
  5
5D1
  8
0
  6
CONTINUOUS
 62
     7
 10
53.191593582966092
 20
67.885531131888655
 30
0.0
 40
1.0
 50
224.9999999999998
 51
315.00000000000063
  0
ARC
  5
5D2
  8
0
  6
CONTINUOUS
 62
     7
 10
53.191593582966078
 20
67.885531131888655
 30
0.0
 40
1.0
 50
315.00000000000028
 51
44.999999999999922
  0
ARC
  5
5D3
  8
0
  6
CONTINUOUS
 62
     7
 10
50.702610888492742
 20
67.800711493449512
 30
0.0
 40
0.7
 50
179.9999999999996
 51
315.00000000000028
  0
ARC
  5
5D4
  8
0
  6
CONTINUOUS
 62
     7
 10
53.276413221405171
 20
70.374513826362062
 30
0.0
 40
0.7
 50
314.99999999999949
 51
90.0
  0
LINE
  5
5D5
  8
0
  6
CONTINUOUS
 62
     7
 10
72.502610888492697
 20
69.574513826362022
 30
0.0
 11
72.502610888492697
 21
67.800711493449569
 31
0.0
  0
ARC
  5
5D6
  8
0
  6
CONTINUOUS
 62
     7
 10
71.002610888492697
 20
69.574513826362022
 30
0.0
 40
1.5
 50
0.0
 51
90.0
  0
LINE
  5
5D7
  8
0
  6
CONTINUOUS
 62
     7
 10
71.002610888492697
 20
71.074513826362022
 30
0.0
 11
69.228808555580258
 21
71.074513826362022
 31
0.0
  0
LINE
  5
5D8
  8
0
  6
CONTINUOUS
 62
     7
 10
68.606521412832834
 20
68.592637913075222
 30
0.0
 11
69.313628194019358
 21
69.299744694261719
 31
0.0
  0
LINE
  5
5D9
  8
0
  6
CONTINUOUS
 62
     7
 10
70.020734975205912
 20
67.178424350702116
 30
0.0
 11
70.727841756392451
 21
67.885531131888655
 31
0.0
  0
LINE
  5
5DA
  8
0
  6
CONTINUOUS
 62
     7
 10
70.727841756392451
 20
67.885531131888655
 30
0.0
 11
71.307636141662115
 21
67.30573674661899
 31
0.0
  0
LINE
  5
5DB
  8
0
  6
CONTINUOUS
 62
     7
 10
69.313628194019358
 20
69.299744694261719
 30
0.0
 11
68.733833808749679
 21
69.879539079531455
 31
0.0
  0
LINE
  5
5DC
  8
0
  6
CONTINUOUS
 62
     7
 10
68.606521412832834
 20
67.178424350702116
 30
0.0
 11
68.606521412832834
 21
67.178424350702116
 31
0.0
  0
ARC
  5
5DD
  8
0
  6
CONTINUOUS
 62
     7
 10
69.313628194019358
 20
67.885531131888655
 30
0.0
 40
1.0
 50
135.00000000000011
 51
225.0000000000004
  0
ARC
  5
5DE
  8
0
  6
CONTINUOUS
 62
     7
 10
69.313628194019358
 20
67.885531131888655
 30
0.0
 40
1.0
 50
224.9999999999998
 51
315.00000000000028
  0
ARC
  5
5DF
  8
0
  6
CONTINUOUS
 62
     7
 10
69.228808555580258
 20
70.374513826362048
 30
0.0
 40
0.7
 50
89.999999999999346
 51
224.9999999999998
  0
ARC
  5
5E0
  8
0
  6
CONTINUOUS
 62
     7
 10
71.802610888492723
 20
67.800711493449569
 30
0.0
 40
0.7
 50
224.9999999999998
 51
0.0
  0
LINE
  5
5E1
  8
0
  6
CONTINUOUS
 62
     7
 10
57.670136511646348
 20
32.444120977532748
 30
0.0
 11
58.164855424322511
 21
32.938839890208932
 31
0.0
  0
LINE
  5
5E2
  8
0
  6
CONTINUOUS
 62
     7
 10
58.872218039663473
 20
31.24203944951563
 30
0.0
 11
59.366936952339643
 21
31.736758362191821
 31
0.0
  0
ARC
  5
5E3
  8
0
  6
CONTINUOUS
 62
     7
 10
57.575655888492719
 20
31.14755882636203
 30
0.0
 40
1.3
 50
85.832217027469056
 51
4.167782972530369
  0
ARC
  5
5E4
  8
0
  6
CONTINUOUS
 62
     7
 10
61.252610888492711
 20
34.82451382636205
 30
0.0
 40
3.399999999999999
 50
243.1081004996924
 51
296.89189950030732
  0
ARC
  5
5E5
  8
0
  6
CONTINUOUS
 62
     7
 10
61.252610888492711
 20
34.82451382636205
 30
0.0
 40
3.399999999999999
 50
333.10810049969251
 51
26.89189950030752
  0
ARC
  5
5E6
  8
0
  6
CONTINUOUS
 62
     7
 10
61.252610888492711
 20
34.82451382636205
 30
0.0
 40
3.399999999999999
 50
63.108100499692249
 51
116.8918995003074
  0
ARC
  5
5E7
  8
0
  6
CONTINUOUS
 62
     7
 10
61.252610888492711
 20
34.82451382636205
 30
0.0
 40
3.399999999999999
 50
153.10810049969251
 51
206.89189950030749
  0
ARC
  5
5E8
  8
0
  6
CONTINUOUS
 62
     7
 10
59.579068986695631
 20
31.524626327835819
 30
0.0
 40
0.3
 50
63.108100499693052
 51
134.99999999999869
  0
ARC
  5
5E9
  8
0
  6
CONTINUOUS
 62
     7
 10
57.952723389966529
 20
33.150971924564907
 30
0.0
 40
0.3
 50
315.00000000000063
 51
26.891899500306081
  0
LINE
  5
5EA
  8
0
  6
CONTINUOUS
 62
     7
 10
63.633003737321971
 20
31.24203944951563
 30
0.0
 11
63.13828482464578
 21
31.7367583621918
 31
0.0
  0
LINE
  5
5EB
  8
0
  6
CONTINUOUS
 62
     7
 10
64.835085265339117
 20
32.444120977532748
 30
0.0
 11
64.34036635266294
 21
32.938839890208932
 31
0.0
  0
ARC
  5
5EC
  8
0
  6
CONTINUOUS
 62
     7
 10
64.929565888492704
 20
31.147558826362019
 30
0.0
 40
1.3
 50
175.8322170274688
 51
94.167782972530347
  0
ARC
  5
5ED
  8
0
  6
CONTINUOUS
 62
     7
 10
64.552498387018915
 20
33.150971924564899
 30
0.0
 40
0.3
 50
153.10810049969311
 51
224.99999999999869
  0
ARC
  5
5EE
  8
0
  6
CONTINUOUS
 62
     7
 10
62.926152790289819
 20
31.524626327835819
 30
0.0
 40
0.3
 50
45.000000000000469
 51
116.8918995003061
  0
LINE
  5
5EF
  8
0
  6
CONTINUOUS
 62
     7
 10
64.835085265339117
 20
37.20490667519126
 30
0.0
 11
64.34036635266294
 21
36.710187762515062
 31
0.0
  0
LINE
  5
5F0
  8
0
  6
CONTINUOUS
 62
     7
 10
63.633003737321971
 20
38.4069882032084
 30
0.0
 11
63.138284824645822
 21
37.91226929053223
 31
0.0
  0
ARC
  5
5F1
  8
0
  6
CONTINUOUS
 62
     7
 10
64.929565888492732
 20
38.501468826362
 30
0.0
 40
1.3
 50
265.8322170274688
 51
184.16778297253029
  0
ARC
  5
5F2
  8
0
  6
CONTINUOUS
 62
     7
 10
62.926152790289827
 20
38.124401324888211
 30
0.0
 40
0.3
 50
243.10810049969319
 51
314.99999999999829
  0
ARC
  5
5F3
  8
0
  6
CONTINUOUS
 62
     7
 10
64.552498387018915
 20
36.498055728159123
 30
0.0
 40
0.3
 50
135.0000000000004
 51
206.8918995003061
  0
LINE
  5
5F4
  8
0
  6
CONTINUOUS
 62
     7
 10
58.872218039663473
 20
38.4069882032084
 30
0.0
 11
59.366936952339671
 21
37.91226929053223
 31
0.0
  0
LINE
  5
5F5
  8
0
  6
CONTINUOUS
 62
     7
 10
57.670136511646348
 20
37.204906675191282
 30
0.0
 11
58.164855424322511
 21
36.710187762515112
 31
0.0
  0
ARC
  5
5F6
  8
0
  6
CONTINUOUS
 62
     7
 10
57.57565588849274
 20
38.501468826362007
 30
0.0
 40
1.3
 50
355.8322170274688
 51
274.16778297253018
  0
ARC
  5
5F7
  8
0
  6
CONTINUOUS
 62
     7
 10
57.952723389966529
 20
36.49805572815913
 30
0.0
 40
0.3
 50
333.1081004996928
 51
44.999999999998252
  0
ARC
  5
5F8
  8
0
  6
CONTINUOUS
 62
     7
 10
59.579068986695631
 20
38.124401324888211
 30
0.0
 40
0.3
 50
225.0000000000004
 51
296.89189950030629
  0
LINE
  5
5F9
  8
0
  6
CONTINUOUS
 62
     7
 10
57.670136511646348
 20
57.44412097753272
 30
0.0
 11
58.164855424322518
 21
57.938839890208953
 31
0.0
  0
LINE
  5
5FA
  8
0
  6
CONTINUOUS
 62
     7
 10
58.872218039663473
 20
56.24203944951563
 30
0.0
 11
59.36693695233965
 21
56.736758362191807
 31
0.0
  0
ARC
  5
5FB
  8
0
  6
CONTINUOUS
 62
     7
 10
57.575655888492719
 20
56.147558826362022
 30
0.0
 40
1.3
 50
85.832217027469056
 51
4.167782972530369
  0
ARC
  5
5FC
  8
0
  6
CONTINUOUS
 62
     7
 10
61.252610888492711
 20
59.824513826362022
 30
0.0
 40
3.399999999999999
 50
243.1081004996924
 51
296.89189950030732
  0
ARC
  5
5FD
  8
0
  6
CONTINUOUS
 62
     7
 10
61.252610888492711
 20
59.824513826362022
 30
0.0
 40
3.399999999999999
 50
333.10810049969251
 51
26.89189950030752
  0
ARC
  5
5FE
  8
0
  6
CONTINUOUS
 62
     7
 10
61.252610888492711
 20
59.824513826362022
 30
0.0
 40
3.399999999999999
 50
63.108100499692249
 51
116.8918995003074
  0
ARC
  5
5FF
  8
0
  6
CONTINUOUS
 62
     7
 10
61.252610888492711
 20
59.824513826362022
 30
0.0
 40
3.399999999999999
 50
153.10810049969251
 51
206.89189950030749
  0
ARC
  5
600
  8
0
  6
CONTINUOUS
 62
     7
 10
59.579068986695631
 20
56.524626327835811
 30
0.0
 40
0.3
 50
63.108100499693052
 51
134.99999999999869
  0
ARC
  5
601
  8
0
  6
CONTINUOUS
 62
     7
 10
57.952723389966529
 20
58.150971924564878
 30
0.0
 40
0.3
 50
315.00000000000063
 51
26.891899500306081
  0
LINE
  5
602
  8
0
  6
CONTINUOUS
 62
     7
 10
63.633003737321971
 20
56.24203944951563
 30
0.0
 11
63.13828482464578
 21
56.736758362191807
 31
0.0
  0
LINE
  5
603
  8
0
  6
CONTINUOUS
 62
     7
 10
64.835085265339117
 20
57.44412097753272
 30
0.0
 11
64.34036635266294
 21
57.938839890208911
 31
0.0
  0
ARC
  5
604
  8
0
  6
CONTINUOUS
 62
     7
 10
64.929565888492704
 20
56.147558826362001
 30
0.0
 40
1.3
 50
175.8322170274688
 51
94.167782972530347
  0
ARC
  5
605
  8
0
  6
CONTINUOUS
 62
     7
 10
64.552498387018915
 20
58.150971924564878
 30
0.0
 40
0.3
 50
153.10810049969311
 51
224.99999999999869
  0
ARC
  5
606
  8
0
  6
CONTINUOUS
 62
     7
 10
62.926152790289819
 20
56.524626327835811
 30
0.0
 40
0.3
 50
45.000000000000469
 51
116.8918995003061
  0
LINE
  5
607
  8
0
  6
CONTINUOUS
 62
     7
 10
64.835085265339117
 20
62.20490667519126
 30
0.0
 11
64.34036635266294
 21
61.710187762515041
 31
0.0
  0
LINE
  5
608
  8
0
  6
CONTINUOUS
 62
     7
 10
63.633003737321971
 20
63.406988203208378
 30
0.0
 11
63.138284824645822
 21
62.912269290532208
 31
0.0
  0
ARC
  5
609
  8
0
  6
CONTINUOUS
 62
     7
 10
64.929565888492732
 20
63.501468826361993
 30
0.0
 40
1.3
 50
265.8322170274688
 51
184.16778297253029
  0
ARC
  5
60A
  8
0
  6
CONTINUOUS
 62
     7
 10
62.926152790289827
 20
63.124401324888197
 30
0.0
 40
0.3
 50
243.10810049969319
 51
314.99999999999829
  0
ARC
  5
60B
  8
0
  6
CONTINUOUS
 62
     7
 10
64.552498387018915
 20
61.498055728159073
 30
0.0
 40
0.3
 50
135.0000000000004
 51
206.8918995003061
  0
LINE
  5
60C
  8
0
  6
CONTINUOUS
 62
     7
 10
58.872218039663473
 20
63.406988203208378
 30
0.0
 11
59.366936952339678
 21
62.912269290532208
 31
0.0
  0
LINE
  5
60D
  8
0
  6
CONTINUOUS
 62
     7
 10
57.670136511646348
 20
62.204906675191282
 30
0.0
 11
58.164855424322518
 21
61.710187762515041
 31
0.0
  0
ARC
  5
60E
  8
0
  6
CONTINUOUS
 62
     7
 10
57.57565588849274
 20
63.501468826362022
 30
0.0
 40
1.3
 50
355.8322170274688
 51
274.16778297253018
  0
ARC
  5
60F
  8
0
  6
CONTINUOUS
 62
     7
 10
57.952723389966529
 20
61.498055728159152
 30
0.0
 40
0.3
 50
333.1081004996928
 51
44.999999999998252
  0
ARC
  5
610
  8
0
  6
CONTINUOUS
 62
     7
 10
59.579068986695631
 20
63.124401324888197
 30
0.0
 40
0.3
 50
225.0000000000004
 51
296.89189950030629
  0
LINE
  5
639
  8
0
  6
CONTINUOUS
 62
     7
 10
116.9095413092811
 20
22.724513826362031
 30
0.0
 11
166.90954130928111
 21
22.724513826362031
 31
0.0
  0
LINE
  5
63A
  8
0
  6
CONTINUOUS
 62
     7
 10
116.9095413092811
 20
71.924513826362016
 30
0.0
 11
166.90954130928111
 21
71.924513826362016
 31
0.0
  0
LINE
  5
63B
  8
0
  6
CONTINUOUS
 62
     7
 10
116.9095413092811
 20
71.924513826362016
 30
0.0
 11
116.9095413092811
 21
22.724513826362031
 31
0.0
  0
LINE
  5
63C
  8
CENTER
  6
CENTER
 62
     1
 10
171.90954130928111
 20
34.82451382636205
 30
0.0
 11
111.9095413092811
 21
34.82451382636205
 31
0.0
  0
LINE
  5
640
  8
0
  6
CONTINUOUS
 62
     7
 10
166.90954130928111
 20
71.924513826362016
 30
0.0
 11
166.90954130928111
 21
22.724513826362031
 31
0.0
  0
LINE
  5
642
  8
0
  6
CONTINUOUS
 62
     7
 10
166.90954130928111
 20
37.824513826362043
 30
0.0
 11
116.9095413092811
 21
37.82451382636205
 31
0.0
  0
LINE
  5
643
  8
0
  6
CONTINUOUS
 62
     7
 10
166.90954130928111
 20
31.82451382636204
 30
0.0
 11
116.9095413092811
 21
31.82451382636204
 31
0.0
  0
LINE
  5
644
  8
0
  6
CONTINUOUS
 62
     7
 10
116.9095413092811
 20
35.34412956863266
 30
0.0
 11
166.90954130928111
 21
35.34412956863266
 31
0.0
  0
LINE
  5
645
  8
0
  6
CONTINUOUS
 62
     7
 10
116.9095413092811
 20
34.30489908409136
 30
0.0
 11
166.90954130928111
 21
34.30489908409136
 31
0.0
  0
LINE
  5
6C2
  8
0
  6
CONTINUOUS
 62
     7
 10
48.952610888492671
 20
71.924513826362016
 30
0.0
 11
58.252610888492732
 21
71.924513826362016
 31
0.0
  0
LINE
  5
6C3
  8
0
  6
CONTINUOUS
 62
     7
 10
48.952610888492728
 20
22.724513826362021
 30
0.0
 11
58.252610888492732
 21
22.724513826362021
 31
0.0
  0
LINE
  5
6C4
  8
0
  6
CONTINUOUS
 62
     7
 10
64.252610888492725
 20
22.724513826362021
 30
0.0
 11
73.552610888492779
 21
22.724513826362021
 31
0.0
  0
LINE
  5
6C7
  8
0
  6
CONTINUOUS
 62
     7
 10
64.252610888492725
 20
71.92451382636203
 30
0.0
 11
73.552610888492779
 21
71.924513826362016
 31
0.0
  0
LINE
  5
6C8
  8
CENTER
  6
CENTER
 62
     1
 10
171.90954130928111
 20
59.82451382636205
 30
0.0
 11
111.9095413092811
 21
59.82451382636205
 31
0.0
  0
LINE
  5
6C9
  8
0
  6
CONTINUOUS
 62
     7
 10
166.90954130928111
 20
62.824513826362029
 30
0.0
 11
116.9095413092811
 21
62.82451382636205
 31
0.0
  0
LINE
  5
6CA
  8
0
  6
CONTINUOUS
 62
     7
 10
166.90954130928111
 20
56.824513826362029
 30
0.0
 11
116.9095413092811
 21
56.824513826362029
 31
0.0
  0
LINE
  5
6CB
  8
0
  6
CONTINUOUS
 62
     7
 10
116.9095413092811
 20
60.344129568632653
 30
0.0
 11
166.90954130928111
 21
60.344129568632653
 31
0.0
  0
LINE
  5
6CC
  8
0
  6
CONTINUOUS
 62
     7
 10
116.9095413092811
 20
59.30489908409136
 30
0.0
 11
166.90954130928111
 21
59.30489908409136
 31
0.0
  0
LINE
  5
6CD
  8
CENTER
  6
CENTER
 62
     1
 10
171.90954130928111
 20
47.32451382636205
 30
0.0
 11
111.9095413092811
 21
47.32451382636205
 31
0.0
  0
ENDSEC
  0
EOF
