  0
SECTION
  2
HEADER
  9
$ACADVER
  1
AC1009
  9
$INSBASE
 10
0.0
 20
0.0
 30
0.0
  9
$EXTMIN
 10
62.154716015763249
 20
44.152733564237842
 30
0.0
  9
$EXTMAX
 10
208.32204292431399
 20
122.06689332202301
 30
0.0
  9
$LIMMIN
 10
0.0
 20
0.0
  9
$LIMMAX
 10
297.0
 20
210.0
  9
$ORTHOMODE
 70
     0
  9
$REGENMODE
 70
     1
  9
$FILLMODE
 70
     1
  9
$QTEXTMODE
 70
     0
  9
$MIRRTEXT
 70
     1
  9
$DRAGMODE
 70
     2
  9
$LTSCALE
 40
1.0
  9
$OSMODE
 70
    57
  9
$ATTMODE
 70
     1
  9
$TEXTSIZE
 40
6.4000000000000012
  9
$TRACEWID
 40
0.05
  9
$TEXTSTYLE
  7
STANDARD
  9
$CLAYER
  8
0
  9
$CELTYPE
  6
CONTINUOUS
  9
$CECOLOR
 62
     7
  9
$DIMSCALE
 40
1.0
  9
$DIMASZ
 40
3.0
  9
$DIMEXO
 40
1.0
  9
$DIMDLI
 40
0.0
  9
$DIMRND
 40
0.0
  9
$DIMDLE
 40
0.0
  9
$DIMEXE
 40
1.0
  9
$DIMTP
 40
0.0
  9
$DIMTM
 40
0.0
  9
$DIMTXT
 40
3.2000000000000002
  9
$DIMCEN
 40
0.0
  9
$DIMTSZ
 40
0.0
  9
$DIMTOL
 70
     0
  9
$DIMLIM
 70
     0
  9
$DIMTIH
 70
     0
  9
$DIMTOH
 70
     0
  9
$DIMSE1
 70
     0
  9
$DIMSE2
 70
     0
  9
$DIMTAD
 70
     1
  9
$DIMZIN
 70
     8
  9
$DIMBLK
  1

  9
$DIMASO
 70
     1
  9
$DIMSHO
 70
     1
  9
$DIMPOST
  1

  9
$DIMAPOST
  1

  9
$DIMALT
 70
     0
  9
$DIMALTD
 70
     2
  9
$DIMALTF
 40
0.04
  9
$DIMLFAC
 40
1.0
  9
$DIMTOFL
 70
     1
  9
$DIMTVP
 40
1.0
  9
$DIMTIX
 70
     1
  9
$DIMSOXD
 70
     0
  9
$DIMSAH
 70
     0
  9
$DIMBLK1
  1

  9
$DIMBLK2
  1

  9
$DIMSTYLE
  2
MISUMI
  9
$DIMCLRD
 70
     0
  9
$DIMCLRE
 70
     0
  9
$DIMCLRT
 70
     0
  9
$DIMTFAC
 40
0.6
  9
$DIMGAP
 40
1.0
  9
$LUNITS
 70
     2
  9
$LUPREC
 70
     4
  9
$SKETCHINC
 40
0.1
  9
$FILLETRAD
 40
0.0
  9
$AUNITS
 70
     0
  9
$AUPREC
 70
     0
  9
$MENU
  1
acad
  9
$ELEVATION
 40
0.0
  9
$PELEVATION
 40
0.0
  9
$THICKNESS
 40
0.0
  9
$LIMCHECK
 70
     0
  9
$BLIPMODE
 70
     1
  9
$CHAMFERA
 40
0.5
  9
$CHAMFERB
 40
0.5
  9
$SKPOLY
 70
     0
  9
$TDCREATE
 40
2451464.6006649309
  9
$TDUPDATE
 40
2453776.7021533102
  9
$TDINDWG
 40
0.1963325463
  9
$TDUSRTIMER
 40
0.1963301736
  9
$USRTIMER
 70
     1
  9
$ANGBASE
 50
0.0
  9
$ANGDIR
 70
     0
  9
$PDMODE
 70
     0
  9
$PDSIZE
 40
0.0
  9
$PLINEWID
 40
0.0
  9
$COORDS
 70
     0
  9
$SPLFRAME
 70
     0
  9
$SPLINETYPE
 70
     6
  9
$SPLINESEGS
 70
     8
  9
$ATTDIA
 70
     0
  9
$ATTREQ
 70
     1
  9
$HANDLING
 70
     1
  9
$HANDSEED
  5
2104
  9
$SURFTAB1
 70
     6
  9
$SURFTAB2
 70
     6
  9
$SURFTYPE
 70
     6
  9
$SURFU
 70
     6
  9
$SURFV
 70
     6
  9
$UCSNAME
  2

  9
$UCSORG
 10
0.0
 20
0.0
 30
0.0
  9
$UCSXDIR
 10
1.0
 20
0.0
 30
0.0
  9
$UCSYDIR
 10
0.0
 20
1.0
 30
0.0
  9
$PUCSNAME
  2

  9
$PUCSORG
 10
0.0
 20
0.0
 30
0.0
  9
$PUCSXDIR
 10
1.0
 20
0.0
 30
0.0
  9
$PUCSYDIR
 10
0.0
 20
1.0
 30
0.0
  9
$USERI1
 70
     0
  9
$USERI2
 70
     0
  9
$USERI3
 70
     0
  9
$USERI4
 70
     0
  9
$USERI5
 70
     0
  9
$USERR1
 40
0.0
  9
$USERR2
 40
0.0
  9
$USERR3
 40
0.0
  9
$USERR4
 40
0.0
  9
$USERR5
 40
0.0
  9
$WORLDVIEW
 70
     1
  9
$SHADEDGE
 70
     3
  9
$SHADEDIF
 70
    70
  9
$TILEMODE
 70
     1
  9
$MAXACTVP
 70
    16
  9
$PLIMCHECK
 70
     0
  9
$PEXTMIN
 10
1.0000000000000000E+020
 20
1.0000000000000000E+020
 30
1.0000000000000000E+020
  9
$PEXTMAX
 10
-1.0000000000000000E+020
 20
-1.0000000000000000E+020
 30
-1.0000000000000000E+020
  9
$PLIMMIN
 10
0.0
 20
0.0
  9
$PLIMMAX
 10
12.0
 20
9.0
  9
$UNITMODE
 70
     0
  9
$VISRETAIN
 70
     0
  9
$PLINEGEN
 70
     0
  9
$PSLTSCALE
 70
     1
  0
ENDSEC
  0
SECTION
  2
TABLES
  0
TABLE
  2
VPORT
 70
     2
  0
VPORT
  2
*ACTIVE
 70
     0
 10
0.0
 20
0.0
 11
1.0
 21
1.0
 12
148.40756910896951
 22
91.358843179076331
 13
0.0
 23
0.0
 14
10.0
 24
10.0
 15
10.0
 25
10.0
 16
0.0
 26
0.0
 36
1.0
 17
0.0
 27
0.0
 37
0.0
 40
143.05376550969541
 41
1.5717852684144811
 42
50.0
 43
0.0
 44
0.0
 50
0.0
 51
0.0
 71
     0
 72
   100
 73
     1
 74
     0
 75
     0
 76
     0
 77
     0
 78
     0
  0
ENDTAB
  0
TABLE
  2
LTYPE
 70
     2
  0
LTYPE
  2
CONTINUOUS
 70
     0
  3
Solid line
 72
    65
 73
     0
 40
0.0
  0
LTYPE
  2
CENTER
 70
     0
  3
Center ____ _ ____ _ ____ _ ____ _ ____ _ ____
 72
    65
 73
     4
 40
2.0
 49
1.25
 49
-0.25
 49
0.25
 49
-0.25
  0
ENDTAB
  0
TABLE
  2
LAYER
 70
     2
  0
LAYER
  2
0
 70
     0
 62
     7
  6
CONTINUOUS
  0
LAYER
  2
CENTER
 70
     0
 62
     1
  6
CENTER
  0
ENDTAB
  0
TABLE
  2
STYLE
 70
     1
  0
STYLE
  2
STANDARD
 70
     0
 40
0.0
 41
1.0
 50
0.0
 71
     0
 42
6.4000000000000012
  3
txt
  4

  0
ENDTAB
  0
TABLE
  2
VIEW
 70
     0
  0
ENDTAB
  0
TABLE
  2
UCS
 70
     0
  0
ENDTAB
  0
TABLE
  2
APPID
 70
     2
  0
APPID
  2
ACAD
 70
     0
  0
APPID
  2
ACAD_DSTYLE_DIMTEXT_FILL
 70
     0
  0
ENDTAB
  0
TABLE
  2
DIMSTYLE
 70
     1
  0
DIMSTYLE
  2
MISUMI
 70
     0
  3

  4

  5

  6

  7

 40
1.0
 41
3.0
 42
1.0
 43
0.0
 44
1.0
 45
0.0
 46
0.0
 47
0.0
 48
0.0
140
3.2000000000000002
141
0.0
142
0.0
143
0.04
144
1.0
145
1.0
146
0.6
147
1.0
 71
     0
 72
     0
 73
     0
 74
     0
 75
     0
 76
     0
 77
     1
 78
     8
170
     0
171
     2
172
     1
173
     0
174
     1
175
     0
176
     0
177
     0
178
     0
  0
ENDTAB
  0
ENDSEC
  0
SECTION
  2
BLOCKS
  0
BLOCK
  8
0
  2
$MODEL_SPACE
 70
     0
 10
0.0
 20
0.0
 30
0.0
  3
$MODEL_SPACE
  1

  0
ENDBLK
  5
2091
  8
0
  0
BLOCK
 67
     1
  8
0
  2
$PAPER_SPACE
 70
     0
 10
0.0
 20
0.0
 30
0.0
  3
$PAPER_SPACE
  1

  0
ENDBLK
  5
208D
 67
     1
  8
0
  0
ENDSEC
  0
SECTION
  2
ENTITIES
  0
LINE
  5
502
  8
0
  6
CONTINUOUS
 62
     7
 10
106.5568437403907
 20
87.027531322014198
 30
0.0
 11
106.5568437403907
 21
89.44727807975228
 31
0.0
  0
LINE
  5
503
  8
0
  6
CONTINUOUS
 62
     7
 10
114.55684374039041
 20
87.027551172024204
 30
0.0
 11
114.55684374039051
 21
89.44728187064878
 31
0.0
  0
LINE
  5
504
  8
CENTER
  6
CENTER
 62
     1
 10
110.55684374039051
 20
77.866893322022932
 30
0.0
 11
110.55684374039051
 21
122.06689332202301
 31
0.0
  0
TEXT
  5
505
  8
0
  6
CONTINUOUS
 62
     7
 10
62.154716015763249
 20
50.58578548777777
 30
0.0
 40
4.0
  1
HFSP5-2040-50
  0
TEXT
  5
506
  8
0
  6
CONTINUOUS
 62
     7
 10
62.154716015763249
 20
44.152733564237842
 30
0.0
 40
4.0
  1
HP52040
  0
LINE
  5
507
  8
0
  6
CONTINUOUS
 62
     7
 10
113.55684374039051
 20
80.366893322022932
 30
0.0
 11
120.3568437403905
 21
80.366893322022932
 31
0.0
  0
LINE
  5
508
  8
0
  6
CONTINUOUS
 62
     7
 10
120.55684374039051
 20
86.966893322022955
 30
0.0
 11
118.55684374039051
 21
86.966893322022997
 31
0.0
  0
LINE
  5
509
  8
0
  6
CONTINUOUS
 62
     7
 10
120.55684374039051
 20
80.966893322022912
 30
0.0
 11
120.55684374039051
 21
86.966893322022955
 31
0.0
  0
LINE
  5
50B
  8
0
  6
CONTINUOUS
 62
     7
 10
100.75684374039039
 20
80.366893322022932
 30
0.0
 11
107.55684374039051
 21
80.366893322022932
 31
0.0
  0
LINE
  5
50C
  8
0
  6
CONTINUOUS
 62
     7
 10
100.55684374039051
 20
86.966893322022997
 30
0.0
 11
102.55684374039051
 21
86.966893322022997
 31
0.0
  0
LINE
  5
50E
  8
0
  6
CONTINUOUS
 62
     7
 10
117.6175090903905
 20
83.966884822023019
 30
0.0
 11
114.55684374039041
 21
87.027551172024204
 31
0.0
  0
LINE
  5
50F
  8
0
  6
CONTINUOUS
 62
     7
 10
116.55684374039051
 20
81.966893322022912
 30
0.0
 11
113.55684374039051
 21
81.966893322022912
 31
0.0
  0
LINE
  5
510
  8
0
  6
CONTINUOUS
 62
     7
 10
116.55684994039041
 20
82.906224322022894
 30
0.0
 11
113.4961670403862
 21
85.966893322022699
 31
0.0
  0
LINE
  5
511
  8
0
  6
CONTINUOUS
 62
     7
 10
116.55684374039051
 20
81.966893322022912
 30
0.0
 11
116.55684374039051
 21
82.906224322022894
 31
0.0
  0
LINE
  5
512
  8
0
  6
CONTINUOUS
 62
     7
 10
118.55684374039051
 20
83.966893322023054
 30
0.0
 11
118.55684374039051
 21
86.966893322022997
 31
0.0
  0
LINE
  5
513
  8
0
  6
CONTINUOUS
 62
     7
 10
117.61750394039051
 20
83.966893322023054
 30
0.0
 11
118.55684374039051
 21
83.966893322023054
 31
0.0
  0
LINE
  5
514
  8
0
  6
CONTINUOUS
 62
     7
 10
113.55684374039051
 20
80.366893322022932
 30
0.0
 11
113.55684374039051
 21
81.966893322022912
 31
0.0
  0
LINE
  5
516
  8
0
  6
CONTINUOUS
 62
     7
 10
103.4961977403905
 20
83.966883822022893
 30
0.0
 11
106.5568437403907
 21
87.027531322014198
 31
0.0
  0
LINE
  5
517
  8
0
  6
CONTINUOUS
 62
     7
 10
104.5568457403908
 20
82.906212822022937
 30
0.0
 11
107.6175389403855
 21
85.966893322022699
 31
0.0
  0
LINE
  5
518
  8
0
  6
CONTINUOUS
 62
     7
 10
104.5568437403906
 20
81.966893322022912
 30
0.0
 11
107.55684374039051
 21
81.966893322022912
 31
0.0
  0
LINE
  5
519
  8
0
  6
CONTINUOUS
 62
     7
 10
107.55684374039051
 20
80.366893322022932
 30
0.0
 11
107.55684374039051
 21
81.966893322022912
 31
0.0
  0
LINE
  5
51C
  8
0
  6
CONTINUOUS
 62
     7
 10
104.5568437403906
 20
81.966893322022912
 30
0.0
 11
104.5568437403906
 21
82.906224322022894
 31
0.0
  0
LINE
  5
51D
  8
0
  6
CONTINUOUS
 62
     7
 10
102.55684374039051
 20
83.966893322023054
 30
0.0
 11
102.55684374039051
 21
86.966893322022997
 31
0.0
  0
LINE
  5
51E
  8
0
  6
CONTINUOUS
 62
     7
 10
102.55684374039051
 20
83.966893322023054
 30
0.0
 11
103.4961862403905
 21
83.966893322023054
 31
0.0
  0
LINE
  5
51F
  8
0
  6
CONTINUOUS
 62
     7
 10
100.55684374039051
 20
80.966893322022912
 30
0.0
 11
100.55684374039051
 21
86.966893322022997
 31
0.0
  0
LINE
  5
521
  8
0
  6
CONTINUOUS
 62
     7
 10
205.8220429243141
 20
119.56689282202299
 30
0.0
 11
155.8220429243143
 21
119.56689282202299
 31
0.0
  0
LINE
  5
522
  8
0
  6
CONTINUOUS
 62
     7
 10
155.8220429243143
 20
80.366892822023004
 30
0.0
 11
205.8220429243141
 21
80.366892822023004
 31
0.0
  0
LINE
  5
523
  8
0
  6
CONTINUOUS
 62
     7
 10
205.8220429243141
 20
92.966892822022956
 30
0.0
 11
155.8220429243143
 21
92.966892822022956
 31
0.0
  0
LINE
  5
524
  8
0
  6
CONTINUOUS
 62
     7
 10
205.8220429243141
 20
86.966892822023013
 30
0.0
 11
155.8220429243143
 21
86.966892822023013
 31
0.0
  0
LINE
  5
525
  8
0
  6
CONTINUOUS
 62
     7
 10
113.55684374039051
 20
119.56689332202301
 30
0.0
 11
120.3568437403905
 21
119.56689332202291
 31
0.0
  0
LINE
  5
526
  8
0
  6
CONTINUOUS
 62
     7
 10
155.8220429243143
 20
119.56689282202299
 30
0.0
 11
155.8220429243143
 21
80.366892822023004
 31
0.0
  0
LINE
  5
527
  8
0
  6
CONTINUOUS
 62
     7
 10
120.55684374039051
 20
112.9668933220229
 30
0.0
 11
118.55684374039051
 21
112.9668933220229
 31
0.0
  0
LINE
  5
528
  8
0
  6
CONTINUOUS
 62
     7
 10
120.55684374039051
 20
106.9668933220229
 30
0.0
 11
118.55684374039051
 21
106.9668933220229
 31
0.0
  0
LINE
  5
529
  8
0
  6
CONTINUOUS
 62
     7
 10
120.55684374039051
 20
92.966893322022997
 30
0.0
 11
118.55684374039051
 21
92.966893322022997
 31
0.0
  0
LINE
  5
52A
  8
CENTER
  6
CENTER
 62
     1
 10
105.9568438403905
 20
109.966893322023
 30
0.0
 11
115.15684074039051
 21
109.966893322023
 31
0.0
  0
LINE
  5
52B
  8
CENTER
  6
CENTER
 62
     1
 10
105.95684834039049
 20
89.966893322023012
 30
0.0
 11
115.15684364039051
 21
89.966893322023012
 31
0.0
  0
LINE
  5
52C
  8
0
  6
CONTINUOUS
 62
     7
 10
120.55684374039051
 20
92.966893322022997
 30
0.0
 11
120.55684374039051
 21
106.9668933220229
 31
0.0
  0
LINE
  5
52D
  8
0
  6
CONTINUOUS
 62
     7
 10
120.55684374039051
 20
118.9668933220229
 30
0.0
 11
120.55684374039051
 21
112.9668933220229
 31
0.0
  0
LINE
  5
52F
  8
0
  6
CONTINUOUS
 62
     7
 10
100.75684374039049
 20
119.56689332202291
 30
0.0
 11
107.5568437403906
 21
119.56689332202301
 31
0.0
  0
LINE
  5
530
  8
0
  6
CONTINUOUS
 62
     7
 10
100.55684374039051
 20
112.9668933220229
 30
0.0
 11
102.55684374039051
 21
112.9668933220229
 31
0.0
  0
LINE
  5
531
  8
0
  6
CONTINUOUS
 62
     7
 10
100.55684374039051
 20
106.9668933220229
 30
0.0
 11
102.55684374039051
 21
106.9668933220229
 31
0.0
  0
LINE
  5
532
  8
0
  6
CONTINUOUS
 62
     7
 10
100.55684374039051
 20
92.966893322022997
 30
0.0
 11
102.55684374039051
 21
92.966893322022997
 31
0.0
  0
LINE
  5
533
  8
0
  6
CONTINUOUS
 62
     7
 10
102.55684374039051
 20
103.966893322023
 30
0.0
 11
102.55684374039051
 21
106.9668933220229
 31
0.0
  0
LINE
  5
534
  8
0
  6
CONTINUOUS
 62
     7
 10
117.4083095403905
 20
102.05476382202291
 30
0.0
 11
113.4961752403905
 21
105.9668933220227
 31
0.0
  0
LINE
  5
535
  8
0
  6
CONTINUOUS
 62
     7
 10
117.61750874039051
 20
103.96690632202299
 30
0.0
 11
114.55684374039051
 21
107.0275721720359
 31
0.0
  0
LINE
  5
536
  8
0
  6
CONTINUOUS
 62
     7
 10
118.55684374039051
 20
103.966893322023
 30
0.0
 11
118.55684374039051
 21
106.9668933220229
 31
0.0
  0
LINE
  5
537
  8
0
  6
CONTINUOUS
 62
     7
 10
103.4961872403906
 20
103.96689582202301
 30
0.0
 11
106.5568437403908
 21
107.0275533220216
 31
0.0
  0
LINE
  5
538
  8
0
  6
CONTINUOUS
 62
     7
 10
103.7053747403906
 20
102.05476382202291
 30
0.0
 11
107.6175087403906
 21
105.9668933220227
 31
0.0
  0
CIRCLE
  5
53A
  8
0
  6
CONTINUOUS
 62
     7
 10
110.55684374039051
 20
89.966893322023012
 30
0.0
 40
2.099999899999998
  0
LINE
  5
53B
  8
0
  6
CONTINUOUS
 62
     7
 10
117.40832029039051
 20
97.879029422022924
 30
0.0
 11
113.4961751903901
 21
93.966893322022742
 31
0.0
  0
LINE
  5
53C
  8
0
  6
CONTINUOUS
 62
     7
 10
117.61750874039051
 20
95.966875958023067
 30
0.0
 11
114.55684374039041
 21
92.906210172010361
 31
0.0
  0
LINE
  5
53D
  8
0
  6
CONTINUOUS
 62
     7
 10
118.55684374039051
 20
95.966893318022997
 30
0.0
 11
118.55684374039051
 21
92.966893322022997
 31
0.0
  0
LINE
  5
53E
  8
0
  6
CONTINUOUS
 62
     7
 10
117.6175001403905
 20
95.966893318022997
 30
0.0
 11
118.55684374039051
 21
95.966893318022997
 31
0.0
  0
LINE
  5
542
  8
0
  6
CONTINUOUS
 62
     7
 10
118.55684374539049
 20
98.266881522022743
 30
0.0
 11
118.55684374539049
 21
101.6669053220229
 31
0.0
  0
ARC
  5
543
  8
0
  6
CONTINUOUS
 62
     7
 10
117.62044889039051
 20
97.666905822022784
 30
0.0
 40
0.30000001
 50
90.0
 51
135.000001
  0
ARC
  5
544
  8
0
  6
CONTINUOUS
 62
     7
 10
118.25684459453259
 20
98.266881487880582
 30
0.0
 40
0.2999999758578618
 50
269.99999111876701
 51
0.0000065206675259
  0
LINE
  5
545
  8
0
  6
CONTINUOUS
 62
     7
 10
118.25684460039039
 20
97.966893572022997
 30
0.0
 11
117.62044889039051
 21
97.966893572022997
 31
0.0
  0
ARC
  5
546
  8
0
  6
CONTINUOUS
 62
     7
 10
117.6204431903905
 20
102.2668808220228
 30
0.0
 40
0.30000001
 50
225.0
 51
270.00000999999992
  0
ARC
  5
547
  8
0
  6
CONTINUOUS
 62
     7
 10
118.25684459453259
 20
101.666905356165
 30
0.0
 40
0.2999999758578601
 50
359.99999347932982
 51
89.999998881231704
  0
LINE
  5
548
  8
0
  6
CONTINUOUS
 62
     7
 10
118.25684460039039
 20
101.966892822023
 30
0.0
 11
117.6204431903905
 21
101.966892822023
 31
0.0
  0
LINE
  5
549
  8
0
  6
CONTINUOUS
 62
     7
 10
117.6175001403905
 20
103.966893322023
 30
0.0
 11
118.55684374039051
 21
103.966893322023
 31
0.0
  0
LINE
  5
54A
  8
0
  6
CONTINUOUS
 62
     7
 10
103.70536424039049
 20
97.879030022022974
 30
0.0
 11
107.6175092403919
 21
93.966893322022727
 31
0.0
  0
LINE
  5
54B
  8
0
  6
CONTINUOUS
 62
     7
 10
103.4961872403906
 20
95.966887262022993
 30
0.0
 11
106.5568437403907
 21
92.906229522024702
 31
0.0
  0
LINE
  5
54F
  8
0
  6
CONTINUOUS
 62
     7
 10
102.55684374039051
 20
95.966893327022987
 30
0.0
 11
102.55684374039051
 21
92.966893322022997
 31
0.0
  0
LINE
  5
550
  8
0
  6
CONTINUOUS
 62
     7
 10
102.55684374039051
 20
95.966893327022987
 30
0.0
 11
103.49618424039051
 21
95.966893327022987
 31
0.0
  0
LINE
  5
551
  8
0
  6
CONTINUOUS
 62
     7
 10
102.5568437403909
 20
98.266881522022743
 30
0.0
 11
102.5568437403909
 21
101.6669053220229
 31
0.0
  0
LINE
  5
552
  8
0
  6
CONTINUOUS
 62
     7
 10
102.8568427403905
 20
97.966893572022997
 30
0.0
 11
103.49323924039049
 21
97.966893572022997
 31
0.0
  0
ARC
  5
553
  8
0
  6
CONTINUOUS
 62
     7
 10
102.8568427403905
 20
98.266881522022743
 30
0.0
 40
0.30000001
 50
180.00000299999991
 51
270.00000999999992
  0
ARC
  5
554
  8
0
  6
CONTINUOUS
 62
     7
 10
103.4932392023302
 20
97.666908144345356
 30
0.0
 40
0.2999976876774562
 50
44.999816282348171
 51
89.999992730958084
  0
LINE
  5
555
  8
0
  6
CONTINUOUS
 62
     7
 10
102.8568427403905
 20
101.966892822023
 30
0.0
 11
103.4932442403906
 21
101.966892822023
 31
0.0
  0
ARC
  5
556
  8
0
  6
CONTINUOUS
 62
     7
 10
102.8568427403905
 20
101.6669053220229
 30
0.0
 40
0.30000001
 50
90.0
 51
180.00000299999991
  0
ARC
  5
557
  8
0
  6
CONTINUOUS
 62
     7
 10
103.4932442023301
 20
102.2668784997007
 30
0.0
 40
0.2999976876778877
 50
269.99999726899972
 51
315.0001837176153
  0
LINE
  5
558
  8
0
  6
CONTINUOUS
 62
     7
 10
102.55684374039051
 20
103.966893322023
 30
0.0
 11
103.49618424039051
 21
103.966893322023
 31
0.0
  0
CIRCLE
  5
55A
  8
0
  6
CONTINUOUS
 62
     7
 10
110.55684374039051
 20
109.966893322023
 30
0.0
 40
2.099999899999998
  0
LINE
  5
55B
  8
0
  6
CONTINUOUS
 62
     7
 10
113.4961852403905
 20
105.96688932202279
 30
0.0
 11
107.61750224039071
 21
105.96688932202279
 31
0.0
  0
LINE
  5
55C
  8
0
  6
CONTINUOUS
 62
     7
 10
117.61750874039051
 20
115.9668973220231
 30
0.0
 11
114.55684374039051
 21
112.90623197202
 31
0.0
  0
LINE
  5
55E
  8
0
  6
CONTINUOUS
 62
     7
 10
116.5568494903905
 20
117.0275588220228
 30
0.0
 11
113.4961842403995
 21
113.9668933220229
 31
0.0
  0
LINE
  5
560
  8
0
  6
CONTINUOUS
 62
     7
 10
114.55684374039051
 20
107.0275721720359
 30
0.0
 11
114.55684374039051
 21
109.44727807975219
 31
0.0
  0
LINE
  5
564
  8
0
  6
CONTINUOUS
 62
     7
 10
116.55684374039051
 20
117.9668933220229
 30
0.0
 11
113.55684374039051
 21
117.9668933220229
 31
0.0
  0
LINE
  5
565
  8
0
  6
CONTINUOUS
 62
     7
 10
117.61750394039051
 20
115.9668933220229
 30
0.0
 11
118.55684374039051
 21
115.9668933220229
 31
0.0
  0
LINE
  5
566
  8
0
  6
CONTINUOUS
 62
     7
 10
116.55684374039051
 20
117.9668933220229
 30
0.0
 11
116.55684374039051
 21
117.027562322023
 31
0.0
  0
LINE
  5
567
  8
0
  6
CONTINUOUS
 62
     7
 10
113.55684374039051
 20
119.56689332202301
 30
0.0
 11
113.55684374039051
 21
117.9668933220229
 31
0.0
  0
LINE
  5
568
  8
0
  6
CONTINUOUS
 62
     7
 10
102.55684374039051
 20
115.9668933220229
 30
0.0
 11
102.55684374039051
 21
112.9668933220229
 31
0.0
  0
LINE
  5
569
  8
0
  6
CONTINUOUS
 62
     7
 10
103.4961977403905
 20
115.9668973220231
 30
0.0
 11
106.5568437403908
 21
112.9062498220249
 31
0.0
  0
LINE
  5
56A
  8
0
  6
CONTINUOUS
 62
     7
 10
104.5568467403906
 20
117.0275683220229
 30
0.0
 11
107.6175222403332
 21
113.9668933220229
 31
0.0
  0
LINE
  5
56C
  8
0
  6
CONTINUOUS
 62
     7
 10
106.5568437403908
 20
107.0275533220216
 30
0.0
 11
106.5568437403908
 21
109.447285873981
 31
0.0
  0
LINE
  5
56F
  8
0
  6
CONTINUOUS
 62
     7
 10
107.6175222403332
 20
113.9668933220229
 30
0.0
 11
110.03725967503409
 21
113.9668933220229
 31
0.0
  0
LINE
  5
571
  8
0
  6
CONTINUOUS
 62
     7
 10
104.5568437403906
 20
117.9668933220229
 30
0.0
 11
107.5568437403906
 21
117.9668933220229
 31
0.0
  0
LINE
  5
572
  8
0
  6
CONTINUOUS
 62
     7
 10
107.5568437403906
 20
119.56689332202301
 30
0.0
 11
107.5568437403906
 21
117.9668933220229
 31
0.0
  0
LINE
  5
573
  8
0
  6
CONTINUOUS
 62
     7
 10
104.5568437403906
 20
117.9668933220229
 30
0.0
 11
104.5568437403906
 21
117.027562322023
 31
0.0
  0
LINE
  5
574
  8
0
  6
CONTINUOUS
 62
     7
 10
102.55684374039051
 20
115.9668933220229
 30
0.0
 11
103.4961862403905
 21
115.9668933220229
 31
0.0
  0
LINE
  5
575
  8
0
  6
CONTINUOUS
 62
     7
 10
100.55684374039051
 20
92.966893322022997
 30
0.0
 11
100.55684374039051
 21
106.9668933220229
 31
0.0
  0
LINE
  5
576
  8
0
  6
CONTINUOUS
 62
     7
 10
100.55684374039051
 20
118.9668933220229
 30
0.0
 11
100.55684374039051
 21
112.9668933220229
 31
0.0
  0
LINE
  5
578
  8
0
  6
CONTINUOUS
 62
     7
 10
205.8220429243141
 20
119.56689282202299
 30
0.0
 11
205.8220429243141
 21
80.366892822023004
 31
0.0
  0
LINE
  5
10D7
  8
0
  6
CONTINUOUS
 62
     7
 10
106.8568392403907
 20
109.966893322023
 30
0.0
 11
106.5568437403908
 21
109.447285873981
 31
0.0
  0
LINE
  5
10D8
  8
0
  6
CONTINUOUS
 62
     7
 10
106.8568392403907
 20
109.966893322023
 30
0.0
 11
106.5568437403908
 21
110.48650077006501
 31
0.0
  0
LINE
  5
10DA
  8
0
  6
CONTINUOUS
 62
     7
 10
106.5568437403908
 20
110.48650077006501
 30
0.0
 11
106.5568437403908
 21
112.9062498220249
 31
0.0
  0
LINE
  5
10DF
  8
0
  6
CONTINUOUS
 62
     7
 10
114.25684374039049
 20
109.966893322023
 30
0.0
 11
114.55684374039051
 21
110.4865085642936
 31
0.0
  0
LINE
  5
10E0
  8
0
  6
CONTINUOUS
 62
     7
 10
114.25684374039049
 20
109.966893322023
 30
0.0
 11
114.55684374039051
 21
109.44727807975219
 31
0.0
  0
LINE
  5
10E1
  8
0
  6
CONTINUOUS
 62
     7
 10
110.55684374039051
 20
113.6669113220227
 30
0.0
 11
110.0372362923485
 21
113.96690682202269
 31
0.0
  0
LINE
  5
10E2
  8
0
  6
CONTINUOUS
 62
     7
 10
110.55684374039051
 20
113.6669113220227
 30
0.0
 11
111.0764511884325
 21
113.96690682202269
 31
0.0
  0
LINE
  5
10E6
  8
0
  6
CONTINUOUS
 62
     7
 10
111.076427805747
 20
113.9668933220229
 30
0.0
 11
113.4961842403995
 21
113.9668933220229
 31
0.0
  0
LINE
  5
10E7
  8
0
  6
CONTINUOUS
 62
     7
 10
114.55684374039051
 20
110.4865085642936
 30
0.0
 11
114.55684374039051
 21
112.90623197202
 31
0.0
  0
LINE
  5
10EA
  8
0
  6
CONTINUOUS
 62
     7
 10
114.2568456403904
 20
89.966893822022996
 30
0.0
 11
114.55684564039041
 21
90.486509064293628
 31
0.0
  0
LINE
  5
10EB
  8
0
  6
CONTINUOUS
 62
     7
 10
114.2568456403904
 20
89.966893822022996
 30
0.0
 11
114.55684564039041
 21
89.447278579752279
 31
0.0
  0
LINE
  5
10EC
  8
0
  6
CONTINUOUS
 62
     7
 10
114.55684374039041
 20
90.486505773397127
 30
0.0
 11
114.55684374039041
 21
92.906210172010361
 31
0.0
  0
LINE
  5
10F4
  8
0
  6
CONTINUOUS
 62
     7
 10
107.6175389403855
 20
85.966893322022699
 30
0.0
 11
110.03725967503409
 21
85.966893322022699
 31
0.0
  0
LINE
  5
10F5
  8
0
  6
CONTINUOUS
 62
     7
 10
111.076427805747
 20
85.966893322022699
 30
0.0
 11
113.4961670403862
 21
85.966893322022699
 31
0.0
  0
LINE
  5
10F6
  8
0
  6
CONTINUOUS
 62
     7
 10
110.55684374039051
 20
86.266875322022912
 30
0.0
 11
110.0372362923485
 21
85.966879822022918
 31
0.0
  0
LINE
  5
10F7
  8
0
  6
CONTINUOUS
 62
     7
 10
110.55684374039051
 20
86.266875322022912
 30
0.0
 11
111.0764511884325
 21
85.966879822022918
 31
0.0
  0
LINE
  5
10F9
  8
0
  6
CONTINUOUS
 62
     7
 10
106.8568437403907
 20
89.966893322023012
 30
0.0
 11
106.5568437403907
 21
89.447278079752309
 31
0.0
  0
LINE
  5
10FA
  8
0
  6
CONTINUOUS
 62
     7
 10
106.8568437403907
 20
89.966893322023012
 30
0.0
 11
106.5568437403907
 21
90.486508564293572
 31
0.0
  0
LINE
  5
1108
  8
0
  6
CONTINUOUS
 62
     7
 10
106.5568437403907
 20
90.486508564293572
 30
0.0
 11
106.5568437403907
 21
92.906229522024702
 31
0.0
  0
LINE
  5
110D
  8
CENTER
  6
CENTER
 62
     1
 10
153.3220429243143
 20
89.966892822023027
 30
0.0
 11
208.32204292431399
 21
89.966892822023027
 31
0.0
  0
LINE
  5
1178
  8
0
  6
CONTINUOUS
 62
     7
 10
205.8220429243141
 20
90.486500270064994
 30
0.0
 11
155.8220429243143
 21
90.486500270064994
 31
0.0
  0
LINE
  5
1179
  8
0
  6
CONTINUOUS
 62
     7
 10
205.8220429243141
 20
89.447285373980975
 30
0.0
 11
155.8220429243143
 21
89.447285373980975
 31
0.0
  0
LINE
  5
12FC
  8
0
  6
CONTINUOUS
 62
     7
 10
205.8220429243141
 20
112.9668928220229
 30
0.0
 11
155.8220429243143
 21
112.9668928220229
 31
0.0
  0
LINE
  5
12FD
  8
0
  6
CONTINUOUS
 62
     7
 10
205.8220429243141
 20
106.966892822023
 30
0.0
 11
155.8220429243143
 21
106.966892822023
 31
0.0
  0
LINE
  5
12FE
  8
CENTER
  6
CENTER
 62
     1
 10
153.3220429243143
 20
109.966892822023
 30
0.0
 11
208.32204292431399
 21
109.966892822023
 31
0.0
  0
LINE
  5
12FF
  8
0
  6
CONTINUOUS
 62
     7
 10
205.8220429243141
 20
110.48650027006499
 30
0.0
 11
155.8220429243143
 21
110.48650027006499
 31
0.0
  0
LINE
  5
1300
  8
0
  6
CONTINUOUS
 62
     7
 10
205.8220429243141
 20
109.447285373981
 30
0.0
 11
155.8220429243143
 21
109.447285373981
 31
0.0
  0
ARC
  5
1510
  8
0
  6
CONTINUOUS
 62
     7
 10
101.55684374039051
 20
118.9668933220229
 30
0.0
 40
1.0
 50
143.13010235415729
 51
180.0
  0
ARC
  5
1511
  8
0
  6
CONTINUOUS
 62
     7
 10
119.55684374039051
 20
118.9668933220229
 30
0.0
 40
1.0
 50
0.0
 51
36.869897645840929
  0
ARC
  5
1512
  8
0
  6
CONTINUOUS
 62
     7
 10
119.55684374039051
 20
80.966893322022841
 30
0.0
 40
1.0
 50
323.13010235416078
 51
0.0000000000024427
  0
ARC
  5
1513
  8
0
  6
CONTINUOUS
 62
     7
 10
101.55684374039051
 20
80.966893322022912
 30
0.0
 40
1.0
 50
179.9999999999992
 51
216.8698976458416
  0
LINE
  5
15BE
  8
CENTER
  6
CENTER
 62
     1
 10
98.056843740390491
 20
99.966893322023012
 30
0.0
 11
123.05684374039051
 21
99.966893322023012
 31
0.0
  0
LINE
  5
1A0A
  8
0
  6
CONTINUOUS
 62
     7
 10
107.6175092403919
 20
93.966893322022727
 30
0.0
 11
113.4961751903901
 21
93.966893322022742
 31
0.0
  0
LINE
  5
1D02
  8
0
  6
CONTINUOUS
 62
     7
 10
118.55684374039051
 20
115.9668933220229
 30
0.0
 11
118.55684374039051
 21
112.9668933220229
 31
0.0
  0
ENDSEC
  0
EOF
