  0
SECTION
  2
HEADER
  9
$ACADVER
  1
AC1009
  9
$INSBASE
 10
0.0
 20
0.0
 30
0.0
  9
$EXTMIN
 10
-0.0000000958959845
 20
0.00000005413645
 30
0.0
  9
$EXTMAX
 10
147.99999990410399
 20
65.000000054136464
 30
0.0
  9
$LIMMIN
 10
0.0
 20
0.0
  9
$LIMMAX
 10
297.0
 20
210.0
  9
$ORTHOMODE
 70
     0
  9
$REGENMODE
 70
     1
  9
$FILLMODE
 70
     1
  9
$QTEXTMODE
 70
     0
  9
$MIRRTEXT
 70
     1
  9
$DRAGMODE
 70
     2
  9
$LTSCALE
 40
1.0
  9
$OSMODE
 70
    57
  9
$ATTMODE
 70
     1
  9
$TEXTSIZE
 40
6.4000000000000012
  9
$TRACEWID
 40
0.05
  9
$TEXTSTYLE
  7
STANDARD
  9
$CLAYER
  8
0
  9
$CELTYPE
  6
CONTINUOUS
  9
$CECOLOR
 62
     7
  9
$DIMSCALE
 40
1.0
  9
$DIMASZ
 40
3.0
  9
$DIMEXO
 40
1.0
  9
$DIMDLI
 40
0.0
  9
$DIMRND
 40
0.0
  9
$DIMDLE
 40
0.0
  9
$DIMEXE
 40
1.0
  9
$DIMTP
 40
0.0
  9
$DIMTM
 40
0.0
  9
$DIMTXT
 40
3.2000000000000002
  9
$DIMCEN
 40
0.0
  9
$DIMTSZ
 40
0.0
  9
$DIMTOL
 70
     0
  9
$DIMLIM
 70
     0
  9
$DIMTIH
 70
     0
  9
$DIMTOH
 70
     0
  9
$DIMSE1
 70
     0
  9
$DIMSE2
 70
     0
  9
$DIMTAD
 70
     1
  9
$DIMZIN
 70
     8
  9
$DIMBLK
  1

  9
$DIMASO
 70
     1
  9
$DIMSHO
 70
     1
  9
$DIMPOST
  1

  9
$DIMAPOST
  1

  9
$DIMALT
 70
     0
  9
$DIMALTD
 70
     2
  9
$DIMALTF
 40
0.04
  9
$DIMLFAC
 40
1.0
  9
$DIMTOFL
 70
     1
  9
$DIMTVP
 40
1.0
  9
$DIMTIX
 70
     1
  9
$DIMSOXD
 70
     0
  9
$DIMSAH
 70
     0
  9
$DIMBLK1
  1

  9
$DIMBLK2
  1

  9
$DIMSTYLE
  2
MISUMI
  9
$DIMCLRD
 70
     0
  9
$DIMCLRE
 70
     0
  9
$DIMCLRT
 70
     0
  9
$DIMTFAC
 40
0.6
  9
$DIMGAP
 40
1.0
  9
$LUNITS
 70
     2
  9
$LUPREC
 70
     4
  9
$SKETCHINC
 40
0.1
  9
$FILLETRAD
 40
0.0
  9
$AUNITS
 70
     0
  9
$AUPREC
 70
     0
  9
$MENU
  1
acad
  9
$ELEVATION
 40
0.0
  9
$PELEVATION
 40
0.0
  9
$THICKNESS
 40
0.0
  9
$LIMCHECK
 70
     0
  9
$BLIPMODE
 70
     1
  9
$CHAMFERA
 40
0.5
  9
$CHAMFERB
 40
0.5
  9
$SKPOLY
 70
     0
  9
$TDCREATE
 40
2451464.6006649309
  9
$TDUPDATE
 40
2453776.7023339821
  9
$TDINDWG
 40
0.2751284722
  9
$TDUSRTIMER
 40
0.2751134606
  9
$USRTIMER
 70
     1
  9
$ANGBASE
 50
0.0
  9
$ANGDIR
 70
     0
  9
$PDMODE
 70
     0
  9
$PDSIZE
 40
0.0
  9
$PLINEWID
 40
0.0
  9
$COORDS
 70
     0
  9
$SPLFRAME
 70
     0
  9
$SPLINETYPE
 70
     6
  9
$SPLINESEGS
 70
     8
  9
$ATTDIA
 70
     0
  9
$ATTREQ
 70
     1
  9
$HANDLING
 70
     1
  9
$HANDSEED
  5
2A21
  9
$SURFTAB1
 70
     6
  9
$SURFTAB2
 70
     6
  9
$SURFTYPE
 70
     6
  9
$SURFU
 70
     6
  9
$SURFV
 70
     6
  9
$UCSNAME
  2

  9
$UCSORG
 10
0.0
 20
0.0
 30
0.0
  9
$UCSXDIR
 10
1.0
 20
0.0
 30
0.0
  9
$UCSYDIR
 10
0.0
 20
1.0
 30
0.0
  9
$PUCSNAME
  2

  9
$PUCSORG
 10
0.0
 20
0.0
 30
0.0
  9
$PUCSXDIR
 10
1.0
 20
0.0
 30
0.0
  9
$PUCSYDIR
 10
0.0
 20
1.0
 30
0.0
  9
$USERI1
 70
     0
  9
$USERI2
 70
     0
  9
$USERI3
 70
     0
  9
$USERI4
 70
     0
  9
$USERI5
 70
     0
  9
$USERR1
 40
0.0
  9
$USERR2
 40
0.0
  9
$USERR3
 40
0.0
  9
$USERR4
 40
0.0
  9
$USERR5
 40
0.0
  9
$WORLDVIEW
 70
     1
  9
$SHADEDGE
 70
     3
  9
$SHADEDIF
 70
    70
  9
$TILEMODE
 70
     1
  9
$MAXACTVP
 70
    16
  9
$PLIMCHECK
 70
     0
  9
$PEXTMIN
 10
1.0000000000000000E+020
 20
1.0000000000000000E+020
 30
1.0000000000000000E+020
  9
$PEXTMAX
 10
-1.0000000000000000E+020
 20
-1.0000000000000000E+020
 30
-1.0000000000000000E+020
  9
$PLIMMIN
 10
0.0
 20
0.0
  9
$PLIMMAX
 10
12.0
 20
9.0
  9
$UNITMODE
 70
     0
  9
$VISRETAIN
 70
     0
  9
$PLINEGEN
 70
     0
  9
$PSLTSCALE
 70
     1
  0
ENDSEC
  0
SECTION
  2
TABLES
  0
TABLE
  2
VPORT
 70
     2
  0
VPORT
  2
*ACTIVE
 70
     0
 10
0.0
 20
0.0
 11
1.0
 21
1.0
 12
90.000470542326639
 22
32.493555378822407
 13
0.0
 23
0.0
 14
10.0
 24
10.0
 15
10.0
 25
10.0
 16
0.0
 26
0.0
 36
1.0
 17
0.0
 27
0.0
 37
0.0
 40
115.18216698697969
 41
1.5717852684144811
 42
50.0
 43
0.0
 44
0.0
 50
0.0
 51
0.0
 71
     0
 72
   100
 73
     1
 74
     0
 75
     0
 76
     0
 77
     0
 78
     0
  0
ENDTAB
  0
TABLE
  2
LTYPE
 70
     2
  0
LTYPE
  2
CONTINUOUS
 70
     0
  3
Solid line
 72
    65
 73
     0
 40
0.0
  0
LTYPE
  2
CENTER
 70
     0
  3
Center ____ _ ____ _ ____ _ ____ _ ____ _ ____
 72
    65
 73
     4
 40
2.0
 49
1.25
 49
-0.25
 49
0.25
 49
-0.25
  0
ENDTAB
  0
TABLE
  2
LAYER
 70
     2
  0
LAYER
  2
0
 70
     0
 62
     7
  6
CONTINUOUS
  0
LAYER
  2
CENTER
 70
     0
 62
     1
  6
CENTER
  0
ENDTAB
  0
TABLE
  2
STYLE
 70
     1
  0
STYLE
  2
STANDARD
 70
     0
 40
0.0
 41
1.0
 50
0.0
 71
     0
 42
6.4000000000000012
  3
txt
  4

  0
ENDTAB
  0
TABLE
  2
VIEW
 70
     0
  0
ENDTAB
  0
TABLE
  2
UCS
 70
     0
  0
ENDTAB
  0
TABLE
  2
APPID
 70
     2
  0
APPID
  2
ACAD
 70
     0
  0
APPID
  2
ACAD_DSTYLE_DIMTEXT_FILL
 70
     0
  0
ENDTAB
  0
TABLE
  2
DIMSTYLE
 70
     1
  0
DIMSTYLE
  2
MISUMI
 70
     0
  3

  4

  5

  6

  7

 40
1.0
 41
3.0
 42
1.0
 43
0.0
 44
1.0
 45
0.0
 46
0.0
 47
0.0
 48
0.0
140
3.2000000000000002
141
0.0
142
0.0
143
0.04
144
1.0
145
1.0
146
0.6
147
1.0
 71
     0
 72
     0
 73
     0
 74
     0
 75
     0
 76
     0
 77
     1
 78
     8
170
     0
171
     2
172
     1
173
     0
174
     1
175
     0
176
     0
177
     0
178
     0
  0
ENDTAB
  0
ENDSEC
  0
SECTION
  2
BLOCKS
  0
BLOCK
  8
0
  2
$MODEL_SPACE
 70
     0
 10
0.0
 20
0.0
 30
0.0
  3
$MODEL_SPACE
  1

  0
ENDBLK
  5
29BB
  8
0
  0
BLOCK
 67
     1
  8
0
  2
$PAPER_SPACE
 70
     0
 10
0.0
 20
0.0
 30
0.0
  3
$PAPER_SPACE
  1

  0
ENDBLK
  5
29B7
 67
     1
  8
0
  0
ENDSEC
  0
SECTION
  2
ENTITIES
  0
LINE
  5
57E
  8
CENTER
  6
CENTER
 62
     1
 10
39.999999904104008
 20
65.000000054136464
 30
0.0
 11
39.999999904104008
 21
15.00000005413645
 31
0.0
  0
LINE
  5
580
  8
0
  6
CONTINUOUS
 62
     7
 10
22.939316343706011
 20
44.000000053739072
 30
0.0
 11
25.999999908662879
 21
47.060683118692552
 31
0.0
  0
LINE
  5
582
  8
0
  6
CONTINUOUS
 62
     7
 10
27.06064997275579
 20
46.000000053739079
 30
0.0
 11
22.939327510232321
 21
41.87864950041488
 31
0.0
  0
LINE
  5
584
  8
0
  6
CONTINUOUS
 62
     7
 10
53.999999904104001
 20
47.060682893302072
 30
0.0
 11
57.060683243670091
 21
44.000000053739072
 31
0.0
  0
LINE
  5
585
  8
0
  6
CONTINUOUS
 62
     7
 10
57.060681217284149
 20
41.878657609703602
 30
0.0
 11
52.939344161858408
 21
46.000000053739079
 31
0.0
  0
LINE
  5
587
  8
CENTER
  6
CENTER
 62
     1
 10
49.99999990866803
 20
54.599999953739079
 30
0.0
 11
49.99999990866803
 21
45.400000153739079
 31
0.0
  0
LINE
  5
588
  8
CENTER
  6
CENTER
 62
     1
 10
29.999999908662868
 20
54.599999953739079
 30
0.0
 11
29.999999908662868
 21
45.400000153739079
 31
0.0
  0
TEXT
  5
589
  8
0
  6
CONTINUOUS
 62
     7
 10
-0.0000000958959845
 20
5.628914435878781
 30
0.0
 40
2.0
  1
HFSP5-4040-50
  0
TEXT
  5
58A
  8
0
  6
CONTINUOUS
 62
     7
 10
-0.0000000958959845
 20
0.00000005413645
 30
0.0
 40
2.0
  1
HP54040
  0
LINE
  5
58B
  8
CENTER
  6
CENTER
 62
     1
 10
14.999999904104
 20
40.00000005413645
 30
0.0
 11
64.999999904104001
 21
40.00000005413645
 31
0.0
  0
LINE
  5
58E
  8
0
  6
CONTINUOUS
 62
     7
 10
32.9393396127683
 20
26.000000053722442
 30
0.0
 11
35.999999908662893
 21
22.939344447827189
 31
0.0
  0
LINE
  5
58F
  8
0
  6
CONTINUOUS
 62
     7
 10
33.9999999086629
 20
27.06066104372324
 30
0.0
 11
37.910407942751782
 21
23.15024005845606
 31
0.0
  0
LINE
  5
590
  8
CENTER
  6
CENTER
 62
     1
 10
25.400000008662889
 20
30.000000053722449
 30
0.0
 11
34.599999808662893
 21
30.000000053722449
 31
0.0
  0
LINE
  5
59A
  8
0
  6
CONTINUOUS
 62
     7
 10
22.93931796451788
 20
36.000000053722438
 30
0.0
 11
25.999999904104001
 21
32.939318614139211
 31
0.0
  0
LINE
  5
59B
  8
0
  6
CONTINUOUS
 62
     7
 10
27.060638464517371
 20
34.000000053722452
 30
0.0
 11
22.93931765410353
 21
38.121320190861219
 31
0.0
  0
LINE
  5
59F
  8
0
  6
CONTINUOUS
 62
     7
 10
25.999999904104001
 20
27.060688924927881
 30
0.0
 11
22.939314722895109
 21
24.000000053722449
 31
0.0
  0
LINE
  5
5A3
  8
0
  6
CONTINUOUS
 62
     7
 10
23.999999908662868
 20
22.939348489566239
 30
0.0
 11
27.06064257281783
 21
26.000000053722442
 31
0.0
  0
ARC
  5
5A9
  8
0
  6
CONTINUOUS
 62
     7
 10
29.99999990866289
 20
30.000000053722449
 30
0.0
 40
2.099999899999998
 50
71.564618939595206
 51
18.434940858807721
  0
LINE
  5
5AD
  8
0
  6
CONTINUOUS
 62
     7
 10
30.664093215010851
 20
31.992229874918731
 30
0.0
 11
31.333350136478639
 21
34.000000053722452
 31
0.0
  0
LINE
  5
5AE
  8
0
  6
CONTINUOUS
 62
     7
 10
33.9999999086629
 20
31.33333276927808
 30
0.0
 11
31.992234832007512
 21
30.664078053814361
 31
0.0
  0
LINE
  5
5B0
  8
0
  6
CONTINUOUS
 62
     7
 10
22.93931765410353
 20
38.121320190861219
 30
0.0
 11
21.999999904104001
 21
38.121320190861219
 31
0.0
  0
LINE
  5
5B3
  8
0
  6
CONTINUOUS
 62
     7
 10
22.939327510232321
 20
41.87864950041488
 30
0.0
 11
21.999999904104001
 21
41.87864950041488
 31
0.0
  0
LINE
  5
5B6
  8
0
  6
CONTINUOUS
 62
     7
 10
41.999974324204679
 20
22.302694324295238
 30
0.0
 11
41.999974324204679
 21
22.933686700433931
 31
0.0
  0
LINE
  5
5B8
  8
0
  6
CONTINUOUS
 62
     7
 10
37.999986694779487
 20
22.933686700434109
 30
0.0
 11
37.999986694779487
 21
22.302694324295398
 31
0.0
  0
LINE
  5
5BB
  8
0
  6
CONTINUOUS
 62
     7
 10
38.299974644575613
 20
22.000004356214038
 30
0.0
 11
41.699986374408567
 21
22.000004356214038
 31
0.0
  0
ARC
  5
5BC
  8
0
  6
CONTINUOUS
 62
     7
 10
38.299974644575613
 20
22.30000436604448
 30
0.0
 40
0.3000000098304405
 50
179.48624894972161
 51
270.00000000000119
  0
ARC
  5
5BD
  8
0
  6
CONTINUOUS
 62
     7
 10
41.699986374408567
 20
22.30000436604448
 30
0.0
 40
0.3000000098304405
 50
270.0
 51
0.5137510502463061
  0
LINE
  5
5C5
  8
0
  6
CONTINUOUS
 62
     7
 10
43.99999990866803
 20
22.93934606869356
 30
0.0
 11
47.060658583695968
 21
26.000000053722442
 31
0.0
  0
LINE
  5
5C6
  8
0
  6
CONTINUOUS
 62
     7
 10
42.089553069614759
 20
23.15024006119333
 30
0.0
 11
45.999999908668038
 21
27.06068650041879
 31
0.0
  0
ARC
  5
5C7
  8
0
  6
CONTINUOUS
 62
     7
 10
37.69999894485327
 20
22.936398856856371
 30
0.0
 40
0.3000000098304405
 50
359.48200923957421
 51
45.463515389549293
  0
ARC
  5
5C8
  8
0
  6
CONTINUOUS
 62
     7
 10
42.29996207404804
 20
22.936398866023492
 30
0.0
 40
0.3000000098304385
 50
134.53648636134881
 51
180.5179925113238
  0
ARC
  5
5CA
  8
0
  6
CONTINUOUS
 62
     7
 10
49.999999908668038
 20
30.000000053722449
 30
0.0
 40
2.099999899999998
 50
161.5652777814966
 51
108.4353494595853
  0
LINE
  5
5CE
  8
0
  6
CONTINUOUS
 62
     7
 10
48.007762451220792
 20
30.664070451454592
 30
0.0
 11
45.999999908668038
 21
31.3333243311411
 31
0.0
  0
LINE
  5
5CF
  8
0
  6
CONTINUOUS
 62
     7
 10
49.33590770111131
 20
31.992230241191368
 30
0.0
 11
48.666650901734357
 21
34.000000053722452
 31
0.0
  0
LINE
  5
5D1
  8
0
  6
CONTINUOUS
 62
     7
 10
57.060682838184491
 20
38.121317075037723
 30
0.0
 11
52.93936539548077
 21
34.000000053722452
 31
0.0
  0
LINE
  5
5D2
  8
0
  6
CONTINUOUS
 62
     7
 10
53.999999904104001
 20
32.939315593348113
 30
0.0
 11
57.060684864481743
 21
36.000000053722431
 31
0.0
  0
LINE
  5
5D5
  8
0
  6
CONTINUOUS
 62
     7
 10
57.060681622859001
 20
24.000000053722449
 30
0.0
 11
53.999999904104001
 21
27.060685462474531
 31
0.0
  0
LINE
  5
5D6
  8
0
  6
CONTINUOUS
 62
     7
 10
52.93935156191538
 20
26.000000053722442
 30
0.0
 11
55.999999908668038
 21
22.939343626969318
 31
0.0
  0
LINE
  5
5DF
  8
0
  6
CONTINUOUS
 62
     7
 10
57.060682838184491
 20
38.121317075037723
 30
0.0
 11
58.000000338184343
 21
38.121317075037723
 31
0.0
  0
LINE
  5
5E2
  8
0
  6
CONTINUOUS
 62
     7
 10
57.060681217284149
 20
41.878657609703602
 30
0.0
 11
58.000000338184343
 21
41.878657609703602
 31
0.0
  0
LINE
  5
5E4
  8
0
  6
CONTINUOUS
 62
     7
 10
33.9999999086629
 20
52.939337443735972
 30
0.0
 11
37.910397053045799
 21
56.849769318683123
 31
0.0
  0
LINE
  5
5E5
  8
0
  6
CONTINUOUS
 62
     7
 10
32.939357604590761
 20
54.000000053739072
 30
0.0
 11
35.999999908662893
 21
57.060636047814697
 31
0.0
  0
LINE
  5
5E7
  8
CENTER
  6
CENTER
 62
     1
 10
25.400000008662889
 20
50.000000053739079
 30
0.0
 11
34.599999808662893
 21
50.000000053739079
 31
0.0
  0
LINE
  5
5F1
  8
0
  6
CONTINUOUS
 62
     7
 10
25.999999908662879
 20
52.93931442038226
 30
0.0
 11
22.939319585329208
 21
56.000000053739072
 31
0.0
  0
LINE
  5
5F5
  8
0
  6
CONTINUOUS
 62
     7
 10
23.999999908662868
 20
57.060638489539031
 30
0.0
 11
27.060631064459631
 21
54.000000053739072
 31
0.0
  0
ARC
  5
5F7
  8
0
  6
CONTINUOUS
 62
     7
 10
29.99999990866289
 20
50.000000053739079
 30
0.0
 40
2.099999899999998
 50
341.56505914119799
 51
288.43519785974883
  0
LINE
  5
5F8
  8
0
  6
CONTINUOUS
 62
     7
 10
30.664086844942972
 20
48.007768109144742
 30
0.0
 11
31.33334305861079
 21
46.000000053739079
 31
0.0
  0
LINE
  5
5F9
  8
0
  6
CONTINUOUS
 62
     7
 10
31.992234832007579
 20
49.335922053647352
 30
0.0
 11
33.9999999086629
 21
48.666667338183451
 31
0.0
  0
LINE
  5
604
  8
0
  6
CONTINUOUS
 62
     7
 10
41.999962831443248
 20
57.697315302300602
 30
0.0
 11
41.999962831443248
 21
57.066322926161803
 31
0.0
  0
LINE
  5
606
  8
0
  6
CONTINUOUS
 62
     7
 10
37.999975202018021
 20
57.066322926161881
 30
0.0
 11
37.999975202018021
 21
57.697315302300531
 31
0.0
  0
LINE
  5
608
  8
0
  6
CONTINUOUS
 62
     7
 10
43.999999908668002
 20
57.060637668681082
 30
0.0
 11
47.060643833606761
 21
54.000000053739072
 31
0.0
  0
LINE
  5
609
  8
0
  6
CONTINUOUS
 62
     7
 10
42.089541576853293
 20
56.849769565402653
 30
0.0
 11
45.999999904104001
 21
52.939324407979413
 31
0.0
  0
ARC
  5
60A
  8
0
  6
CONTINUOUS
 62
     7
 10
37.699987459645747
 20
57.063609934337642
 30
0.0
 40
0.3000000098304405
 50
314.53664416703032
 51
0.518150316967772
  0
ARC
  5
60B
  8
0
  6
CONTINUOUS
 62
     7
 10
42.299950581286602
 20
57.063610760572459
 30
0.0
 40
0.3000000098304385
 50
179.4820074887194
 51
225.46351363863951
  0
ARC
  5
60D
  8
0
  6
CONTINUOUS
 62
     7
 10
49.999999908668023
 20
50.000000053739079
 30
0.0
 40
2.099999899999998
 50
251.56475949845461
 51
198.4343637373654
  0
LINE
  5
60E
  8
0
  6
CONTINUOUS
 62
     7
 10
48.007758296386349
 20
49.335942120804518
 30
0.0
 11
45.999999904104001
 21
48.666685448187067
 31
0.0
  0
LINE
  5
60F
  8
0
  6
CONTINUOUS
 62
     7
 10
48.66665508450496
 20
46.000000053739079
 30
0.0
 11
49.335911489689963
 21
48.007768603385188
 31
0.0
  0
LINE
  5
614
  8
0
  6
CONTINUOUS
 62
     7
 10
38.299963151814161
 20
58.000005270381891
 30
0.0
 11
41.699974881647151
 21
58.000005270381891
 31
0.0
  0
ARC
  5
615
  8
0
  6
CONTINUOUS
 62
     7
 10
38.299963151814161
 20
57.70000526055145
 30
0.0
 40
0.3000000098304405
 50
90.0
 51
180.5137510502793
  0
ARC
  5
616
  8
0
  6
CONTINUOUS
 62
     7
 10
41.699974881647151
 20
57.70000526055145
 30
0.0
 40
0.3000000098304405
 50
359.48624894973221
 51
90.000000000000298
  0
LINE
  5
61F
  8
0
  6
CONTINUOUS
 62
     7
 10
57.060686485292642
 20
56.000000053739079
 30
0.0
 11
53.999999904104001
 21
52.93930816255412
 31
0.0
  0
LINE
  5
620
  8
0
  6
CONTINUOUS
 62
     7
 10
52.939372795468962
 20
54.000000053739072
 30
0.0
 11
55.999999908668023
 21
57.060633626942092
 31
0.0
  0
LINE
  5
628
  8
0
  6
CONTINUOUS
 62
     7
 10
142.99999990410399
 20
59.600000054136459
 30
0.0
 11
142.99999990410399
 21
20.400000054136449
 31
0.0
  0
LINE
  5
629
  8
0
  6
CONTINUOUS
 62
     7
 10
92.999999904104001
 20
59.600000054136459
 30
0.0
 11
92.999999904104001
 21
20.400000054136449
 31
0.0
  0
LINE
  5
62A
  8
0
  6
CONTINUOUS
 62
     7
 10
142.99999990410399
 20
33.000000054136443
 30
0.0
 11
92.999999904104001
 21
33.00000005413645
 31
0.0
  0
LINE
  5
62B
  8
0
  6
CONTINUOUS
 62
     7
 10
142.99999990410399
 20
27.000000054136439
 30
0.0
 11
92.999999904104001
 21
27.000000054136439
 31
0.0
  0
LINE
  5
62C
  8
0
  6
CONTINUOUS
 62
     7
 10
142.99999990410399
 20
20.400000054136449
 30
0.0
 11
92.999999904104001
 21
20.400000054136449
 31
0.0
  0
LINE
  5
62D
  8
CENTER
  6
CENTER
 62
     1
 10
147.99999990410399
 20
40.00000005413645
 30
0.0
 11
87.999999904104001
 21
40.00000005413645
 31
0.0
  0
LINE
  5
630
  8
0
  6
CONTINUOUS
 62
     7
 10
142.99999990410399
 20
59.600000054136459
 30
0.0
 11
92.999999904104001
 21
59.600000054136459
 31
0.0
  0
LINE
  5
631
  8
0
  6
CONTINUOUS
 62
     7
 10
142.99999990410399
 20
53.000000054136457
 30
0.0
 11
92.999999904104001
 21
53.000000054136457
 31
0.0
  0
LINE
  5
632
  8
0
  6
CONTINUOUS
 62
     7
 10
142.99999990410399
 20
47.000000054136422
 30
0.0
 11
92.999999904104001
 21
47.000000054136422
 31
0.0
  0
LINE
  5
8C2
  8
0
  6
CONTINUOUS
 62
     7
 10
19.999999904103991
 20
59.000000054136443
 30
0.0
 11
19.999999904103991
 21
53.300000053739083
 31
0.0
  0
LINE
  5
8C5
  8
0
  6
CONTINUOUS
 62
     7
 10
59.999999904104001
 20
59.000000054136443
 30
0.0
 11
59.999999904104001
 21
53.300000053739083
 31
0.0
  0
LINE
  5
8F2
  8
0
  6
CONTINUOUS
 62
     7
 10
20.199999904104001
 20
59.60000005413643
 30
0.0
 11
26.999999908662851
 21
59.600000054136402
 31
0.0
  0
LINE
  5
8F3
  8
0
  6
CONTINUOUS
 62
     7
 10
20.199999904104001
 20
20.400000054136449
 30
0.0
 11
26.999999908662879
 21
20.400000054136441
 31
0.0
  0
ARC
  5
8F4
  8
0
  6
CONTINUOUS
 62
     7
 10
20.999999904104001
 20
21.00000005413645
 30
0.0
 40
1.0
 50
180.0
 51
216.86989764584419
  0
ARC
  5
8F5
  8
0
  6
CONTINUOUS
 62
     7
 10
58.999999904104001
 20
21.00000005413645
 30
0.0
 40
1.0
 50
323.13010235415572
 51
0.0
  0
ARC
  5
8F6
  8
0
  6
CONTINUOUS
 62
     7
 10
58.999999904104001
 20
59.000000054136443
 30
0.0
 40
1.0
 50
0.0
 51
36.869897645843622
  0
ARC
  5
8F7
  8
0
  6
CONTINUOUS
 62
     7
 10
20.999999904104001
 20
59.000000054136443
 30
0.0
 40
1.0
 50
143.13010235415581
 51
180.0
  0
LINE
  5
942
  8
0
  6
CONTINUOUS
 62
     7
 10
23.999999908662868
 20
58.000000054136422
 30
0.0
 11
26.999999908662851
 21
58.000000054136422
 31
0.0
  0
LINE
  5
944
  8
0
  6
CONTINUOUS
 62
     7
 10
23.999999908662868
 20
22.000000054136429
 30
0.0
 11
26.99999990866289
 21
22.000000054136429
 31
0.0
  0
LINE
  5
947
  8
0
  6
CONTINUOUS
 62
     7
 10
32.9999999086629
 20
58.000000054136422
 30
0.0
 11
35.999999908662893
 21
58.000000054136422
 31
0.0
  0
LINE
  5
948
  8
0
  6
CONTINUOUS
 62
     7
 10
52.999988219106399
 20
58.000000054136457
 30
0.0
 11
55.999999908668023
 21
58.000000054136422
 31
0.0
  0
LINE
  5
954
  8
0
  6
CONTINUOUS
 62
     7
 10
23.999999908662868
 20
58.000000054136422
 30
0.0
 11
23.999999908662868
 21
57.060638489539031
 31
0.0
  0
LINE
  5
955
  8
0
  6
CONTINUOUS
 62
     7
 10
35.999999908662893
 20
58.000000054136422
 30
0.0
 11
35.999999908662893
 21
57.060636047814697
 31
0.0
  0
LINE
  5
96D
  8
0
  6
CONTINUOUS
 62
     7
 10
26.999999908662851
 20
59.600000054136402
 30
0.0
 11
26.999999908662851
 21
58.000000054136422
 31
0.0
  0
LINE
  5
96E
  8
0
  6
CONTINUOUS
 62
     7
 10
32.999999908662879
 20
59.60000005413643
 30
0.0
 11
32.9999999086629
 21
58.000000054136422
 31
0.0
  0
LINE
  5
96F
  8
0
  6
CONTINUOUS
 62
     7
 10
32.999999908662879
 20
59.60000005413643
 30
0.0
 11
46.999999908668023
 21
59.600000054136473
 31
0.0
  0
LINE
  5
9B5
  8
0
  6
CONTINUOUS
 62
     7
 10
46.999999908668023
 20
59.600000054136473
 30
0.0
 11
46.999999908668023
 21
58.000000054136471
 31
0.0
  0
LINE
  5
9B6
  8
0
  6
CONTINUOUS
 62
     7
 10
52.999999908668023
 20
59.600000054136459
 30
0.0
 11
52.999999908668023
 21
57.999985437380879
 31
0.0
  0
LINE
  5
9B7
  8
0
  6
CONTINUOUS
 62
     7
 10
52.999999908668023
 20
59.600000054136459
 30
0.0
 11
59.799999904104013
 21
59.60000005413643
 31
0.0
  0
LINE
  5
9D9
  8
0
  6
CONTINUOUS
 62
     7
 10
43.999999908668002
 20
58.000000054136471
 30
0.0
 11
46.999999908668023
 21
58.000000054136471
 31
0.0
  0
LINE
  5
9F0
  8
0
  6
CONTINUOUS
 62
     7
 10
43.999999908668002
 20
58.000000054136471
 30
0.0
 11
43.999999908668002
 21
57.060637668681082
 31
0.0
  0
LINE
  5
9F1
  8
0
  6
CONTINUOUS
 62
     7
 10
55.999999908668023
 20
58.000000054136422
 30
0.0
 11
55.999999908668023
 21
57.060633626942092
 31
0.0
  0
LINE
  5
A2B
  8
0
  6
CONTINUOUS
 62
     7
 10
33.9999999086629
 20
52.939337443735972
 30
0.0
 11
33.9999999086629
 21
48.666667338183451
 31
0.0
  0
LINE
  5
B91
  8
0
  6
CONTINUOUS
 62
     7
 10
21.999999904104001
 20
56.000000053739072
 30
0.0
 11
21.999999904104001
 21
53.000000053739079
 31
0.0
  0
LINE
  5
B92
  8
0
  6
CONTINUOUS
 62
     7
 10
25.999999904104001
 20
32.939318614139211
 30
0.0
 11
25.999999904104001
 21
30.519623694769258
 31
0.0
  0
LINE
  5
B93
  8
0
  6
CONTINUOUS
 62
     7
 10
33.9999999086629
 20
31.33333276927808
 30
0.0
 11
33.9999999086629
 21
27.06066104372324
 31
0.0
  0
LINE
  5
BAA
  8
0
  6
CONTINUOUS
 62
     7
 10
43.99999990866803
 20
22.93934606869356
 30
0.0
 11
43.99999990866803
 21
22.00000005413645
 31
0.0
  0
LINE
  5
BAB
  8
0
  6
CONTINUOUS
 62
     7
 10
55.999999908668038
 20
22.939343626969318
 30
0.0
 11
55.999999908668038
 21
22.00000005413645
 31
0.0
  0
LINE
  5
BAC
  8
0
  6
CONTINUOUS
 62
     7
 10
52.999999908668052
 20
20.400000054136449
 30
0.0
 11
59.799999904104013
 21
20.400000054136449
 31
0.0
  0
LINE
  5
BD9
  8
0
  6
CONTINUOUS
 62
     7
 10
46.999999908668038
 20
22.00000005413645
 30
0.0
 11
46.999999908668023
 21
20.400000054136449
 31
0.0
  0
LINE
  5
BDB
  8
0
  6
CONTINUOUS
 62
     7
 10
52.999999908668052
 20
22.000000054136461
 30
0.0
 11
55.999999908668038
 21
22.00000005413645
 31
0.0
  0
LINE
  5
C26
  8
0
  6
CONTINUOUS
 62
     7
 10
45.999999908668038
 20
31.3333243311411
 30
0.0
 11
45.999999908668038
 21
27.06068650041879
 31
0.0
  0
LINE
  5
C75
  8
0
  6
CONTINUOUS
 62
     7
 10
26.99999990866289
 20
22.000000054136429
 30
0.0
 11
26.999999908662879
 21
20.400000054136441
 31
0.0
  0
LINE
  5
C76
  8
0
  6
CONTINUOUS
 62
     7
 10
32.9999999086629
 20
22.00000005413645
 30
0.0
 11
32.9999999086629
 21
20.400000054136449
 31
0.0
  0
LINE
  5
C77
  8
0
  6
CONTINUOUS
 62
     7
 10
23.999999908662868
 20
22.939348489566239
 30
0.0
 11
23.999999908662868
 21
22.000000054136429
 31
0.0
  0
LINE
  5
C78
  8
0
  6
CONTINUOUS
 62
     7
 10
35.999999908662893
 20
22.939344447827189
 30
0.0
 11
35.999999908662893
 21
22.000000054136461
 31
0.0
  0
LINE
  5
C79
  8
0
  6
CONTINUOUS
 62
     7
 10
43.99999990866803
 20
22.00000005413645
 30
0.0
 11
46.999999908668038
 21
22.00000005413645
 31
0.0
  0
LINE
  5
CE2
  8
0
  6
CONTINUOUS
 62
     7
 10
32.9999999086629
 20
22.00000005413645
 30
0.0
 11
35.999999908662893
 21
22.000000054136461
 31
0.0
  0
LINE
  5
CE3
  8
0
  6
CONTINUOUS
 62
     7
 10
32.9999999086629
 20
20.400000054136449
 30
0.0
 11
46.999999908668023
 21
20.400000054136449
 31
0.0
  0
LINE
  5
DCF
  8
0
  6
CONTINUOUS
 62
     7
 10
57.999999904103959
 20
56.000000053739079
 30
0.0
 11
57.999999904104001
 21
53.000000053739079
 31
0.0
  0
LINE
  5
DD0
  8
0
  6
CONTINUOUS
 62
     7
 10
53.999999904104001
 20
32.939315593348113
 30
0.0
 11
53.999999904104001
 21
30.519623694769258
 31
0.0
  0
LINE
  5
E08
  8
0
  6
CONTINUOUS
 62
     7
 10
57.999999904104023
 20
33.000000053722452
 30
0.0
 11
59.699999904103997
 21
33.000000053722452
 31
0.0
  0
LINE
  5
E09
  8
0
  6
CONTINUOUS
 62
     7
 10
57.999999904104023
 20
27.000000053722449
 30
0.0
 11
59.699999904104033
 21
27.000000053722449
 31
0.0
  0
LINE
  5
E0A
  8
0
  6
CONTINUOUS
 62
     7
 10
59.999999904104023
 20
26.700000053722452
 30
0.0
 11
59.999999904104001
 21
21.00000005413645
 31
0.0
  0
LINE
  5
E0B
  8
0
  6
CONTINUOUS
 62
     7
 10
57.999999904104023
 20
27.000000053722449
 30
0.0
 11
57.999999904104001
 21
24.000000053722449
 31
0.0
  0
LINE
  5
E2D
  8
0
  6
CONTINUOUS
 62
     7
 10
57.999999904104023
 20
53.000000053739079
 30
0.0
 11
59.699999904103997
 21
53.0000000537391
 31
0.0
  0
LINE
  5
E2E
  8
0
  6
CONTINUOUS
 62
     7
 10
57.999999904104023
 20
47.000000053739072
 30
0.0
 11
59.699999904103997
 21
47.000000053739072
 31
0.0
  0
LINE
  5
E2F
  8
0
  6
CONTINUOUS
 62
     7
 10
57.999999904104001
 20
47.000000053739072
 30
0.0
 11
57.999999904104023
 21
44.000000053739072
 31
0.0
  0
LINE
  5
E30
  8
0
  6
CONTINUOUS
 62
     7
 10
59.999999904104001
 20
46.700000053739082
 30
0.0
 11
59.999999904104001
 21
33.300000053722442
 31
0.0
  0
LINE
  5
E31
  8
0
  6
CONTINUOUS
 62
     7
 10
53.999999904104001
 20
52.93930816255412
 30
0.0
 11
53.999999904104001
 21
50.51960688223479
 31
0.0
  0
LINE
  5
E32
  8
0
  6
CONTINUOUS
 62
     7
 10
45.999999904104001
 20
52.939324407979413
 30
0.0
 11
45.999999904104001
 21
48.666685448187067
 31
0.0
  0
LINE
  5
E4A
  8
0
  6
CONTINUOUS
 62
     7
 10
57.060683243670091
 20
44.000000053739072
 30
0.0
 11
57.999999904104023
 21
44.000000053739072
 31
0.0
  0
LINE
  5
E4B
  8
0
  6
CONTINUOUS
 62
     7
 10
57.060686485292642
 20
56.000000053739079
 30
0.0
 11
57.999999904103959
 21
56.000000053739079
 31
0.0
  0
LINE
  5
E4C
  8
0
  6
CONTINUOUS
 62
     7
 10
57.060684864481743
 20
36.000000053722431
 30
0.0
 11
57.999999904104001
 21
36.000000053722438
 31
0.0
  0
LINE
  5
E4D
  8
0
  6
CONTINUOUS
 62
     7
 10
57.060681622859001
 20
24.000000053722449
 30
0.0
 11
57.999999904104001
 21
24.000000053722449
 31
0.0
  0
LINE
  5
E4F
  8
0
  6
CONTINUOUS
 62
     7
 10
57.999999904104023
 20
41.878657609703602
 30
0.0
 11
57.999999904103987
 21
38.121317075037723
 31
0.0
  0
LINE
  5
E50
  8
0
  6
CONTINUOUS
 62
     7
 10
57.999999904104001
 20
36.000000053722438
 30
0.0
 11
57.999999904104001
 21
33.000000053722452
 31
0.0
  0
LINE
  5
E72
  8
0
  6
CONTINUOUS
 62
     7
 10
20.299999904103998
 20
53.0000000537391
 30
0.0
 11
21.999999904104001
 21
53.000000053739079
 31
0.0
  0
LINE
  5
E73
  8
0
  6
CONTINUOUS
 62
     7
 10
20.299999904103998
 20
47.000000053739072
 30
0.0
 11
21.999999904104001
 21
47.000000053739072
 31
0.0
  0
LINE
  5
E74
  8
0
  6
CONTINUOUS
 62
     7
 10
20.299999904103998
 20
33.000000053722452
 30
0.0
 11
21.999999904104001
 21
33.000000053722452
 31
0.0
  0
LINE
  5
E75
  8
0
  6
CONTINUOUS
 62
     7
 10
20.299999904103998
 20
27.000000053722449
 30
0.0
 11
21.999999904104001
 21
27.000000053722449
 31
0.0
  0
LINE
  5
E76
  8
0
  6
CONTINUOUS
 62
     7
 10
21.999999904103991
 20
36.000000053722438
 30
0.0
 11
21.999999904104001
 21
33.000000053722452
 31
0.0
  0
LINE
  5
E77
  8
0
  6
CONTINUOUS
 62
     7
 10
19.999999904103991
 20
46.70000005373906
 30
0.0
 11
19.999999904103991
 21
33.300000053722442
 31
0.0
  0
LINE
  5
E78
  8
0
  6
CONTINUOUS
 62
     7
 10
21.999999904104001
 20
27.000000053722449
 30
0.0
 11
21.999999904104001
 21
24.000000053722449
 31
0.0
  0
LINE
  5
E79
  8
0
  6
CONTINUOUS
 62
     7
 10
19.999999904103991
 20
26.700000053722452
 30
0.0
 11
19.999999904103991
 21
21.00000005413645
 31
0.0
  0
LINE
  5
E7A
  8
0
  6
CONTINUOUS
 62
     7
 10
21.999999904104001
 20
56.000000053739072
 30
0.0
 11
22.939319585329208
 21
56.000000053739072
 31
0.0
  0
LINE
  5
E7B
  8
0
  6
CONTINUOUS
 62
     7
 10
21.999999904104001
 20
44.000000053739072
 30
0.0
 11
22.939316343706011
 21
44.000000053739072
 31
0.0
  0
LINE
  5
E7C
  8
0
  6
CONTINUOUS
 62
     7
 10
21.999999904103991
 20
36.000000053722438
 30
0.0
 11
22.93931796451788
 21
36.000000053722438
 31
0.0
  0
LINE
  5
E7D
  8
0
  6
CONTINUOUS
 62
     7
 10
21.999999904104001
 20
24.000000053722449
 30
0.0
 11
22.939314722895109
 21
24.000000053722449
 31
0.0
  0
LINE
  5
E7E
  8
0
  6
CONTINUOUS
 62
     7
 10
21.999999904104001
 20
47.000000053739072
 30
0.0
 11
21.999999904104001
 21
44.000000053739072
 31
0.0
  0
LINE
  5
E7F
  8
0
  6
CONTINUOUS
 62
     7
 10
21.999999904104001
 20
41.87864950041488
 30
0.0
 11
21.999999904104001
 21
38.121320190861219
 31
0.0
  0
LINE
  5
E8B
  8
0
  6
CONTINUOUS
 62
     7
 10
27.06064257281783
 20
26.000000053722442
 30
0.0
 11
29.480376250588009
 21
26.000000053722442
 31
0.0
  0
LINE
  5
E8C
  8
0
  6
CONTINUOUS
 62
     7
 10
27.060638464517371
 20
34.000000053722452
 30
0.0
 11
31.333350136478639
 21
34.000000053722452
 31
0.0
  0
LINE
  5
E8D
  8
0
  6
CONTINUOUS
 62
     7
 10
27.06064997275579
 20
46.000000053739079
 30
0.0
 11
31.33334305861079
 21
46.000000053739079
 31
0.0
  0
LINE
  5
E8E
  8
0
  6
CONTINUOUS
 62
     7
 10
27.060631064459631
 20
54.000000053739072
 30
0.0
 11
29.480384666392251
 21
54.000000053739072
 31
0.0
  0
LINE
  5
E91
  8
0
  6
CONTINUOUS
 62
     7
 10
47.060643833606761
 20
54.000000053739072
 30
0.0
 11
49.480393072267212
 21
54.000000053739072
 31
0.0
  0
LINE
  5
E92
  8
0
  6
CONTINUOUS
 62
     7
 10
48.66665508450496
 20
46.000000053739079
 30
0.0
 11
52.939344161858408
 21
46.000000053739079
 31
0.0
  0
LINE
  5
E93
  8
0
  6
CONTINUOUS
 62
     7
 10
48.666650901734357
 20
34.000000053722452
 30
0.0
 11
52.93936539548077
 21
34.000000053722452
 31
0.0
  0
LINE
  5
E94
  8
0
  6
CONTINUOUS
 62
     7
 10
47.060658583695968
 20
26.000000053722442
 30
0.0
 11
49.480393073078567
 21
26.000000053722442
 31
0.0
  0
LINE
  5
1A01
  8
0
  6
CONTINUOUS
 62
     7
 10
52.999999908668052
 20
22.000000054136461
 30
0.0
 11
52.999999908668052
 21
20.400000054136449
 31
0.0
  0
LINE
  5
1D20
  8
0
  6
CONTINUOUS
 62
     7
 10
25.999999908662879
 20
52.93931442038226
 30
0.0
 11
25.999999908662879
 21
50.519614011808038
 31
0.0
  0
LINE
  5
1E29
  8
0
  6
CONTINUOUS
 62
     7
 10
29.999999908662868
 20
53.70000005373906
 30
0.0
 11
29.480384666392219
 21
54.000000053739072
 31
0.0
  0
LINE
  5
1E2A
  8
0
  6
CONTINUOUS
 62
     7
 10
29.999999908662868
 20
53.70000005373906
 30
0.0
 11
30.519615150933529
 21
54.000000053739072
 31
0.0
  0
LINE
  5
1E2B
  8
0
  6
CONTINUOUS
 62
     7
 10
30.519615150933522
 20
54.000000053739043
 30
0.0
 11
32.939357604590761
 21
54.000000053739072
 31
0.0
  0
LINE
  5
1E2E
  8
0
  6
CONTINUOUS
 62
     7
 10
26.29999990866288
 20
49.999998769537413
 30
0.0
 11
25.999999908662879
 21
50.519614011808059
 31
0.0
  0
LINE
  5
1E2F
  8
0
  6
CONTINUOUS
 62
     7
 10
26.29999990866288
 20
49.999998769537413
 30
0.0
 11
25.99999990866289
 21
49.48038352726676
 31
0.0
  0
LINE
  5
1E30
  8
0
  6
CONTINUOUS
 62
     7
 10
25.999999908662879
 20
49.480383527266753
 30
0.0
 11
25.999999908662879
 21
47.060683118692552
 31
0.0
  0
LINE
  5
1E3F
  8
0
  6
CONTINUOUS
 62
     7
 10
50.000008314537851
 20
53.70000005373906
 30
0.0
 11
49.480393072267198
 21
54.000000053739072
 31
0.0
  0
LINE
  5
1E40
  8
0
  6
CONTINUOUS
 62
     7
 10
50.000008314537851
 20
53.70000005373906
 30
0.0
 11
50.519623556808519
 21
54.000000053739072
 31
0.0
  0
LINE
  5
1E41
  8
0
  6
CONTINUOUS
 62
     7
 10
50.519623556808519
 20
54.000000053739072
 30
0.0
 11
52.939372795468962
 21
54.000000053739072
 31
0.0
  0
LINE
  5
1E42
  8
0
  6
CONTINUOUS
 62
     7
 10
53.699999908668012
 20
49.999991647869209
 30
0.0
 11
53.99999990866803
 21
50.519606890139897
 31
0.0
  0
LINE
  5
1E43
  8
0
  6
CONTINUOUS
 62
     7
 10
53.699999908668012
 20
49.999991647869209
 30
0.0
 11
53.999999908668002
 21
49.480376405598562
 31
0.0
  0
LINE
  5
1E44
  8
0
  6
CONTINUOUS
 62
     7
 10
53.999999904104001
 20
49.480376413503649
 30
0.0
 11
53.999999904104001
 21
47.060682893302072
 31
0.0
  0
LINE
  5
1E4B
  8
0
  6
CONTINUOUS
 62
     7
 10
53.699999908668012
 20
30.000008460403691
 30
0.0
 11
53.99999990866803
 21
29.480393218133031
 31
0.0
  0
LINE
  5
1E4C
  8
0
  6
CONTINUOUS
 62
     7
 10
53.699999908668012
 20
30.000008460403691
 30
0.0
 11
53.999999908668002
 21
30.519623702674341
 31
0.0
  0
LINE
  5
1E4D
  8
0
  6
CONTINUOUS
 62
     7
 10
53.999999904104023
 20
29.480393226038121
 30
0.0
 11
53.999999904104001
 21
27.060685462474531
 31
0.0
  0
LINE
  5
1E4E
  8
0
  6
CONTINUOUS
 62
     7
 10
50.000008315349291
 20
26.300000053722481
 30
0.0
 11
49.480393073078623
 21
26.000000053722481
 31
0.0
  0
LINE
  5
1E4F
  8
0
  6
CONTINUOUS
 62
     7
 10
50.000008315349291
 20
26.300000053722481
 30
0.0
 11
50.51962355761993
 21
26.000000053722481
 31
0.0
  0
LINE
  5
1E50
  8
0
  6
CONTINUOUS
 62
     7
 10
50.519623557619987
 20
26.000000053722442
 30
0.0
 11
52.93935156191538
 21
26.000000053722442
 31
0.0
  0
LINE
  5
1E51
  8
0
  6
CONTINUOUS
 62
     7
 10
26.299999899540008
 20
30.000008460403691
 30
0.0
 11
25.999999899540001
 21
29.480393218133031
 31
0.0
  0
LINE
  5
1E52
  8
0
  6
CONTINUOUS
 62
     7
 10
26.299999899540008
 20
30.000008460403691
 30
0.0
 11
25.999999899540011
 21
30.519623702674341
 31
0.0
  0
LINE
  5
1E53
  8
0
  6
CONTINUOUS
 62
     7
 10
29.999991492858729
 20
26.300000053722481
 30
0.0
 11
30.51960673512939
 21
26.000000053722481
 31
0.0
  0
LINE
  5
1E54
  8
0
  6
CONTINUOUS
 62
     7
 10
29.999991492858729
 20
26.300000053722481
 30
0.0
 11
29.480376250588069
 21
26.000000053722481
 31
0.0
  0
LINE
  5
1E55
  8
0
  6
CONTINUOUS
 62
     7
 10
25.999999904104001
 20
29.4803932260381
 30
0.0
 11
25.999999904104001
 21
27.060688924927881
 31
0.0
  0
LINE
  5
1E56
  8
0
  6
CONTINUOUS
 62
     7
 10
30.51960673512944
 20
26.000000053722442
 30
0.0
 11
32.9393396127683
 21
26.000000053722442
 31
0.0
  0
LINE
  5
1E5F
  8
CENTER
  6
CENTER
 62
     1
 10
45.400000008668037
 20
30.000000053722449
 30
0.0
 11
54.599999808668038
 21
30.000000053722449
 31
0.0
  0
LINE
  5
1E60
  8
CENTER
  6
CENTER
 62
     1
 10
29.999999908662868
 20
34.599999953722453
 30
0.0
 11
29.99999990866289
 21
25.400000153722448
 31
0.0
  0
LINE
  5
1E61
  8
CENTER
  6
CENTER
 62
     1
 10
49.999999908668038
 20
34.599999953722453
 30
0.0
 11
49.999999908668038
 21
25.400000153722448
 31
0.0
  0
LINE
  5
1E62
  8
CENTER
  6
CENTER
 62
     1
 10
45.400000008668023
 20
50.000000053739079
 30
0.0
 11
54.599999808668016
 21
50.000000053739079
 31
0.0
  0
LINE
  5
1EAF
  8
0
  6
CONTINUOUS
 62
     7
 10
92.999999904104001
 20
50.519606890139897
 30
0.0
 11
142.99999990410399
 21
50.519606890139897
 31
0.0
  0
LINE
  5
1EB0
  8
0
  6
CONTINUOUS
 62
     7
 10
92.999999904104001
 20
49.480376405598562
 30
0.0
 11
142.99999990410399
 21
49.480376405598562
 31
0.0
  0
LINE
  5
1EB1
  8
CENTER
  6
CENTER
 62
     1
 10
147.99999990410399
 20
50.000000054136457
 30
0.0
 11
87.999999904104001
 21
50.000000054136457
 31
0.0
  0
LINE
  5
1EB2
  8
0
  6
CONTINUOUS
 62
     7
 10
92.999999904104001
 20
30.51960689013989
 30
0.0
 11
142.99999990410399
 21
30.51960689013989
 31
0.0
  0
LINE
  5
1EB3
  8
0
  6
CONTINUOUS
 62
     7
 10
92.999999904104001
 20
29.48037640559857
 30
0.0
 11
142.99999990410399
 21
29.48037640559857
 31
0.0
  0
LINE
  5
1EB4
  8
CENTER
  6
CENTER
 62
     1
 10
147.99999990410399
 20
30.00000005413645
 30
0.0
 11
87.999999904104001
 21
30.00000005413645
 31
0.0
  0
ARC
  5
1FA3
  8
0
  6
CONTINUOUS
 62
     7
 10
59.699999904103997
 20
53.300000053739083
 30
0.0
 40
0.3
 50
269.99999999999977
 51
0.0
  0
ARC
  5
1FA4
  8
0
  6
CONTINUOUS
 62
     7
 10
59.699999904103997
 20
46.700000053739082
 30
0.0
 40
0.3
 50
0.0
 51
90.0
  0
ARC
  5
1FA5
  8
0
  6
CONTINUOUS
 62
     7
 10
59.699999904103997
 20
33.300000053722442
 30
0.0
 40
0.3
 50
270.0
 51
0.0
  0
ARC
  5
1FA6
  8
0
  6
CONTINUOUS
 62
     7
 10
59.699999904104033
 20
26.700000053722452
 30
0.0
 40
0.3
 50
0.0
 51
89.999999999999915
  0
ARC
  5
1FAB
  8
0
  6
CONTINUOUS
 62
     7
 10
20.299999904103998
 20
26.700000053722452
 30
0.0
 40
0.3
 50
90.000000000000114
 51
180.0
  0
ARC
  5
1FAC
  8
0
  6
CONTINUOUS
 62
     7
 10
20.299999904103998
 20
33.300000053722442
 30
0.0
 40
0.3
 50
180.0
 51
270.0
  0
ARC
  5
1FAD
  8
0
  6
CONTINUOUS
 62
     7
 10
20.299999904103998
 20
46.70000005373906
 30
0.0
 40
0.3
 50
89.999999999999815
 51
180.0
  0
ARC
  5
1FAE
  8
0
  6
CONTINUOUS
 62
     7
 10
20.299999904103998
 20
53.300000053739083
 30
0.0
 40
0.3
 50
180.0
 51
270.0
  0
ENDSEC
  0
EOF
