  0
SECTION
  2
HEADER
  9
$ACADVER
  1
AC1009
  9
$INSBASE
 10
0.0
 20
0.0
 30
0.0
  9
$EXTMIN
 10
-0.0000001517079227
 20
-0.0000001334724972
 30
0.0
  9
$EXTMAX
 10
171.90954130928111
 20
52.324513826362022
 30
0.0
  9
$LIMMIN
 10
0.0
 20
0.0
  9
$LIMMAX
 10
297.0
 20
210.0
  9
$ORTHOMODE
 70
     1
  9
$REGENMODE
 70
     1
  9
$FILLMODE
 70
     1
  9
$QTEXTMODE
 70
     0
  9
$MIRRTEXT
 70
     1
  9
$DRAGMODE
 70
     2
  9
$LTSCALE
 40
1.0
  9
$OSMODE
 70
    57
  9
$ATTMODE
 70
     1
  9
$TEXTSIZE
 40
6.4000000000000012
  9
$TRACEWID
 40
0.05
  9
$TEXTSTYLE
  7
STANDARD
  9
$CLAYER
  8
0
  9
$CELTYPE
  6
CONTINUOUS
  9
$CECOLOR
 62
     7
  9
$DIMSCALE
 40
1.0
  9
$DIMASZ
 40
3.0
  9
$DIMEXO
 40
1.0
  9
$DIMDLI
 40
0.0
  9
$DIMRND
 40
0.0
  9
$DIMDLE
 40
0.0
  9
$DIMEXE
 40
1.0
  9
$DIMTP
 40
0.0
  9
$DIMTM
 40
0.0
  9
$DIMTXT
 40
3.2000000000000002
  9
$DIMCEN
 40
0.0
  9
$DIMTSZ
 40
0.0
  9
$DIMTOL
 70
     0
  9
$DIMLIM
 70
     0
  9
$DIMTIH
 70
     0
  9
$DIMTOH
 70
     0
  9
$DIMSE1
 70
     0
  9
$DIMSE2
 70
     0
  9
$DIMTAD
 70
     1
  9
$DIMZIN
 70
     8
  9
$DIMBLK
  1

  9
$DIMASO
 70
     1
  9
$DIMSHO
 70
     1
  9
$DIMPOST
  1

  9
$DIMAPOST
  1

  9
$DIMALT
 70
     0
  9
$DIMALTD
 70
     2
  9
$DIMALTF
 40
0.04
  9
$DIMLFAC
 40
1.0
  9
$DIMTOFL
 70
     1
  9
$DIMTVP
 40
1.0
  9
$DIMTIX
 70
     1
  9
$DIMSOXD
 70
     0
  9
$DIMSAH
 70
     0
  9
$DIMBLK1
  1

  9
$DIMBLK2
  1

  9
$DIMSTYLE
  2
MISUMI
  9
$DIMCLRD
 70
     0
  9
$DIMCLRE
 70
     0
  9
$DIMCLRT
 70
     0
  9
$DIMTFAC
 40
0.6
  9
$DIMGAP
 40
1.0
  9
$LUNITS
 70
     2
  9
$LUPREC
 70
     4
  9
$SKETCHINC
 40
0.1
  9
$FILLETRAD
 40
0.0
  9
$AUNITS
 70
     0
  9
$AUPREC
 70
     0
  9
$MENU
  1
acad
  9
$ELEVATION
 40
0.0
  9
$PELEVATION
 40
0.0
  9
$THICKNESS
 40
0.0
  9
$LIMCHECK
 70
     0
  9
$BLIPMODE
 70
     1
  9
$CHAMFERA
 40
0.5
  9
$CHAMFERB
 40
0.5
  9
$SKPOLY
 70
     0
  9
$TDCREATE
 40
2451464.6006649309
  9
$TDUPDATE
 40
2453776.7024544212
  9
$TDINDWG
 40
0.2111825926
  9
$TDUSRTIMER
 40
0.2111804167
  9
$USRTIMER
 70
     1
  9
$ANGBASE
 50
0.0
  9
$ANGDIR
 70
     0
  9
$PDMODE
 70
     0
  9
$PDSIZE
 40
0.0
  9
$PLINEWID
 40
0.0
  9
$COORDS
 70
     0
  9
$SPLFRAME
 70
     0
  9
$SPLINETYPE
 70
     6
  9
$SPLINESEGS
 70
     8
  9
$ATTDIA
 70
     0
  9
$ATTREQ
 70
     1
  9
$HANDLING
 70
     1
  9
$HANDSEED
  5
BF6
  9
$SURFTAB1
 70
     6
  9
$SURFTAB2
 70
     6
  9
$SURFTYPE
 70
     6
  9
$SURFU
 70
     6
  9
$SURFV
 70
     6
  9
$UCSNAME
  2

  9
$UCSORG
 10
0.0
 20
0.0
 30
0.0
  9
$UCSXDIR
 10
1.0
 20
0.0
 30
0.0
  9
$UCSYDIR
 10
0.0
 20
1.0
 30
0.0
  9
$PUCSNAME
  2

  9
$PUCSORG
 10
0.0
 20
0.0
 30
0.0
  9
$PUCSXDIR
 10
1.0
 20
0.0
 30
0.0
  9
$PUCSYDIR
 10
0.0
 20
1.0
 30
0.0
  9
$USERI1
 70
     0
  9
$USERI2
 70
     0
  9
$USERI3
 70
     0
  9
$USERI4
 70
     0
  9
$USERI5
 70
     0
  9
$USERR1
 40
0.0
  9
$USERR2
 40
0.0
  9
$USERR3
 40
0.0
  9
$USERR4
 40
0.0
  9
$USERR5
 40
0.0
  9
$WORLDVIEW
 70
     1
  9
$SHADEDGE
 70
     3
  9
$SHADEDIF
 70
    70
  9
$TILEMODE
 70
     1
  9
$MAXACTVP
 70
    16
  9
$PLIMCHECK
 70
     0
  9
$PEXTMIN
 10
1.0000000000000000E+020
 20
1.0000000000000000E+020
 30
1.0000000000000000E+020
  9
$PEXTMAX
 10
-1.0000000000000000E+020
 20
-1.0000000000000000E+020
 30
-1.0000000000000000E+020
  9
$PLIMMIN
 10
0.0
 20
0.0
  9
$PLIMMAX
 10
12.0
 20
9.0
  9
$UNITMODE
 70
     0
  9
$VISRETAIN
 70
     0
  9
$PLINEGEN
 70
     0
  9
$PSLTSCALE
 70
     1
  0
ENDSEC
  0
SECTION
  2
TABLES
  0
TABLE
  2
VPORT
 70
     2
  0
VPORT
  2
*ACTIVE
 70
     0
 10
0.0
 20
0.0
 11
1.0
 21
1.0
 12
104.5469178645715
 22
26.165085119193211
 13
0.0
 23
0.0
 14
10.0
 24
10.0
 15
10.0
 25
10.0
 16
0.0
 26
0.0
 36
1.0
 17
0.0
 27
0.0
 37
0.0
 40
133.76989759026301
 41
1.5717852684144811
 42
50.0
 43
0.0
 44
0.0
 50
0.0
 51
0.0
 71
     0
 72
   100
 73
     1
 74
     0
 75
     0
 76
     0
 77
     0
 78
     0
  0
ENDTAB
  0
TABLE
  2
LTYPE
 70
     2
  0
LTYPE
  2
CONTINUOUS
 70
     0
  3
Solid line
 72
    65
 73
     0
 40
0.0
  0
LTYPE
  2
CENTER
 70
     0
  3
Center ____ _ ____ _ ____ _ ____ _ ____ _ ____
 72
    65
 73
     4
 40
2.0
 49
1.25
 49
-0.25
 49
0.25
 49
-0.25
  0
ENDTAB
  0
TABLE
  2
LAYER
 70
     2
  0
LAYER
  2
0
 70
     0
 62
     7
  6
CONTINUOUS
  0
LAYER
  2
CENTER
 70
     0
 62
     1
  6
CENTER
  0
ENDTAB
  0
TABLE
  2
STYLE
 70
     1
  0
STYLE
  2
STANDARD
 70
     0
 40
0.0
 41
1.0
 50
0.0
 71
     0
 42
6.4000000000000012
  3
txt
  4

  0
ENDTAB
  0
TABLE
  2
VIEW
 70
     0
  0
ENDTAB
  0
TABLE
  2
UCS
 70
     0
  0
ENDTAB
  0
TABLE
  2
APPID
 70
     2
  0
APPID
  2
ACAD
 70
     0
  0
APPID
  2
ACAD_DSTYLE_DIMTEXT_FILL
 70
     0
  0
ENDTAB
  0
TABLE
  2
DIMSTYLE
 70
     1
  0
DIMSTYLE
  2
MISUMI
 70
     0
  3

  4

  5

  6

  7

 40
1.0
 41
3.0
 42
1.0
 43
0.0
 44
1.0
 45
0.0
 46
0.0
 47
0.0
 48
0.0
140
3.2000000000000002
141
0.0
142
0.0
143
0.04
144
1.0
145
1.0
146
0.6
147
1.0
 71
     0
 72
     0
 73
     0
 74
     0
 75
     0
 76
     0
 77
     1
 78
     8
170
     0
171
     2
172
     1
173
     0
174
     1
175
     0
176
     0
177
     0
178
     0
  0
ENDTAB
  0
ENDSEC
  0
SECTION
  2
BLOCKS
  0
BLOCK
  8
0
  2
$MODEL_SPACE
 70
     0
 10
0.0
 20
0.0
 30
0.0
  3
$MODEL_SPACE
  1

  0
ENDBLK
  5
BAF
  8
0
  0
BLOCK
 67
     1
  8
0
  2
$PAPER_SPACE
 70
     0
 10
0.0
 20
0.0
 30
0.0
  3
$PAPER_SPACE
  1

  0
ENDBLK
  5
BAB
 67
     1
  8
0
  0
ENDSEC
  0
SECTION
  2
ENTITIES
  0
TEXT
  5
406
  8
0
  6
CONTINUOUS
 62
     7
 10
-0.0000001517079227
 20
8.5987117520439256
 30
0.0
 40
4.0
  1
HFSP5-5025-50
  0
TEXT
  5
407
  8
0
  6
CONTINUOUS
 62
     7
 10
-0.0000001517079227
 20
-0.000000133472497
 30
0.0
 40
4.0
  1
HP55025
  0
LINE
  5
538
  8
0
  6
CONTINUOUS
 62
     7
 10
67.752610888492725
 20
44.360048826362011
 30
0.0
 11
70.788144888492724
 21
41.324513826362043
 31
0.0
  0
LINE
  5
539
  8
0
  6
CONTINUOUS
 62
     7
 10
66.50261088849274
 20
43.488728545176812
 30
0.0
 11
67.252610888492725
 21
42.738728298103347
 31
0.0
  0
LINE
  5
53A
  8
0
  6
CONTINUOUS
 62
     7
 10
67.75261088849274
 20
25.288980826362039
 30
0.0
 11
67.75261088849274
 21
24.32451382636204
 31
0.0
  0
LINE
  5
53B
  8
0
  6
CONTINUOUS
 62
     7
 10
67.75261088849274
 20
25.288980826362039
 30
0.0
 11
70.788143888492741
 21
28.32451382636204
 31
0.0
  0
LINE
  5
53C
  8
0
  6
CONTINUOUS
 62
     7
 10
66.502610888492725
 20
26.16030116992167
 30
0.0
 11
67.252610888492725
 21
26.910301169921691
 31
0.0
  0
LINE
  5
53E
  8
0
  6
CONTINUOUS
 62
     7
 10
83.288143888492726
 20
28.82451382636204
 30
0.0
 11
80.252610888492754
 21
31.860046826362009
 31
0.0
  0
LINE
  5
53F
  8
0
  6
CONTINUOUS
 62
     7
 10
79.752610888492683
 20
25.28897882636203
 30
0.0
 11
76.717076888492741
 21
28.32451382636204
 31
0.0
  0
LINE
  5
540
  8
0
  6
CONTINUOUS
 62
     7
 10
79.75261088849274
 20
44.360046826362037
 30
0.0
 11
76.71707688849277
 21
41.324513826362043
 31
0.0
  0
LINE
  5
541
  8
0
  6
CONTINUOUS
 62
     7
 10
83.288145888492721
 20
40.824513826362001
 30
0.0
 11
80.252610888492754
 21
37.78897882636204
 31
0.0
  0
LINE
  5
542
  8
CENTER
  6
CONTINUOUS
 62
     1
 10
61.25261088849274
 20
52.324513826362022
 30
0.0
 11
61.25261088849274
 21
17.324513826362029
 31
0.0
  0
LINE
  5
543
  8
0
  6
CONTINUOUS
 62
     7
 10
67.252610888492725
 20
42.738728298103347
 30
0.0
 11
67.252610888492725
 21
26.910301169921691
 31
0.0
  0
LINE
  5
544
  8
0
  6
CONTINUOUS
 62
     7
 10
55.252610888492732
 20
42.738727388735121
 30
0.0
 11
55.252610888492732
 21
26.910300263988951
 31
0.0
  0
LINE
  5
545
  8
0
  6
CONTINUOUS
 62
     7
 10
66.50261088849274
 20
45.024513826362039
 30
0.0
 11
66.50261088849274
 21
43.488728545176812
 31
0.0
  0
LINE
  5
546
  8
0
  6
CONTINUOUS
 62
     7
 10
66.502610888492725
 20
26.16030116992167
 30
0.0
 11
66.50261088849274
 21
24.62451382636204
 31
0.0
  0
ARC
  5
547
  8
0
  6
CONTINUOUS
 62
     7
 10
65.50261088849274
 20
24.62451382636204
 30
0.0
 40
1.0
 50
270.0
 51
0.0
  0
ARC
  5
548
  8
0
  6
CONTINUOUS
 62
     7
 10
65.50261088849274
 20
45.024513826362039
 30
0.0
 40
1.0
 50
0.0
 51
90.0
  0
LINE
  5
549
  8
0
  6
CONTINUOUS
 62
     7
 10
56.002610888492747
 20
45.024513826362039
 30
0.0
 11
56.002610888492718
 21
43.488727388735107
 31
0.0
  0
LINE
  5
54A
  8
0
  6
CONTINUOUS
 62
     7
 10
56.002610888492761
 20
26.160300263988919
 30
0.0
 11
56.002610888492747
 21
24.62451382636204
 31
0.0
  0
ARC
  5
54B
  8
0
  6
CONTINUOUS
 62
     7
 10
57.002610888492732
 20
45.024513826362039
 30
0.0
 40
1.0
 50
90.0
 51
180.0
  0
LINE
  5
54C
  8
CENTER
  6
CONTINUOUS
 62
     1
 10
73.75261088849274
 20
40.724513826361999
 30
0.0
 11
73.75261088849274
 21
28.924513826362041
 31
0.0
  0
LINE
  5
54D
  8
0
  6
CONTINUOUS
 62
     7
 10
79.75261088849274
 20
45.324513826362022
 30
0.0
 11
79.75261088849274
 21
44.360046826362037
 31
0.0
  0
LINE
  5
54E
  8
0
  6
CONTINUOUS
 62
     7
 10
67.75261088849274
 20
45.324513826362022
 30
0.0
 11
67.752610888492725
 21
44.360048826362011
 31
0.0
  0
LINE
  5
54F
  8
0
  6
CONTINUOUS
 62
     7
 10
79.752610888492683
 20
25.28897882636203
 30
0.0
 11
79.75261088849274
 21
24.32451382636204
 31
0.0
  0
LINE
  5
550
  8
0
  6
CONTINUOUS
 62
     7
 10
67.75261088849274
 20
25.288980826362039
 30
0.0
 11
67.75261088849274
 21
24.32451382636204
 31
0.0
  0
LINE
  5
551
  8
0
  6
CONTINUOUS
 62
     7
 10
76.75261088849274
 20
24.32451382636204
 30
0.0
 11
76.752610888492683
 21
22.724513826362031
 31
0.0
  0
LINE
  5
553
  8
0
  6
CONTINUOUS
 62
     7
 10
70.752610888492725
 20
24.32451382636204
 30
0.0
 11
70.752610888492725
 21
22.724513826362031
 31
0.0
  0
LINE
  5
555
  8
0
  6
CONTINUOUS
 62
     7
 10
76.75261088849274
 20
46.924513826362023
 30
0.0
 11
76.75261088849274
 21
45.324513826362022
 31
0.0
  0
LINE
  5
557
  8
0
  6
CONTINUOUS
 62
     7
 10
70.752610888492725
 20
46.924513826362023
 30
0.0
 11
70.752610888492725
 21
45.324513826362022
 31
0.0
  0
LINE
  5
559
  8
CENTER
  6
CONTINUOUS
 62
     1
 10
48.75261088849274
 20
40.724513826361999
 30
0.0
 11
48.75261088849274
 21
28.924513826362041
 31
0.0
  0
LINE
  5
55A
  8
0
  6
CONTINUOUS
 62
     7
 10
54.752610888492747
 20
45.324513826362022
 30
0.0
 11
54.752610888492718
 21
44.36004773229476
 31
0.0
  0
LINE
  5
55B
  8
0
  6
CONTINUOUS
 62
     7
 10
54.752610888492718
 20
25.288979920429298
 30
0.0
 11
54.752610888492747
 21
24.32451382636204
 31
0.0
  0
LINE
  5
55C
  8
0
  6
CONTINUOUS
 62
     7
 10
42.752610888492718
 20
45.324513826362022
 30
0.0
 11
42.752610888492718
 21
44.360046826362037
 31
0.0
  0
LINE
  5
55D
  8
0
  6
CONTINUOUS
 62
     7
 10
42.752610888492718
 20
25.288979920429281
 30
0.0
 11
42.752610888492718
 21
24.32451382636204
 31
0.0
  0
LINE
  5
55E
  8
0
  6
CONTINUOUS
 62
     7
 10
51.752610888492747
 20
46.924513826362023
 30
0.0
 11
51.752610888492747
 21
45.324513826362022
 31
0.0
  0
LINE
  5
560
  8
0
  6
CONTINUOUS
 62
     7
 10
51.752610888492711
 20
24.32451382636204
 30
0.0
 11
51.752610888492711
 21
22.724513826362031
 31
0.0
  0
LINE
  5
561
  8
0
  6
CONTINUOUS
 62
     7
 10
45.75261088849274
 20
46.924513826362023
 30
0.0
 11
45.75261088849274
 21
45.324513826362022
 31
0.0
  0
LINE
  5
563
  8
0
  6
CONTINUOUS
 62
     7
 10
45.752610888492732
 20
24.32451382636204
 30
0.0
 11
45.752610888492732
 21
22.724513826362031
 31
0.0
  0
LINE
  5
565
  8
0
  6
CONTINUOUS
 62
     7
 10
86.25261088849274
 20
46.324513826362043
 30
0.0
 11
86.25261088849274
 21
38.124513826362033
 31
0.0
  0
ARC
  5
566
  8
0
  6
CONTINUOUS
 62
     7
 10
85.952610888492757
 20
38.124513826362033
 30
0.0
 40
0.3
 50
270.0
 51
0.0
  0
LINE
  5
567
  8
0
  6
CONTINUOUS
 62
     7
 10
86.25261088849274
 20
31.524513826362039
 30
0.0
 11
86.25261088849274
 21
23.32451382636204
 31
0.0
  0
ARC
  5
568
  8
0
  6
CONTINUOUS
 62
     7
 10
85.952610888492757
 20
31.524513826362039
 30
0.0
 40
0.3
 50
0.0
 51
90.0
  0
LINE
  5
569
  8
0
  6
CONTINUOUS
 62
     7
 10
84.252610888492683
 20
40.824513826362001
 30
0.0
 11
84.252610888492683
 21
37.824513826362043
 31
0.0
  0
LINE
  5
56A
  8
0
  6
CONTINUOUS
 62
     7
 10
80.252610888492754
 20
37.78897882636204
 30
0.0
 11
80.252610888492669
 21
35.344129568632631
 31
0.0
  0
LINE
  5
56B
  8
0
  6
CONTINUOUS
 62
     7
 10
80.252610888492669
 20
34.30489908409136
 30
0.0
 11
80.252610888492754
 21
31.860046826362009
 31
0.0
  0
LINE
  5
56C
  8
0
  6
CONTINUOUS
 62
     7
 10
84.252610888492683
 20
31.82451382636204
 30
0.0
 11
84.252610888492683
 21
28.82451382636204
 31
0.0
  0
LINE
  5
56D
  8
0
  6
CONTINUOUS
 62
     7
 10
36.25261088849274
 20
46.324513826362043
 30
0.0
 11
36.25261088849274
 21
38.124513826362033
 31
0.0
  0
LINE
  5
56E
  8
0
  6
CONTINUOUS
 62
     7
 10
37.50261088849274
 20
44.574513826362029
 30
0.0
 11
37.50261088849274
 21
42.80071149344959
 31
0.0
  0
ARC
  5
56F
  8
0
  6
CONTINUOUS
 62
     7
 10
39.00261088849274
 20
44.574513826362029
 30
0.0
 40
1.5
 50
90.0
 51
180.0
  0
LINE
  5
570
  8
0
  6
CONTINUOUS
 62
     7
 10
36.25261088849274
 20
31.524513826362039
 30
0.0
 11
36.25261088849274
 21
23.32451382636204
 31
0.0
  0
ARC
  5
571
  8
0
  6
CONTINUOUS
 62
     7
 10
36.55261088849273
 20
31.524513826362039
 30
0.0
 40
0.3
 50
90.0
 51
180.0
  0
LINE
  5
572
  8
0
  6
CONTINUOUS
 62
     7
 10
38.25261088849274
 20
40.824513826362001
 30
0.0
 11
38.25261088849274
 21
37.824513826362043
 31
0.0
  0
LINE
  5
573
  8
0
  6
CONTINUOUS
 62
     7
 10
42.25261088849274
 20
37.788979920429298
 30
0.0
 11
42.25261088849274
 21
35.344128568632676
 31
0.0
  0
LINE
  5
574
  8
0
  6
CONTINUOUS
 62
     7
 10
42.25261088849274
 20
34.304898084091462
 30
0.0
 11
42.25261088849274
 21
31.860046826362009
 31
0.0
  0
LINE
  5
575
  8
0
  6
CONTINUOUS
 62
     7
 10
38.25261088849274
 20
31.82451382636204
 30
0.0
 11
38.25261088849274
 21
28.82451382636204
 31
0.0
  0
LINE
  5
576
  8
CENTER
  6
CONTINUOUS
 62
     1
 10
91.25261088849274
 20
34.82451382636205
 30
0.0
 11
31.25261088849274
 21
34.82451382636205
 31
0.0
  0
LINE
  5
577
  8
0
  6
CONTINUOUS
 62
     7
 10
84.252610888492683
 20
28.82451382636204
 30
0.0
 11
83.288143888492726
 21
28.82451382636204
 31
0.0
  0
LINE
  5
578
  8
0
  6
CONTINUOUS
 62
     7
 10
84.252610888492683
 20
40.824513826362001
 30
0.0
 11
83.288145888492721
 21
40.824513826362001
 31
0.0
  0
LINE
  5
579
  8
0
  6
CONTINUOUS
 62
     7
 10
85.952610888492757
 20
31.82451382636204
 30
0.0
 11
84.252610888492683
 21
31.82451382636204
 31
0.0
  0
LINE
  5
57A
  8
0
  6
CONTINUOUS
 62
     7
 10
85.952610888492757
 20
37.824513826362043
 30
0.0
 11
84.252610888492683
 21
37.824513826362043
 31
0.0
  0
LINE
  5
57B
  8
0
  6
CONTINUOUS
 62
     7
 10
39.217077888492717
 20
28.82451382636204
 30
0.0
 11
38.25261088849274
 21
28.82451382636204
 31
0.0
  0
LINE
  5
57C
  8
0
  6
CONTINUOUS
 62
     7
 10
39.217076982560002
 20
40.824513826362001
 30
0.0
 11
38.25261088849274
 21
40.824513826362001
 31
0.0
  0
LINE
  5
57D
  8
0
  6
CONTINUOUS
 62
     7
 10
38.25261088849274
 20
31.82451382636204
 30
0.0
 11
36.55261088849273
 21
31.82451382636204
 31
0.0
  0
LINE
  5
57E
  8
0
  6
CONTINUOUS
 62
     7
 10
38.25261088849274
 20
37.824513826362043
 30
0.0
 11
36.55261088849273
 21
37.824513826362043
 31
0.0
  0
ARC
  5
57F
  8
0
  6
CONTINUOUS
 62
     7
 10
36.55261088849273
 20
38.124513826362033
 30
0.0
 40
0.3
 50
180.0
 51
270.0
  0
LINE
  5
583
  8
0
  6
CONTINUOUS
 62
     7
 10
79.75261088849274
 20
24.32451382636204
 30
0.0
 11
76.75261088849274
 21
24.32451382636204
 31
0.0
  0
LINE
  5
584
  8
0
  6
CONTINUOUS
 62
     7
 10
76.717076888492741
 20
28.32451382636204
 30
0.0
 11
74.272226630763342
 21
28.324513826362029
 31
0.0
  0
LINE
  5
585
  8
0
  6
CONTINUOUS
 62
     7
 10
73.23299614622205
 20
28.324513826362029
 30
0.0
 11
70.788143888492741
 21
28.32451382636204
 31
0.0
  0
LINE
  5
586
  8
0
  6
CONTINUOUS
 62
     7
 10
70.752610888492725
 20
24.32451382636204
 30
0.0
 11
67.75261088849274
 21
24.32451382636204
 31
0.0
  0
LINE
  5
587
  8
0
  6
CONTINUOUS
 62
     7
 10
65.50261088849274
 20
23.62451382636204
 30
0.0
 11
57.00261088849274
 21
23.62451382636204
 31
0.0
  0
ARC
  5
588
  8
0
  6
CONTINUOUS
 62
     7
 10
57.00261088849274
 20
24.62451382636204
 30
0.0
 40
1.0
 50
180.0
 51
270.0
  0
LINE
  5
58A
  8
0
  6
CONTINUOUS
 62
     7
 10
54.752610888492747
 20
24.32451382636204
 30
0.0
 11
51.752610888492711
 21
24.32451382636204
 31
0.0
  0
LINE
  5
58B
  8
0
  6
CONTINUOUS
 62
     7
 10
51.717076982560002
 20
28.32451382636204
 30
0.0
 11
49.272226630763321
 21
28.32451382636204
 31
0.0
  0
LINE
  5
58C
  8
0
  6
CONTINUOUS
 62
     7
 10
48.232996146222057
 20
28.32451382636204
 30
0.0
 11
45.788144888492738
 21
28.32451382636204
 31
0.0
  0
LINE
  5
58D
  8
0
  6
CONTINUOUS
 62
     7
 10
45.752610888492732
 20
24.32451382636204
 30
0.0
 11
42.752610888492718
 21
24.32451382636204
 31
0.0
  0
LINE
  5
58F
  8
0
  6
CONTINUOUS
 62
     7
 10
39.00261088849274
 20
46.074513826362022
 30
0.0
 11
40.7764132214052
 21
46.074513826362022
 31
0.0
  0
LINE
  5
592
  8
0
  6
CONTINUOUS
 62
     7
 10
57.002610888492732
 20
46.024513826362032
 30
0.0
 11
65.50261088849274
 21
46.024513826362032
 31
0.0
  0
LINE
  5
593
  8
0
  6
CONTINUOUS
 62
     7
 10
42.752610888492718
 20
45.324513826362022
 30
0.0
 11
45.75261088849274
 21
45.324513826362022
 31
0.0
  0
LINE
  5
594
  8
0
  6
CONTINUOUS
 62
     7
 10
45.788143888492741
 20
41.324513826362043
 30
0.0
 11
48.232995146222102
 21
41.324513826362043
 31
0.0
  0
LINE
  5
595
  8
0
  6
CONTINUOUS
 62
     7
 10
49.272225630763408
 20
41.324513826362043
 30
0.0
 11
51.717076982560002
 21
41.324513826362043
 31
0.0
  0
LINE
  5
596
  8
0
  6
CONTINUOUS
 62
     7
 10
51.752610888492747
 20
45.324513826362022
 30
0.0
 11
54.752610888492747
 21
45.324513826362022
 31
0.0
  0
LINE
  5
597
  8
0
  6
CONTINUOUS
 62
     7
 10
67.75261088849274
 20
45.324513826362022
 30
0.0
 11
70.752610888492725
 21
45.324513826362022
 31
0.0
  0
LINE
  5
598
  8
0
  6
CONTINUOUS
 62
     7
 10
76.75261088849274
 20
45.324513826362022
 30
0.0
 11
79.75261088849274
 21
45.324513826362022
 31
0.0
  0
LINE
  5
599
  8
0
  6
CONTINUOUS
 62
     7
 10
70.788144888492724
 20
41.324513826362043
 30
0.0
 11
73.232995146222109
 21
41.324513826362043
 31
0.0
  0
LINE
  5
59A
  8
0
  6
CONTINUOUS
 62
     7
 10
74.272225630763373
 20
41.324513826362043
 30
0.0
 11
76.71707688849277
 21
41.324513826362043
 31
0.0
  0
ARC
  5
59B
  8
0
  6
CONTINUOUS
 62
     7
 10
37.25261088849274
 20
46.324513826362043
 30
0.0
 40
1.0
 50
143.13010235415581
 51
180.0
  0
ARC
  5
59C
  8
0
  6
CONTINUOUS
 62
     7
 10
85.252610888492782
 20
46.32451382636205
 30
0.0
 40
1.0
 50
359.9999999999992
 51
36.869897645843047
  0
ARC
  5
59D
  8
0
  6
CONTINUOUS
 62
     7
 10
85.252610888492825
 20
23.324513826362018
 30
0.0
 40
1.0
 50
323.13010235415697
 51
0.0000000000008142
  0
ARC
  5
59E
  8
0
  6
CONTINUOUS
 62
     7
 10
37.252610888492683
 20
23.324513826362001
 30
0.0
 40
1.0
 50
179.9999999999979
 51
216.8698976458416
  0
LINE
  5
59F
  8
0
  6
CONTINUOUS
 62
     7
 10
48.752610388492741
 20
41.024513826362032
 30
0.0
 11
48.232995146222102
 21
41.32451382636205
 31
0.0
  0
LINE
  5
5A0
  8
0
  6
CONTINUOUS
 62
     7
 10
48.752610388492741
 20
41.024513826362032
 30
0.0
 11
49.272225630763408
 21
41.324513826362043
 31
0.0
  0
LINE
  5
5A1
  8
0
  6
CONTINUOUS
 62
     7
 10
42.552610888492708
 20
34.824513326362059
 30
0.0
 11
42.252610888492711
 21
34.30489808409142
 31
0.0
  0
LINE
  5
5A2
  8
0
  6
CONTINUOUS
 62
     7
 10
42.552610888492708
 20
34.824513326362059
 30
0.0
 11
42.252610888492711
 21
35.344128568632719
 31
0.0
  0
LINE
  5
5A3
  8
0
  6
CONTINUOUS
 62
     7
 10
48.75261138849271
 20
28.62451382636204
 30
0.0
 11
49.272226630763349
 21
28.324513826362018
 31
0.0
  0
LINE
  5
5A4
  8
0
  6
CONTINUOUS
 62
     7
 10
48.75261138849271
 20
28.62451382636204
 30
0.0
 11
48.23299614622205
 21
28.324513826362029
 31
0.0
  0
LINE
  5
5A5
  8
0
  6
CONTINUOUS
 62
     7
 10
73.752610388492741
 20
41.024513826362032
 30
0.0
 11
73.232995146222109
 21
41.32451382636205
 31
0.0
  0
LINE
  5
5A6
  8
0
  6
CONTINUOUS
 62
     7
 10
73.752610388492741
 20
41.024513826362032
 30
0.0
 11
74.272225630763373
 21
41.324513826362043
 31
0.0
  0
LINE
  5
5A7
  8
0
  6
CONTINUOUS
 62
     7
 10
73.752611388492696
 20
28.62451382636204
 30
0.0
 11
74.272226630763342
 21
28.324513826362018
 31
0.0
  0
LINE
  5
5A8
  8
0
  6
CONTINUOUS
 62
     7
 10
73.752611388492696
 20
28.62451382636204
 30
0.0
 11
73.23299614622205
 21
28.324513826362029
 31
0.0
  0
LINE
  5
5A9
  8
0
  6
CONTINUOUS
 62
     7
 10
79.952610888492742
 20
34.824514326362021
 30
0.0
 11
80.252610888492754
 21
35.34412956863266
 31
0.0
  0
LINE
  5
5AA
  8
0
  6
CONTINUOUS
 62
     7
 10
79.952610888492742
 20
34.824514326362021
 30
0.0
 11
80.252610888492754
 21
34.30489908409136
 31
0.0
  0
LINE
  5
5AB
  8
0
  6
CONTINUOUS
 62
     7
 10
42.752610888492718
 20
44.360047732294788
 30
0.0
 11
45.788144794425477
 21
41.324513826362043
 31
0.0
  0
LINE
  5
5AC
  8
0
  6
CONTINUOUS
 62
     7
 10
39.217076982560002
 20
40.824513826362008
 30
0.0
 11
42.25261088849274
 21
37.788979920429298
 31
0.0
  0
LINE
  5
5AD
  8
0
  6
CONTINUOUS
 62
     7
 10
45.788144794425477
 20
28.32451382636204
 30
0.0
 11
42.752610888492718
 21
25.288979920429291
 31
0.0
  0
LINE
  5
5AE
  8
0
  6
CONTINUOUS
 62
     7
 10
42.25261088849274
 20
31.86004773229477
 30
0.0
 11
39.217076982560002
 21
28.82451382636204
 31
0.0
  0
LINE
  5
5AF
  8
0
  6
CONTINUOUS
 62
     7
 10
54.752610888492718
 20
44.36004773229476
 30
0.0
 11
51.717076982560002
 21
41.324513826362043
 31
0.0
  0
LINE
  5
5B0
  8
0
  6
CONTINUOUS
 62
     7
 10
56.002610888492718
 20
43.488727388735107
 30
0.0
 11
55.252610888492732
 21
42.738727388735121
 31
0.0
  0
LINE
  5
5B1
  8
0
  6
CONTINUOUS
 62
     7
 10
54.752610888492718
 20
44.36004773229476
 30
0.0
 11
51.717076982560002
 21
41.324513826362043
 31
0.0
  0
LINE
  5
5B2
  8
0
  6
CONTINUOUS
 62
     7
 10
51.717076982560002
 20
28.32451382636204
 30
0.0
 11
54.752610888492718
 21
25.288979920429298
 31
0.0
  0
LINE
  5
5B3
  8
0
  6
CONTINUOUS
 62
     7
 10
55.252610888492732
 20
26.910300263988951
 30
0.0
 11
56.002610888492761
 21
26.160300263988919
 31
0.0
  0
LINE
  5
5B4
  8
0
  6
CONTINUOUS
 62
     7
 10
41.398700364152617
 20
43.592637913075222
 30
0.0
 11
40.691593582966107
 21
44.299744694261761
 31
0.0
  0
LINE
  5
5B5
  8
0
  6
CONTINUOUS
 62
     7
 10
39.984486801779532
 20
42.178424350702088
 30
0.0
 11
39.277380020593007
 21
42.885531131888669
 31
0.0
  0
LINE
  5
5B6
  8
0
  6
CONTINUOUS
 62
     7
 10
39.277380020593007
 20
42.885531131888683
 30
0.0
 11
38.697585635323321
 21
42.305736746618997
 31
0.0
  0
LINE
  5
5B7
  8
0
  6
CONTINUOUS
 62
     7
 10
40.691593582966107
 20
44.299744694261761
 30
0.0
 11
41.271387968235793
 21
44.879539079531433
 31
0.0
  0
LINE
  5
5B8
  8
0
  6
CONTINUOUS
 62
     7
 10
41.398700364152617
 20
42.178424350702088
 30
0.0
 11
41.398700364152617
 21
42.178424350702088
 31
0.0
  0
ARC
  5
5B9
  8
0
  6
CONTINUOUS
 62
     7
 10
40.691593582966092
 20
42.885531131888669
 30
0.0
 40
1.0
 50
314.99999999999949
 51
45.000000000000149
  0
ARC
  5
5BA
  8
0
  6
CONTINUOUS
 62
     7
 10
40.691593582966092
 20
42.885531131888683
 30
0.0
 40
1.0
 50
225.00000000000011
 51
314.99999999999989
  0
ARC
  5
5BB
  8
0
  6
CONTINUOUS
 62
     7
 10
40.776413221405207
 20
45.374513826362019
 30
0.0
 40
0.7
 50
314.99999999999989
 51
90.000000000000384
  0
ARC
  5
5BC
  8
0
  6
CONTINUOUS
 62
     7
 10
38.202610888492742
 20
42.80071149344959
 30
0.0
 40
0.7
 50
180.0
 51
315.00000000000028
  0
LINE
  5
5BD
  8
0
  6
CONTINUOUS
 62
     7
 10
39.002610888492732
 20
23.57451382636204
 30
0.0
 11
40.776413221405171
 21
23.57451382636204
 31
0.0
  0
ARC
  5
5BE
  8
0
  6
CONTINUOUS
 62
     7
 10
39.002610888492732
 20
25.07451382636205
 30
0.0
 40
1.5
 50
180.0
 51
270.0
  0
LINE
  5
5BF
  8
0
  6
CONTINUOUS
 62
     7
 10
37.502610888492732
 20
25.07451382636205
 30
0.0
 11
37.502610888492732
 21
26.8483161592745
 31
0.0
  0
LINE
  5
5C0
  8
0
  6
CONTINUOUS
 62
     7
 10
39.984486801779532
 20
27.470603302021932
 30
0.0
 11
39.277380020593
 21
26.76349652083541
 31
0.0
  0
LINE
  5
5C1
  8
0
  6
CONTINUOUS
 62
     7
 10
41.398700364152617
 20
26.05638973964885
 30
0.0
 11
40.691593582966092
 21
25.349282958462311
 31
0.0
  0
LINE
  5
5C2
  8
0
  6
CONTINUOUS
 62
     7
 10
40.691593582966078
 20
25.349282958462311
 30
0.0
 11
41.271387968235771
 21
24.769488573192628
 31
0.0
  0
LINE
  5
5C3
  8
0
  6
CONTINUOUS
 62
     7
 10
39.277380020593
 20
26.76349652083541
 30
0.0
 11
38.697585635323307
 21
27.343290906105089
 31
0.0
  0
LINE
  5
5C4
  8
0
  6
CONTINUOUS
 62
     7
 10
41.398700364152617
 20
27.470603302021932
 30
0.0
 11
41.398700364152617
 21
27.470603302021932
 31
0.0
  0
ARC
  5
5C5
  8
0
  6
CONTINUOUS
 62
     7
 10
40.691593582966078
 20
26.7634965208354
 30
0.0
 40
1.0
 50
44.999999999999559
 51
134.9999999999998
  0
ARC
  5
5C6
  8
0
  6
CONTINUOUS
 62
     7
 10
40.691593582966078
 20
26.7634965208354
 30
0.0
 40
1.0
 50
314.99999999999989
 51
45.000000000000149
  0
ARC
  5
5C7
  8
0
  6
CONTINUOUS
 62
     7
 10
38.202610888492728
 20
26.848316159274511
 30
0.0
 40
0.7
 50
45.000000000000149
 51
180.0000000000006
  0
ARC
  5
5C8
  8
0
  6
CONTINUOUS
 62
     7
 10
40.776413221405171
 20
24.274513826362039
 30
0.0
 40
0.7
 50
270.0
 51
45.000000000000149
  0
LINE
  5
5C9
  8
0
  6
CONTINUOUS
 62
     7
 10
85.00261088849274
 20
44.574513826362029
 30
0.0
 11
85.00261088849274
 21
42.80071149344959
 31
0.0
  0
ARC
  5
5CA
  8
0
  6
CONTINUOUS
 62
     7
 10
83.50261088849274
 20
44.574513826362029
 30
0.0
 40
1.5
 50
0.0
 51
90.0
  0
LINE
  5
5CB
  8
0
  6
CONTINUOUS
 62
     7
 10
83.50261088849274
 20
46.074513826362022
 30
0.0
 11
81.728808555580301
 21
46.074513826362022
 31
0.0
  0
LINE
  5
5CC
  8
0
  6
CONTINUOUS
 62
     7
 10
81.106521412832834
 20
43.592637913075222
 30
0.0
 11
81.813628194019387
 21
44.299744694261761
 31
0.0
  0
LINE
  5
5CD
  8
0
  6
CONTINUOUS
 62
     7
 10
82.520734975205912
 20
42.178424350702088
 30
0.0
 11
83.227841756392451
 21
42.885531131888669
 31
0.0
  0
LINE
  5
5CE
  8
0
  6
CONTINUOUS
 62
     7
 10
83.227841756392451
 20
42.885531131888683
 30
0.0
 11
83.807636141662144
 21
42.305736746618997
 31
0.0
  0
LINE
  5
5CF
  8
0
  6
CONTINUOUS
 62
     7
 10
81.813628194019387
 20
44.299744694261761
 30
0.0
 11
81.233833808749708
 21
44.879539079531433
 31
0.0
  0
LINE
  5
5D0
  8
0
  6
CONTINUOUS
 62
     7
 10
81.106521412832834
 20
42.178424350702088
 30
0.0
 11
81.106521412832834
 21
42.178424350702088
 31
0.0
  0
ARC
  5
5D1
  8
0
  6
CONTINUOUS
 62
     7
 10
81.813628194019387
 20
42.885531131888669
 30
0.0
 40
1.0
 50
134.9999999999998
 51
225.0000000000006
  0
ARC
  5
5D2
  8
0
  6
CONTINUOUS
 62
     7
 10
81.813628194019387
 20
42.885531131888683
 30
0.0
 40
1.0
 50
225.00000000000011
 51
314.99999999999989
  0
ARC
  5
5D3
  8
0
  6
CONTINUOUS
 62
     7
 10
81.72880855558023
 20
45.374513826362019
 30
0.0
 40
0.7
 50
89.999999999999574
 51
225.00000000000011
  0
ARC
  5
5D4
  8
0
  6
CONTINUOUS
 62
     7
 10
84.302610888492765
 20
42.80071149344959
 30
0.0
 40
0.7
 50
224.9999999999996
 51
0.0
  0
LINE
  5
5D5
  8
0
  6
CONTINUOUS
 62
     7
 10
83.50261088849274
 20
23.57451382636204
 30
0.0
 11
81.728808555580301
 21
23.57451382636204
 31
0.0
  0
ARC
  5
5D6
  8
0
  6
CONTINUOUS
 62
     7
 10
83.50261088849274
 20
25.07451382636205
 30
0.0
 40
1.5
 50
270.0
 51
0.0
  0
LINE
  5
5D7
  8
0
  6
CONTINUOUS
 62
     7
 10
85.00261088849274
 20
25.07451382636205
 30
0.0
 11
85.00261088849274
 21
26.8483161592745
 31
0.0
  0
LINE
  5
5D8
  8
0
  6
CONTINUOUS
 62
     7
 10
82.52073497520594
 20
27.470603302021932
 30
0.0
 11
83.227841756392451
 21
26.76349652083541
 31
0.0
  0
LINE
  5
5D9
  8
0
  6
CONTINUOUS
 62
     7
 10
81.106521412832834
 20
26.05638973964885
 30
0.0
 11
81.813628194019387
 21
25.349282958462311
 31
0.0
  0
LINE
  5
5DA
  8
0
  6
CONTINUOUS
 62
     7
 10
81.813628194019401
 20
25.349282958462311
 30
0.0
 11
81.233833808749708
 21
24.769488573192628
 31
0.0
  0
LINE
  5
5DB
  8
0
  6
CONTINUOUS
 62
     7
 10
83.227841756392451
 20
26.76349652083541
 30
0.0
 11
83.807636141662186
 21
27.343290906105089
 31
0.0
  0
LINE
  5
5DC
  8
0
  6
CONTINUOUS
 62
     7
 10
81.106521412832834
 20
27.470603302021932
 30
0.0
 11
81.106521412832834
 21
27.470603302021932
 31
0.0
  0
ARC
  5
5DD
  8
0
  6
CONTINUOUS
 62
     7
 10
81.813628194019401
 20
26.7634965208354
 30
0.0
 40
1.0
 50
45.000000000000149
 51
135.0000000000004
  0
ARC
  5
5DE
  8
0
  6
CONTINUOUS
 62
     7
 10
81.813628194019401
 20
26.7634965208354
 30
0.0
 40
1.0
 50
134.9999999999998
 51
225.00000000000011
  0
ARC
  5
5DF
  8
0
  6
CONTINUOUS
 62
     7
 10
84.302610888492765
 20
26.848316159274511
 30
0.0
 40
0.7
 50
359.99999999999937
 51
134.9999999999998
  0
ARC
  5
5E0
  8
0
  6
CONTINUOUS
 62
     7
 10
81.728808555580301
 20
24.274513826362039
 30
0.0
 40
0.7
 50
134.9999999999998
 51
270.0
  0
LINE
  5
5E1
  8
0
  6
CONTINUOUS
 62
     7
 10
46.372218039663473
 20
38.406988203208421
 30
0.0
 11
46.86693695233965
 21
37.912269290532251
 31
0.0
  0
LINE
  5
5E2
  8
0
  6
CONTINUOUS
 62
     7
 10
45.170136511646341
 20
37.204906675191303
 30
0.0
 11
45.664855424322532
 21
36.710187762515119
 31
0.0
  0
ARC
  5
5E3
  8
0
  6
CONTINUOUS
 62
     7
 10
45.07565588849274
 20
38.501468826362043
 30
0.0
 40
1.3
 50
355.83221702746903
 51
274.1677829725304
  0
ARC
  5
5E4
  8
0
  6
CONTINUOUS
 62
     7
 10
48.75261088849274
 20
34.82451382636205
 30
0.0
 40
3.399999999999999
 50
153.1081004996924
 51
206.89189950030729
  0
ARC
  5
5E5
  8
0
  6
CONTINUOUS
 62
     7
 10
48.75261088849274
 20
34.82451382636205
 30
0.0
 40
3.399999999999999
 50
243.10810049969251
 51
296.89189950030749
  0
ARC
  5
5E6
  8
0
  6
CONTINUOUS
 62
     7
 10
48.75261088849274
 20
34.82451382636205
 30
0.0
 40
3.399999999999999
 50
333.10810049969228
 51
26.891899500307421
  0
ARC
  5
5E7
  8
0
  6
CONTINUOUS
 62
     7
 10
48.75261088849274
 20
34.82451382636205
 30
0.0
 40
3.399999999999999
 50
63.10810049969249
 51
116.8918995003075
  0
ARC
  5
5E8
  8
0
  6
CONTINUOUS
 62
     7
 10
45.452723389966529
 20
36.49805572815913
 30
0.0
 40
0.3
 50
333.10810049969308
 51
44.999999999998707
  0
ARC
  5
5E9
  8
0
  6
CONTINUOUS
 62
     7
 10
47.079068986695631
 20
38.124401324888218
 30
0.0
 40
0.3
 50
225.0000000000006
 51
296.89189950030612
  0
LINE
  5
5EA
  8
0
  6
CONTINUOUS
 62
     7
 10
45.170136511646341
 20
32.444120977532791
 30
0.0
 11
45.664855424322518
 21
32.938839890208968
 31
0.0
  0
LINE
  5
5EB
  8
0
  6
CONTINUOUS
 62
     7
 10
46.372218039663473
 20
31.242039449515651
 30
0.0
 11
46.866936952339643
 21
31.736758362191829
 31
0.0
  0
ARC
  5
5EC
  8
0
  6
CONTINUOUS
 62
     7
 10
45.075655888492719
 20
31.147558826362051
 30
0.0
 40
1.3
 50
85.832217027468772
 51
4.1677829725303823
  0
ARC
  5
5ED
  8
0
  6
CONTINUOUS
 62
     7
 10
47.079068986695617
 20
31.524626327835851
 30
0.0
 40
0.3
 50
63.108100499693137
 51
134.99999999999869
  0
ARC
  5
5EE
  8
0
  6
CONTINUOUS
 62
     7
 10
45.452723389966529
 20
33.150971924564942
 30
0.0
 40
0.3
 50
315.00000000000051
 51
26.891899500306138
  0
LINE
  5
5EF
  8
0
  6
CONTINUOUS
 62
     7
 10
51.133003737321971
 20
31.242039449515651
 30
0.0
 11
50.63828482464578
 21
31.736758362191829
 31
0.0
  0
LINE
  5
5F0
  8
0
  6
CONTINUOUS
 62
     7
 10
52.335085265339117
 20
32.444120977532791
 30
0.0
 11
51.840366352662919
 21
32.938839890208953
 31
0.0
  0
ARC
  5
5F1
  8
0
  6
CONTINUOUS
 62
     7
 10
52.429565888492711
 20
31.14755882636203
 30
0.0
 40
1.3
 50
175.8322170274688
 51
94.167782972530347
  0
ARC
  5
5F2
  8
0
  6
CONTINUOUS
 62
     7
 10
52.052498387018922
 20
33.150971924564928
 30
0.0
 40
0.3
 50
153.10810049969311
 51
224.99999999999841
  0
ARC
  5
5F3
  8
0
  6
CONTINUOUS
 62
     7
 10
50.426152790289827
 20
31.524626327835851
 30
0.0
 40
0.3
 50
45.000000000000433
 51
116.8918995003061
  0
LINE
  5
5F4
  8
0
  6
CONTINUOUS
 62
     7
 10
52.335085265339117
 20
37.204906675191282
 30
0.0
 11
51.840366352662919
 21
36.710187762515091
 31
0.0
  0
LINE
  5
5F5
  8
0
  6
CONTINUOUS
 62
     7
 10
51.133003737321999
 20
38.406988203208421
 30
0.0
 11
50.638284824645822
 21
37.912269290532251
 31
0.0
  0
ARC
  5
5F6
  8
0
  6
CONTINUOUS
 62
     7
 10
52.429565888492739
 20
38.501468826362007
 30
0.0
 40
1.3
 50
265.8322170274688
 51
184.1677829725302
  0
ARC
  5
5F7
  8
0
  6
CONTINUOUS
 62
     7
 10
50.426152790289848
 20
38.124401324888218
 30
0.0
 40
0.3
 50
243.10810049969291
 51
314.99999999999829
  0
ARC
  5
5F8
  8
0
  6
CONTINUOUS
 62
     7
 10
52.052498387018922
 20
36.49805572815913
 30
0.0
 40
0.3
 50
135.0000000000004
 51
206.89189950030621
  0
LINE
  5
5F9
  8
0
  6
CONTINUOUS
 62
     7
 10
71.372218039663451
 20
38.406988203208421
 30
0.0
 11
71.866936952339671
 21
37.912269290532251
 31
0.0
  0
LINE
  5
5FA
  8
0
  6
CONTINUOUS
 62
     7
 10
70.170136511646348
 20
37.204906675191303
 30
0.0
 11
70.664855424322525
 21
36.710187762515119
 31
0.0
  0
ARC
  5
5FB
  8
0
  6
CONTINUOUS
 62
     7
 10
70.075655888492733
 20
38.501468826362043
 30
0.0
 40
1.3
 50
355.83221702746903
 51
274.1677829725304
  0
ARC
  5
5FC
  8
0
  6
CONTINUOUS
 62
     7
 10
73.75261088849274
 20
34.82451382636205
 30
0.0
 40
3.399999999999999
 50
153.1081004996924
 51
206.89189950030729
  0
ARC
  5
5FD
  8
0
  6
CONTINUOUS
 62
     7
 10
73.75261088849274
 20
34.82451382636205
 30
0.0
 40
3.399999999999999
 50
243.10810049969251
 51
296.89189950030749
  0
ARC
  5
5FE
  8
0
  6
CONTINUOUS
 62
     7
 10
73.75261088849274
 20
34.82451382636205
 30
0.0
 40
3.399999999999999
 50
333.10810049969228
 51
26.891899500307421
  0
ARC
  5
5FF
  8
0
  6
CONTINUOUS
 62
     7
 10
73.75261088849274
 20
34.82451382636205
 30
0.0
 40
3.399999999999999
 50
63.10810049969249
 51
116.8918995003075
  0
ARC
  5
600
  8
0
  6
CONTINUOUS
 62
     7
 10
70.45272338996655
 20
36.49805572815913
 30
0.0
 40
0.3
 50
333.10810049969308
 51
44.999999999998707
  0
ARC
  5
601
  8
0
  6
CONTINUOUS
 62
     7
 10
72.079068986695617
 20
38.124401324888218
 30
0.0
 40
0.3
 50
225.0000000000006
 51
296.89189950030612
  0
LINE
  5
602
  8
0
  6
CONTINUOUS
 62
     7
 10
70.170136511646348
 20
32.444120977532791
 30
0.0
 11
70.664855424322525
 21
32.938839890208968
 31
0.0
  0
LINE
  5
603
  8
0
  6
CONTINUOUS
 62
     7
 10
71.372218039663451
 20
31.242039449515651
 30
0.0
 11
71.866936952339643
 21
31.736758362191829
 31
0.0
  0
ARC
  5
604
  8
0
  6
CONTINUOUS
 62
     7
 10
70.075655888492719
 20
31.147558826362051
 30
0.0
 40
1.3
 50
85.832217027468772
 51
4.1677829725303823
  0
ARC
  5
605
  8
0
  6
CONTINUOUS
 62
     7
 10
72.079068986695617
 20
31.524626327835851
 30
0.0
 40
0.3
 50
63.108100499693137
 51
134.99999999999869
  0
ARC
  5
606
  8
0
  6
CONTINUOUS
 62
     7
 10
70.45272338996655
 20
33.150971924564942
 30
0.0
 40
0.3
 50
315.00000000000051
 51
26.891899500306138
  0
LINE
  5
607
  8
0
  6
CONTINUOUS
 62
     7
 10
76.133003737321985
 20
31.242039449515651
 30
0.0
 11
75.638284824645794
 21
31.736758362191829
 31
0.0
  0
LINE
  5
608
  8
0
  6
CONTINUOUS
 62
     7
 10
77.335085265339103
 20
32.444120977532791
 30
0.0
 11
76.84036635266294
 21
32.938839890208953
 31
0.0
  0
ARC
  5
609
  8
0
  6
CONTINUOUS
 62
     7
 10
77.429565888492704
 20
31.14755882636203
 30
0.0
 40
1.3
 50
175.8322170274688
 51
94.167782972530347
  0
ARC
  5
60A
  8
0
  6
CONTINUOUS
 62
     7
 10
77.052498387018915
 20
33.150971924564928
 30
0.0
 40
0.3
 50
153.10810049969311
 51
224.99999999999841
  0
ARC
  5
60B
  8
0
  6
CONTINUOUS
 62
     7
 10
75.426152790289791
 20
31.524626327835851
 30
0.0
 40
0.3
 50
45.000000000000433
 51
116.8918995003061
  0
LINE
  5
60C
  8
0
  6
CONTINUOUS
 62
     7
 10
77.335085265339103
 20
37.204906675191282
 30
0.0
 11
76.84036635266294
 21
36.710187762515091
 31
0.0
  0
LINE
  5
60D
  8
0
  6
CONTINUOUS
 62
     7
 10
76.133003737321999
 20
38.406988203208421
 30
0.0
 11
75.638284824645794
 21
37.912269290532251
 31
0.0
  0
ARC
  5
60E
  8
0
  6
CONTINUOUS
 62
     7
 10
77.429565888492732
 20
38.501468826362007
 30
0.0
 40
1.3
 50
265.8322170274688
 51
184.1677829725302
  0
ARC
  5
60F
  8
0
  6
CONTINUOUS
 62
     7
 10
75.426152790289862
 20
38.124401324888218
 30
0.0
 40
0.3
 50
243.10810049969291
 51
314.99999999999829
  0
ARC
  5
610
  8
0
  6
CONTINUOUS
 62
     7
 10
77.052498387018915
 20
36.49805572815913
 30
0.0
 40
0.3
 50
135.0000000000004
 51
206.89189950030621
  0
LINE
  5
639
  8
0
  6
CONTINUOUS
 62
     7
 10
116.9095413092811
 20
22.724513826362031
 30
0.0
 11
166.90954130928111
 21
22.724513826362031
 31
0.0
  0
LINE
  5
63A
  8
0
  6
CONTINUOUS
 62
     7
 10
116.9095413092811
 20
46.924513826362023
 30
0.0
 11
166.90954130928111
 21
46.924513826362023
 31
0.0
  0
LINE
  5
63B
  8
0
  6
CONTINUOUS
 62
     7
 10
116.9095413092811
 20
46.924513826362023
 30
0.0
 11
116.9095413092811
 21
22.724513826362031
 31
0.0
  0
LINE
  5
63C
  8
CENTER
  6
CONTINUOUS
 62
     1
 10
171.90954130928111
 20
34.82451382636205
 30
0.0
 11
111.9095413092811
 21
34.82451382636205
 31
0.0
  0
LINE
  5
640
  8
0
  6
CONTINUOUS
 62
     7
 10
166.90954130928111
 20
46.924513826362023
 30
0.0
 11
166.90954130928111
 21
22.724513826362031
 31
0.0
  0
LINE
  5
642
  8
0
  6
CONTINUOUS
 62
     7
 10
166.90954130928111
 20
37.824513826362043
 30
0.0
 11
116.9095413092811
 21
37.82451382636205
 31
0.0
  0
LINE
  5
643
  8
0
  6
CONTINUOUS
 62
     7
 10
166.90954130928111
 20
31.82451382636204
 30
0.0
 11
116.9095413092811
 21
31.82451382636204
 31
0.0
  0
LINE
  5
644
  8
0
  6
CONTINUOUS
 62
     7
 10
116.9095413092811
 20
35.34412956863266
 30
0.0
 11
166.90954130928111
 21
35.34412956863266
 31
0.0
  0
LINE
  5
645
  8
0
  6
CONTINUOUS
 62
     7
 10
116.9095413092811
 20
34.30489908409136
 30
0.0
 11
166.90954130928111
 21
34.30489908409136
 31
0.0
  0
LINE
  5
652
  8
0
  6
CONTINUOUS
 62
     7
 10
36.452610888492742
 20
46.924513826362023
 30
0.0
 11
45.75261088849274
 21
46.924513826362023
 31
0.0
  0
LINE
  5
653
  8
0
  6
CONTINUOUS
 62
     7
 10
86.052610888492836
 20
22.724513826362031
 30
0.0
 11
76.752610888492683
 21
22.724513826362031
 31
0.0
  0
LINE
  5
654
  8
0
  6
CONTINUOUS
 62
     7
 10
45.752610888492718
 20
22.724513826362031
 30
0.0
 11
36.452610888492657
 21
22.724513826362031
 31
0.0
  0
LINE
  5
655
  8
0
  6
CONTINUOUS
 62
     7
 10
70.752610888492725
 20
22.724513826362031
 30
0.0
 11
51.752610888492711
 21
22.724513826362031
 31
0.0
  0
LINE
  5
656
  8
0
  6
CONTINUOUS
 62
     7
 10
51.752610888492747
 20
46.924513826362023
 30
0.0
 11
70.752610888492725
 21
46.924513826362023
 31
0.0
  0
LINE
  5
657
  8
0
  6
CONTINUOUS
 62
     7
 10
76.75261088849274
 20
46.924513826362023
 30
0.0
 11
86.052610888492779
 21
46.924513826362023
 31
0.0
  0
ENDSEC
  0
EOF
