  0
SECTION
  2
HEADER
  9
$ACADVER
  1
AC1009
  9
$INSBASE
 10
0.0
 20
0.0
 30
0.0
  9
$EXTMIN
 10
-0.0000001762611532
 20
0.0000000818797616
 30
0.0
  9
$EXTMAX
 10
208.59711614790271
 20
86.616652146598
 30
0.0
  9
$LIMMIN
 10
0.0
 20
0.0
  9
$LIMMAX
 10
297.0
 20
210.0
  9
$ORTHOMODE
 70
     1
  9
$REGENMODE
 70
     1
  9
$FILLMODE
 70
     1
  9
$QTEXTMODE
 70
     0
  9
$MIRRTEXT
 70
     1
  9
$DRAGMODE
 70
     2
  9
$LTSCALE
 40
1.0
  9
$OSMODE
 70
    57
  9
$ATTMODE
 70
     1
  9
$TEXTSIZE
 40
6.4000000000000012
  9
$TRACEWID
 40
0.05
  9
$TEXTSTYLE
  7
STANDARD
  9
$CLAYER
  8
0
  9
$CELTYPE
  6
CONTINUOUS
  9
$CECOLOR
 62
     7
  9
$DIMSCALE
 40
1.0
  9
$DIMASZ
 40
3.0
  9
$DIMEXO
 40
1.0
  9
$DIMDLI
 40
0.0
  9
$DIMRND
 40
0.0
  9
$DIMDLE
 40
0.0
  9
$DIMEXE
 40
1.0
  9
$DIMTP
 40
0.0
  9
$DIMTM
 40
0.0
  9
$DIMTXT
 40
3.2000000000000002
  9
$DIMCEN
 40
0.0
  9
$DIMTSZ
 40
0.0
  9
$DIMTOL
 70
     0
  9
$DIMLIM
 70
     0
  9
$DIMTIH
 70
     0
  9
$DIMTOH
 70
     0
  9
$DIMSE1
 70
     0
  9
$DIMSE2
 70
     0
  9
$DIMTAD
 70
     1
  9
$DIMZIN
 70
     8
  9
$DIMBLK
  1

  9
$DIMASO
 70
     1
  9
$DIMSHO
 70
     1
  9
$DIMPOST
  1

  9
$DIMAPOST
  1

  9
$DIMALT
 70
     0
  9
$DIMALTD
 70
     2
  9
$DIMALTF
 40
0.04
  9
$DIMLFAC
 40
1.0
  9
$DIMTOFL
 70
     1
  9
$DIMTVP
 40
1.0
  9
$DIMTIX
 70
     1
  9
$DIMSOXD
 70
     0
  9
$DIMSAH
 70
     0
  9
$DIMBLK1
  1

  9
$DIMBLK2
  1

  9
$DIMSTYLE
  2
MISUMI
  9
$DIMCLRD
 70
     0
  9
$DIMCLRE
 70
     0
  9
$DIMCLRT
 70
     0
  9
$DIMTFAC
 40
0.6
  9
$DIMGAP
 40
1.0
  9
$LUNITS
 70
     2
  9
$LUPREC
 70
     4
  9
$SKETCHINC
 40
0.1
  9
$FILLETRAD
 40
0.3
  9
$AUNITS
 70
     0
  9
$AUPREC
 70
     0
  9
$MENU
  1
acad
  9
$ELEVATION
 40
0.0
  9
$PELEVATION
 40
0.0
  9
$THICKNESS
 40
0.0
  9
$LIMCHECK
 70
     0
  9
$BLIPMODE
 70
     1
  9
$CHAMFERA
 40
0.5
  9
$CHAMFERB
 40
0.5
  9
$SKPOLY
 70
     0
  9
$TDCREATE
 40
2451464.6006649309
  9
$TDUPDATE
 40
2453776.7025748608
  9
$TDINDWG
 40
0.1370398032
  9
$TDUSRTIMER
 40
0.1370376157
  9
$USRTIMER
 70
     1
  9
$ANGBASE
 50
0.0
  9
$ANGDIR
 70
     0
  9
$PDMODE
 70
     0
  9
$PDSIZE
 40
0.0
  9
$PLINEWID
 40
0.0
  9
$COORDS
 70
     0
  9
$SPLFRAME
 70
     0
  9
$SPLINETYPE
 70
     6
  9
$SPLINESEGS
 70
     8
  9
$ATTDIA
 70
     0
  9
$ATTREQ
 70
     1
  9
$HANDLING
 70
     1
  9
$HANDSEED
  5
745
  9
$SURFTAB1
 70
     6
  9
$SURFTAB2
 70
     6
  9
$SURFTYPE
 70
     6
  9
$SURFU
 70
     6
  9
$SURFV
 70
     6
  9
$UCSNAME
  2

  9
$UCSORG
 10
0.0
 20
0.0
 30
0.0
  9
$UCSXDIR
 10
1.0
 20
0.0
 30
0.0
  9
$UCSYDIR
 10
0.0
 20
1.0
 30
0.0
  9
$PUCSNAME
  2

  9
$PUCSORG
 10
0.0
 20
0.0
 30
0.0
  9
$PUCSXDIR
 10
1.0
 20
0.0
 30
0.0
  9
$PUCSYDIR
 10
0.0
 20
1.0
 30
0.0
  9
$USERI1
 70
     0
  9
$USERI2
 70
     0
  9
$USERI3
 70
     0
  9
$USERI4
 70
     0
  9
$USERI5
 70
     0
  9
$USERR1
 40
0.0
  9
$USERR2
 40
0.0
  9
$USERR3
 40
0.0
  9
$USERR4
 40
0.0
  9
$USERR5
 40
0.0
  9
$WORLDVIEW
 70
     1
  9
$SHADEDGE
 70
     3
  9
$SHADEDIF
 70
    70
  9
$TILEMODE
 70
     1
  9
$MAXACTVP
 70
    16
  9
$PLIMCHECK
 70
     0
  9
$PEXTMIN
 10
1.0000000000000000E+020
 20
1.0000000000000000E+020
 30
1.0000000000000000E+020
  9
$PEXTMAX
 10
-1.0000000000000000E+020
 20
-1.0000000000000000E+020
 30
-1.0000000000000000E+020
  9
$PLIMMIN
 10
0.0
 20
0.0
  9
$PLIMMAX
 10
12.0
 20
9.0
  9
$UNITMODE
 70
     0
  9
$VISRETAIN
 70
     0
  9
$PLINEGEN
 70
     0
  9
$PSLTSCALE
 70
     1
  0
ENDSEC
  0
SECTION
  2
TABLES
  0
TABLE
  2
VPORT
 70
     2
  0
VPORT
  2
*ACTIVE
 70
     0
 10
0.0
 20
0.0
 11
1.0
 21
1.0
 12
126.8539968253754
 22
43.304569896224891
 13
0.0
 23
0.0
 14
10.0
 24
10.0
 15
10.0
 25
10.0
 16
0.0
 26
0.0
 36
1.0
 17
0.0
 27
0.0
 37
0.0
 40
162.2730551802882
 41
1.5717852684144811
 42
50.0
 43
0.0
 44
0.0
 50
0.0
 51
0.0
 71
     0
 72
   100
 73
     1
 74
     0
 75
     0
 76
     0
 77
     0
 78
     0
  0
ENDTAB
  0
TABLE
  2
LTYPE
 70
     2
  0
LTYPE
  2
CONTINUOUS
 70
     0
  3
Solid line
 72
    65
 73
     0
 40
0.0
  0
LTYPE
  2
CENTER
 70
     0
  3
Center ____ _ ____ _ ____ _ ____ _ ____ _ ____
 72
    65
 73
     4
 40
2.0
 49
1.25
 49
-0.25
 49
0.25
 49
-0.25
  0
ENDTAB
  0
TABLE
  2
LAYER
 70
     2
  0
LAYER
  2
0
 70
     0
 62
     7
  6
CONTINUOUS
  0
LAYER
  2
CENTER
 70
     0
 62
     1
  6
CENTER
  0
ENDTAB
  0
TABLE
  2
STYLE
 70
     1
  0
STYLE
  2
STANDARD
 70
     0
 40
0.0
 41
1.0
 50
0.0
 71
     0
 42
6.4000000000000012
  3
txt
  4

  0
ENDTAB
  0
TABLE
  2
VIEW
 70
     0
  0
ENDTAB
  0
TABLE
  2
UCS
 70
     0
  0
ENDTAB
  0
TABLE
  2
APPID
 70
     2
  0
APPID
  2
ACAD
 70
     0
  0
APPID
  2
ACAD_DSTYLE_DIMTEXT_FILL
 70
     0
  0
ENDTAB
  0
TABLE
  2
DIMSTYLE
 70
     1
  0
DIMSTYLE
  2
MISUMI
 70
     0
  3

  4

  5

  6

  7

 40
1.0
 41
3.0
 42
1.0
 43
0.0
 44
1.0
 45
0.0
 46
0.0
 47
0.0
 48
0.0
140
3.2000000000000002
141
0.0
142
0.0
143
0.04
144
1.0
145
1.0
146
0.6
147
1.0
 71
     0
 72
     0
 73
     0
 74
     0
 75
     0
 76
     0
 77
     1
 78
     8
170
     0
171
     2
172
     1
173
     0
174
     1
175
     0
176
     0
177
     0
178
     0
  0
ENDTAB
  0
ENDSEC
  0
SECTION
  2
BLOCKS
  0
BLOCK
  8
0
  2
$MODEL_SPACE
 70
     0
 10
0.0
 20
0.0
 30
0.0
  3
$MODEL_SPACE
  1

  0
ENDBLK
  5
709
  8
0
  0
BLOCK
 67
     1
  8
0
  2
$PAPER_SPACE
 70
     0
 10
0.0
 20
0.0
 30
0.0
  3
$PAPER_SPACE
  1

  0
ENDBLK
  5
705
 67
     1
  8
0
  0
ENDSEC
  0
SECTION
  2
ENTITIES
  0
TEXT
  5
598
  8
0
  6
CONTINUOUS
 62
     7
 10
-0.0000001762611532
 20
0.0000000818797617
 30
0.0
 40
4.0
  1
HP58040
  0
TEXT
  5
599
  8
0
  6
CONTINUOUS
 62
     7
 10
-0.0000001762611532
 20
6.8914681995134401
 30
0.0
 40
4.0
  1
HFSP5-8040-50
  0
LINE
  5
59A
  8
0
  6
CONTINUOUS
 62
     7
 10
206.0971161479026
 20
44.916662156598044
 30
0.0
 11
156.0971161479026
 21
44.916662156598044
 31
0.0
  0
LINE
  5
59B
  8
0
  6
CONTINUOUS
 62
     7
 10
156.0971161479026
 20
51.516662156598152
 30
0.0
 11
206.0971161479026
 21
51.516662156598152
 31
0.0
  0
LINE
  5
59C
  8
0
  6
CONTINUOUS
 62
     7
 10
156.0971161479026
 20
57.516662156598038
 30
0.0
 11
206.0971161479026
 21
57.516662156598038
 31
0.0
  0
LINE
  5
59D
  8
0
  6
CONTINUOUS
 62
     7
 10
206.0971161479026
 20
84.116662156598039
 30
0.0
 11
156.0971161479026
 21
84.116662156598082
 31
0.0
  0
LINE
  5
59E
  8
0
  6
CONTINUOUS
 62
     7
 10
156.0971161479026
 20
84.116662156598082
 30
0.0
 11
156.0971161479026
 21
44.916662156598044
 31
0.0
  0
LINE
  5
59F
  8
0
  6
CONTINUOUS
 62
     7
 10
206.0971161479026
 20
44.916662156598044
 30
0.0
 11
206.0971161479026
 21
84.116662156598039
 31
0.0
  0
LINE
  5
5A0
  8
0
  6
CONTINUOUS
 62
     7
 10
156.0971161479026
 20
71.516672166598056
 30
0.0
 11
206.0971161479026
 21
71.516672166598056
 31
0.0
  0
LINE
  5
5A1
  8
0
  6
CONTINUOUS
 62
     7
 10
156.0971161479026
 20
77.516673256598096
 30
0.0
 11
206.0971161479026
 21
77.516673256598096
 31
0.0
  0
LINE
  5
5A2
  8
0
  6
CONTINUOUS
 62
     7
 10
64.807838581763349
 20
81.016652146598062
 30
0.0
 11
68.85806858176332
 21
81.016652146598062
 31
0.0
  0
LINE
  5
5A3
  8
0
  6
CONTINUOUS
 62
     7
 10
59.83295858176335
 20
84.116652146597957
 30
0.0
 11
73.83295858176335
 21
84.116652146598
 31
0.0
  0
LINE
  5
5A4
  8
0
  6
CONTINUOUS
 62
     7
 10
38.832958581763371
 20
70.516652146597878
 30
0.0
 11
34.307868581763437
 21
70.516652146597878
 31
0.0
  0
LINE
  5
5A5
  8
0
  6
CONTINUOUS
 62
     7
 10
26.832958581763371
 20
83.516662146597952
 30
0.0
 11
26.832958581763371
 21
77.81666214659802
 31
0.0
  0
LINE
  5
5A6
  8
0
  6
CONTINUOUS
 62
     7
 10
33.832958581763151
 20
84.116652146598
 30
0.0
 11
33.832958581763137
 21
82.516652146597963
 31
0.0
  0
LINE
  5
5A7
  8
CENTER
  6
CENTER
 62
     1
 10
36.832958581763357
 20
78.116662156597982
 30
0.0
 11
36.832958581763357
 21
70.916662156597994
 31
0.0
  0
LINE
  5
5A8
  8
0
  6
CONTINUOUS
 62
     7
 10
29.772318581959262
 20
68.516652146598105
 30
0.0
 11
32.832958581763378
 21
71.577292156598261
 31
0.0
  0
LINE
  5
5A9
  8
0
  6
CONTINUOUS
 62
     7
 10
30.625808581763359
 20
67.248822156598209
 30
0.0
 11
33.600758581763451
 21
70.223762156597971
 31
0.0
  0
ARC
  5
5AA
  8
0
  6
CONTINUOUS
 62
     7
 10
31.332958581763371
 20
66.541742156598332
 30
0.0
 40
1.0
 50
135.0
 51
180.00001000000091
  0
LINE
  5
5AB
  8
0
  6
CONTINUOUS
 62
     7
 10
27.13295858176339
 20
71.516652146598076
 30
0.0
 11
28.832958581763371
 21
71.516652146598062
 31
0.0
  0
LINE
  5
5AC
  8
0
  6
CONTINUOUS
 62
     7
 10
28.832958581763371
 20
68.516652146598119
 30
0.0
 11
29.772318581959262
 21
68.516652146598105
 31
0.0
  0
ARC
  5
5AD
  8
0
  6
CONTINUOUS
 62
     7
 10
34.307854583385762
 20
69.516661775549139
 30
0.0
 40
0.9999903711462128
 50
89.999200944345745
 51
134.999417422931
  0
LINE
  5
5AE
  8
0
  6
CONTINUOUS
 62
     7
 10
29.7722085816002
 20
80.516652146598133
 30
0.0
 11
32.832958581763357
 21
77.455922146696039
 31
0.0
  0
LINE
  5
5AF
  8
0
  6
CONTINUOUS
 62
     7
 10
28.832958581763371
 20
80.516652146598091
 30
0.0
 11
28.832958581763371
 21
77.516652146598062
 31
0.0
  0
ARC
  5
5B0
  8
0
  6
CONTINUOUS
 62
     7
 10
27.132938581763369
 20
77.81666214659802
 30
0.0
 40
0.30000001
 50
179.999989999999
 51
270.0
  0
LINE
  5
5B1
  8
0
  6
CONTINUOUS
 62
     7
 10
27.132938581763369
 20
77.516652146598062
 30
0.0
 11
28.832958581763371
 21
77.516652146598062
 31
0.0
  0
LINE
  5
5B2
  8
0
  6
CONTINUOUS
 62
     7
 10
28.832958581763371
 20
80.516652146598091
 30
0.0
 11
29.7722085816002
 21
80.516652146598133
 31
0.0
  0
LINE
  5
5B3
  8
0
  6
CONTINUOUS
 62
     7
 10
33.893528579802982
 20
78.516652146597963
 30
0.0
 11
36.313343339492711
 21
78.516652146597963
 31
0.0
  0
LINE
  5
5B4
  8
0
  6
CONTINUOUS
 62
     7
 10
30.83292858176333
 20
81.57726214659813
 30
0.0
 11
33.893528579802982
 21
78.516652146597963
 31
0.0
  0
LINE
  5
5B5
  8
0
  6
CONTINUOUS
 62
     7
 10
30.832958581763371
 20
82.516652146597934
 30
0.0
 11
33.832958581763137
 21
82.516652146597963
 31
0.0
  0
LINE
  5
5B6
  8
0
  6
CONTINUOUS
 62
     7
 10
30.832958581763371
 20
82.516652146597934
 30
0.0
 11
30.832958581763371
 21
81.577332146597684
 31
0.0
  0
LINE
  5
5B7
  8
0
  6
CONTINUOUS
 62
     7
 10
27.032951081861022
 20
84.116652146598
 30
0.0
 11
33.832958581763151
 21
84.116652146598
 31
0.0
  0
LINE
  5
5B8
  8
CENTER
  6
CENTER
 62
     1
 10
56.832958581763357
 20
78.116652056597971
 30
0.0
 11
56.832958581763357
 21
70.916652246598019
 31
0.0
  0
LINE
  5
5B9
  8
0
  6
CONTINUOUS
 62
     7
 10
39.832958581763371
 20
84.116652146598
 30
0.0
 11
39.832958581763371
 21
82.516652146597963
 31
0.0
  0
LINE
  5
5BA
  8
0
  6
CONTINUOUS
 62
     7
 10
53.832958581763357
 20
84.116652146598014
 30
0.0
 11
53.832958581763357
 21
82.516652146597963
 31
0.0
  0
LINE
  5
5BB
  8
0
  6
CONTINUOUS
 62
     7
 10
59.83295858176335
 20
84.116652146597957
 30
0.0
 11
59.832958581763371
 21
82.516652146597963
 31
0.0
  0
ARC
  5
5BC
  8
0
  6
CONTINUOUS
 62
     7
 10
53.832958581763357
 20
69.516652146598105
 30
0.0
 40
1.0
 50
90.000003000000859
 51
180.00001000000091
  0
LINE
  5
5BD
  8
0
  6
CONTINUOUS
 62
     7
 10
50.832908581763419
 20
81.577312146598089
 30
0.0
 11
53.893558581763322
 21
78.516642146598002
 31
0.0
  0
LINE
  5
5BE
  8
0
  6
CONTINUOUS
 62
     7
 10
50.832958581763151
 20
82.516652146597963
 30
0.0
 11
53.832958581763357
 21
82.516652146597963
 31
0.0
  0
LINE
  5
5BF
  8
0
  6
CONTINUOUS
 62
     7
 10
40.83295858176335
 20
72.516652146598091
 30
0.0
 11
40.83295858176335
 21
77.041802146598059
 31
0.0
  0
ARC
  5
5C0
  8
0
  6
CONTINUOUS
 62
     7
 10
38.832958581763371
 20
72.516652146598091
 30
0.0
 40
2.0
 50
270.0
 51
0.0
  0
LINE
  5
5C1
  8
0
  6
CONTINUOUS
 62
     7
 10
44.807808581763432
 20
81.016652146598062
 30
0.0
 11
48.858068581763362
 21
81.016652146598062
 31
0.0
  0
LINE
  5
5C2
  8
0
  6
CONTINUOUS
 62
     7
 10
44.100688581763322
 20
80.723752146598187
 30
0.0
 11
41.125818581763099
 21
77.748892146598152
 31
0.0
  0
ARC
  5
5C3
  8
0
  6
CONTINUOUS
 62
     7
 10
41.832958581763243
 20
77.041802146598059
 30
0.0
 40
1.0
 50
135.0
 51
180.00001000000091
  0
LINE
  5
5C4
  8
0
  6
CONTINUOUS
 62
     7
 10
42.83295858176335
 20
82.516652146597963
 30
0.0
 11
39.832958581763371
 21
82.516652146597963
 31
0.0
  0
LINE
  5
5C5
  8
0
  6
CONTINUOUS
 62
     7
 10
42.832938581763337
 20
81.57726214659813
 30
0.0
 11
39.772328583919759
 21
78.516652146597963
 31
0.0
  0
ARC
  5
5C6
  8
0
  6
CONTINUOUS
 62
     7
 10
44.807808581763432
 20
80.016652146598076
 30
0.0
 40
1.0
 50
90.000003000000859
 51
135.0
  0
LINE
  5
5C7
  8
0
  6
CONTINUOUS
 62
     7
 10
42.83295858176335
 20
82.516652146597963
 30
0.0
 11
42.83295858176335
 21
81.577332146597684
 31
0.0
  0
ARC
  5
5C8
  8
0
  6
CONTINUOUS
 62
     7
 10
48.858068581763362
 20
80.016652146598076
 30
0.0
 40
1.0
 50
45.000000999999202
 51
90.000003000000859
  0
ARC
  5
5C9
  8
0
  6
CONTINUOUS
 62
     7
 10
50.332958581763251
 20
78.541772146597992
 30
0.0
 40
1.0
 50
0.0
 51
45.000000999999202
  0
LINE
  5
5CA
  8
0
  6
CONTINUOUS
 62
     7
 10
49.565148581763431
 20
80.723732146598309
 30
0.0
 11
51.040028581763181
 21
79.248862146598
 31
0.0
  0
LINE
  5
5CB
  8
0
  6
CONTINUOUS
 62
     7
 10
50.832958581763151
 20
82.516652146597963
 30
0.0
 11
50.832958581763151
 21
81.577332146597684
 31
0.0
  0
ARC
  5
5CC
  8
0
  6
CONTINUOUS
 62
     7
 10
56.832958581763357
 20
74.516662156597974
 30
0.0
 40
2.099999899999998
 50
41.08749099999968
 51
318.91252000000048
  0
LINE
  5
5CD
  8
0
  6
CONTINUOUS
 62
     7
 10
60.582938581763408
 20
72.351592156598301
 30
0.0
 11
59.042578581763323
 21
73.240922156597932
 31
0.0
  0
ARC
  5
5CE
  8
0
  6
CONTINUOUS
 62
     7
 10
60.332958581763357
 20
71.016652146598091
 30
0.0
 40
0.5
 50
270.0
 51
0.0
  0
LINE
  5
5CF
  8
0
  6
CONTINUOUS
 62
     7
 10
53.832958581763357
 20
70.516652146597878
 30
0.0
 11
60.332958581763357
 21
70.516652146597878
 31
0.0
  0
ARC
  5
5D0
  8
0
  6
CONTINUOUS
 62
     7
 10
60.332958581763357
 20
71.918572156598032
 30
0.0
 40
0.5
 50
0.0
 51
60.000002000001302
  0
LINE
  5
5D1
  8
0
  6
CONTINUOUS
 62
     7
 10
60.832958581763357
 20
71.918572156598032
 30
0.0
 11
60.832958581763357
 21
71.016652146598091
 31
0.0
  0
LINE
  5
5D2
  8
0
  6
CONTINUOUS
 62
     7
 10
62.832958581763251
 20
82.516652146597963
 30
0.0
 11
59.832958581763371
 21
82.516652146597963
 31
0.0
  0
LINE
  5
5D3
  8
0
  6
CONTINUOUS
 62
     7
 10
62.832908581763419
 20
81.577312146598089
 30
0.0
 11
59.772258581763381
 21
78.516642146598002
 31
0.0
  0
LINE
  5
5D4
  8
0
  6
CONTINUOUS
 62
     7
 10
64.100698581763368
 20
80.723752146598187
 30
0.0
 11
59.342488581763192
 21
75.965552156598307
 31
0.0
  0
ARC
  5
5D5
  8
0
  6
CONTINUOUS
 62
     7
 10
58.792578581763323
 20
72.807922156598295
 30
0.0
 40
0.5
 50
60.000002000001302
 51
138.9125099999994
  0
ARC
  5
5D6
  8
0
  6
CONTINUOUS
 62
     7
 10
58.792578581763323
 20
76.225402156597994
 30
0.0
 40
0.5
 50
221.0874899999981
 51
300.00000000000051
  0
LINE
  5
5D7
  8
0
  6
CONTINUOUS
 62
     7
 10
59.042578581763323
 20
75.79238215659808
 30
0.0
 11
59.342508581763411
 21
75.965542156597991
 31
0.0
  0
LINE
  5
5D8
  8
0
  6
CONTINUOUS
 62
     7
 10
53.893628581763323
 20
78.516652146597963
 30
0.0
 11
56.31351654457346
 21
78.516652146597963
 31
0.0
  0
LINE
  5
5D9
  8
0
  6
CONTINUOUS
 62
     7
 10
59.772288581763348
 20
78.516652146597963
 30
0.0
 11
57.352420620031502
 21
78.516652146597963
 31
0.0
  0
ARC
  5
5DA
  8
0
  6
CONTINUOUS
 62
     7
 10
64.807838581763349
 20
80.016652146598076
 30
0.0
 40
1.0
 50
90.000003000000859
 51
135.0
  0
LINE
  5
5DB
  8
0
  6
CONTINUOUS
 62
     7
 10
62.832958581763251
 20
82.516652146597963
 30
0.0
 11
62.832958581763251
 21
81.577332146597684
 31
0.0
  0
LINE
  5
5DC
  8
0
  6
CONTINUOUS
 62
     7
 10
39.832958581763371
 20
84.116652146598
 30
0.0
 11
53.832958581763357
 21
84.116652146598014
 31
0.0
  0
LINE
  5
5DD
  8
0
  6
CONTINUOUS
 62
     7
 10
94.832958581763421
 20
70.516652146597878
 30
0.0
 11
99.358038581763083
 21
70.516652146597878
 31
0.0
  0
LINE
  5
5DE
  8
0
  6
CONTINUOUS
 62
     7
 10
99.772298581763394
 20
78.516652146597963
 30
0.0
 11
97.352420620031452
 21
78.516652146597963
 31
0.0
  0
LINE
  5
5DF
  8
0
  6
CONTINUOUS
 62
     7
 10
93.832958581763265
 20
84.116652146598
 30
0.0
 11
93.832958581763265
 21
82.516652146597963
 31
0.0
  0
LINE
  5
5E0
  8
CENTER
  6
CENTER
 62
     1
 10
96.832958581763307
 20
78.116662156597982
 30
0.0
 11
96.832958581763307
 21
70.916662156597994
 31
0.0
  0
LINE
  5
5E1
  8
0
  6
CONTINUOUS
 62
     7
 10
73.83295858176335
 20
84.116652146598
 30
0.0
 11
73.83295858176335
 21
82.516652146597963
 31
0.0
  0
LINE
  5
5E2
  8
0
  6
CONTINUOUS
 62
     7
 10
79.832958581763293
 20
84.116652146598
 30
0.0
 11
79.832958581763293
 21
82.516652146597963
 31
0.0
  0
LINE
  5
5E3
  8
0
  6
CONTINUOUS
 62
     7
 10
84.100718581763388
 20
80.723772146598037
 30
0.0
 11
82.625848581763137
 21
79.248892146598152
 31
0.0
  0
ARC
  5
5E4
  8
0
  6
CONTINUOUS
 62
     7
 10
76.832958581763293
 20
74.516662156597974
 30
0.0
 40
2.099999899999998
 50
221.0874899999981
 51
138.9125099999994
  0
LINE
  5
5E5
  8
0
  6
CONTINUOUS
 62
     7
 10
73.082938581763472
 20
72.351582156598312
 30
0.0
 11
74.623298581763351
 21
73.240912156598299
 31
0.0
  0
LINE
  5
5E6
  8
CENTER
  6
CENTER
 62
     1
 10
76.832958581763293
 20
79.156662146598151
 30
0.0
 11
76.832958581763293
 21
69.87666214659798
 31
0.0
  0
LINE
  5
5E7
  8
0
  6
CONTINUOUS
 62
     7
 10
79.832958581763293
 20
70.516652146597878
 30
0.0
 11
73.332958581763393
 21
70.516652146597878
 31
0.0
  0
ARC
  5
5E8
  8
0
  6
CONTINUOUS
 62
     7
 10
73.332958581763393
 20
71.918572156598032
 30
0.0
 40
0.5
 50
120.0000000000005
 51
180.00001000000091
  0
ARC
  5
5E9
  8
0
  6
CONTINUOUS
 62
     7
 10
73.332958581763393
 20
71.016652146598091
 30
0.0
 40
0.5
 50
179.999989999999
 51
270.0
  0
LINE
  5
5EA
  8
0
  6
CONTINUOUS
 62
     7
 10
72.832958581763293
 20
71.918572156598032
 30
0.0
 11
72.832958581763293
 21
71.016652146598091
 31
0.0
  0
ARC
  5
5EB
  8
0
  6
CONTINUOUS
 62
     7
 10
79.832958581763293
 20
69.516652146598105
 30
0.0
 40
1.0
 50
0.0
 51
90.000003000000859
  0
LINE
  5
5EC
  8
0
  6
CONTINUOUS
 62
     7
 10
73.893628581763366
 20
78.516652146597963
 30
0.0
 11
76.313516544573474
 21
78.516652146597963
 31
0.0
  0
LINE
  5
5ED
  8
0
  6
CONTINUOUS
 62
     7
 10
69.565158581763171
 20
80.723742146598042
 30
0.0
 11
74.323368581763546
 21
75.965542156597991
 31
0.0
  0
ARC
  5
5EE
  8
0
  6
CONTINUOUS
 62
     7
 10
74.873298581763223
 20
72.807922156598295
 30
0.0
 40
0.5
 50
41.08749099999968
 51
120.0000000000005
  0
ARC
  5
5EF
  8
0
  6
CONTINUOUS
 62
     7
 10
74.873298581763223
 20
76.225402156597994
 30
0.0
 40
0.5
 50
239.99999999999949
 51
318.91250999999937
  0
LINE
  5
5F0
  8
0
  6
CONTINUOUS
 62
     7
 10
74.623298581763351
 20
75.792392156598183
 30
0.0
 11
74.323388581763226
 21
75.965552156598307
 31
0.0
  0
LINE
  5
5F1
  8
0
  6
CONTINUOUS
 62
     7
 10
70.832908581763434
 20
81.577332146597684
 30
0.0
 11
73.893578581763322
 21
78.516652146597963
 31
0.0
  0
LINE
  5
5F2
  8
0
  6
CONTINUOUS
 62
     7
 10
70.832958581763222
 20
82.516652146597963
 30
0.0
 11
73.83295858176335
 21
82.516652146597963
 31
0.0
  0
ARC
  5
5F3
  8
0
  6
CONTINUOUS
 62
     7
 10
68.85806858176332
 20
80.016652146598076
 30
0.0
 40
1.0
 50
45.000000999999202
 51
90.000003000000859
  0
LINE
  5
5F4
  8
0
  6
CONTINUOUS
 62
     7
 10
70.832958581763222
 20
82.516652146597963
 30
0.0
 11
70.832958581763222
 21
81.577332146597684
 31
0.0
  0
LINE
  5
5F5
  8
0
  6
CONTINUOUS
 62
     7
 10
79.772288581763362
 20
78.516652146597963
 30
0.0
 11
77.352420620031523
 21
78.516652146597991
 31
0.0
  0
ARC
  5
5F6
  8
0
  6
CONTINUOUS
 62
     7
 10
83.332958581763293
 20
78.541772146597992
 30
0.0
 40
1.0
 50
135.0
 51
180.00001000000091
  0
LINE
  5
5F7
  8
0
  6
CONTINUOUS
 62
     7
 10
82.832958581763279
 20
82.516652146597963
 30
0.0
 11
79.832958581763293
 21
82.516652146597963
 31
0.0
  0
LINE
  5
5F8
  8
0
  6
CONTINUOUS
 62
     7
 10
82.832958581763279
 20
81.577342146598014
 30
0.0
 11
79.772288581763362
 21
78.516672146598253
 31
0.0
  0
LINE
  5
5F9
  8
0
  6
CONTINUOUS
 62
     7
 10
82.832958581763279
 20
82.516652146597963
 30
0.0
 11
82.832958581763279
 21
81.577332146597684
 31
0.0
  0
LINE
  5
5FA
  8
0
  6
CONTINUOUS
 62
     7
 10
92.832958581763279
 20
72.516652146598091
 30
0.0
 11
92.832958581763279
 21
77.041832146598082
 31
0.0
  0
ARC
  5
5FB
  8
0
  6
CONTINUOUS
 62
     7
 10
94.832958581763421
 20
72.516652146598091
 30
0.0
 40
2.0
 50
179.999989999999
 51
270.0
  0
LINE
  5
5FC
  8
0
  6
CONTINUOUS
 62
     7
 10
89.565208581763443
 20
80.723772146598037
 30
0.0
 11
92.540048581763557
 21
77.748932146598307
 31
0.0
  0
LINE
  5
5FD
  8
0
  6
CONTINUOUS
 62
     7
 10
84.807838581763278
 20
81.016662146598065
 30
0.0
 11
88.858098581763386
 21
81.016662146598065
 31
0.0
  0
ARC
  5
5FE
  8
0
  6
CONTINUOUS
 62
     7
 10
84.807838581763278
 20
80.01666214659808
 30
0.0
 40
1.0
 50
90.000003000000859
 51
135.0
  0
ARC
  5
5FF
  8
0
  6
CONTINUOUS
 62
     7
 10
88.858098581763386
 20
80.01666214659808
 30
0.0
 40
1.0
 50
45.000000999999202
 51
90.000003000000859
  0
ARC
  5
600
  8
0
  6
CONTINUOUS
 62
     7
 10
91.832958581763307
 20
77.041832146598082
 30
0.0
 40
1.0
 50
0.0
 51
45.000000999999202
  0
LINE
  5
601
  8
0
  6
CONTINUOUS
 62
     7
 10
93.89364858182897
 20
78.516652146597963
 30
0.0
 11
96.313516544573474
 21
78.516652146597963
 31
0.0
  0
LINE
  5
602
  8
0
  6
CONTINUOUS
 62
     7
 10
90.832958581763421
 20
81.577342146598014
 30
0.0
 11
93.89364858182897
 21
78.516652146597963
 31
0.0
  0
LINE
  5
603
  8
0
  6
CONTINUOUS
 62
     7
 10
90.832958581763421
 20
82.516652146597963
 30
0.0
 11
93.832958581763265
 21
82.516652146597963
 31
0.0
  0
LINE
  5
604
  8
0
  6
CONTINUOUS
 62
     7
 10
90.832958581763421
 20
82.516652146597963
 30
0.0
 11
90.832958581763421
 21
81.577332146597684
 31
0.0
  0
LINE
  5
605
  8
0
  6
CONTINUOUS
 62
     7
 10
79.832958581763293
 20
84.116652146598
 30
0.0
 11
93.832958581763265
 21
84.116652146598
 31
0.0
  0
LINE
  5
606
  8
0
  6
CONTINUOUS
 62
     7
 10
106.83295858176341
 20
83.516662146597952
 30
0.0
 11
106.83295858176341
 21
77.816657176598014
 31
0.0
  0
LINE
  5
607
  8
0
  6
CONTINUOUS
 62
     7
 10
99.832958581763307
 20
84.116652146598
 30
0.0
 11
99.832958581763307
 21
82.516652146597963
 31
0.0
  0
LINE
  5
608
  8
0
  6
CONTINUOUS
 62
     7
 10
100.83295858176319
 20
71.577342156598306
 30
0.0
 11
100.83295858176319
 21
73.997021780703847
 31
0.0
  0
LINE
  5
609
  8
0
  6
CONTINUOUS
 62
     7
 10
106.5329585817633
 20
71.516647176598056
 30
0.0
 11
104.83295858176319
 21
71.516647176598056
 31
0.0
  0
ARC
  5
60A
  8
0
  6
CONTINUOUS
 62
     7
 10
102.33295858176319
 20
66.541742156598332
 30
0.0
 40
1.0
 50
0.0
 51
45.000000999999202
  0
LINE
  5
60B
  8
0
  6
CONTINUOUS
 62
     7
 10
103.0400485817632
 20
67.2488421565983
 30
0.0
 11
100.0651285817632
 21
70.223752146597974
 31
0.0
  0
LINE
  5
60C
  8
0
  6
CONTINUOUS
 62
     7
 10
103.8936385817632
 20
68.516652146598105
 30
0.0
 11
100.83295858176319
 21
71.577342156598306
 31
0.0
  0
ARC
  5
60D
  8
0
  6
CONTINUOUS
 62
     7
 10
99.358038581763083
 20
69.516652146598105
 30
0.0
 40
1.0
 50
45.000000999999202
 51
90.000003000000859
  0
LINE
  5
60E
  8
0
  6
CONTINUOUS
 62
     7
 10
104.83295858176319
 20
68.516652146598105
 30
0.0
 11
104.83295858176319
 21
71.516647176598056
 31
0.0
  0
LINE
  5
60F
  8
0
  6
CONTINUOUS
 62
     7
 10
103.8936285817632
 20
68.516652146598105
 30
0.0
 11
104.83295858176319
 21
68.516652146598105
 31
0.0
  0
LINE
  5
610
  8
0
  6
CONTINUOUS
 62
     7
 10
106.5329685817634
 20
77.516647176598084
 30
0.0
 11
104.83295858176319
 21
77.516647176598084
 31
0.0
  0
LINE
  5
611
  8
0
  6
CONTINUOUS
 62
     7
 10
103.8935885817633
 20
80.516622146598152
 30
0.0
 11
100.83295858176319
 21
77.456002146402142
 31
0.0
  0
LINE
  5
612
  8
0
  6
CONTINUOUS
 62
     7
 10
104.83295858176319
 20
80.516652146598091
 30
0.0
 11
104.83295858176319
 21
77.516647176598084
 31
0.0
  0
LINE
  5
613
  8
0
  6
CONTINUOUS
 62
     7
 10
100.83295858176319
 20
77.456002146402142
 30
0.0
 11
100.83295858176319
 21
75.036271510251552
 31
0.0
  0
LINE
  5
614
  8
0
  6
CONTINUOUS
 62
     7
 10
102.83295858176341
 20
82.516652146597963
 30
0.0
 11
99.832958581763307
 21
82.516652146597963
 31
0.0
  0
LINE
  5
615
  8
0
  6
CONTINUOUS
 62
     7
 10
102.8329285817633
 20
81.577292146598268
 30
0.0
 11
99.772298581763394
 21
78.516652146597963
 31
0.0
  0
LINE
  5
616
  8
0
  6
CONTINUOUS
 62
     7
 10
102.83295858176341
 20
82.516652146597963
 30
0.0
 11
102.83295858176341
 21
81.577332146597684
 31
0.0
  0
LINE
  5
617
  8
0
  6
CONTINUOUS
 62
     7
 10
103.8936285817632
 20
80.516652146598091
 30
0.0
 11
104.83295858176319
 21
80.516652146598091
 31
0.0
  0
ARC
  5
618
  8
0
  6
CONTINUOUS
 62
     7
 10
106.5329685817634
 20
77.816657176598014
 30
0.0
 40
0.30000001
 50
270.0
 51
0.0
  0
LINE
  5
619
  8
0
  6
CONTINUOUS
 62
     7
 10
99.832958581763307
 20
84.116652146598
 30
0.0
 11
106.6329660816657
 21
84.116652146598
 31
0.0
  0
CIRCLE
  5
61A
  8
0
  6
CONTINUOUS
 62
     7
 10
36.832958581763357
 20
74.516662156597974
 30
0.0
 40
2.1000000000000001
  0
CIRCLE
  5
61B
  8
0
  6
CONTINUOUS
 62
     7
 10
96.832958581763307
 20
74.516662156597974
 30
0.0
 40
2.1000000000000001
  0
LINE
  5
61C
  8
0
  6
CONTINUOUS
 62
     7
 10
79.832958581763293
 20
44.916652146597869
 30
0.0
 11
93.832958581763265
 21
44.916652146597869
 31
0.0
  0
ARC
  5
61D
  8
0
  6
CONTINUOUS
 62
     7
 10
84.807838581763278
 20
49.016642146598102
 30
0.0
 40
1.0
 50
225.0
 51
269.9999969999991
  0
LINE
  5
61E
  8
0
  6
CONTINUOUS
 62
     7
 10
33.893528581763512
 20
50.516652146598091
 30
0.0
 11
36.313516544573531
 21
50.516652146598091
 31
0.0
  0
ARC
  5
61F
  8
0
  6
CONTINUOUS
 62
     7
 10
34.307868581763437
 20
59.516652146597899
 30
0.0
 40
1.0
 50
225.0
 51
269.9999969999991
  0
LINE
  5
620
  8
0
  6
CONTINUOUS
 62
     7
 10
30.625808581763359
 20
61.78448213659798
 30
0.0
 11
33.600758581763451
 21
58.809552146598058
 31
0.0
  0
LINE
  5
621
  8
0
  6
CONTINUOUS
 62
     7
 10
30.332958581763361
 20
62.491562311130963
 30
0.0
 11
30.332958581762689
 21
66.541742156598147
 31
0.0
  0
ARC
  5
622
  8
0
  6
CONTINUOUS
 62
     7
 10
31.332958581763371
 20
62.49156213659802
 30
0.0
 40
1.0
 50
179.999989999999
 51
225.0
  0
LINE
  5
623
  8
0
  6
CONTINUOUS
 62
     7
 10
28.832958581763371
 20
48.516652146598091
 30
0.0
 11
28.832958581763371
 21
51.516652146597792
 31
0.0
  0
LINE
  5
624
  8
0
  6
CONTINUOUS
 62
     7
 10
29.772258581763371
 20
48.516702146597957
 30
0.0
 11
32.83292858176344
 21
51.577352146598002
 31
0.0
  0
LINE
  5
625
  8
0
  6
CONTINUOUS
 62
     7
 10
26.832958581763371
 20
45.516642146597967
 30
0.0
 11
26.832958581763371
 21
51.216642146597977
 31
0.0
  0
LINE
  5
626
  8
0
  6
CONTINUOUS
 62
     7
 10
27.132938581763369
 20
51.516652146597792
 30
0.0
 11
28.832958581763371
 21
51.516652146597792
 31
0.0
  0
LINE
  5
627
  8
0
  6
CONTINUOUS
 62
     7
 10
27.13295858176339
 20
57.516652146597913
 30
0.0
 11
28.832958581763371
 21
57.516652146597913
 31
0.0
  0
ARC
  5
628
  8
0
  6
CONTINUOUS
 62
     7
 10
27.13295858176339
 20
57.81665214659791
 30
0.0
 40
0.3
 50
180.0
 51
270.0
  0
ARC
  5
629
  8
0
  6
CONTINUOUS
 62
     7
 10
27.132938581763369
 20
51.216642146597977
 30
0.0
 40
0.30000001
 50
90.0
 51
180.00001000000091
  0
LINE
  5
62A
  8
0
  6
CONTINUOUS
 62
     7
 10
32.832958581763357
 20
51.577282146598058
 30
0.0
 11
32.832958581763357
 21
53.997046914327342
 31
0.0
  0
LINE
  5
62B
  8
0
  6
CONTINUOUS
 62
     7
 10
28.832958581763371
 20
60.516652146597998
 30
0.0
 11
29.772318581763141
 21
60.516652146597998
 31
0.0
  0
LINE
  5
62C
  8
0
  6
CONTINUOUS
 62
     7
 10
28.832958581763371
 20
60.516652146597998
 30
0.0
 11
28.832958581763371
 21
57.516652146597913
 31
0.0
  0
LINE
  5
62D
  8
0
  6
CONTINUOUS
 62
     7
 10
29.772318581763141
 20
60.516652146597998
 30
0.0
 11
32.83295858176335
 21
57.456012136597991
 31
0.0
  0
LINE
  5
62E
  8
0
  6
CONTINUOUS
 62
     7
 10
32.83295858176335
 20
57.456012136597991
 30
0.0
 11
32.832958581763357
 21
55.036277398868627
 31
0.0
  0
LINE
  5
62F
  8
0
  6
CONTINUOUS
 62
     7
 10
27.0329510818611
 20
44.916652146597869
 30
0.0
 11
33.832958581763137
 21
44.916652146597869
 31
0.0
  0
LINE
  5
630
  8
0
  6
CONTINUOUS
 62
     7
 10
30.832958581763371
 20
46.516652146597963
 30
0.0
 11
30.832958581763371
 21
47.455972146598043
 31
0.0
  0
LINE
  5
631
  8
0
  6
CONTINUOUS
 62
     7
 10
30.832958581763371
 20
46.516652146597963
 30
0.0
 11
33.832958581763137
 21
46.516652146597963
 31
0.0
  0
LINE
  5
632
  8
0
  6
CONTINUOUS
 62
     7
 10
30.83292858176333
 20
47.456042146598037
 30
0.0
 11
33.893528581763512
 21
50.516652146598091
 31
0.0
  0
LINE
  5
633
  8
0
  6
CONTINUOUS
 62
     7
 10
28.832958581763371
 20
48.516652146598091
 30
0.0
 11
29.772288581763348
 21
48.516652146598091
 31
0.0
  0
LINE
  5
634
  8
0
  6
CONTINUOUS
 62
     7
 10
33.832958581763137
 20
44.916652146597869
 30
0.0
 11
33.832958581763137
 21
46.516652146597963
 31
0.0
  0
LINE
  5
635
  8
0
  6
CONTINUOUS
 62
     7
 10
59.772288581763348
 20
50.516652146598091
 30
0.0
 11
57.352420620031431
 21
50.516652146598091
 31
0.0
  0
LINE
  5
636
  8
0
  6
CONTINUOUS
 62
     7
 10
64.100698581763368
 20
48.309552146598023
 30
0.0
 11
59.342488581763192
 21
53.067752136597932
 31
0.0
  0
LINE
  5
637
  8
0
  6
CONTINUOUS
 62
     7
 10
53.832958581763357
 20
58.51665214659797
 30
0.0
 11
60.332958581763357
 21
58.51665214659797
 31
0.0
  0
LINE
  5
638
  8
0
  6
CONTINUOUS
 62
     7
 10
60.582938581763408
 20
56.681712136597689
 30
0.0
 11
59.042578581763323
 21
55.792382136598007
 31
0.0
  0
LINE
  5
639
  8
0
  6
CONTINUOUS
 62
     7
 10
52.832958581763357
 20
59.516652321130962
 30
0.0
 11
52.832958581763151
 21
69.516652146598076
 31
0.0
  0
LINE
  5
63A
  8
0
  6
CONTINUOUS
 62
     7
 10
51.332958581763357
 20
50.491532146598047
 30
0.0
 11
51.332958581763357
 21
78.541772146597992
 31
0.0
  0
LINE
  5
63B
  8
CENTER
  6
CENTER
 62
     1
 10
36.832958581763357
 20
50.916642136597972
 30
0.0
 11
36.832958581763357
 21
58.11664213659796
 31
0.0
  0
LINE
  5
63C
  8
0
  6
CONTINUOUS
 62
     7
 10
39.832958581763371
 20
44.916652146597869
 30
0.0
 11
53.832958581763357
 21
44.916652146597869
 31
0.0
  0
LINE
  5
63D
  8
0
  6
CONTINUOUS
 62
     7
 10
44.807808581763432
 20
48.016652146598091
 30
0.0
 11
48.858068581763362
 21
48.016652146598091
 31
0.0
  0
LINE
  5
63E
  8
0
  6
CONTINUOUS
 62
     7
 10
44.100688581763322
 20
48.309552146598023
 30
0.0
 11
41.125818581763099
 21
51.284412146598079
 31
0.0
  0
ARC
  5
63F
  8
0
  6
CONTINUOUS
 62
     7
 10
38.832958581763371
 20
56.516652146597892
 30
0.0
 40
2.0
 50
0.0
 51
90.0
  0
CIRCLE
  5
640
  8
0
  6
CONTINUOUS
 62
     7
 10
36.832958581763357
 20
54.516642136597959
 30
0.0
 40
2.1000000000000001
  0
LINE
  5
641
  8
0
  6
CONTINUOUS
 62
     7
 10
38.832958581763371
 20
58.516652146597977
 30
0.0
 11
34.307868581763437
 21
58.516652146597977
 31
0.0
  0
ARC
  5
642
  8
0
  6
CONTINUOUS
 62
     7
 10
41.832958581763243
 20
51.991502146598002
 30
0.0
 40
1.0
 50
179.999989999999
 51
225.0
  0
LINE
  5
643
  8
0
  6
CONTINUOUS
 62
     7
 10
40.83295858176335
 20
56.516652146597892
 30
0.0
 11
40.83295858176335
 21
51.991502146598002
 31
0.0
  0
LINE
  5
644
  8
0
  6
CONTINUOUS
 62
     7
 10
42.832938581763337
 20
47.456042146598037
 30
0.0
 11
39.772328581959293
 21
50.516652146598076
 31
0.0
  0
LINE
  5
645
  8
0
  6
CONTINUOUS
 62
     7
 10
42.83295858176335
 20
46.516652146597963
 30
0.0
 11
39.832958581763371
 21
46.516652146597963
 31
0.0
  0
LINE
  5
646
  8
0
  6
CONTINUOUS
 62
     7
 10
39.832958581763371
 20
44.916652146597869
 30
0.0
 11
39.832958581763371
 21
46.516652146597963
 31
0.0
  0
LINE
  5
647
  8
0
  6
CONTINUOUS
 62
     7
 10
39.772328581959293
 20
50.516652146598076
 30
0.0
 11
37.352420620031431
 21
50.516652146598091
 31
0.0
  0
LINE
  5
648
  8
0
  6
CONTINUOUS
 62
     7
 10
42.83295858176335
 20
46.516652146597963
 30
0.0
 11
42.83295858176335
 21
47.455972146598043
 31
0.0
  0
ARC
  5
649
  8
0
  6
CONTINUOUS
 62
     7
 10
44.807808581763432
 20
49.016652146598091
 30
0.0
 40
1.0
 50
225.0
 51
269.9999969999991
  0
LINE
  5
64A
  8
CENTER
  6
CENTER
 62
     1
 10
56.832958581763357
 20
50.916642236597973
 30
0.0
 11
56.832958581763357
 21
58.11665204659797
 31
0.0
  0
ARC
  5
64B
  8
0
  6
CONTINUOUS
 62
     7
 10
53.832958581763357
 20
59.516652146597899
 30
0.0
 40
1.0
 50
179.999989999999
 51
269.9999969999991
  0
LINE
  5
64C
  8
0
  6
CONTINUOUS
 62
     7
 10
59.042578581763323
 20
53.240922136597788
 30
0.0
 11
59.342508581763411
 21
53.067762136597999
 31
0.0
  0
ARC
  5
64D
  8
0
  6
CONTINUOUS
 62
     7
 10
58.792578581763323
 20
52.80790213659774
 30
0.0
 40
0.5
 50
59.999999999999439
 51
138.9125099999994
  0
ARC
  5
64E
  8
0
  6
CONTINUOUS
 62
     7
 10
58.792578581763323
 20
56.225382136597872
 30
0.0
 40
0.5
 50
221.0874899999981
 51
299.9999979999987
  0
ARC
  5
64F
  8
0
  6
CONTINUOUS
 62
     7
 10
56.832958581763357
 20
54.516642136597959
 30
0.0
 40
2.099999899999998
 50
41.087479999999474
 51
318.91250900000028
  0
LINE
  5
650
  8
0
  6
CONTINUOUS
 62
     7
 10
50.832958581763151
 20
46.516652146597963
 30
0.0
 11
53.832958581763357
 21
46.516652146597963
 31
0.0
  0
LINE
  5
651
  8
0
  6
CONTINUOUS
 62
     7
 10
50.832908581763419
 20
47.455992146597893
 30
0.0
 11
53.893558581763322
 21
50.516662146598073
 31
0.0
  0
LINE
  5
652
  8
0
  6
CONTINUOUS
 62
     7
 10
50.832958581763151
 20
46.516652146597963
 30
0.0
 11
50.832958581763151
 21
47.455972146598043
 31
0.0
  0
LINE
  5
653
  8
0
  6
CONTINUOUS
 62
     7
 10
49.565148581763431
 20
48.309572146598001
 30
0.0
 11
51.040028581763181
 21
49.784442146597748
 31
0.0
  0
ARC
  5
654
  8
0
  6
CONTINUOUS
 62
     7
 10
50.332958581763251
 20
50.491532146598047
 30
0.0
 40
1.0
 50
314.9999990000008
 51
0.0
  0
ARC
  5
655
  8
0
  6
CONTINUOUS
 62
     7
 10
48.858068581763362
 20
49.016652146598091
 30
0.0
 40
1.0
 50
269.9999969999991
 51
314.9999990000008
  0
LINE
  5
656
  8
0
  6
CONTINUOUS
 62
     7
 10
53.893628581763323
 20
50.516652146598091
 30
0.0
 11
56.313516544573503
 21
50.516652146598091
 31
0.0
  0
LINE
  5
657
  8
0
  6
CONTINUOUS
 62
     7
 10
53.832958581763357
 20
44.916652146597869
 30
0.0
 11
53.832958581763357
 21
46.516652146597963
 31
0.0
  0
LINE
  5
658
  8
0
  6
CONTINUOUS
 62
     7
 10
82.33295858176335
 20
50.491532321130983
 30
0.0
 11
82.332958581763307
 21
78.541772146597992
 31
0.0
  0
LINE
  5
659
  8
0
  6
CONTINUOUS
 62
     7
 10
80.832958581763293
 20
59.516652146597899
 30
0.0
 11
80.832958581763293
 21
69.516652146598105
 31
0.0
  0
LINE
  5
65A
  8
0
  6
CONTINUOUS
 62
     7
 10
70.832958581763222
 20
46.516652146597963
 30
0.0
 11
73.83295858176335
 21
46.516652146597963
 31
0.0
  0
LINE
  5
65B
  8
0
  6
CONTINUOUS
 62
     7
 10
70.832908581763434
 20
47.455972146598043
 30
0.0
 11
73.893578581763322
 21
50.516652146598091
 31
0.0
  0
LINE
  5
65C
  8
0
  6
CONTINUOUS
 62
     7
 10
69.565158581763171
 20
48.309562146597969
 30
0.0
 11
74.323368581763546
 21
53.067762136597999
 31
0.0
  0
LINE
  5
65D
  8
0
  6
CONTINUOUS
 62
     7
 10
59.83295858176335
 20
44.916652146597869
 30
0.0
 11
73.83295858176335
 21
44.916652146597869
 31
0.0
  0
LINE
  5
65E
  8
0
  6
CONTINUOUS
 62
     7
 10
60.832958581763357
 20
57.114732136597787
 30
0.0
 11
60.832958581763357
 21
58.01665214659797
 31
0.0
  0
ARC
  5
65F
  8
0
  6
CONTINUOUS
 62
     7
 10
60.332958581763357
 20
57.114732136597787
 30
0.0
 40
0.5
 50
299.9999979999987
 51
0.0
  0
ARC
  5
660
  8
0
  6
CONTINUOUS
 62
     7
 10
60.332958581763357
 20
58.01665214659797
 30
0.0
 40
0.5
 50
0.0
 51
90.0
  0
LINE
  5
661
  8
0
  6
CONTINUOUS
 62
     7
 10
64.807838581763349
 20
48.016652146598091
 30
0.0
 11
68.85806858176332
 21
48.016652146598091
 31
0.0
  0
LINE
  5
662
  8
0
  6
CONTINUOUS
 62
     7
 10
62.832958581763251
 20
46.516652146597963
 30
0.0
 11
62.832958581763251
 21
47.455972146598043
 31
0.0
  0
ARC
  5
663
  8
0
  6
CONTINUOUS
 62
     7
 10
64.807838581763349
 20
49.016652146598091
 30
0.0
 40
1.0
 50
225.0
 51
269.9999969999991
  0
LINE
  5
664
  8
0
  6
CONTINUOUS
 62
     7
 10
62.832908581763419
 20
47.455992146597893
 30
0.0
 11
59.772258581763381
 21
50.516662146598073
 31
0.0
  0
LINE
  5
665
  8
0
  6
CONTINUOUS
 62
     7
 10
62.832958581763251
 20
46.516652146597963
 30
0.0
 11
59.832958581763371
 21
46.516652146597963
 31
0.0
  0
LINE
  5
666
  8
0
  6
CONTINUOUS
 62
     7
 10
59.83295858176335
 20
44.916652146597869
 30
0.0
 11
59.832958581763371
 21
46.516652146597963
 31
0.0
  0
LINE
  5
667
  8
0
  6
CONTINUOUS
 62
     7
 10
70.832958581763222
 20
46.516652146597963
 30
0.0
 11
70.832958581763222
 21
47.455972146598043
 31
0.0
  0
ARC
  5
668
  8
0
  6
CONTINUOUS
 62
     7
 10
68.85806858176332
 20
49.016652146598091
 30
0.0
 40
1.0
 50
269.9999969999991
 51
314.9999990000008
  0
LINE
  5
669
  8
CENTER
  6
CENTER
 62
     1
 10
76.832958581763322
 20
50.396647196598032
 30
0.0
 11
76.832958581763322
 21
58.636657096598093
 31
0.0
  0
LINE
  5
66A
  8
0
  6
CONTINUOUS
 62
     7
 10
79.832958581763293
 20
58.51665214659797
 30
0.0
 11
73.332958581763393
 21
58.51665214659797
 31
0.0
  0
ARC
  5
66B
  8
0
  6
CONTINUOUS
 62
     7
 10
76.832958581763293
 20
54.516642136597959
 30
0.0
 40
2.099999899999998
 50
221.0874899999981
 51
138.9125099999994
  0
LINE
  5
66C
  8
0
  6
CONTINUOUS
 62
     7
 10
74.623298581763351
 20
53.240912136598041
 30
0.0
 11
74.323388581763226
 21
53.067752136597932
 31
0.0
  0
ARC
  5
66D
  8
0
  6
CONTINUOUS
 62
     7
 10
74.873298581763223
 20
52.80790213659774
 30
0.0
 40
0.5
 50
41.087490000000592
 51
120.0000000000005
  0
ARC
  5
66E
  8
0
  6
CONTINUOUS
 62
     7
 10
74.873298581763223
 20
56.225382136597872
 30
0.0
 40
0.5
 50
239.99999999999949
 51
318.91250900000028
  0
LINE
  5
66F
  8
0
  6
CONTINUOUS
 62
     7
 10
72.832958581763293
 20
57.114732136597787
 30
0.0
 11
72.832958581763293
 21
58.01665214659797
 31
0.0
  0
ARC
  5
670
  8
0
  6
CONTINUOUS
 62
     7
 10
73.332958581763393
 20
58.01665214659797
 30
0.0
 40
0.5
 50
90.0
 51
180.00001000000091
  0
ARC
  5
671
  8
0
  6
CONTINUOUS
 62
     7
 10
73.332958581763393
 20
57.114732136597787
 30
0.0
 40
0.5
 50
179.999989999999
 51
239.99999999999949
  0
LINE
  5
672
  8
0
  6
CONTINUOUS
 62
     7
 10
73.082938581763472
 20
56.681722136597863
 30
0.0
 11
74.623298581763351
 21
55.792392136597691
 31
0.0
  0
ARC
  5
673
  8
0
  6
CONTINUOUS
 62
     7
 10
79.832958581763293
 20
59.516652146597899
 30
0.0
 40
1.0
 50
269.9999969999991
 51
0.0
  0
LINE
  5
674
  8
0
  6
CONTINUOUS
 62
     7
 10
79.772288581763362
 20
50.516652146598091
 30
0.0
 11
77.35242062003141
 21
50.516652146598091
 31
0.0
  0
LINE
  5
675
  8
0
  6
CONTINUOUS
 62
     7
 10
73.893628581763366
 20
50.516652146598091
 30
0.0
 11
76.313516544573545
 21
50.516652146598091
 31
0.0
  0
LINE
  5
676
  8
0
  6
CONTINUOUS
 62
     7
 10
73.83295858176335
 20
44.916652146597869
 30
0.0
 11
73.83295858176335
 21
46.516652146597963
 31
0.0
  0
LINE
  5
677
  8
0
  6
CONTINUOUS
 62
     7
 10
82.832958581763279
 20
46.516652146597963
 30
0.0
 11
82.832958581763279
 21
47.455972146598043
 31
0.0
  0
LINE
  5
678
  8
0
  6
CONTINUOUS
 62
     7
 10
82.832958581763279
 20
47.455962146597777
 30
0.0
 11
79.772288581763362
 21
50.516632146597892
 31
0.0
  0
LINE
  5
679
  8
0
  6
CONTINUOUS
 62
     7
 10
82.832958581763279
 20
46.516652146597963
 30
0.0
 11
79.832958581763293
 21
46.516652146597963
 31
0.0
  0
ARC
  5
67A
  8
0
  6
CONTINUOUS
 62
     7
 10
83.332958581763293
 20
50.491532146598047
 30
0.0
 40
1.0
 50
179.999989999999
 51
225.0
  0
LINE
  5
67B
  8
0
  6
CONTINUOUS
 62
     7
 10
84.100718581763388
 20
48.309532146598087
 30
0.0
 11
82.625848581763137
 21
49.784412146597887
 31
0.0
  0
LINE
  5
67C
  8
0
  6
CONTINUOUS
 62
     7
 10
79.832958581763293
 20
44.916652146597869
 30
0.0
 11
79.832958581763293
 21
46.516652146597963
 31
0.0
  0
LINE
  5
67D
  8
0
  6
CONTINUOUS
 62
     7
 10
103.0400485817632
 20
61.784462136597931
 30
0.0
 11
100.0651285817632
 21
58.809552146598037
 31
0.0
  0
LINE
  5
67E
  8
CENTER
  6
CENTER
 62
     1
 10
96.832958581763307
 20
50.916652136597982
 30
0.0
 11
96.832958581763307
 21
58.11664213659796
 31
0.0
  0
LINE
  5
67F
  8
0
  6
CONTINUOUS
 62
     7
 10
103.33295858176341
 20
62.49156213659802
 30
0.0
 11
103.33295858176341
 21
66.541742156598332
 31
0.0
  0
ARC
  5
680
  8
0
  6
CONTINUOUS
 62
     7
 10
102.33295858176319
 20
62.49156213659802
 30
0.0
 40
1.0
 50
314.9999990000008
 51
0.0
  0
CIRCLE
  5
681
  8
0
  6
CONTINUOUS
 62
     7
 10
96.832958581763307
 20
54.516642136597959
 30
0.0
 40
2.1000000000000001
  0
LINE
  5
682
  8
0
  6
CONTINUOUS
 62
     7
 10
99.772288581763377
 20
50.516652146598091
 30
0.0
 11
97.352420620031452
 21
50.516652146598091
 31
0.0
  0
LINE
  5
683
  8
0
  6
CONTINUOUS
 62
     7
 10
94.832958581763421
 20
58.51665214659797
 30
0.0
 11
99.358038581763083
 21
58.51665214659797
 31
0.0
  0
LINE
  5
684
  8
0
  6
CONTINUOUS
 62
     7
 10
89.565208581763443
 20
48.309532146598087
 30
0.0
 11
92.540048581763557
 21
51.28437214659786
 31
0.0
  0
ARC
  5
685
  8
0
  6
CONTINUOUS
 62
     7
 10
91.832958581763307
 20
51.991472146597957
 30
0.0
 40
1.0
 50
314.9999990000008
 51
0.0
  0
ARC
  5
686
  8
0
  6
CONTINUOUS
 62
     7
 10
94.832958581763421
 20
56.516652146597892
 30
0.0
 40
2.0
 50
90.0
 51
180.00001000000091
  0
LINE
  5
687
  8
0
  6
CONTINUOUS
 62
     7
 10
92.832958581763279
 20
56.516652146597892
 30
0.0
 11
92.832958581763279
 21
51.991472146597957
 31
0.0
  0
LINE
  5
688
  8
0
  6
CONTINUOUS
 62
     7
 10
90.832958581763421
 20
46.516652146597963
 30
0.0
 11
93.832958581763265
 21
46.516652146597963
 31
0.0
  0
LINE
  5
689
  8
0
  6
CONTINUOUS
 62
     7
 10
90.832958581763421
 20
47.455962146597777
 30
0.0
 11
93.893628581763309
 21
50.516632146597892
 31
0.0
  0
LINE
  5
68A
  8
0
  6
CONTINUOUS
 62
     7
 10
90.832958581763421
 20
46.516652146597963
 30
0.0
 11
90.832958581763421
 21
47.455972146598043
 31
0.0
  0
ARC
  5
68B
  8
0
  6
CONTINUOUS
 62
     7
 10
88.858098581763386
 20
49.016642146598102
 30
0.0
 40
1.0
 50
269.9999969999991
 51
314.9999990000008
  0
LINE
  5
68C
  8
0
  6
CONTINUOUS
 62
     7
 10
84.807838581763278
 20
48.01664214659808
 30
0.0
 11
88.858098581763386
 21
48.01664214659808
 31
0.0
  0
LINE
  5
68D
  8
0
  6
CONTINUOUS
 62
     7
 10
93.893628581763309
 20
50.516652146598091
 30
0.0
 11
96.313516544573517
 21
50.516652146598091
 31
0.0
  0
LINE
  5
68E
  8
0
  6
CONTINUOUS
 62
     7
 10
93.832958581763265
 20
44.916652146597869
 30
0.0
 11
93.832958581763265
 21
46.516652146597963
 31
0.0
  0
LINE
  5
68F
  8
0
  6
CONTINUOUS
 62
     7
 10
104.83295858176319
 20
48.516652146598098
 30
0.0
 11
104.83295858176319
 21
51.516652146597792
 31
0.0
  0
LINE
  5
690
  8
0
  6
CONTINUOUS
 62
     7
 10
103.8935885817633
 20
48.516682146598058
 30
0.0
 11
100.83295858176319
 21
51.577302146696098
 31
0.0
  0
LINE
  5
691
  8
0
  6
CONTINUOUS
 62
     7
 10
106.83295858176341
 20
45.516642146597967
 30
0.0
 11
106.83295858176341
 21
51.216642146597977
 31
0.0
  0
LINE
  5
692
  8
0
  6
CONTINUOUS
 62
     7
 10
103.8936385817632
 20
60.516652146597998
 30
0.0
 11
100.83295858176319
 21
57.455962136565191
 31
0.0
  0
LINE
  5
693
  8
0
  6
CONTINUOUS
 62
     7
 10
100.83295858176319
 20
51.577302146696098
 30
0.0
 11
100.83295858176319
 21
53.997006384682422
 31
0.0
  0
ARC
  5
694
  8
0
  6
CONTINUOUS
 62
     7
 10
99.358038581763083
 20
59.516652146597899
 30
0.0
 40
1.0
 50
269.9999969999991
 51
314.9999990000008
  0
LINE
  5
695
  8
0
  6
CONTINUOUS
 62
     7
 10
100.83295858176319
 20
57.455962136565191
 30
0.0
 11
100.83295858176319
 21
55.036286906245387
 31
0.0
  0
ARC
  5
696
  8
0
  6
CONTINUOUS
 62
     7
 10
106.5329685817634
 20
51.216642146597977
 30
0.0
 40
0.30000001
 50
0.0
 51
90.0
  0
LINE
  5
697
  8
0
  6
CONTINUOUS
 62
     7
 10
106.5329685817634
 20
51.516652146597792
 30
0.0
 11
104.83295858176319
 21
51.516652146597792
 31
0.0
  0
LINE
  5
698
  8
0
  6
CONTINUOUS
 62
     7
 10
103.8936385817632
 20
60.516652146597998
 30
0.0
 11
104.83295858176319
 21
60.516652146597998
 31
0.0
  0
LINE
  5
699
  8
0
  6
CONTINUOUS
 62
     7
 10
104.83295858176319
 20
60.516652146597998
 30
0.0
 11
104.83295858176319
 21
57.516652146597913
 31
0.0
  0
LINE
  5
69A
  8
0
  6
CONTINUOUS
 62
     7
 10
106.5329585817633
 20
57.516652146597913
 30
0.0
 11
104.83295858176319
 21
57.516652146597913
 31
0.0
  0
ARC
  5
69B
  8
0
  6
CONTINUOUS
 62
     7
 10
106.5329585817633
 20
57.81665214659791
 30
0.0
 40
0.3
 50
270.0
 51
0.0000000000000254
  0
LINE
  5
69C
  8
0
  6
CONTINUOUS
 62
     7
 10
99.832958581763307
 20
44.916652146597869
 30
0.0
 11
106.6329660816657
 21
44.916652146597869
 31
0.0
  0
LINE
  5
69D
  8
0
  6
CONTINUOUS
 62
     7
 10
102.83295858176341
 20
46.516652146597963
 30
0.0
 11
102.83295858176341
 21
47.455972146598043
 31
0.0
  0
LINE
  5
69E
  8
0
  6
CONTINUOUS
 62
     7
 10
102.8329285817633
 20
47.456012146597672
 30
0.0
 11
99.772268581763399
 21
50.516682146597951
 31
0.0
  0
LINE
  5
69F
  8
0
  6
CONTINUOUS
 62
     7
 10
102.83295858176341
 20
46.516652146597963
 30
0.0
 11
99.832958581763307
 21
46.516652146597963
 31
0.0
  0
LINE
  5
6A0
  8
0
  6
CONTINUOUS
 62
     7
 10
99.832958581763307
 20
44.916652146597869
 30
0.0
 11
99.832958581763307
 21
46.516652146597963
 31
0.0
  0
LINE
  5
6A1
  8
0
  6
CONTINUOUS
 62
     7
 10
103.8936285817632
 20
48.516652146598091
 30
0.0
 11
104.83295858176319
 21
48.516652146598098
 31
0.0
  0
LINE
  5
6A2
  8
CENTER
  6
CENTER
 62
     1
 10
33.232958581777289
 20
74.516652146597991
 30
0.0
 11
40.432958581749439
 21
74.516652146597991
 31
0.0
  0
LINE
  5
6A3
  8
CENTER
  6
CENTER
 62
     1
 10
33.232958581777289
 20
54.516652146598041
 30
0.0
 11
40.432958581749439
 21
54.516652146598041
 31
0.0
  0
LINE
  5
6A4
  8
CENTER
  6
CENTER
 62
     1
 10
53.232958681777269
 20
74.516652146597991
 30
0.0
 11
60.432958481749381
 21
74.516652146597991
 31
0.0
  0
LINE
  5
6A5
  8
CENTER
  6
CENTER
 62
     1
 10
73.232958681777291
 20
74.516652146597991
 30
0.0
 11
80.432958481749367
 21
74.516652146597991
 31
0.0
  0
LINE
  5
6A6
  8
CENTER
  6
CENTER
 62
     1
 10
93.232958581777197
 20
74.516652146597991
 30
0.0
 11
100.4329585817493
 21
74.516652146597991
 31
0.0
  0
LINE
  5
6A7
  8
CENTER
  6
CENTER
 62
     1
 10
53.232958681777269
 20
54.516652146598041
 30
0.0
 11
60.432958481749488
 21
54.516652146598041
 31
0.0
  0
LINE
  5
6A8
  8
CENTER
  6
CENTER
 62
     1
 10
73.232958681777291
 20
54.516652146598041
 30
0.0
 11
80.432958481749367
 21
54.516652146598041
 31
0.0
  0
LINE
  5
6A9
  8
CENTER
  6
CENTER
 62
     1
 10
93.232958581777197
 20
54.516652146598041
 30
0.0
 11
100.4329585817493
 21
54.516652146598041
 31
0.0
  0
LINE
  5
6AA
  8
CENTER
  6
CENTER
 62
     1
 10
153.5971161479026
 20
74.516662156598002
 30
0.0
 11
208.59711614790271
 21
74.516662156598002
 31
0.0
  0
LINE
  5
6AB
  8
CENTER
  6
CENTER
 62
     1
 10
153.5971161479026
 20
54.516662156598002
 30
0.0
 11
208.59711614790271
 21
54.516662156598002
 31
0.0
  0
LINE
  5
6AC
  8
CENTER
  6
CENTER
 62
     1
 10
153.5971161479026
 20
64.516652146598005
 30
0.0
 11
208.59711614790271
 21
64.516652146598005
 31
0.0
  0
LINE
  5
6AD
  8
CENTER
  6
CENTER
 62
     1
 10
24.332938571763119
 20
64.516652146598005
 30
0.0
 11
109.3329685917632
 21
64.516652146598005
 31
0.0
  0
LINE
  5
6AE
  8
CENTER
  6
CENTER
 62
     1
 10
66.832958581763378
 20
86.616652146598
 30
0.0
 11
66.832958581763378
 21
42.416652146597883
 31
0.0
  0
LINE
  5
6AF
  8
0
  6
CONTINUOUS
 62
     7
 10
106.83295858176329
 20
71.216647176598059
 30
0.0
 11
106.83295858176329
 21
57.81665214659791
 31
0.0
  0
ARC
  5
6B0
  8
0
  6
CONTINUOUS
 62
     7
 10
106.5329585817633
 20
71.216647176598059
 30
0.0
 40
0.3
 50
0.0
 51
90.0
  0
LINE
  5
6B1
  8
0
  6
CONTINUOUS
 62
     7
 10
26.832958581763378
 20
71.216652146598079
 30
0.0
 11
26.832958581763389
 21
57.81665214659791
 31
0.0
  0
LINE
  5
6B2
  8
0
  6
CONTINUOUS
 62
     7
 10
28.832958581763371
 20
71.516652146598062
 30
0.0
 11
28.832958581763371
 21
68.516652146598119
 31
0.0
  0
LINE
  5
6B3
  8
0
  6
CONTINUOUS
 62
     7
 10
32.832958581763378
 20
73.997046914327399
 30
0.0
 11
32.832958581763378
 21
71.577292156598261
 31
0.0
  0
ARC
  5
6B4
  8
0
  6
CONTINUOUS
 62
     7
 10
27.132958581763379
 20
71.216652146598079
 30
0.0
 40
0.3
 50
89.999999999999503
 51
180.0
  0
LINE
  5
6B5
  8
0
  6
CONTINUOUS
 62
     7
 10
36.832958581763357
 20
78.216652146597951
 30
0.0
 11
36.313343339492718
 21
78.516652146597963
 31
0.0
  0
LINE
  5
6B6
  8
0
  6
CONTINUOUS
 62
     7
 10
36.832978582841619
 20
78.216652146597951
 30
0.0
 11
37.352593825112251
 21
78.516652146597963
 31
0.0
  0
LINE
  5
6B7
  8
0
  6
CONTINUOUS
 62
     7
 10
33.132958581763347
 20
74.516662156597974
 30
0.0
 11
32.832958581763357
 21
75.036277398868634
 31
0.0
  0
LINE
  5
6B8
  8
0
  6
CONTINUOUS
 62
     7
 10
33.132958581763347
 20
74.516662156597974
 30
0.0
 11
32.832958581763378
 21
73.997046914327399
 31
0.0
  0
LINE
  5
6B9
  8
0
  6
CONTINUOUS
 62
     7
 10
32.832958581763357
 20
75.036277398868634
 30
0.0
 11
32.832958581763357
 21
77.455922146696039
 31
0.0
  0
LINE
  5
6BA
  8
0
  6
CONTINUOUS
 62
     7
 10
37.352593825112251
 20
78.516652146597963
 30
0.0
 11
39.772328583919759
 21
78.516652146597963
 31
0.0
  0
LINE
  5
6BB
  8
0
  6
CONTINUOUS
 62
     7
 10
33.132958581763347
 20
54.516662156597967
 30
0.0
 11
32.832958581763357
 21
55.036277398868627
 31
0.0
  0
LINE
  5
6BC
  8
0
  6
CONTINUOUS
 62
     7
 10
33.132958581763347
 20
54.516662156597967
 30
0.0
 11
32.832958581763357
 21
53.997046914327342
 31
0.0
  0
LINE
  5
6BD
  8
0
  6
CONTINUOUS
 62
     7
 10
56.832958581763357
 20
78.216752146597969
 30
0.0
 11
56.31351654457346
 21
78.516652146597963
 31
0.0
  0
LINE
  5
6BE
  8
0
  6
CONTINUOUS
 62
     7
 10
56.832978582841598
 20
78.216752146597969
 30
0.0
 11
57.352420620031502
 21
78.516652146597963
 31
0.0
  0
LINE
  5
6BF
  8
0
  6
CONTINUOUS
 62
     7
 10
76.832958581763322
 20
78.216752146597969
 30
0.0
 11
76.313516544573474
 21
78.516652146597963
 31
0.0
  0
LINE
  5
6C0
  8
0
  6
CONTINUOUS
 62
     7
 10
76.832978582841591
 20
78.216752146597969
 30
0.0
 11
77.352420620031523
 21
78.516652146597991
 31
0.0
  0
LINE
  5
6C1
  8
0
  6
CONTINUOUS
 62
     7
 10
96.832958581763364
 20
78.216752146597969
 30
0.0
 11
96.313516544573474
 21
78.516652146597963
 31
0.0
  0
LINE
  5
6C2
  8
0
  6
CONTINUOUS
 62
     7
 10
96.832978582841591
 20
78.216752146597969
 30
0.0
 11
97.352420620031452
 21
78.516652146597963
 31
0.0
  0
LINE
  5
6C3
  8
0
  6
CONTINUOUS
 62
     7
 10
100.5329530262087
 20
74.516647178820932
 30
0.0
 11
100.83295858176319
 21
75.036271510251552
 31
0.0
  0
LINE
  5
6C4
  8
0
  6
CONTINUOUS
 62
     7
 10
100.5329530262087
 20
74.516647178820932
 30
0.0
 11
100.83295858176319
 21
73.997021780703847
 31
0.0
  0
LINE
  5
6C5
  8
0
  6
CONTINUOUS
 62
     7
 10
100.5329441373195
 20
54.51664717882295
 30
0.0
 11
100.83295858176319
 21
55.036286906245387
 31
0.0
  0
LINE
  5
6C6
  8
0
  6
CONTINUOUS
 62
     7
 10
100.5329441373195
 20
54.51664717882295
 30
0.0
 11
100.83295858176319
 21
53.997006384682422
 31
0.0
  0
LINE
  5
6C7
  8
0
  6
CONTINUOUS
 62
     7
 10
36.832958581763357
 20
50.816552146598063
 30
0.0
 11
36.313516544573531
 21
50.516652146598091
 31
0.0
  0
LINE
  5
6C8
  8
0
  6
CONTINUOUS
 62
     7
 10
36.832978582841619
 20
50.816552146598063
 30
0.0
 11
37.352420620031431
 21
50.516652146598091
 31
0.0
  0
LINE
  5
6C9
  8
0
  6
CONTINUOUS
 62
     7
 10
56.832958581763357
 20
50.816552146598063
 30
0.0
 11
56.313516544573503
 21
50.516652146598091
 31
0.0
  0
LINE
  5
6CA
  8
0
  6
CONTINUOUS
 62
     7
 10
56.832978582841598
 20
50.816552146598063
 30
0.0
 11
57.352420620031431
 21
50.516652146598091
 31
0.0
  0
LINE
  5
6CB
  8
0
  6
CONTINUOUS
 62
     7
 10
76.832958581763322
 20
50.816552146598063
 30
0.0
 11
76.313516544573545
 21
50.516652146598091
 31
0.0
  0
LINE
  5
6CC
  8
0
  6
CONTINUOUS
 62
     7
 10
76.832978582841591
 20
50.816552146598063
 30
0.0
 11
77.35242062003141
 21
50.516652146598091
 31
0.0
  0
LINE
  5
6CD
  8
0
  6
CONTINUOUS
 62
     7
 10
96.832958581763364
 20
50.816552146598063
 30
0.0
 11
96.313516544573517
 21
50.516652146598091
 31
0.0
  0
LINE
  5
6CE
  8
0
  6
CONTINUOUS
 62
     7
 10
96.832978582841591
 20
50.816552146598063
 30
0.0
 11
97.352420620031452
 21
50.516652146598091
 31
0.0
  0
LINE
  5
6CF
  8
0
  6
CONTINUOUS
 62
     7
 10
206.0971161479026
 20
75.036281520251549
 30
0.0
 11
156.0971161479026
 21
75.036281520251549
 31
0.0
  0
LINE
  5
6D0
  8
0
  6
CONTINUOUS
 62
     7
 10
206.0971161479026
 20
73.997031790703844
 30
0.0
 11
156.0971161479026
 21
73.997031790703844
 31
0.0
  0
LINE
  5
6D1
  8
0
  6
CONTINUOUS
 62
     7
 10
206.0971161479026
 20
55.036281520251542
 30
0.0
 11
156.0971161479026
 21
55.036281520251542
 31
0.0
  0
LINE
  5
6D2
  8
0
  6
CONTINUOUS
 62
     7
 10
206.0971161479026
 20
53.997031790703851
 30
0.0
 11
156.0971161479026
 21
53.997031790703851
 31
0.0
  0
ARC
  5
6D3
  8
0
  6
CONTINUOUS
 62
     7
 10
105.83295858176341
 20
83.516662146597952
 30
0.0
 40
1.0
 50
359.9999999999992
 51
36.869181451958447
  0
ARC
  5
6D4
  8
0
  6
CONTINUOUS
 62
     7
 10
105.83295858176341
 20
45.51664214659796
 30
0.0
 40
1.0
 50
323.13081854803778
 51
0.0000000000008142
  0
ARC
  5
6D5
  8
0
  6
CONTINUOUS
 62
     7
 10
27.832958581763371
 20
45.516642146597967
 30
0.0
 40
1.0
 50
180.0
 51
216.86918145196441
  0
ARC
  5
6D6
  8
0
  6
CONTINUOUS
 62
     7
 10
27.832958581763361
 20
83.516662146597994
 30
0.0
 40
1.0
 50
143.1308185480423
 51
180.00000000000159
  0
ENDSEC
  0
EOF
