  0
SECTION
  2
HEADER
  9
$ACADVER
  1
AC1009
  9
$INSBASE
 10
0.0
 20
0.0
 30
0.0
  9
$EXTMIN
 10
-0.0000001659321924
 20
-0.0000001302659598
 30
0.0
  9
$EXTMAX
 10
188.6704053257935
 20
54.859559019552172
 30
0.0
  9
$LIMMIN
 10
0.0
 20
0.0
  9
$LIMMAX
 10
297.0
 20
210.0
  9
$ORTHOMODE
 70
     0
  9
$REGENMODE
 70
     1
  9
$FILLMODE
 70
     1
  9
$QTEXTMODE
 70
     0
  9
$MIRRTEXT
 70
     1
  9
$DRAGMODE
 70
     2
  9
$LTSCALE
 40
1.0
  9
$OSMODE
 70
    57
  9
$ATTMODE
 70
     1
  9
$TEXTSIZE
 40
6.4000000000000012
  9
$TRACEWID
 40
0.05
  9
$TEXTSTYLE
  7
STANDARD
  9
$CLAYER
  8
0
  9
$CELTYPE
  6
CONTINUOUS
  9
$CECOLOR
 62
     7
  9
$DIMSCALE
 40
1.0
  9
$DIMASZ
 40
3.0
  9
$DIMEXO
 40
1.0
  9
$DIMDLI
 40
0.0
  9
$DIMRND
 40
0.0
  9
$DIMDLE
 40
0.0
  9
$DIMEXE
 40
1.0
  9
$DIMTP
 40
0.0
  9
$DIMTM
 40
0.0
  9
$DIMTXT
 40
3.2000000000000002
  9
$DIMCEN
 40
0.0
  9
$DIMTSZ
 40
0.0
  9
$DIMTOL
 70
     0
  9
$DIMLIM
 70
     0
  9
$DIMTIH
 70
     0
  9
$DIMTOH
 70
     0
  9
$DIMSE1
 70
     0
  9
$DIMSE2
 70
     0
  9
$DIMTAD
 70
     1
  9
$DIMZIN
 70
     8
  9
$DIMBLK
  1

  9
$DIMASO
 70
     1
  9
$DIMSHO
 70
     1
  9
$DIMPOST
  1

  9
$DIMAPOST
  1

  9
$DIMALT
 70
     0
  9
$DIMALTD
 70
     2
  9
$DIMALTF
 40
0.04
  9
$DIMLFAC
 40
1.0
  9
$DIMTOFL
 70
     1
  9
$DIMTVP
 40
1.0
  9
$DIMTIX
 70
     1
  9
$DIMSOXD
 70
     0
  9
$DIMSAH
 70
     0
  9
$DIMBLK1
  1

  9
$DIMBLK2
  1

  9
$DIMSTYLE
  2
MISUMI
  9
$DIMCLRD
 70
     0
  9
$DIMCLRE
 70
     0
  9
$DIMCLRT
 70
     0
  9
$DIMTFAC
 40
0.6
  9
$DIMGAP
 40
1.0
  9
$LUNITS
 70
     2
  9
$LUPREC
 70
     4
  9
$SKETCHINC
 40
0.1
  9
$FILLETRAD
 40
0.0
  9
$AUNITS
 70
     0
  9
$AUPREC
 70
     0
  9
$MENU
  1
acad
  9
$ELEVATION
 40
0.0
  9
$PELEVATION
 40
0.0
  9
$THICKNESS
 40
0.0
  9
$LIMCHECK
 70
     0
  9
$BLIPMODE
 70
     1
  9
$CHAMFERA
 40
0.5
  9
$CHAMFERB
 40
0.5
  9
$SKPOLY
 70
     0
  9
$TDCREATE
 40
2451464.6006649309
  9
$TDUPDATE
 40
2453776.7025448489
  9
$TDINDWG
 40
0.1768021875
  9
$TDUSRTIMER
 40
0.1768
  9
$USRTIMER
 70
     1
  9
$ANGBASE
 50
0.0
  9
$ANGDIR
 70
     0
  9
$PDMODE
 70
     0
  9
$PDSIZE
 40
0.0
  9
$PLINEWID
 40
0.0
  9
$COORDS
 70
     0
  9
$SPLFRAME
 70
     0
  9
$SPLINETYPE
 70
     6
  9
$SPLINESEGS
 70
     8
  9
$ATTDIA
 70
     0
  9
$ATTREQ
 70
     1
  9
$HANDLING
 70
     1
  9
$HANDSEED
  5
1514
  9
$SURFTAB1
 70
     6
  9
$SURFTAB2
 70
     6
  9
$SURFTYPE
 70
     6
  9
$SURFU
 70
     6
  9
$SURFV
 70
     6
  9
$UCSNAME
  2

  9
$UCSORG
 10
0.0
 20
0.0
 30
0.0
  9
$UCSXDIR
 10
1.0
 20
0.0
 30
0.0
  9
$UCSYDIR
 10
0.0
 20
1.0
 30
0.0
  9
$PUCSNAME
  2

  9
$PUCSORG
 10
0.0
 20
0.0
 30
0.0
  9
$PUCSXDIR
 10
1.0
 20
0.0
 30
0.0
  9
$PUCSYDIR
 10
0.0
 20
1.0
 30
0.0
  9
$USERI1
 70
     0
  9
$USERI2
 70
     0
  9
$USERI3
 70
     0
  9
$USERI4
 70
     0
  9
$USERI5
 70
     0
  9
$USERR1
 40
0.0
  9
$USERR2
 40
0.0
  9
$USERR3
 40
0.0
  9
$USERR4
 40
0.0
  9
$USERR5
 40
0.0
  9
$WORLDVIEW
 70
     1
  9
$SHADEDGE
 70
     3
  9
$SHADEDIF
 70
    70
  9
$TILEMODE
 70
     1
  9
$MAXACTVP
 70
    16
  9
$PLIMCHECK
 70
     0
  9
$PEXTMIN
 10
1.0000000000000000E+020
 20
1.0000000000000000E+020
 30
1.0000000000000000E+020
  9
$PEXTMAX
 10
-1.0000000000000000E+020
 20
-1.0000000000000000E+020
 30
-1.0000000000000000E+020
  9
$PLIMMIN
 10
0.0
 20
0.0
  9
$PLIMMAX
 10
12.0
 20
9.0
  9
$UNITMODE
 70
     0
  9
$VISRETAIN
 70
     0
  9
$PLINEGEN
 70
     0
  9
$PSLTSCALE
 70
     1
  0
ENDSEC
  0
SECTION
  2
TABLES
  0
TABLE
  2
VPORT
 70
     2
  0
VPORT
  2
*ACTIVE
 70
     0
 10
0.0
 20
0.0
 11
1.0
 21
1.0
 12
111.2365762079949
 22
45.544252588691933
 13
0.0
 23
0.0
 14
10.0
 24
10.0
 15
10.0
 25
10.0
 16
0.0
 26
0.0
 36
1.0
 17
0.0
 27
0.0
 37
0.0
 40
162.90751544360569
 41
1.5717852684144811
 42
50.0
 43
0.0
 44
0.0
 50
0.0
 51
0.0
 71
     0
 72
   100
 73
     1
 74
     0
 75
     0
 76
     0
 77
     0
 78
     0
  0
ENDTAB
  0
TABLE
  2
LTYPE
 70
     2
  0
LTYPE
  2
CONTINUOUS
 70
     0
  3
Solid line
 72
    65
 73
     0
 40
0.0
  0
LTYPE
  2
CENTER
 70
     0
  3
Center ____ _ ____ _ ____ _ ____ _ ____ _ ____
 72
    65
 73
     4
 40
2.0
 49
1.25
 49
-0.25
 49
0.25
 49
-0.25
  0
ENDTAB
  0
TABLE
  2
LAYER
 70
     2
  0
LAYER
  2
0
 70
     0
 62
     7
  6
CONTINUOUS
  0
LAYER
  2
CENTER
 70
     0
 62
     1
  6
CENTER
  0
ENDTAB
  0
TABLE
  2
STYLE
 70
     1
  0
STYLE
  2
STANDARD
 70
     0
 40
0.0
 41
1.0
 50
0.0
 71
     0
 42
6.4000000000000012
  3
txt
  4

  0
ENDTAB
  0
TABLE
  2
VIEW
 70
     0
  0
ENDTAB
  0
TABLE
  2
UCS
 70
     0
  0
ENDTAB
  0
TABLE
  2
APPID
 70
     2
  0
APPID
  2
ACAD
 70
     0
  0
APPID
  2
ACAD_DSTYLE_DIMTEXT_FILL
 70
     0
  0
ENDTAB
  0
TABLE
  2
DIMSTYLE
 70
     1
  0
DIMSTYLE
  2
MISUMI
 70
     0
  3

  4

  5

  6

  7

 40
1.0
 41
3.0
 42
1.0
 43
0.0
 44
1.0
 45
0.0
 46
0.0
 47
0.0
 48
0.0
140
3.2000000000000002
141
0.0
142
0.0
143
0.04
144
1.0
145
1.0
146
0.6
147
1.0
 71
     0
 72
     0
 73
     0
 74
     0
 75
     0
 76
     0
 77
     1
 78
     8
170
     0
171
     2
172
     1
173
     0
174
     1
175
     0
176
     0
177
     0
178
     0
  0
ENDTAB
  0
ENDSEC
  0
SECTION
  2
BLOCKS
  0
BLOCK
  8
0
  2
$MODEL_SPACE
 70
     0
 10
0.0
 20
0.0
 30
0.0
  3
$MODEL_SPACE
  1

  0
ENDBLK
  5
14C1
  8
0
  0
BLOCK
 67
     1
  8
0
  2
$PAPER_SPACE
 70
     0
 10
0.0
 20
0.0
 30
0.0
  3
$PAPER_SPACE
  1

  0
ENDBLK
  5
14BD
 67
     1
  8
0
  0
ENDSEC
  0
SECTION
  2
ENTITIES
  0
TEXT
  5
547
  8
0
  6
CONTINUOUS
 62
     7
 10
-0.0000001659321924
 20
-0.0000001302659598
 30
0.0
 40
4.0
  1
HP52080
  0
TEXT
  5
548
  8
0
  6
CONTINUOUS
 62
     7
 10
-0.0000001659321924
 20
6.6740141168377241
 30
0.0
 40
4.0
  1
HFSP5-8020-50
  0
LINE
  5
549
  8
CENTER
  6
CENTER
 62
     1
 10
116.0177690368929
 20
42.759559019552057
 30
0.0
 11
31.01776903689284
 21
42.759559019552057
 31
0.0
  0
LINE
  5
54A
  8
CENTER
  6
CENTER
 62
     1
 10
63.517769036892901
 20
54.859559019552172
 30
0.0
 11
63.517769036892901
 21
30.65955901955212
 31
0.0
  0
LINE
  5
54B
  8
CENTER
  6
CENTER
 62
     1
 10
43.51776903689295
 20
54.859559019552172
 30
0.0
 11
43.51776903689295
 21
30.65955901955212
 31
0.0
  0
LINE
  5
54E
  8
0
  6
CONTINUOUS
 62
     7
 10
33.717769036892797
 20
33.159559019552127
 30
0.0
 11
40.517769036892958
 21
33.15955901955212
 31
0.0
  0
LINE
  5
54F
  8
0
  6
CONTINUOUS
 62
     7
 10
36.457119036892962
 20
36.759568019552148
 30
0.0
 11
39.517769036893156
 21
39.820218219551961
 31
0.0
  0
LINE
  5
550
  8
0
  6
CONTINUOUS
 62
     7
 10
37.517778536892763
 20
35.698907519552108
 30
0.0
 11
40.578440036892793
 21
38.759567619552051
 31
0.0
  0
LINE
  5
551
  8
0
  6
CONTINUOUS
 62
     7
 10
37.517769036892851
 20
34.759559019552057
 30
0.0
 11
40.517769036892958
 21
34.759559019552057
 31
0.0
  0
LINE
  5
552
  8
0
  6
CONTINUOUS
 62
     7
 10
33.517769036892837
 20
33.759559019552057
 30
0.0
 11
33.517769036892837
 21
39.459555969552071
 31
0.0
  0
LINE
  5
553
  8
0
  6
CONTINUOUS
 62
     7
 10
35.517769036892958
 20
36.759559019552228
 30
0.0
 11
35.517769036892958
 21
39.759559019552228
 31
0.0
  0
LINE
  5
555
  8
0
  6
CONTINUOUS
 62
     7
 10
35.517769036892958
 20
36.759559019552228
 30
0.0
 11
36.457100036892882
 21
36.759559019552228
 31
0.0
  0
LINE
  5
556
  8
0
  6
CONTINUOUS
 62
     7
 10
37.517769036892851
 20
34.759559019552057
 30
0.0
 11
37.517769036892851
 21
35.698905519552227
 31
0.0
  0
LINE
  5
557
  8
0
  6
CONTINUOUS
 62
     7
 10
33.817764536892867
 20
39.759559019552228
 30
0.0
 11
35.517769036892958
 21
39.759559019552228
 31
0.0
  0
ARC
  5
558
  8
0
  6
CONTINUOUS
 62
     7
 10
33.817764536892867
 20
39.459555969552071
 30
0.0
 40
0.30000001
 50
90.000003000000945
 51
180.00001000000091
  0
LINE
  5
559
  8
0
  6
CONTINUOUS
 62
     7
 10
40.517769036892958
 20
33.15955901955212
 30
0.0
 11
40.517769036892958
 21
34.759559019552057
 31
0.0
  0
LINE
  5
55B
  8
0
  6
CONTINUOUS
 62
     7
 10
40.578438036892862
 20
38.759559019552057
 30
0.0
 11
42.998153794622297
 21
38.759559019552057
 31
0.0
  0
LINE
  5
55E
  8
0
  6
CONTINUOUS
 62
     7
 10
39.517769036892801
 20
45.698899819552757
 30
0.0
 11
39.51776903689295
 21
43.279174261822767
 31
0.0
  0
LINE
  5
562
  8
0
  6
CONTINUOUS
 62
     7
 10
59.517769036892901
 20
45.698921569551651
 30
0.0
 11
59.517769036892901
 21
39.820212719552039
 31
0.0
  0
LINE
  5
563
  8
0
  6
CONTINUOUS
 62
     7
 10
47.517769036892958
 20
45.69887231955596
 30
0.0
 11
47.517769036892958
 21
39.820212719552039
 31
0.0
  0
LINE
  5
564
  8
0
  6
CONTINUOUS
 62
     7
 10
46.517769036892773
 20
33.15955901955212
 30
0.0
 11
60.517769036892901
 21
33.15955901955212
 31
0.0
  0
LINE
  5
565
  8
0
  6
CONTINUOUS
 62
     7
 10
51.817818036892959
 20
34.759559019552057
 30
0.0
 11
55.217842036892961
 21
34.759559019552057
 31
0.0
  0
LINE
  5
566
  8
0
  6
CONTINUOUS
 62
     7
 10
49.517790036892961
 20
35.698905519552227
 30
0.0
 11
46.457135636895458
 21
38.759559019552057
 31
0.0
  0
LINE
  5
567
  8
0
  6
CONTINUOUS
 62
     7
 10
51.429921536892948
 20
35.908094019552038
 30
0.0
 11
47.517787036892848
 21
39.820227719552342
 31
0.0
  0
LINE
  5
568
  8
0
  6
CONTINUOUS
 62
     7
 10
49.517769036892958
 20
34.759559019552057
 30
0.0
 11
46.517769036892773
 21
34.759559019552057
 31
0.0
  0
LINE
  5
569
  8
0
  6
CONTINUOUS
 62
     7
 10
46.517769036892773
 20
33.15955901955212
 30
0.0
 11
46.517769036892773
 21
34.759559019552057
 31
0.0
  0
LINE
  5
56B
  8
0
  6
CONTINUOUS
 62
     7
 10
49.517769036892958
 20
34.759559019552057
 30
0.0
 11
49.517769036892958
 21
35.698905519552227
 31
0.0
  0
ARC
  5
56C
  8
0
  6
CONTINUOUS
 62
     7
 10
51.817818036892959
 20
35.059562019552352
 30
0.0
 40
0.30000001
 50
179.999989999999
 51
270.0
  0
ARC
  5
56D
  8
0
  6
CONTINUOUS
 62
     7
 10
51.217842036892982
 20
35.695960519552052
 30
0.0
 40
0.30000001
 50
359.999989999999
 51
44.999994000000243
  0
LINE
  5
56E
  8
0
  6
CONTINUOUS
 62
     7
 10
51.517769036892901
 20
35.059562019552352
 30
0.0
 11
51.517769036892901
 21
35.695960519552052
 31
0.0
  0
LINE
  5
56F
  8
0
  6
CONTINUOUS
 62
     7
 10
57.517798036892941
 20
35.698905519552227
 30
0.0
 11
60.578452036891399
 21
38.75955901955205
 31
0.0
  0
LINE
  5
570
  8
0
  6
CONTINUOUS
 62
     7
 10
55.605666536892599
 20
35.908094019552038
 30
0.0
 11
59.517800036892822
 21
39.820227469552151
 31
0.0
  0
ARC
  5
571
  8
0
  6
CONTINUOUS
 62
     7
 10
55.217842036892961
 20
35.059562019552352
 30
0.0
 40
0.30000001
 50
269.999989999999
 51
0.0000006832462478
  0
ARC
  5
572
  8
0
  6
CONTINUOUS
 62
     7
 10
55.817818036892952
 20
35.695960519552052
 30
0.0
 40
0.30000001
 50
135.0
 51
180.00001000000091
  0
LINE
  5
573
  8
0
  6
CONTINUOUS
 62
     7
 10
55.517769036892901
 20
35.059562019552352
 30
0.0
 11
55.517769036892901
 21
35.695960519552052
 31
0.0
  0
LINE
  5
574
  8
0
  6
CONTINUOUS
 62
     7
 10
60.517769036892901
 20
33.15955901955212
 30
0.0
 11
60.517769036892901
 21
34.759559019552057
 31
0.0
  0
LINE
  5
576
  8
0
  6
CONTINUOUS
 62
     7
 10
57.517769036892901
 20
34.759559019552057
 30
0.0
 11
60.517769036892901
 21
34.759559019552057
 31
0.0
  0
LINE
  5
577
  8
0
  6
CONTINUOUS
 62
     7
 10
57.517769036892901
 20
34.759559019552057
 30
0.0
 11
57.517769036892901
 21
35.698905519552227
 31
0.0
  0
LINE
  5
578
  8
0
  6
CONTINUOUS
 62
     7
 10
67.517769036892901
 20
45.698850969556929
 30
0.0
 11
67.517769036892901
 21
39.820212719552039
 31
0.0
  0
LINE
  5
579
  8
0
  6
CONTINUOUS
 62
     7
 10
69.517811036892894
 20
35.698905019552058
 30
0.0
 11
66.457157086892977
 21
38.759559019552057
 31
0.0
  0
LINE
  5
57B
  8
0
  6
CONTINUOUS
 62
     7
 10
71.429942536892909
 20
35.908094019552038
 30
0.0
 11
67.517808636892823
 21
39.820227469552151
 31
0.0
  0
LINE
  5
57C
  8
0
  6
CONTINUOUS
 62
     7
 10
66.517769036892901
 20
33.15955901955212
 30
0.0
 11
66.517769036892901
 21
34.759559019552121
 31
0.0
  0
LINE
  5
581
  8
0
  6
CONTINUOUS
 62
     7
 10
69.517769036892872
 20
34.759559019552121
 30
0.0
 11
69.517769036892901
 21
35.698905519552227
 31
0.0
  0
ARC
  5
582
  8
0
  6
CONTINUOUS
 62
     7
 10
71.817818036892959
 20
35.059562019552352
 30
0.0
 40
0.30000001
 50
180.00001000000091
 51
270.0
  0
ARC
  5
583
  8
0
  6
CONTINUOUS
 62
     7
 10
71.217842036892989
 20
35.695960519552052
 30
0.0
 40
0.30000001
 50
359.999989999999
 51
44.999994000000243
  0
LINE
  5
584
  8
0
  6
CONTINUOUS
 62
     7
 10
71.517769036892915
 20
35.059562019552352
 30
0.0
 11
71.517769036892915
 21
35.695960519552052
 31
0.0
  0
LINE
  5
585
  8
0
  6
CONTINUOUS
 62
     7
 10
186.17040532579361
 20
33.15955901955212
 30
0.0
 11
136.17040532579361
 21
33.15955901955212
 31
0.0
  0
LINE
  5
586
  8
0
  6
CONTINUOUS
 62
     7
 10
136.17040532579361
 20
39.759559019552228
 30
0.0
 11
186.17040532579361
 21
39.759559019552228
 31
0.0
  0
LINE
  5
587
  8
0
  6
CONTINUOUS
 62
     7
 10
136.17040532579361
 20
45.7595590195521
 30
0.0
 11
186.17040532579361
 21
45.7595590195521
 31
0.0
  0
LINE
  5
588
  8
0
  6
CONTINUOUS
 62
     7
 10
186.17040532579361
 20
52.359559019552393
 30
0.0
 11
136.17040532579361
 21
52.359559019552393
 31
0.0
  0
LINE
  5
589
  8
0
  6
CONTINUOUS
 62
     7
 10
136.17040532579361
 20
52.359559019552393
 30
0.0
 11
136.17040532579361
 21
33.15955901955212
 31
0.0
  0
LINE
  5
58A
  8
0
  6
CONTINUOUS
 62
     7
 10
186.17040532579361
 20
33.15955901955212
 30
0.0
 11
186.17040532579361
 21
52.359559019552393
 31
0.0
  0
LINE
  5
58B
  8
0
  6
CONTINUOUS
 62
     7
 10
35.517769036892958
 20
48.759559019552171
 30
0.0
 11
36.457100036892882
 21
48.759559019552171
 31
0.0
  0
LINE
  5
58C
  8
0
  6
CONTINUOUS
 62
     7
 10
33.71776903689284
 20
52.359559019552172
 30
0.0
 11
40.517769036892958
 21
52.359559019552172
 31
0.0
  0
LINE
  5
58D
  8
0
  6
CONTINUOUS
 62
     7
 10
33.817764536892867
 20
45.759559019552057
 30
0.0
 11
35.517769036892958
 21
45.759559019552057
 31
0.0
  0
ARC
  5
58E
  8
0
  6
CONTINUOUS
 62
     7
 10
33.817764536892867
 20
46.059562069552037
 30
0.0
 40
0.30000001
 50
179.999989999999
 51
269.9999969999991
  0
LINE
  5
58F
  8
0
  6
CONTINUOUS
 62
     7
 10
33.517769036892837
 20
51.759559019552171
 30
0.0
 11
33.517769036892837
 21
46.059562069552037
 31
0.0
  0
LINE
  5
590
  8
0
  6
CONTINUOUS
 62
     7
 10
35.517769036892958
 20
48.759559019552171
 30
0.0
 11
35.517769036892958
 21
45.759559019552057
 31
0.0
  0
LINE
  5
593
  8
0
  6
CONTINUOUS
 62
     7
 10
49.517769036892958
 20
50.759559019552171
 30
0.0
 11
46.517769036892773
 21
50.759559019552171
 31
0.0
  0
LINE
  5
594
  8
0
  6
CONTINUOUS
 62
     7
 10
51.429921536892948
 20
49.611024019551913
 30
0.0
 11
47.517769036892958
 21
45.69887231955596
 31
0.0
  0
LINE
  5
595
  8
0
  6
CONTINUOUS
 62
     7
 10
49.517790036892961
 20
49.820212519552229
 30
0.0
 11
46.457135636895458
 21
46.759559019552043
 31
0.0
  0
LINE
  5
596
  8
0
  6
CONTINUOUS
 62
     7
 10
46.517769036892773
 20
52.359559019552179
 30
0.0
 11
60.517769036892901
 21
52.359559019552179
 31
0.0
  0
LINE
  5
597
  8
0
  6
CONTINUOUS
 62
     7
 10
40.578438036892862
 20
46.759559019552043
 30
0.0
 11
42.998153794622318
 21
46.759559019552043
 31
0.0
  0
LINE
  5
598
  8
0
  6
CONTINUOUS
 62
     7
 10
37.517769036892851
 20
50.759559019552171
 30
0.0
 11
37.517769036892851
 21
49.820212519552229
 31
0.0
  0
LINE
  5
599
  8
0
  6
CONTINUOUS
 62
     7
 10
36.457119036892962
 20
48.7595500195523
 30
0.0
 11
39.517769036892801
 21
45.698899819552757
 31
0.0
  0
LINE
  5
59A
  8
0
  6
CONTINUOUS
 62
     7
 10
37.517778536892763
 20
49.820210519552226
 30
0.0
 11
40.578440036892793
 21
46.759550419552042
 31
0.0
  0
LINE
  5
59B
  8
0
  6
CONTINUOUS
 62
     7
 10
37.517769036892851
 20
50.759559019552171
 30
0.0
 11
40.517769036892958
 21
50.759559019552171
 31
0.0
  0
LINE
  5
59D
  8
0
  6
CONTINUOUS
 62
     7
 10
40.517769036892958
 20
52.359559019552172
 30
0.0
 11
40.517769036892958
 21
50.759559019552171
 31
0.0
  0
LINE
  5
5A2
  8
0
  6
CONTINUOUS
 62
     7
 10
46.517769036892773
 20
52.359559019552179
 30
0.0
 11
46.517769036892773
 21
50.759559019552171
 31
0.0
  0
LINE
  5
5A3
  8
0
  6
CONTINUOUS
 62
     7
 10
55.605666536892599
 20
49.611024019551913
 30
0.0
 11
59.517769036892901
 21
45.698921569551651
 31
0.0
  0
ARC
  5
5A4
  8
0
  6
CONTINUOUS
 62
     7
 10
55.217842036892961
 20
50.459556019551989
 30
0.0
 40
0.30000001
 50
359.9999993167537
 51
90.000010000000984
  0
ARC
  5
5A5
  8
0
  6
CONTINUOUS
 62
     7
 10
55.817818036892952
 20
49.82315751955241
 30
0.0
 40
0.30000001
 50
179.999989999999
 51
225.0
  0
LINE
  5
5A6
  8
0
  6
CONTINUOUS
 62
     7
 10
55.517769036892901
 20
50.459556019551989
 30
0.0
 11
55.517769036892901
 21
49.82315751955241
 31
0.0
  0
ARC
  5
5A7
  8
0
  6
CONTINUOUS
 62
     7
 10
51.817818036892959
 20
50.459556019551989
 30
0.0
 40
0.30000001
 50
90.0
 51
180.00001000000091
  0
ARC
  5
5A8
  8
0
  6
CONTINUOUS
 62
     7
 10
51.217842036892982
 20
49.82315751955241
 30
0.0
 40
0.30000001
 50
315.00000599999981
 51
0.0000100000010064
  0
LINE
  5
5A9
  8
0
  6
CONTINUOUS
 62
     7
 10
51.517769036892901
 20
50.459556019551989
 30
0.0
 11
51.517769036892901
 21
49.82315751955241
 31
0.0
  0
LINE
  5
5AA
  8
0
  6
CONTINUOUS
 62
     7
 10
49.517769036892958
 20
50.759559019552171
 30
0.0
 11
49.517769036892958
 21
49.820212519552229
 31
0.0
  0
LINE
  5
5AB
  8
0
  6
CONTINUOUS
 62
     7
 10
51.817818036892959
 20
50.759559019552171
 30
0.0
 11
55.217842036892961
 21
50.759559019552171
 31
0.0
  0
LINE
  5
5AD
  8
0
  6
CONTINUOUS
 62
     7
 10
60.517769036892901
 20
52.359559019552179
 30
0.0
 11
60.517769036892901
 21
50.759559019552171
 31
0.0
  0
LINE
  5
5AE
  8
0
  6
CONTINUOUS
 62
     7
 10
57.517769036892901
 20
50.759559019552171
 30
0.0
 11
57.517769036892901
 21
49.820212519552229
 31
0.0
  0
LINE
  5
5AF
  8
0
  6
CONTINUOUS
 62
     7
 10
57.517798036892941
 20
49.820212519552229
 30
0.0
 11
60.578452036891719
 21
46.759559019552043
 31
0.0
  0
LINE
  5
5B0
  8
0
  6
CONTINUOUS
 62
     7
 10
57.517769036892901
 20
50.759559019552171
 30
0.0
 11
60.517769036892901
 21
50.759559019552171
 31
0.0
  0
LINE
  5
5B1
  8
0
  6
CONTINUOUS
 62
     7
 10
69.517811036892894
 20
49.82021301955217
 30
0.0
 11
66.457157086892707
 21
46.759559019552043
 31
0.0
  0
LINE
  5
5B2
  8
0
  6
CONTINUOUS
 62
     7
 10
69.517769036892901
 20
50.759559019552171
 30
0.0
 11
66.517769036892901
 21
50.759559019552171
 31
0.0
  0
LINE
  5
5B3
  8
0
  6
CONTINUOUS
 62
     7
 10
71.429942536892909
 20
49.611024019551913
 30
0.0
 11
67.517769036892901
 21
45.698850969556929
 31
0.0
  0
LINE
  5
5B8
  8
0
  6
CONTINUOUS
 62
     7
 10
66.517769036892915
 20
52.359559019552151
 30
0.0
 11
66.517769036892901
 21
50.759559019552171
 31
0.0
  0
ARC
  5
5B9
  8
0
  6
CONTINUOUS
 62
     7
 10
71.817818036892959
 20
50.459556019551989
 30
0.0
 40
0.30000001
 50
90.0
 51
179.999989999999
  0
ARC
  5
5BA
  8
0
  6
CONTINUOUS
 62
     7
 10
71.217842036892989
 20
49.82315751955241
 30
0.0
 40
0.30000001
 50
315.00000599999981
 51
0.0000100000010064
  0
LINE
  5
5BB
  8
0
  6
CONTINUOUS
 62
     7
 10
71.517769036892915
 20
50.459556019551989
 30
0.0
 11
71.517769036892915
 21
49.82315751955241
 31
0.0
  0
LINE
  5
5BC
  8
0
  6
CONTINUOUS
 62
     7
 10
69.517769036892901
 20
50.759559019552171
 30
0.0
 11
69.517769036892901
 21
49.820212519552229
 31
0.0
  0
LINE
  5
5BE
  8
0
  6
CONTINUOUS
 62
     7
 10
71.817818036892959
 20
50.759556029552073
 30
0.0
 11
73.517769036892915
 21
50.759556029552073
 31
0.0
  0
LINE
  5
5BF
  8
0
  6
CONTINUOUS
 62
     7
 10
71.817818036892959
 20
34.75956200955239
 30
0.0
 11
73.517769036892915
 21
34.75956200955239
 31
0.0
  0
LINE
  5
5C4
  8
CENTER
  6
CENTER
 62
     1
 10
103.517769036893
 20
54.859559019552172
 30
0.0
 11
103.517769036893
 21
30.65955901955212
 31
0.0
  0
LINE
  5
5C5
  8
CENTER
  6
CENTER
 62
     1
 10
83.517769036892858
 20
54.859559019552172
 30
0.0
 11
83.517769036892858
 21
30.65955901955212
 31
0.0
  0
LINE
  5
5C6
  8
0
  6
CONTINUOUS
 62
     7
 10
109.5177690368929
 20
50.759559019552171
 30
0.0
 11
106.5177690368931
 21
50.759559019552171
 31
0.0
  0
LINE
  5
5C7
  8
0
  6
CONTINUOUS
 62
     7
 10
109.5177595368929
 20
49.820210519552226
 30
0.0
 11
106.4571066368967
 21
46.759559019552043
 31
0.0
  0
LINE
  5
5C8
  8
0
  6
CONTINUOUS
 62
     7
 10
113.3177690368929
 20
52.359559019552151
 30
0.0
 11
106.5177690368931
 21
52.359559019552172
 31
0.0
  0
LINE
  5
5CB
  8
0
  6
CONTINUOUS
 62
     7
 10
109.5177690368929
 20
34.759559019552057
 30
0.0
 11
106.5177690368931
 21
34.759559019552057
 31
0.0
  0
LINE
  5
5CC
  8
0
  6
CONTINUOUS
 62
     7
 10
109.5177595368929
 20
35.698907519552108
 30
0.0
 11
106.4571066368967
 21
38.759559019552071
 31
0.0
  0
LINE
  5
5CD
  8
0
  6
CONTINUOUS
 62
     7
 10
113.317769036893
 20
33.159559019552127
 30
0.0
 11
106.5177690368931
 21
33.15955901955212
 31
0.0
  0
ARC
  5
5CF
  8
0
  6
CONTINUOUS
 62
     7
 10
113.2177735368932
 20
39.459555969552071
 30
0.0
 40
0.30000001
 50
359.999989999999
 51
89.999996999999041
  0
LINE
  5
5D0
  8
0
  6
CONTINUOUS
 62
     7
 10
113.2177735368932
 20
39.759559019552228
 30
0.0
 11
111.517769036893
 21
39.759559019552228
 31
0.0
  0
LINE
  5
5D1
  8
0
  6
CONTINUOUS
 62
     7
 10
109.5177690368929
 20
34.759559019552057
 30
0.0
 11
109.5177690368929
 21
35.698905519552227
 31
0.0
  0
LINE
  5
5D2
  8
0
  6
CONTINUOUS
 62
     7
 10
111.517769036893
 20
36.759559019552228
 30
0.0
 11
110.578438036893
 21
36.759559019552228
 31
0.0
  0
LINE
  5
5D4
  8
0
  6
CONTINUOUS
 62
     7
 10
111.517769036893
 20
36.759559019552228
 30
0.0
 11
111.517769036893
 21
39.759559019552228
 31
0.0
  0
LINE
  5
5D5
  8
0
  6
CONTINUOUS
 62
     7
 10
113.5177690368929
 20
33.759559019552057
 30
0.0
 11
113.5177690368929
 21
39.459555969552071
 31
0.0
  0
LINE
  5
5D6
  8
0
  6
CONTINUOUS
 62
     7
 10
110.578419036893
 20
36.759568019552148
 30
0.0
 11
107.5177690368928
 21
39.820218219551847
 31
0.0
  0
LINE
  5
5D7
  8
0
  6
CONTINUOUS
 62
     7
 10
110.578419036893
 20
48.7595500195523
 30
0.0
 11
107.5177690368932
 21
45.698899819552992
 31
0.0
  0
LINE
  5
5D8
  8
0
  6
CONTINUOUS
 62
     7
 10
109.5177690368929
 20
50.759559019552171
 30
0.0
 11
109.5177690368929
 21
49.820212519552229
 31
0.0
  0
LINE
  5
5D9
  8
0
  6
CONTINUOUS
 62
     7
 10
111.517769036893
 20
48.759559019552171
 30
0.0
 11
111.517769036893
 21
45.759559019552057
 31
0.0
  0
LINE
  5
5DA
  8
0
  6
CONTINUOUS
 62
     7
 10
113.5177690368929
 20
51.759559019552171
 30
0.0
 11
113.5177690368929
 21
46.059562069552037
 31
0.0
  0
ARC
  5
5DB
  8
0
  6
CONTINUOUS
 62
     7
 10
113.2177735368932
 20
46.059562069552037
 30
0.0
 40
0.30000001
 50
270.00000300000102
 51
0.0000100000010064
  0
LINE
  5
5DC
  8
0
  6
CONTINUOUS
 62
     7
 10
113.2177735368932
 20
45.759559019552057
 30
0.0
 11
111.517769036893
 21
45.759559019552057
 31
0.0
  0
LINE
  5
5DD
  8
0
  6
CONTINUOUS
 62
     7
 10
111.517769036893
 20
48.759559019552171
 30
0.0
 11
110.578438036893
 21
48.759559019552171
 31
0.0
  0
LINE
  5
5DF
  8
0
  6
CONTINUOUS
 62
     7
 10
95.217720036892914
 20
50.759559019552171
 30
0.0
 11
91.817696036892926
 21
50.759559019552171
 31
0.0
  0
LINE
  5
5E0
  8
0
  6
CONTINUOUS
 62
     7
 10
100.5177690368929
 20
52.359559019552172
 30
0.0
 11
86.517769036892915
 21
52.359559019552172
 31
0.0
  0
LINE
  5
5E1
  8
0
  6
CONTINUOUS
 62
     7
 10
95.217720036892914
 20
34.759559019552057
 30
0.0
 11
91.817696036892926
 21
34.759559019552057
 31
0.0
  0
LINE
  5
5E2
  8
0
  6
CONTINUOUS
 62
     7
 10
100.5177690368929
 20
33.15955901955212
 30
0.0
 11
86.517769036892915
 21
33.159559019552127
 31
0.0
  0
LINE
  5
5E3
  8
0
  6
CONTINUOUS
 62
     7
 10
99.517769036892915
 20
45.69887231955596
 30
0.0
 11
99.517769036892915
 21
39.820212719552039
 31
0.0
  0
LINE
  5
5E9
  8
0
  6
CONTINUOUS
 62
     7
 10
106.5177690368931
 20
33.15955901955212
 30
0.0
 11
106.5177690368931
 21
34.759559019552057
 31
0.0
  0
LINE
  5
5EA
  8
0
  6
CONTINUOUS
 62
     7
 10
95.517769036892915
 20
35.059562019552352
 30
0.0
 11
95.517769036892915
 21
35.695960519552052
 31
0.0
  0
ARC
  5
5EB
  8
0
  6
CONTINUOUS
 62
     7
 10
95.817696036892926
 20
35.695960519552052
 30
0.0
 40
0.30000001
 50
135.0000059999997
 51
180.00001000000091
  0
ARC
  5
5EC
  8
0
  6
CONTINUOUS
 62
     7
 10
95.217720036892914
 20
35.059562019552352
 30
0.0
 40
0.30000001
 50
270.0
 51
0.0000100000010064
  0
LINE
  5
5ED
  8
0
  6
CONTINUOUS
 62
     7
 10
97.517769036892929
 20
34.759559019552057
 30
0.0
 11
97.517769036892929
 21
35.698905519552227
 31
0.0
  0
LINE
  5
5EF
  8
0
  6
CONTINUOUS
 62
     7
 10
100.5177690368929
 20
33.15955901955212
 30
0.0
 11
100.5177690368929
 21
34.759559019552057
 31
0.0
  0
LINE
  5
5F0
  8
0
  6
CONTINUOUS
 62
     7
 10
97.517769036892929
 20
34.759559019552057
 30
0.0
 11
100.5177690368929
 21
34.759559019552057
 31
0.0
  0
LINE
  5
5F1
  8
0
  6
CONTINUOUS
 62
     7
 10
95.605616536892967
 20
35.908094019552038
 30
0.0
 11
99.517751036893088
 21
39.820227719552342
 31
0.0
  0
LINE
  5
5F2
  8
0
  6
CONTINUOUS
 62
     7
 10
97.517748036892954
 20
35.698905519552227
 30
0.0
 11
100.5784024368904
 21
38.75955901955205
 31
0.0
  0
LINE
  5
5F6
  8
0
  6
CONTINUOUS
 62
     7
 10
106.5177690368931
 20
52.359559019552172
 30
0.0
 11
106.5177690368931
 21
50.759559019552171
 31
0.0
  0
LINE
  5
5F9
  8
0
  6
CONTINUOUS
 62
     7
 10
97.517769036892929
 20
50.759559019552171
 30
0.0
 11
97.517769036892929
 21
49.820212519552229
 31
0.0
  0
LINE
  5
5FA
  8
0
  6
CONTINUOUS
 62
     7
 10
95.517769036892915
 20
50.459556019551989
 30
0.0
 11
95.517769036892915
 21
49.82315751955241
 31
0.0
  0
ARC
  5
5FB
  8
0
  6
CONTINUOUS
 62
     7
 10
95.817696036892926
 20
49.82315751955241
 30
0.0
 40
0.30000001
 50
179.999989999999
 51
224.9999940000003
  0
ARC
  5
5FC
  8
0
  6
CONTINUOUS
 62
     7
 10
95.217720036892914
 20
50.459556019551989
 30
0.0
 40
0.30000001
 50
359.999989999999
 51
90.0
  0
LINE
  5
5FD
  8
0
  6
CONTINUOUS
 62
     7
 10
100.5177690368929
 20
52.359559019552172
 30
0.0
 11
100.5177690368929
 21
50.759559019552171
 31
0.0
  0
LINE
  5
5FF
  8
0
  6
CONTINUOUS
 62
     7
 10
97.517748036892954
 20
49.820212519552229
 30
0.0
 11
100.5784024368904
 21
46.759559019552043
 31
0.0
  0
LINE
  5
600
  8
0
  6
CONTINUOUS
 62
     7
 10
95.605616536892967
 20
49.611024019551913
 30
0.0
 11
99.517769036892915
 21
45.69887231955596
 31
0.0
  0
LINE
  5
601
  8
0
  6
CONTINUOUS
 62
     7
 10
97.517769036892929
 20
50.759559019552171
 30
0.0
 11
100.5177690368929
 21
50.759559019552171
 31
0.0
  0
LINE
  5
602
  8
0
  6
CONTINUOUS
 62
     7
 10
87.517769036892915
 20
45.698921569551651
 30
0.0
 11
87.517769036892915
 21
39.820212719552039
 31
0.0
  0
LINE
  5
603
  8
0
  6
CONTINUOUS
 62
     7
 10
89.517769036892915
 20
34.759559019552057
 30
0.0
 11
86.517769036892915
 21
34.759559019552057
 31
0.0
  0
LINE
  5
604
  8
0
  6
CONTINUOUS
 62
     7
 10
91.429871536892932
 20
35.908094019552038
 30
0.0
 11
87.517738036892993
 21
39.820227469552151
 31
0.0
  0
LINE
  5
605
  8
0
  6
CONTINUOUS
 62
     7
 10
89.517740036892988
 20
35.698905519552227
 30
0.0
 11
86.457086036894381
 21
38.759559019552057
 31
0.0
  0
LINE
  5
606
  8
0
  6
CONTINUOUS
 62
     7
 10
89.517769036892915
 20
34.759559019552057
 30
0.0
 11
89.517769036892915
 21
35.698905519552227
 31
0.0
  0
LINE
  5
607
  8
0
  6
CONTINUOUS
 62
     7
 10
91.517769036892929
 20
35.059562019552352
 30
0.0
 11
91.517769036892929
 21
35.695960519552052
 31
0.0
  0
ARC
  5
608
  8
0
  6
CONTINUOUS
 62
     7
 10
91.217720036892914
 20
35.695960519552052
 30
0.0
 40
0.30000001
 50
359.999989999999
 51
45.0
  0
ARC
  5
609
  8
0
  6
CONTINUOUS
 62
     7
 10
91.817696036892926
 20
35.059562019552352
 30
0.0
 40
0.30000001
 50
179.9999993167537
 51
270.000010000001
  0
LINE
  5
60D
  8
0
  6
CONTINUOUS
 62
     7
 10
86.517769036892915
 20
33.159559019552127
 30
0.0
 11
86.517769036892915
 21
34.759559019552057
 31
0.0
  0
LINE
  5
60F
  8
0
  6
CONTINUOUS
 62
     7
 10
89.517769036892915
 20
50.759559019552171
 30
0.0
 11
86.517769036892915
 21
50.759559019552171
 31
0.0
  0
LINE
  5
610
  8
0
  6
CONTINUOUS
 62
     7
 10
89.517740036892988
 20
49.820212519552229
 30
0.0
 11
86.457086036894054
 21
46.759559019552043
 31
0.0
  0
LINE
  5
611
  8
0
  6
CONTINUOUS
 62
     7
 10
91.429871536892932
 20
49.611024019551913
 30
0.0
 11
87.517769036892915
 21
45.698921569551651
 31
0.0
  0
LINE
  5
612
  8
0
  6
CONTINUOUS
 62
     7
 10
89.517769036892915
 20
50.759559019552171
 30
0.0
 11
89.517769036892915
 21
49.820212519552229
 31
0.0
  0
LINE
  5
613
  8
0
  6
CONTINUOUS
 62
     7
 10
91.517769036892929
 20
50.459556019551989
 30
0.0
 11
91.517769036892929
 21
49.82315751955241
 31
0.0
  0
ARC
  5
614
  8
0
  6
CONTINUOUS
 62
     7
 10
91.217720036892914
 20
49.82315751955241
 30
0.0
 40
0.30000001
 50
315.0
 51
0.0000100000010064
  0
ARC
  5
615
  8
0
  6
CONTINUOUS
 62
     7
 10
91.817696036892926
 20
50.459556019551989
 30
0.0
 40
0.30000001
 50
89.999989999998988
 51
180.00000068324599
  0
LINE
  5
618
  8
0
  6
CONTINUOUS
 62
     7
 10
86.517769036892915
 20
52.359559019552172
 30
0.0
 11
86.517769036892915
 21
50.759559019552171
 31
0.0
  0
LINE
  5
61B
  8
0
  6
CONTINUOUS
 62
     7
 10
79.517769036892915
 20
45.698850969556929
 30
0.0
 11
79.517769036892915
 21
39.820212719552039
 31
0.0
  0
LINE
  5
61D
  8
0
  6
CONTINUOUS
 62
     7
 10
75.605595536892906
 20
35.908094019552038
 30
0.0
 11
79.517729436892992
 21
39.820227469552151
 31
0.0
  0
LINE
  5
61E
  8
0
  6
CONTINUOUS
 62
     7
 10
77.517769036892915
 20
34.759559019552057
 30
0.0
 11
77.517769036892915
 21
35.698905519552227
 31
0.0
  0
LINE
  5
620
  8
0
  6
CONTINUOUS
 62
     7
 10
80.517769036892915
 20
33.15955901955212
 30
0.0
 11
80.517769036892915
 21
34.759559019552057
 31
0.0
  0
LINE
  5
621
  8
0
  6
CONTINUOUS
 62
     7
 10
77.517769036892915
 20
34.759559019552057
 30
0.0
 11
80.517769036892915
 21
34.759559019552057
 31
0.0
  0
LINE
  5
622
  8
0
  6
CONTINUOUS
 62
     7
 10
77.517727036893135
 20
35.698905019552058
 30
0.0
 11
80.578380986892725
 21
38.759559019552071
 31
0.0
  0
LINE
  5
623
  8
0
  6
CONTINUOUS
 62
     7
 10
75.217720036892942
 20
34.75956200955239
 30
0.0
 11
73.517769036892915
 21
34.75956200955239
 31
0.0
  0
LINE
  5
624
  8
0
  6
CONTINUOUS
 62
     7
 10
75.517769036892915
 20
35.059562019552352
 30
0.0
 11
75.517769036892915
 21
35.695960519552052
 31
0.0
  0
ARC
  5
625
  8
0
  6
CONTINUOUS
 62
     7
 10
75.817696036892812
 20
35.695960519552052
 30
0.0
 40
0.30000001
 50
135.0000059999997
 51
180.00001000000091
  0
ARC
  5
626
  8
0
  6
CONTINUOUS
 62
     7
 10
75.217720036892942
 20
35.059562019552352
 30
0.0
 40
0.30000001
 50
270.0
 51
359.999989999999
  0
LINE
  5
628
  8
0
  6
CONTINUOUS
 62
     7
 10
75.605595536892906
 20
49.611024019551913
 30
0.0
 11
79.517769036892915
 21
45.698850969556929
 31
0.0
  0
LINE
  5
629
  8
0
  6
CONTINUOUS
 62
     7
 10
77.517769036892915
 20
50.759559019552171
 30
0.0
 11
77.517769036892915
 21
49.820212519552229
 31
0.0
  0
LINE
  5
62A
  8
0
  6
CONTINUOUS
 62
     7
 10
80.517769036892915
 20
52.359559019552151
 30
0.0
 11
80.517769036892915
 21
50.759559019552171
 31
0.0
  0
LINE
  5
62C
  8
0
  6
CONTINUOUS
 62
     7
 10
77.517769036892915
 20
50.759559019552171
 30
0.0
 11
80.517769036892915
 21
50.759559019552171
 31
0.0
  0
LINE
  5
62D
  8
0
  6
CONTINUOUS
 62
     7
 10
77.517727036893135
 20
49.82021301955217
 30
0.0
 11
80.578380986892981
 21
46.759559019552043
 31
0.0
  0
LINE
  5
62E
  8
0
  6
CONTINUOUS
 62
     7
 10
75.217720036892942
 20
50.759556029552073
 30
0.0
 11
73.517769036892915
 21
50.759556029552073
 31
0.0
  0
LINE
  5
62F
  8
0
  6
CONTINUOUS
 62
     7
 10
75.517769036892915
 20
50.459556019551989
 30
0.0
 11
75.517769036892915
 21
49.82315751955241
 31
0.0
  0
ARC
  5
630
  8
0
  6
CONTINUOUS
 62
     7
 10
75.817696036892812
 20
49.82315751955241
 30
0.0
 40
0.30000001
 50
179.999989999999
 51
224.9999940000003
  0
ARC
  5
631
  8
0
  6
CONTINUOUS
 62
     7
 10
75.217720036892942
 20
50.459556019551989
 30
0.0
 40
0.30000001
 50
0.0000100000010064
 51
90.0
  0
CIRCLE
  5
632
  8
0
  6
CONTINUOUS
 62
     7
 10
43.51776903689295
 20
42.759559019552057
 30
0.0
 40
2.1000000000000001
  0
CIRCLE
  5
633
  8
0
  6
CONTINUOUS
 62
     7
 10
63.517769036892901
 20
42.759559019552057
 30
0.0
 40
2.1000000000000001
  0
CIRCLE
  5
634
  8
0
  6
CONTINUOUS
 62
     7
 10
83.517769036892858
 20
42.759559019552057
 30
0.0
 40
2.1000000000000001
  0
CIRCLE
  5
635
  8
0
  6
CONTINUOUS
 62
     7
 10
103.517769036893
 20
42.759559019552057
 30
0.0
 40
2.1000000000000001
  0
LINE
  5
A54
  8
0
  6
CONTINUOUS
 62
     7
 10
43.51776903689295
 20
46.45955901955206
 30
0.0
 11
42.998153794622297
 21
46.759559019552043
 31
0.0
  0
LINE
  5
A55
  8
0
  6
CONTINUOUS
 62
     7
 10
43.51776903689295
 20
46.45955901955206
 30
0.0
 11
44.037384279163611
 21
46.759559019552043
 31
0.0
  0
LINE
  5
A57
  8
0
  6
CONTINUOUS
 62
     7
 10
39.817769036892969
 20
42.759559019552057
 30
0.0
 11
39.51776903689295
 21
43.279174261822767
 31
0.0
  0
LINE
  5
A58
  8
0
  6
CONTINUOUS
 62
     7
 10
39.817769036892969
 20
42.759559019552057
 30
0.0
 11
39.517769036893
 21
42.239943777281447
 31
0.0
  0
LINE
  5
A59
  8
0
  6
CONTINUOUS
 62
     7
 10
43.51776903689295
 20
39.059559019552061
 30
0.0
 11
42.998153794622318
 21
38.759559019552071
 31
0.0
  0
LINE
  5
A5A
  8
0
  6
CONTINUOUS
 62
     7
 10
43.51776903689295
 20
39.059559019552061
 30
0.0
 11
44.037384279163582
 21
38.759559019552057
 31
0.0
  0
LINE
  5
A86
  8
0
  6
CONTINUOUS
 62
     7
 10
44.037384279163611
 20
46.759559019552043
 30
0.0
 11
46.457135636895458
 21
46.759559019552043
 31
0.0
  0
LINE
  5
A89
  8
0
  6
CONTINUOUS
 62
     7
 10
39.517769036893
 20
42.239943777281447
 30
0.0
 11
39.517769036893156
 21
39.820218219551961
 31
0.0
  0
LINE
  5
A8A
  8
0
  6
CONTINUOUS
 62
     7
 10
44.037384279163582
 20
38.759559019552057
 30
0.0
 11
46.457135636895458
 21
38.759559019552057
 31
0.0
  0
LINE
  5
A8B
  8
0
  6
CONTINUOUS
 62
     7
 10
60.578452036891399
 20
38.75955901955205
 30
0.0
 11
62.998153794622318
 21
38.759559019552057
 31
0.0
  0
LINE
  5
A8C
  8
0
  6
CONTINUOUS
 62
     7
 10
64.037384279163604
 20
38.759559019552057
 30
0.0
 11
66.457157086892977
 21
38.759559019552057
 31
0.0
  0
LINE
  5
A8F
  8
0
  6
CONTINUOUS
 62
     7
 10
60.578452036891719
 20
46.759559019552043
 30
0.0
 11
62.998153794622318
 21
46.759559019552043
 31
0.0
  0
LINE
  5
A90
  8
0
  6
CONTINUOUS
 62
     7
 10
64.037384279163604
 20
46.759559019552043
 30
0.0
 11
66.457157086892707
 21
46.759559019552043
 31
0.0
  0
LINE
  5
A91
  8
0
  6
CONTINUOUS
 62
     7
 10
63.51776903689295
 20
46.45955901955206
 30
0.0
 11
62.998153794622318
 21
46.759559019552043
 31
0.0
  0
LINE
  5
A92
  8
0
  6
CONTINUOUS
 62
     7
 10
63.51776903689295
 20
46.45955901955206
 30
0.0
 11
64.037384279163604
 21
46.759559019552043
 31
0.0
  0
LINE
  5
A95
  8
0
  6
CONTINUOUS
 62
     7
 10
63.51776903689295
 20
39.059559019552061
 30
0.0
 11
62.998153794622318
 21
38.759559019552071
 31
0.0
  0
LINE
  5
A96
  8
0
  6
CONTINUOUS
 62
     7
 10
63.51776903689295
 20
39.059559019552061
 30
0.0
 11
64.037384279163604
 21
38.759559019552057
 31
0.0
  0
LINE
  5
A97
  8
0
  6
CONTINUOUS
 62
     7
 10
80.578380986892725
 20
38.759559019552071
 30
0.0
 11
82.998153794622269
 21
38.759559019552057
 31
0.0
  0
LINE
  5
A98
  8
0
  6
CONTINUOUS
 62
     7
 10
84.037384279163575
 20
38.759559019552057
 30
0.0
 11
86.457086036894381
 21
38.759559019552057
 31
0.0
  0
LINE
  5
A9B
  8
0
  6
CONTINUOUS
 62
     7
 10
80.578380986892981
 20
46.759559019552043
 30
0.0
 11
82.998153794622269
 21
46.759559019552043
 31
0.0
  0
LINE
  5
A9C
  8
0
  6
CONTINUOUS
 62
     7
 10
84.037384279163575
 20
46.759559019552043
 30
0.0
 11
86.457086036894054
 21
46.759559019552043
 31
0.0
  0
LINE
  5
A9D
  8
0
  6
CONTINUOUS
 62
     7
 10
83.517769036892958
 20
46.45955901955206
 30
0.0
 11
82.998153794622269
 21
46.759559019552043
 31
0.0
  0
LINE
  5
A9E
  8
0
  6
CONTINUOUS
 62
     7
 10
83.517769036892958
 20
46.45955901955206
 30
0.0
 11
84.037384279163575
 21
46.759559019552043
 31
0.0
  0
LINE
  5
AA1
  8
0
  6
CONTINUOUS
 62
     7
 10
83.517769036892958
 20
39.059559019552061
 30
0.0
 11
82.998153794622269
 21
38.759559019552071
 31
0.0
  0
LINE
  5
AA2
  8
0
  6
CONTINUOUS
 62
     7
 10
83.517769036892958
 20
39.059559019552061
 30
0.0
 11
84.037384279163575
 21
38.759559019552057
 31
0.0
  0
LINE
  5
AA3
  8
0
  6
CONTINUOUS
 62
     7
 10
100.5784024368904
 20
38.75955901955205
 30
0.0
 11
102.9981537946223
 21
38.759559019552057
 31
0.0
  0
LINE
  5
AA4
  8
0
  6
CONTINUOUS
 62
     7
 10
104.0373842791636
 20
38.759559019552057
 30
0.0
 11
106.4571066368967
 21
38.759559019552071
 31
0.0
  0
LINE
  5
AA7
  8
0
  6
CONTINUOUS
 62
     7
 10
100.5784024368904
 20
46.759559019552043
 30
0.0
 11
102.9981537946223
 21
46.759559019552043
 31
0.0
  0
LINE
  5
AA8
  8
0
  6
CONTINUOUS
 62
     7
 10
104.0373842791636
 20
46.759559019552043
 30
0.0
 11
106.4571066368967
 21
46.759559019552043
 31
0.0
  0
LINE
  5
AA9
  8
0
  6
CONTINUOUS
 62
     7
 10
103.5177690368929
 20
46.45955901955206
 30
0.0
 11
102.9981537946223
 21
46.759559019552043
 31
0.0
  0
LINE
  5
AAA
  8
0
  6
CONTINUOUS
 62
     7
 10
103.5177690368929
 20
46.45955901955206
 30
0.0
 11
104.0373842791636
 21
46.759559019552043
 31
0.0
  0
LINE
  5
AAD
  8
0
  6
CONTINUOUS
 62
     7
 10
103.5177690368929
 20
39.059559019552061
 30
0.0
 11
102.9981537946223
 21
38.759559019552071
 31
0.0
  0
LINE
  5
AAE
  8
0
  6
CONTINUOUS
 62
     7
 10
103.5177690368929
 20
39.059559019552061
 30
0.0
 11
104.0373842791636
 21
38.759559019552057
 31
0.0
  0
LINE
  5
AAF
  8
0
  6
CONTINUOUS
 62
     7
 10
107.5177690368932
 20
45.698899819552992
 30
0.0
 11
107.5177690368931
 21
43.279174261822767
 31
0.0
  0
LINE
  5
AB0
  8
0
  6
CONTINUOUS
 62
     7
 10
107.517769036893
 20
42.239943777281447
 30
0.0
 11
107.5177690368928
 21
39.820218219551847
 31
0.0
  0
LINE
  5
AB1
  8
0
  6
CONTINUOUS
 62
     7
 10
107.217769036893
 20
42.759559019552057
 30
0.0
 11
107.5177690368931
 21
43.279174261822767
 31
0.0
  0
LINE
  5
AB2
  8
0
  6
CONTINUOUS
 62
     7
 10
107.217769036893
 20
42.759559019552057
 30
0.0
 11
107.517769036893
 21
42.239943777281447
 31
0.0
  0
LINE
  5
AB9
  8
CENTER
  6
CENTER
 62
     1
 10
188.6704053257935
 20
42.759559019552057
 30
0.0
 11
133.6704053257935
 21
42.759559019552057
 31
0.0
  0
LINE
  5
D32
  8
0
  6
CONTINUOUS
 62
     7
 10
136.17040532579361
 20
43.279174261822767
 30
0.0
 11
186.17040532579361
 21
43.279174261822767
 31
0.0
  0
LINE
  5
D33
  8
0
  6
CONTINUOUS
 62
     7
 10
136.17040532579361
 20
42.239943777281447
 30
0.0
 11
186.17040532579361
 21
42.239943777281447
 31
0.0
  0
ARC
  5
D7D
  8
0
  6
CONTINUOUS
 62
     7
 10
112.5177690368929
 20
51.759559019552192
 30
0.0
 40
1.0
 50
359.99999999999881
 51
36.869897645841583
  0
ARC
  5
D7E
  8
0
  6
CONTINUOUS
 62
     7
 10
112.5177690368929
 20
33.75955901955205
 30
0.0
 40
1.0
 50
323.13010235416141
 51
0.0000000000004071
  0
ARC
  5
D7F
  8
0
  6
CONTINUOUS
 62
     7
 10
34.517769036892851
 20
51.759559019552192
 30
0.0
 40
1.0
 50
143.13010235415689
 51
180.0000000000008
  0
ARC
  5
D80
  8
0
  6
CONTINUOUS
 62
     7
 10
34.517769036892851
 20
33.759559019552071
 30
0.0
 40
1.0
 50
180.0000000000004
 51
216.86989764583899
  0
LINE
  5
100A
  8
0
  6
CONTINUOUS
 62
     7
 10
66.517769036892901
 20
33.15955901955212
 30
0.0
 11
80.517769036892915
 21
33.15955901955212
 31
0.0
  0
LINE
  5
10AE
  8
0
  6
CONTINUOUS
 62
     7
 10
66.517769036892915
 20
52.359559019552151
 30
0.0
 11
80.517769036892915
 21
52.359559019552151
 31
0.0
  0
LINE
  5
116C
  8
0
  6
CONTINUOUS
 62
     7
 10
66.517769036892901
 20
34.759559019552121
 30
0.0
 11
69.517769036892872
 21
34.759559019552121
 31
0.0
  0
ENDSEC
  0
EOF
