  0
SECTION
  2
HEADER
  9
$ACADVER
  1
AC1009
  9
$INSBASE
 10
0.0
 20
0.0
 30
0.0
  9
$EXTMIN
 10
0.0000001555740141
 20
-0.0000000866882033
 30
0.0
  9
$EXTMAX
 10
111.66605685819169
 20
85.655643903737371
 30
0.0
  9
$LIMMIN
 10
0.0
 20
0.0
  9
$LIMMAX
 10
297.0
 20
210.0
  9
$ORTHOMODE
 70
     0
  9
$REGENMODE
 70
     1
  9
$FILLMODE
 70
     1
  9
$QTEXTMODE
 70
     0
  9
$MIRRTEXT
 70
     1
  9
$DRAGMODE
 70
     2
  9
$LTSCALE
 40
1.0
  9
$OSMODE
 70
    57
  9
$ATTMODE
 70
     1
  9
$TEXTSIZE
 40
6.4000000000000012
  9
$TRACEWID
 40
0.05
  9
$TEXTSTYLE
  7
STANDARD
  9
$CLAYER
  8
0
  9
$CELTYPE
  6
CONTINUOUS
  9
$CECOLOR
 62
     7
  9
$DIMSCALE
 40
1.0
  9
$DIMASZ
 40
3.0
  9
$DIMEXO
 40
1.0
  9
$DIMDLI
 40
0.0
  9
$DIMRND
 40
0.0
  9
$DIMDLE
 40
0.0
  9
$DIMEXE
 40
1.0
  9
$DIMTP
 40
0.0
  9
$DIMTM
 40
0.0
  9
$DIMTXT
 40
3.2000000000000002
  9
$DIMCEN
 40
0.0
  9
$DIMTSZ
 40
0.0
  9
$DIMTOL
 70
     0
  9
$DIMLIM
 70
     0
  9
$DIMTIH
 70
     0
  9
$DIMTOH
 70
     0
  9
$DIMSE1
 70
     0
  9
$DIMSE2
 70
     0
  9
$DIMTAD
 70
     1
  9
$DIMZIN
 70
     8
  9
$DIMBLK
  1

  9
$DIMASO
 70
     1
  9
$DIMSHO
 70
     1
  9
$DIMPOST
  1

  9
$DIMAPOST
  1

  9
$DIMALT
 70
     0
  9
$DIMALTD
 70
     2
  9
$DIMALTF
 40
0.04
  9
$DIMLFAC
 40
1.0
  9
$DIMTOFL
 70
     1
  9
$DIMTVP
 40
1.0
  9
$DIMTIX
 70
     1
  9
$DIMSOXD
 70
     0
  9
$DIMSAH
 70
     0
  9
$DIMBLK1
  1

  9
$DIMBLK2
  1

  9
$DIMSTYLE
  2
MISUMI
  9
$DIMCLRD
 70
     0
  9
$DIMCLRE
 70
     0
  9
$DIMCLRT
 70
     0
  9
$DIMTFAC
 40
0.6
  9
$DIMGAP
 40
1.0
  9
$LUNITS
 70
     2
  9
$LUPREC
 70
     4
  9
$SKETCHINC
 40
0.1
  9
$FILLETRAD
 40
0.0
  9
$AUNITS
 70
     0
  9
$AUPREC
 70
     0
  9
$MENU
  1
acad
  9
$ELEVATION
 40
0.0
  9
$PELEVATION
 40
0.0
  9
$THICKNESS
 40
0.0
  9
$LIMCHECK
 70
     0
  9
$BLIPMODE
 70
     1
  9
$CHAMFERA
 40
0.5
  9
$CHAMFERB
 40
0.5
  9
$SKPOLY
 70
     0
  9
$TDCREATE
 40
2451464.6006649309
  9
$TDUPDATE
 40
2453776.70218316
  9
$TDINDWG
 40
0.2551856366
  9
$TDUSRTIMER
 40
0.2551836458
  9
$USRTIMER
 70
     1
  9
$ANGBASE
 50
0.0
  9
$ANGDIR
 70
     0
  9
$PDMODE
 70
     0
  9
$PDSIZE
 40
0.0
  9
$PLINEWID
 40
0.0
  9
$COORDS
 70
     0
  9
$SPLFRAME
 70
     0
  9
$SPLINETYPE
 70
     6
  9
$SPLINESEGS
 70
     8
  9
$ATTDIA
 70
     0
  9
$ATTREQ
 70
     1
  9
$HANDLING
 70
     1
  9
$HANDSEED
  5
1D59
  9
$SURFTAB1
 70
     6
  9
$SURFTAB2
 70
     6
  9
$SURFTYPE
 70
     6
  9
$SURFU
 70
     6
  9
$SURFV
 70
     6
  9
$UCSNAME
  2

  9
$UCSORG
 10
0.0
 20
0.0
 30
0.0
  9
$UCSXDIR
 10
1.0
 20
0.0
 30
0.0
  9
$UCSYDIR
 10
0.0
 20
1.0
 30
0.0
  9
$PUCSNAME
  2

  9
$PUCSORG
 10
0.0
 20
0.0
 30
0.0
  9
$PUCSXDIR
 10
1.0
 20
0.0
 30
0.0
  9
$PUCSYDIR
 10
0.0
 20
1.0
 30
0.0
  9
$USERI1
 70
     0
  9
$USERI2
 70
     0
  9
$USERI3
 70
     0
  9
$USERI4
 70
     0
  9
$USERI5
 70
     0
  9
$USERR1
 40
0.0
  9
$USERR2
 40
0.0
  9
$USERR3
 40
0.0
  9
$USERR4
 40
0.0
  9
$USERR5
 40
0.0
  9
$WORLDVIEW
 70
     1
  9
$SHADEDGE
 70
     3
  9
$SHADEDIF
 70
    70
  9
$TILEMODE
 70
     1
  9
$MAXACTVP
 70
    16
  9
$PLIMCHECK
 70
     0
  9
$PEXTMIN
 10
1.0000000000000000E+020
 20
1.0000000000000000E+020
 30
1.0000000000000000E+020
  9
$PEXTMAX
 10
-1.0000000000000000E+020
 20
-1.0000000000000000E+020
 30
-1.0000000000000000E+020
  9
$PLIMMIN
 10
0.0
 20
0.0
  9
$PLIMMAX
 10
12.0
 20
9.0
  9
$UNITMODE
 70
     0
  9
$VISRETAIN
 70
     0
  9
$PLINEGEN
 70
     0
  9
$PSLTSCALE
 70
     1
  0
ENDSEC
  0
SECTION
  2
TABLES
  0
TABLE
  2
VPORT
 70
     2
  0
VPORT
  2
*ACTIVE
 70
     0
 10
0.0
 20
0.0
 11
1.0
 21
1.0
 12
52.452895960928402
 22
43.53685517566965
 13
0.0
 23
0.0
 14
10.0
 24
10.0
 15
10.0
 25
10.0
 16
0.0
 26
0.0
 36
1.0
 17
0.0
 27
0.0
 37
0.0
 40
96.440800579247508
 41
1.5717852684144811
 42
50.0
 43
0.0
 44
0.0
 50
0.0
 51
0.0
 71
     0
 72
   100
 73
     1
 74
     0
 75
     0
 76
     0
 77
     0
 78
     0
  0
ENDTAB
  0
TABLE
  2
LTYPE
 70
     2
  0
LTYPE
  2
CONTINUOUS
 70
     0
  3
Solid line
 72
    65
 73
     0
 40
0.0
  0
LTYPE
  2
CENTER
 70
     0
  3
Center ____ _ ____ _ ____ _ ____ _ ____ _ ____
 72
    65
 73
     4
 40
2.0
 49
1.25
 49
-0.25
 49
0.25
 49
-0.25
  0
ENDTAB
  0
TABLE
  2
LAYER
 70
     2
  0
LAYER
  2
0
 70
     0
 62
     7
  6
CONTINUOUS
  0
LAYER
  2
CENTER
 70
     0
 62
     1
  6
CENTER
  0
ENDTAB
  0
TABLE
  2
STYLE
 70
     1
  0
STYLE
  2
STANDARD
 70
     0
 40
0.0
 41
1.0
 50
0.0
 71
     0
 42
6.4000000000000012
  3
txt
  4

  0
ENDTAB
  0
TABLE
  2
VIEW
 70
     0
  0
ENDTAB
  0
TABLE
  2
UCS
 70
     0
  0
ENDTAB
  0
TABLE
  2
APPID
 70
     2
  0
APPID
  2
ACAD
 70
     0
  0
APPID
  2
ACAD_DSTYLE_DIMTEXT_FILL
 70
     0
  0
ENDTAB
  0
TABLE
  2
DIMSTYLE
 70
     1
  0
DIMSTYLE
  2
MISUMI
 70
     0
  3

  4

  5

  6

  7

 40
1.0
 41
3.0
 42
1.0
 43
0.0
 44
1.0
 45
0.0
 46
0.0
 47
0.0
 48
0.0
140
3.2000000000000002
141
0.0
142
0.0
143
0.04
144
1.0
145
1.0
146
0.6
147
1.0
 71
     0
 72
     0
 73
     0
 74
     0
 75
     0
 76
     0
 77
     1
 78
     8
170
     0
171
     2
172
     1
173
     0
174
     1
175
     0
176
     0
177
     0
178
     0
  0
ENDTAB
  0
ENDSEC
  0
SECTION
  2
BLOCKS
  0
BLOCK
  8
0
  2
$MODEL_SPACE
 70
     0
 10
0.0
 20
0.0
 30
0.0
  3
$MODEL_SPACE
  1

  0
ENDBLK
  5
1CE5
  8
0
  0
BLOCK
 67
     1
  8
0
  2
$PAPER_SPACE
 70
     0
 10
0.0
 20
0.0
 30
0.0
  3
$PAPER_SPACE
  1

  0
ENDBLK
  5
1CE1
 67
     1
  8
0
  0
ENDSEC
  0
SECTION
  2
ENTITIES
  0
LINE
  5
56C
  8
CENTER
  6
CENTER
 62
     1
 10
18.166043333183591
 20
21.05564296783831
 30
0.0
 11
18.166043333183602
 21
85.655643903737371
 31
0.0
  0
LINE
  5
56E
  8
0
  6
CONTINUOUS
 62
     7
 10
15.22669963318458
 20
37.155643874289048
 30
0.0
 11
11.316279028418
 21
41.066064878879132
 31
0.0
  0
LINE
  5
56F
  8
0
  6
CONTINUOUS
 62
     7
 10
14.166043333183589
 20
36.094970674254782
 30
0.0
 11
11.10537044608985
 21
39.155643874289026
 31
0.0
  0
LINE
  5
570
  8
0
  6
CONTINUOUS
 62
     7
 10
15.226727333143989
 20
29.155643874289058
 30
0.0
 11
12.166043334634359
 21
26.094960467837989
 31
0.0
  0
LINE
  5
572
  8
0
  6
CONTINUOUS
 62
     7
 10
11.10540029614152
 20
27.15564387428909
 30
0.0
 11
14.1660433331836
 21
30.216287224268779
 31
0.0
  0
LINE
  5
573
  8
0
  6
CONTINUOUS
 62
     7
 10
11.10539384614594
 20
47.15564387428909
 30
0.0
 11
14.1660433331836
 21
50.216293674265088
 31
0.0
  0
LINE
  5
574
  8
0
  6
CONTINUOUS
 62
     7
 10
11.316279028417931
 20
45.245222769698962
 30
0.0
 11
15.22669973318447
 21
49.155643874288998
 31
0.0
  0
LINE
  5
575
  8
0
  6
CONTINUOUS
 62
     7
 10
11.316279028417931
 20
61.066064978879169
 30
0.0
 11
15.22669973318447
 21
57.155643874289197
 31
0.0
  0
LINE
  5
576
  8
0
  6
CONTINUOUS
 62
     7
 10
11.1053926461225
 20
59.155643874289026
 30
0.0
 11
14.166043333183611
 21
56.094992874289723
 31
0.0
  0
LINE
  5
577
  8
0
  6
CONTINUOUS
 62
     7
 10
14.166043333183611
 20
70.216313247249914
 30
0.0
 11
11.105374273163029
 21
67.155643874289069
 31
0.0
  0
LINE
  5
578
  8
0
  6
CONTINUOUS
 62
     7
 10
15.226699633184481
 20
69.155643874289069
 30
0.0
 11
11.31627902841797
 21
65.245222869699006
 31
0.0
  0
LINE
  5
57A
  8
0
  6
CONTINUOUS
 62
     7
 10
15.226725333180349
 20
77.155643874289069
 30
0.0
 11
12.1660433331836
 21
80.216326277227623
 31
0.0
  0
LINE
  5
57B
  8
0
  6
CONTINUOUS
 62
     7
 10
11.105399319094531
 20
79.155643874289069
 30
0.0
 11
14.166043333183611
 21
76.094999547262447
 31
0.0
  0
LINE
  5
57D
  8
CENTER
  6
CENTER
 62
     1
 10
5.6660340946315912
 20
53.155643874289062
 30
0.0
 11
30.66603584668734
 21
53.155643874289062
 31
0.0
  0
TEXT
  5
57F
  8
0
  6
CONTINUOUS
 62
     7
 10
0.0000001555740141
 20
3.4983791774803281
 30
0.0
 40
2.0
  1
HFSP5-2060-50
  0
TEXT
  5
580
  8
0
  6
CONTINUOUS
 62
     7
 10
0.0000001555740141
 20
-0.0000000866882033
 30
0.0
 40
2.0
  1
HP52060
  0
LINE
  5
582
  8
0
  6
CONTINUOUS
 62
     7
 10
21.1053869331827
 20
49.155643874289098
 30
0.0
 11
25.015807637948949
 21
45.245222769698962
 31
0.0
  0
LINE
  5
583
  8
0
  6
CONTINUOUS
 62
     7
 10
22.166043333183602
 20
50.216295724316858
 30
0.0
 11
25.22669487027305
 21
47.155643874289062
 31
0.0
  0
CIRCLE
  5
586
  8
0
  6
CONTINUOUS
 62
     7
 10
18.166043333183602
 20
33.155630349280933
 30
0.0
 40
2.099999899999998
  0
LINE
  5
589
  8
0
  6
CONTINUOUS
 62
     7
 10
24.16604333671431
 20
26.094961467819601
 30
0.0
 11
21.105361333186419
 21
29.15564387428909
 31
0.0
  0
LINE
  5
58B
  8
0
  6
CONTINUOUS
 62
     7
 10
22.166043333183602
 20
30.216287464291469
 30
0.0
 11
25.226681020246328
 21
27.155643874289069
 31
0.0
  0
LINE
  5
597
  8
0
  6
CONTINUOUS
 62
     7
 10
25.226698520216122
 20
39.155643874289062
 30
0.0
 11
22.166043333183602
 21
36.094982784324252
 31
0.0
  0
LINE
  5
598
  8
0
  6
CONTINUOUS
 62
     7
 10
25.015807637948949
 20
41.066064878879132
 30
0.0
 11
21.105387033182598
 21
37.155643874289048
 31
0.0
  0
LINE
  5
59E
  8
0
  6
CONTINUOUS
 62
     7
 10
25.866043333183612
 20
41.155643624289091
 30
0.0
 11
25.232360998708192
 21
41.155643624289091
 31
0.0
  0
ARC
  5
59F
  8
0
  6
CONTINUOUS
 62
     7
 10
25.229648833118571
 20
40.855655874445773
 30
0.0
 40
0.3000000098304385
 50
89.482007488665104
 51
135.4635136386101
  0
ARC
  5
5A2
  8
0
  6
CONTINUOUS
 62
     7
 10
25.229648833118802
 20
45.455631774132343
 30
0.0
 40
0.3000000098304405
 50
224.53648636135941
 51
270.51799251129682
  0
LINE
  5
5A3
  8
0
  6
CONTINUOUS
 62
     7
 10
25.232360998708248
 20
45.155644024288982
 30
0.0
 11
25.866043333183612
 21
45.155644024288982
 31
0.0
  0
LINE
  5
5AC
  8
0
  6
CONTINUOUS
 62
     7
 10
25.015807637948949
 20
65.245222869699063
 30
0.0
 11
21.10538703318273
 21
69.155643874289041
 31
0.0
  0
LINE
  5
5AD
  8
0
  6
CONTINUOUS
 62
     7
 10
21.1053869331827
 20
57.15564387428909
 30
0.0
 11
25.015807637948949
 21
61.066064978879169
 31
0.0
  0
LINE
  5
5AE
  8
0
  6
CONTINUOUS
 62
     7
 10
22.166043333183602
 20
56.094986474335862
 30
0.0
 11
25.226700420197758
 21
59.155643874289083
 31
0.0
  0
LINE
  5
5B3
  8
0
  6
CONTINUOUS
 62
     7
 10
25.232360998708199
 20
61.15564372428922
 30
0.0
 11
25.866043333183612
 21
61.15564372428922
 31
0.0
  0
ARC
  5
5B4
  8
0
  6
CONTINUOUS
 62
     7
 10
25.229648833118802
 20
60.85565597444586
 30
0.0
 40
0.3000000098304405
 50
89.482007488709769
 51
135.46351363864139
  0
ARC
  5
5B8
  8
0
  6
CONTINUOUS
 62
     7
 10
25.229648833118571
 20
65.455631874132436
 30
0.0
 40
0.3000000098304385
 50
224.53648636138999
 51
270.51799251130763
  0
LINE
  5
5B9
  8
0
  6
CONTINUOUS
 62
     7
 10
25.866043333183612
 20
65.155644124289068
 30
0.0
 11
25.23236099870806
 21
65.155644124289068
 31
0.0
  0
LINE
  5
5BA
  8
0
  6
CONTINUOUS
 62
     7
 10
15.22669973318447
 20
49.155643874288998
 30
0.0
 11
21.1053869331827
 21
49.155643874289098
 31
0.0
  0
LINE
  5
5BB
  8
0
  6
CONTINUOUS
 62
     7
 10
15.22669973318447
 20
57.155643874289197
 30
0.0
 11
21.1053869331827
 21
57.15564387428909
 31
0.0
  0
CIRCLE
  5
5BC
  8
0
  6
CONTINUOUS
 62
     7
 10
18.166043333183602
 20
53.15564387428909
 30
0.0
 40
2.099999899999998
  0
LINE
  5
5C6
  8
0
  6
CONTINUOUS
 62
     7
 10
24.166043333183602
 20
80.21632727719124
 30
0.0
 11
21.105359333219489
 21
77.155643874289069
 31
0.0
  0
LINE
  5
5C7
  8
0
  6
CONTINUOUS
 62
     7
 10
25.22670154324496
 20
67.155643874289069
 30
0.0
 11
22.166043333183602
 21
70.216302397289454
 31
0.0
  0
LINE
  5
5C8
  8
0
  6
CONTINUOUS
 62
     7
 10
22.166043333183602
 20
76.095006047320453
 30
0.0
 11
25.226680847215111
 21
79.155643874289098
 31
0.0
  0
CIRCLE
  5
5D1
  8
0
  6
CONTINUOUS
 62
     7
 10
18.166043333183602
 20
73.155656997267869
 30
0.0
 40
2.099999899999998
  0
ARC
  5
5EA
  8
0
  6
CONTINUOUS
 62
     7
 10
11.10243783324816
 20
40.855655874445873
 30
0.0
 40
0.3000000098304405
 50
44.536486361344132
 51
90.517992511296882
  0
LINE
  5
5EB
  8
0
  6
CONTINUOUS
 62
     7
 10
11.099725667658729
 20
41.155643624289247
 30
0.0
 11
10.46604333318367
 21
41.155643624289091
 31
0.0
  0
ARC
  5
5EE
  8
0
  6
CONTINUOUS
 62
     7
 10
11.10243783324816
 20
45.455631774132343
 30
0.0
 40
0.3000000098304385
 50
269.48200748869209
 51
315.46351363862868
  0
LINE
  5
5EF
  8
0
  6
CONTINUOUS
 62
     7
 10
10.46604333318365
 20
45.155644024289103
 30
0.0
 11
11.09972566765869
 21
45.155644024288982
 31
0.0
  0
LINE
  5
5F5
  8
0
  6
CONTINUOUS
 62
     7
 10
10.466043333183659
 20
61.155643724289092
 30
0.0
 11
11.09972566765876
 21
61.15564372428922
 31
0.0
  0
ARC
  5
5F7
  8
0
  6
CONTINUOUS
 62
     7
 10
11.10243783324816
 20
60.85565597444586
 30
0.0
 40
0.3000000098304385
 50
44.53648636137109
 51
90.517992511291482
  0
LINE
  5
5F9
  8
0
  6
CONTINUOUS
 62
     7
 10
11.09972566765876
 20
65.155644124288955
 30
0.0
 11
10.46604333318365
 21
65.155644124289068
 31
0.0
  0
ARC
  5
5FB
  8
0
  6
CONTINUOUS
 62
     7
 10
11.10243783324816
 20
65.455631874132322
 30
0.0
 40
0.3000000098304405
 50
269.48200748870801
 51
315.46351363864358
  0
LINE
  5
603
  8
0
  6
CONTINUOUS
 62
     7
 10
109.1660568581916
 20
23.555630349280939
 30
0.0
 11
109.1660568581916
 21
82.755630349280935
 31
0.0
  0
LINE
  5
604
  8
0
  6
CONTINUOUS
 62
     7
 10
59.166056858191673
 20
82.755630349280935
 30
0.0
 11
59.166056858191673
 21
23.555630349280939
 31
0.0
  0
LINE
  5
606
  8
0
  6
CONTINUOUS
 62
     7
 10
59.166056858191673
 20
36.155630349280941
 30
0.0
 11
109.1660568581916
 21
36.155630349280941
 31
0.0
  0
LINE
  5
607
  8
0
  6
CONTINUOUS
 62
     7
 10
59.166056858191673
 20
30.155630349280919
 30
0.0
 11
109.1660568581916
 21
30.155630349280919
 31
0.0
  0
LINE
  5
608
  8
0
  6
CONTINUOUS
 62
     7
 10
109.1660568581916
 20
23.555630349280939
 30
0.0
 11
59.166056858191673
 21
23.555630349280939
 31
0.0
  0
LINE
  5
609
  8
CENTER
  6
CENTER
 62
     1
 10
111.66605685819169
 20
33.155630349280933
 30
0.0
 11
56.666056858191673
 21
33.155630349280933
 31
0.0
  0
LINE
  5
60B
  8
0
  6
CONTINUOUS
 62
     7
 10
109.1660568581916
 20
82.755630349280935
 30
0.0
 11
59.166056858191673
 21
82.755630349280935
 31
0.0
  0
LINE
  5
CA1
  8
0
  6
CONTINUOUS
 62
     7
 10
14.466035208162021
 20
33.155630349280933
 30
0.0
 11
14.166036458180789
 21
32.636017272106237
 31
0.0
  0
LINE
  5
CA2
  8
0
  6
CONTINUOUS
 62
     7
 10
14.466035208162021
 20
33.155630349280933
 30
0.0
 11
14.166036458180789
 21
33.675243426455587
 31
0.0
  0
LINE
  5
CA8
  8
0
  6
CONTINUOUS
 62
     7
 10
18.16603545816583
 20
29.455630099277109
 30
0.0
 11
18.685626841415878
 21
29.155643874289058
 31
0.0
  0
LINE
  5
CA9
  8
0
  6
CONTINUOUS
 62
     7
 10
18.16603545816583
 20
29.455630099277109
 30
0.0
 11
17.646444074915738
 21
29.155643874289058
 31
0.0
  0
LINE
  5
CAC
  8
0
  6
CONTINUOUS
 62
     7
 10
21.866035708169651
 20
33.155630349280933
 30
0.0
 11
22.166043333183609
 21
33.67525879846319
 31
0.0
  0
LINE
  5
CAD
  8
0
  6
CONTINUOUS
 62
     7
 10
21.866035708169651
 20
33.155630349280933
 30
0.0
 11
22.166043333183602
 21
32.636001900098641
 31
0.0
  0
LINE
  5
CB4
  8
0
  6
CONTINUOUS
 62
     7
 10
14.466035208162021
 20
53.155630349280933
 30
0.0
 11
14.166036458180789
 21
52.636017272106237
 31
0.0
  0
LINE
  5
CB5
  8
0
  6
CONTINUOUS
 62
     7
 10
14.466035208162021
 20
53.155630349280933
 30
0.0
 11
14.166036458180789
 21
53.675243426455573
 31
0.0
  0
LINE
  5
CB8
  8
0
  6
CONTINUOUS
 62
     7
 10
21.866035708169651
 20
53.155630349280933
 30
0.0
 11
22.166043333183602
 21
53.675258798463148
 31
0.0
  0
LINE
  5
CB9
  8
0
  6
CONTINUOUS
 62
     7
 10
21.866035708169651
 20
53.155630349280933
 30
0.0
 11
22.166043333183602
 21
52.636001900098648
 31
0.0
  0
LINE
  5
CD6
  8
0
  6
CONTINUOUS
 62
     7
 10
14.46603520816203
 20
73.155630349280941
 30
0.0
 11
14.166036458180789
 21
72.636017272106244
 31
0.0
  0
LINE
  5
CD7
  8
0
  6
CONTINUOUS
 62
     7
 10
14.46603520816203
 20
73.155630349280941
 30
0.0
 11
14.1660364581808
 21
73.67524342645558
 31
0.0
  0
LINE
  5
CDA
  8
0
  6
CONTINUOUS
 62
     7
 10
21.866035708169651
 20
73.155630349280941
 30
0.0
 11
22.166043333183602
 21
73.675258798463176
 31
0.0
  0
LINE
  5
CDB
  8
0
  6
CONTINUOUS
 62
     7
 10
21.866035708169651
 20
73.155630349280941
 30
0.0
 11
22.166043333183602
 21
72.636001900098663
 31
0.0
  0
LINE
  5
CDE
  8
0
  6
CONTINUOUS
 62
     7
 10
18.16603545816583
 20
76.855657649301094
 30
0.0
 11
18.68562684141585
 21
77.155643874289069
 31
0.0
  0
LINE
  5
CDF
  8
0
  6
CONTINUOUS
 62
     7
 10
18.16603545816583
 20
76.855657649301094
 30
0.0
 11
17.646444074915799
 21
77.155643874289069
 31
0.0
  0
LINE
  5
CE0
  8
0
  6
CONTINUOUS
 62
     7
 10
109.1660568581916
 20
33.675251301473367
 30
0.0
 11
59.166056858191673
 21
33.675251301473367
 31
0.0
  0
LINE
  5
CE1
  8
0
  6
CONTINUOUS
 62
     7
 10
109.1660568581916
 20
32.636025147123988
 30
0.0
 11
59.166056858191673
 21
32.636025147123988
 31
0.0
  0
LINE
  5
DF7
  8
0
  6
CONTINUOUS
 62
     7
 10
59.166056858191673
 20
56.155630349280941
 30
0.0
 11
109.1660568581916
 21
56.155630349280941
 31
0.0
  0
LINE
  5
DF8
  8
0
  6
CONTINUOUS
 62
     7
 10
59.166056858191673
 20
50.155630349280919
 30
0.0
 11
109.1660568581916
 21
50.155630349280919
 31
0.0
  0
LINE
  5
DF9
  8
CENTER
  6
CENTER
 62
     1
 10
111.66605685819169
 20
53.155630349280933
 30
0.0
 11
56.666056858191673
 21
53.155630349280933
 31
0.0
  0
LINE
  5
DFA
  8
0
  6
CONTINUOUS
 62
     7
 10
109.1660568581916
 20
53.675251301473367
 30
0.0
 11
59.166056858191673
 21
53.675251301473367
 31
0.0
  0
LINE
  5
DFB
  8
0
  6
CONTINUOUS
 62
     7
 10
109.1660568581916
 20
52.636025147123988
 30
0.0
 11
59.166056858191673
 21
52.636025147123988
 31
0.0
  0
LINE
  5
DFC
  8
0
  6
CONTINUOUS
 62
     7
 10
59.166056858191673
 20
76.155630349280941
 30
0.0
 11
109.1660568581916
 21
76.155630349280941
 31
0.0
  0
LINE
  5
DFD
  8
0
  6
CONTINUOUS
 62
     7
 10
59.166056858191673
 20
70.155630349280926
 30
0.0
 11
109.1660568581916
 21
70.155630349280926
 31
0.0
  0
LINE
  5
DFE
  8
CENTER
  6
CENTER
 62
     1
 10
111.66605685819169
 20
73.155630349280941
 30
0.0
 11
56.666056858191673
 21
73.155630349280941
 31
0.0
  0
LINE
  5
DFF
  8
0
  6
CONTINUOUS
 62
     7
 10
109.1660568581916
 20
73.675251301473367
 30
0.0
 11
59.166056858191673
 21
73.675251301473367
 31
0.0
  0
LINE
  5
E00
  8
0
  6
CONTINUOUS
 62
     7
 10
109.1660568581916
 20
72.636025147124002
 30
0.0
 11
59.166056858191673
 21
72.636025147124002
 31
0.0
  0
ARC
  5
E77
  8
0
  6
CONTINUOUS
 62
     7
 10
9.1660432396344635
 20
24.15564396781992
 30
0.0
 40
1.0
 50
180.0247832075861
 51
216.86990434449851
  0
ARC
  5
E78
  8
0
  6
CONTINUOUS
 62
     7
 10
27.166044426714208
 20
24.15564396781993
 30
0.0
 40
1.0
 50
323.13009565550072
 51
359.91526689075562
  0
ARC
  5
E79
  8
0
  6
CONTINUOUS
 62
     7
 10
27.16604485168995
 20
82.155643780758226
 30
0.0
 40
1.0
 50
0.0998495222458623
 51
36.86994047496156
  0
ARC
  5
E7A
  8
0
  6
CONTINUOUS
 62
     7
 10
9.1660357896476619
 20
82.155643780758226
 30
0.0
 40
0.9999999999999713
 50
143.1300956555026
 51
179.7774511348683
  0
LINE
  5
FCE
  8
0
  6
CONTINUOUS
 62
     7
 10
8.1660433331836035
 20
82.159527981434465
 30
0.0
 11
8.1660433331836035
 21
76.155643874289069
 31
0.0
  0
LINE
  5
FCF
  8
0
  6
CONTINUOUS
 62
     7
 10
28.166043333183602
 20
82.157386482799552
 30
0.0
 11
28.166043333183602
 21
76.155643874289069
 31
0.0
  0
LINE
  5
101A
  8
0
  6
CONTINUOUS
 62
     7
 10
8.1660433331835982
 20
70.155643874289069
 30
0.0
 11
8.1660433331835982
 21
56.155643874289041
 31
0.0
  0
LINE
  5
101B
  8
0
  6
CONTINUOUS
 62
     7
 10
28.166043333183602
 20
70.155643874289069
 30
0.0
 11
28.166043333183602
 21
56.155644385812693
 31
0.0
  0
LINE
  5
101C
  8
0
  6
CONTINUOUS
 62
     7
 10
8.1660433331835982
 20
50.155643874289062
 30
0.0
 11
8.1660433331835929
 21
36.155643874289062
 31
0.0
  0
LINE
  5
101F
  8
0
  6
CONTINUOUS
 62
     7
 10
28.166043333183602
 20
50.155643960758951
 30
0.0
 11
28.166043333183591
 21
36.155643874289062
 31
0.0
  0
LINE
  5
105A
  8
0
  6
CONTINUOUS
 62
     7
 10
8.1660433331835964
 20
30.155643874289058
 30
0.0
 11
8.1660433331835964
 21
24.15521141925964
 31
0.0
  0
LINE
  5
105B
  8
0
  6
CONTINUOUS
 62
     7
 10
28.166043333183591
 20
30.155643874289101
 30
0.0
 11
28.166043333183591
 21
24.15416509661576
 31
0.0
  0
LINE
  5
118D
  8
0
  6
CONTINUOUS
 62
     7
 10
10.1660433331836
 20
79.155643874289069
 30
0.0
 11
10.1660433331836
 21
76.155643874289069
 31
0.0
  0
LINE
  5
118E
  8
0
  6
CONTINUOUS
 62
     7
 10
10.1660433331836
 20
64.855644124289071
 30
0.0
 11
10.1660433331836
 21
61.455643724289096
 31
0.0
  0
LINE
  5
118F
  8
0
  6
CONTINUOUS
 62
     7
 10
10.1660433331836
 20
70.155643874289069
 30
0.0
 11
10.1660433331836
 21
67.155643874289069
 31
0.0
  0
ARC
  5
1190
  8
0
  6
CONTINUOUS
 62
     7
 10
10.46604333318357
 20
64.8556441242891
 30
0.0
 40
0.3
 50
89.999999999984738
 51
180.0000000000027
  0
ARC
  5
1192
  8
0
  6
CONTINUOUS
 62
     7
 10
10.46604333318359
 20
61.455643724289096
 30
0.0
 40
0.3
 50
180.0
 51
270.00000000001279
  0
LINE
  5
11E0
  8
0
  6
CONTINUOUS
 62
     7
 10
10.1660433331836
 20
59.15564387428909
 30
0.0
 11
10.1660433331836
 21
56.155643874289062
 31
0.0
  0
LINE
  5
11E1
  8
0
  6
CONTINUOUS
 62
     7
 10
10.16604333318358
 20
44.855644024289077
 30
0.0
 11
10.16604333318358
 21
41.455643624289088
 31
0.0
  0
ARC
  5
11E2
  8
0
  6
CONTINUOUS
 62
     7
 10
10.46604333318359
 20
44.855644024289113
 30
0.0
 40
0.3
 50
89.999999999988475
 51
180.00000000000131
  0
ARC
  5
11E3
  8
0
  6
CONTINUOUS
 62
     7
 10
10.466043333183601
 20
41.455643624289088
 30
0.0
 40
0.3
 50
180.00000000000131
 51
270.00000000001222
  0
LINE
  5
11E4
  8
0
  6
CONTINUOUS
 62
     7
 10
10.1660433331836
 20
50.155643874289062
 30
0.0
 11
10.16604333318358
 21
47.155643874289083
 31
0.0
  0
LINE
  5
1248
  8
0
  6
CONTINUOUS
 62
     7
 10
10.16604333318358
 20
39.155643874289083
 30
0.0
 11
10.16604333318358
 21
36.155643874289083
 31
0.0
  0
LINE
  5
1249
  8
0
  6
CONTINUOUS
 62
     7
 10
10.16604333318358
 20
30.155643874289051
 30
0.0
 11
10.16604333318358
 21
27.15564387428908
 31
0.0
  0
LINE
  5
1281
  8
0
  6
CONTINUOUS
 62
     7
 10
14.166043333183589
 20
30.216287224268779
 30
0.0
 11
14.166043333183589
 21
32.636029179960389
 31
0.0
  0
LINE
  5
1282
  8
0
  6
CONTINUOUS
 62
     7
 10
14.1660433331836
 20
50.216293674265088
 30
0.0
 11
14.166043333183611
 21
52.636029179960438
 31
0.0
  0
LINE
  5
128E
  8
0
  6
CONTINUOUS
 62
     7
 10
14.166043333183589
 20
33.675231518601443
 30
0.0
 11
14.166043333183589
 21
36.094970674254782
 31
0.0
  0
LINE
  5
128F
  8
0
  6
CONTINUOUS
 62
     7
 10
14.166043333183611
 20
70.216313247249914
 30
0.0
 11
14.166043333183611
 21
72.636029179960445
 31
0.0
  0
LINE
  5
1290
  8
0
  6
CONTINUOUS
 62
     7
 10
14.1660433331836
 20
53.675231518601379
 30
0.0
 11
14.166043333183611
 21
56.094992874289723
 31
0.0
  0
LINE
  5
1291
  8
0
  6
CONTINUOUS
 62
     7
 10
14.166043333183611
 20
73.675231518601393
 30
0.0
 11
14.16604333318362
 21
76.094999547262447
 31
0.0
  0
LINE
  5
132A
  8
0
  6
CONTINUOUS
 62
     7
 10
26.166043333183602
 20
79.155644378765402
 30
0.0
 11
26.166043333183602
 21
76.155643874289069
 31
0.0
  0
LINE
  5
134C
  8
0
  6
CONTINUOUS
 62
     7
 10
26.166043333183609
 20
70.155643874289069
 30
0.0
 11
26.166043333183602
 21
67.155643874289069
 31
0.0
  0
LINE
  5
1379
  8
0
  6
CONTINUOUS
 62
     7
 10
26.166043333183602
 20
64.855644124289071
 30
0.0
 11
26.166043333183602
 21
61.45564372428921
 31
0.0
  0
ARC
  5
137A
  8
0
  6
CONTINUOUS
 62
     7
 10
25.86604333318359
 20
64.855644124289071
 30
0.0
 40
0.3
 50
0.0000000000027141
 51
89.999999999998636
  0
LINE
  5
137C
  8
0
  6
CONTINUOUS
 62
     7
 10
26.166043333183609
 20
59.155643874289062
 30
0.0
 11
26.166043333183602
 21
56.155643874289062
 31
0.0
  0
ARC
  5
137D
  8
0
  6
CONTINUOUS
 62
     7
 10
25.866043333183612
 20
61.45564372428921
 30
0.0
 40
0.3
 50
270.0
 51
0.0
  0
LINE
  5
137E
  8
0
  6
CONTINUOUS
 62
     7
 10
26.166043333183602
 20
50.15564387428909
 30
0.0
 11
26.166043333183602
 21
47.155643874289062
 31
0.0
  0
LINE
  5
137F
  8
0
  6
CONTINUOUS
 62
     7
 10
26.166043333183602
 20
44.855644024288978
 30
0.0
 11
26.166043333183609
 21
41.455643624289088
 31
0.0
  0
ARC
  5
1380
  8
0
  6
CONTINUOUS
 62
     7
 10
25.86604333318359
 20
44.855644024288971
 30
0.0
 40
0.3
 50
0.0000000000027141
 51
89.999999999998636
  0
LINE
  5
1381
  8
0
  6
CONTINUOUS
 62
     7
 10
26.166043333183602
 20
39.155643874289062
 30
0.0
 11
26.166043333183609
 21
36.155643874289062
 31
0.0
  0
ARC
  5
1382
  8
0
  6
CONTINUOUS
 62
     7
 10
25.866043333183612
 20
41.455643624289088
 30
0.0
 40
0.3
 50
270.0
 51
0.0
  0
LINE
  5
1384
  8
0
  6
CONTINUOUS
 62
     7
 10
26.166043333183602
 20
30.155643874289101
 30
0.0
 11
26.166043333183609
 21
27.155643874289069
 31
0.0
  0
LINE
  5
13A6
  8
0
  6
CONTINUOUS
 62
     7
 10
22.166043333183602
 20
76.095006047320453
 30
0.0
 11
22.166043333183602
 21
73.675258798463176
 31
0.0
  0
LINE
  5
13A7
  8
0
  6
CONTINUOUS
 62
     7
 10
22.166043333183602
 20
72.636001900098663
 30
0.0
 11
22.166043333183602
 21
70.216302397289454
 31
0.0
  0
LINE
  5
13A8
  8
0
  6
CONTINUOUS
 62
     7
 10
22.166043333183602
 20
56.094986474335862
 30
0.0
 11
22.166043333183602
 21
53.675258798463148
 31
0.0
  0
LINE
  5
13AA
  8
0
  6
CONTINUOUS
 62
     7
 10
22.166043333183602
 20
52.636001900098648
 30
0.0
 11
22.166043333183602
 21
50.216295724316858
 31
0.0
  0
LINE
  5
13AB
  8
0
  6
CONTINUOUS
 62
     7
 10
22.166043333183602
 20
36.094982784324252
 30
0.0
 11
22.166043333183609
 21
33.67525879846319
 31
0.0
  0
LINE
  5
13AC
  8
0
  6
CONTINUOUS
 62
     7
 10
22.166043333183602
 20
32.636001900098641
 30
0.0
 11
22.166043333183602
 21
30.216287464291469
 31
0.0
  0
LINE
  5
1587
  8
0
  6
CONTINUOUS
 62
     7
 10
8.3660358597958329
 20
82.755643874289049
 30
0.0
 11
15.1660433331836
 21
82.755643874289049
 31
0.0
  0
LINE
  5
1588
  8
0
  6
CONTINUOUS
 62
     7
 10
27.966044356566051
 20
23.555643874289061
 30
0.0
 11
21.166043333183602
 21
23.555643874289061
 31
0.0
  0
LINE
  5
15B9
  8
0
  6
CONTINUOUS
 62
     7
 10
15.1660433331836
 20
82.755643874289049
 30
0.0
 11
15.1660433331836
 21
81.155643874289069
 31
0.0
  0
LINE
  5
15BA
  8
0
  6
CONTINUOUS
 62
     7
 10
21.166043333183609
 20
82.755643874289049
 30
0.0
 11
21.166043333183609
 21
81.155643874289069
 31
0.0
  0
LINE
  5
1632
  8
0
  6
CONTINUOUS
 62
     7
 10
12.1660433331836
 20
81.155643780758226
 30
0.0
 11
12.1660433331836
 21
80.216326277227623
 31
0.0
  0
LINE
  5
1633
  8
0
  6
CONTINUOUS
 62
     7
 10
24.166043333183602
 20
81.155643874289069
 30
0.0
 11
24.166043333183602
 21
80.21632727719124
 31
0.0
  0
LINE
  5
1648
  8
0
  6
CONTINUOUS
 62
     7
 10
15.1660433331836
 20
25.155643874289069
 30
0.0
 11
15.166043333183589
 21
23.555643874289061
 31
0.0
  0
LINE
  5
1649
  8
0
  6
CONTINUOUS
 62
     7
 10
21.166043333183602
 20
25.155643874289069
 30
0.0
 11
21.166043333183602
 21
23.555643874289061
 31
0.0
  0
LINE
  5
164A
  8
0
  6
CONTINUOUS
 62
     7
 10
24.166043333183591
 20
26.09496147135032
 30
0.0
 11
24.166043333183591
 21
25.155643874289058
 31
0.0
  0
LINE
  5
164B
  8
0
  6
CONTINUOUS
 62
     7
 10
12.166043333183589
 20
26.094960466387221
 30
0.0
 11
12.166043333183589
 21
25.155643874289058
 31
0.0
  0
LINE
  5
1697
  8
0
  6
CONTINUOUS
 62
     7
 10
21.166043333183609
 20
82.755643874289049
 30
0.0
 11
27.966044781541811
 21
82.755643874289049
 31
0.0
  0
LINE
  5
1698
  8
0
  6
CONTINUOUS
 62
     7
 10
15.166043333183589
 20
23.555643874289061
 30
0.0
 11
8.3660433097826168
 21
23.555643874289061
 31
0.0
  0
LINE
  5
1711
  8
CENTER
  6
CENTER
 62
     1
 10
30.66603584668734
 20
33.155643874289062
 30
0.0
 11
5.6660340946315912
 21
33.155643874289062
 31
0.0
  0
LINE
  5
1738
  8
CENTER
  6
CENTER
 62
     1
 10
5.6660340946315912
 20
73.155643874289055
 30
0.0
 11
30.66603584668734
 21
73.155643874289055
 31
0.0
  0
LINE
  5
17C7
  8
0
  6
CONTINUOUS
 62
     7
 10
12.1660433331836
 20
81.155643874289069
 30
0.0
 11
15.1660433331836
 21
81.155643874289069
 31
0.0
  0
LINE
  5
17C8
  8
0
  6
CONTINUOUS
 62
     7
 10
21.166043333183609
 20
81.155643874289069
 30
0.0
 11
24.166043333183602
 21
81.155643874289069
 31
0.0
  0
LINE
  5
1842
  8
0
  6
CONTINUOUS
 62
     7
 10
21.105359333219489
 20
77.155643874289069
 30
0.0
 11
18.68562684141585
 21
77.155643874289069
 31
0.0
  0
LINE
  5
1843
  8
0
  6
CONTINUOUS
 62
     7
 10
17.646444074915799
 20
77.155643874289069
 30
0.0
 11
15.226725333180349
 21
77.155643874289069
 31
0.0
  0
LINE
  5
18A7
  8
0
  6
CONTINUOUS
 62
     7
 10
21.10538703318273
 20
69.155643874289041
 30
0.0
 11
15.226699633184481
 21
69.155643874289069
 31
0.0
  0
LINE
  5
18F3
  8
0
  6
CONTINUOUS
 62
     7
 10
15.1660433331836
 20
25.155643874289069
 30
0.0
 11
12.166043333183589
 21
25.155643874289058
 31
0.0
  0
LINE
  5
18F4
  8
0
  6
CONTINUOUS
 62
     7
 10
24.166043333183591
 20
25.155643874289058
 30
0.0
 11
21.166043333183602
 21
25.155643874289069
 31
0.0
  0
LINE
  5
1921
  8
0
  6
CONTINUOUS
 62
     7
 10
21.105361333186419
 20
29.15564387428909
 30
0.0
 11
18.685626841415878
 21
29.155643874289058
 31
0.0
  0
LINE
  5
1922
  8
0
  6
CONTINUOUS
 62
     7
 10
17.646444074915738
 20
29.155643874289058
 30
0.0
 11
15.226727333143989
 21
29.155643874289058
 31
0.0
  0
LINE
  5
193A
  8
0
  6
CONTINUOUS
 62
     7
 10
21.105387033182598
 20
37.155643874289048
 30
0.0
 11
15.22669963318458
 21
37.155643874289048
 31
0.0
  0
LINE
  5
1951
  8
0
  6
CONTINUOUS
 62
     7
 10
8.1660433331836035
 20
76.155643874289069
 30
0.0
 11
10.1660433331836
 21
76.155643874289069
 31
0.0
  0
LINE
  5
1952
  8
0
  6
CONTINUOUS
 62
     7
 10
8.1660433331835982
 20
70.155643874289069
 30
0.0
 11
10.1660433331836
 21
70.155643874289069
 31
0.0
  0
LINE
  5
1953
  8
0
  6
CONTINUOUS
 62
     7
 10
26.166043333183602
 20
76.155643874289069
 30
0.0
 11
28.166043333183602
 21
76.155643874289069
 31
0.0
  0
LINE
  5
1954
  8
0
  6
CONTINUOUS
 62
     7
 10
26.166043333183609
 20
70.155643874289069
 30
0.0
 11
28.166043333183602
 21
70.155643874289069
 31
0.0
  0
LINE
  5
1976
  8
0
  6
CONTINUOUS
 62
     7
 10
10.1660433331836
 20
79.155643874289069
 30
0.0
 11
11.105399319094531
 21
79.155643874289069
 31
0.0
  0
LINE
  5
1978
  8
0
  6
CONTINUOUS
 62
     7
 10
10.1660433331836
 20
67.155643874289069
 30
0.0
 11
11.105374273163029
 21
67.155643874289069
 31
0.0
  0
LINE
  5
1979
  8
0
  6
CONTINUOUS
 62
     7
 10
25.22670154324496
 20
67.155643874289069
 30
0.0
 11
26.166043333183602
 21
67.155643874289069
 31
0.0
  0
LINE
  5
197A
  8
0
  6
CONTINUOUS
 62
     7
 10
25.226680847215111
 20
79.155643874289098
 30
0.0
 11
26.166043333183602
 21
79.155643874289069
 31
0.0
  0
LINE
  5
19BD
  8
0
  6
CONTINUOUS
 62
     7
 10
10.16604333318358
 20
47.155643874289083
 30
0.0
 11
11.10539384614594
 21
47.15564387428909
 31
0.0
  0
LINE
  5
19BE
  8
0
  6
CONTINUOUS
 62
     7
 10
25.22669487027305
 20
47.155643874289062
 30
0.0
 11
26.166043333183602
 21
47.155643874289062
 31
0.0
  0
LINE
  5
19BF
  8
0
  6
CONTINUOUS
 62
     7
 10
8.1660433331835982
 20
50.155643874289062
 30
0.0
 11
10.1660433331836
 21
50.155643874289062
 31
0.0
  0
LINE
  5
19C0
  8
0
  6
CONTINUOUS
 62
     7
 10
26.166043333183602
 20
50.15564387428909
 30
0.0
 11
28.166043333183602
 21
50.15564387428909
 31
0.0
  0
LINE
  5
19C1
  8
0
  6
CONTINUOUS
 62
     7
 10
8.1660433331835982
 20
56.155643874289041
 30
0.0
 11
10.1660433331836
 21
56.155643874289062
 31
0.0
  0
LINE
  5
19C2
  8
0
  6
CONTINUOUS
 62
     7
 10
26.166043333183602
 20
56.155643874289062
 30
0.0
 11
28.166043333183602
 21
56.155643874289041
 31
0.0
  0
LINE
  5
19C3
  8
0
  6
CONTINUOUS
 62
     7
 10
10.1660433331836
 20
59.15564387428909
 30
0.0
 11
11.1053926461225
 21
59.155643874289026
 31
0.0
  0
LINE
  5
19C4
  8
0
  6
CONTINUOUS
 62
     7
 10
25.226700420197758
 20
59.155643874289083
 30
0.0
 11
26.166043333183609
 21
59.155643874289062
 31
0.0
  0
LINE
  5
19C9
  8
0
  6
CONTINUOUS
 62
     7
 10
10.16604333318358
 20
27.15564387428908
 30
0.0
 11
11.10540029614152
 21
27.15564387428909
 31
0.0
  0
LINE
  5
19CA
  8
0
  6
CONTINUOUS
 62
     7
 10
25.226681020246328
 20
27.155643874289069
 30
0.0
 11
26.166043333183609
 21
27.155643874289069
 31
0.0
  0
LINE
  5
19CB
  8
0
  6
CONTINUOUS
 62
     7
 10
8.1660433331835964
 20
30.155643874289058
 30
0.0
 11
10.16604333318358
 21
30.155643874289051
 31
0.0
  0
LINE
  5
19CC
  8
0
  6
CONTINUOUS
 62
     7
 10
26.166043333183602
 20
30.155643874289101
 30
0.0
 11
28.166043333183591
 21
30.155643874289101
 31
0.0
  0
LINE
  5
19CD
  8
0
  6
CONTINUOUS
 62
     7
 10
8.1660433331835929
 20
36.155643874289062
 30
0.0
 11
10.16604333318358
 21
36.155643874289083
 31
0.0
  0
LINE
  5
19CE
  8
0
  6
CONTINUOUS
 62
     7
 10
26.166043333183609
 20
36.155643874289062
 30
0.0
 11
28.166043333183591
 21
36.155643874289062
 31
0.0
  0
LINE
  5
19CF
  8
0
  6
CONTINUOUS
 62
     7
 10
10.16604333318358
 20
39.155643874289083
 30
0.0
 11
11.10537044608985
 21
39.155643874289026
 31
0.0
  0
LINE
  5
19D0
  8
0
  6
CONTINUOUS
 62
     7
 10
25.226698520216122
 20
39.155643874289062
 30
0.0
 11
26.166043333183602
 21
39.155643874289062
 31
0.0
  0
ENDSEC
  0
EOF
