  0
SECTION
  2
HEADER
  9
$ACADVER
  1
AC1009
  9
$INSBASE
 10
0.0
 20
0.0
 30
0.0
  9
$EXTMIN
 10
62.154716015763249
 20
44.152733564237842
 30
0.0
  9
$EXTMAX
 10
228.32204292431399
 20
102.06689282202289
 30
0.0
  9
$LIMMIN
 10
0.0
 20
0.0
  9
$LIMMAX
 10
297.0
 20
210.0
  9
$ORTHOMODE
 70
     0
  9
$REGENMODE
 70
     1
  9
$FILLMODE
 70
     1
  9
$QTEXTMODE
 70
     0
  9
$MIRRTEXT
 70
     1
  9
$DRAGMODE
 70
     2
  9
$LTSCALE
 40
1.0
  9
$OSMODE
 70
    57
  9
$ATTMODE
 70
     1
  9
$TEXTSIZE
 40
6.4000000000000012
  9
$TRACEWID
 40
0.05
  9
$TEXTSTYLE
  7
STANDARD
  9
$CLAYER
  8
0
  9
$CELTYPE
  6
CONTINUOUS
  9
$CECOLOR
 62
     7
  9
$DIMSCALE
 40
1.0
  9
$DIMASZ
 40
3.0
  9
$DIMEXO
 40
1.0
  9
$DIMDLI
 40
0.0
  9
$DIMRND
 40
0.0
  9
$DIMDLE
 40
0.0
  9
$DIMEXE
 40
1.0
  9
$DIMTP
 40
0.0
  9
$DIMTM
 40
0.0
  9
$DIMTXT
 40
3.2000000000000002
  9
$DIMCEN
 40
0.0
  9
$DIMTSZ
 40
0.0
  9
$DIMTOL
 70
     0
  9
$DIMLIM
 70
     0
  9
$DIMTIH
 70
     0
  9
$DIMTOH
 70
     0
  9
$DIMSE1
 70
     0
  9
$DIMSE2
 70
     0
  9
$DIMTAD
 70
     1
  9
$DIMZIN
 70
     8
  9
$DIMBLK
  1

  9
$DIMASO
 70
     1
  9
$DIMSHO
 70
     1
  9
$DIMPOST
  1

  9
$DIMAPOST
  1

  9
$DIMALT
 70
     0
  9
$DIMALTD
 70
     2
  9
$DIMALTF
 40
0.04
  9
$DIMLFAC
 40
1.0
  9
$DIMTOFL
 70
     1
  9
$DIMTVP
 40
1.0
  9
$DIMTIX
 70
     1
  9
$DIMSOXD
 70
     0
  9
$DIMSAH
 70
     0
  9
$DIMBLK1
  1

  9
$DIMBLK2
  1

  9
$DIMSTYLE
  2
MISUMI
  9
$DIMCLRD
 70
     0
  9
$DIMCLRE
 70
     0
  9
$DIMCLRT
 70
     0
  9
$DIMTFAC
 40
0.6
  9
$DIMGAP
 40
1.0
  9
$LUNITS
 70
     2
  9
$LUPREC
 70
     4
  9
$SKETCHINC
 40
0.1
  9
$FILLETRAD
 40
0.0
  9
$AUNITS
 70
     0
  9
$AUPREC
 70
     0
  9
$MENU
  1
acad
  9
$ELEVATION
 40
0.0
  9
$PELEVATION
 40
0.0
  9
$THICKNESS
 40
0.0
  9
$LIMCHECK
 70
     0
  9
$BLIPMODE
 70
     1
  9
$CHAMFERA
 40
0.5
  9
$CHAMFERB
 40
0.5
  9
$SKPOLY
 70
     0
  9
$TDCREATE
 40
2451464.6006649309
  9
$TDUPDATE
 40
2453776.7023037728
  9
$TDINDWG
 40
0.185492338
  9
$TDUSRTIMER
 40
0.1854897917
  9
$USRTIMER
 70
     1
  9
$ANGBASE
 50
0.0
  9
$ANGDIR
 70
     0
  9
$PDMODE
 70
     0
  9
$PDSIZE
 40
0.0
  9
$PLINEWID
 40
0.0
  9
$COORDS
 70
     0
  9
$SPLFRAME
 70
     0
  9
$SPLINETYPE
 70
     6
  9
$SPLINESEGS
 70
     8
  9
$ATTDIA
 70
     0
  9
$ATTREQ
 70
     1
  9
$HANDLING
 70
     1
  9
$HANDSEED
  5
1C97
  9
$SURFTAB1
 70
     6
  9
$SURFTAB2
 70
     6
  9
$SURFTYPE
 70
     6
  9
$SURFU
 70
     6
  9
$SURFV
 70
     6
  9
$UCSNAME
  2

  9
$UCSORG
 10
0.0
 20
0.0
 30
0.0
  9
$UCSXDIR
 10
1.0
 20
0.0
 30
0.0
  9
$UCSYDIR
 10
0.0
 20
1.0
 30
0.0
  9
$PUCSNAME
  2

  9
$PUCSORG
 10
0.0
 20
0.0
 30
0.0
  9
$PUCSXDIR
 10
1.0
 20
0.0
 30
0.0
  9
$PUCSYDIR
 10
0.0
 20
1.0
 30
0.0
  9
$USERI1
 70
     0
  9
$USERI2
 70
     0
  9
$USERI3
 70
     0
  9
$USERI4
 70
     0
  9
$USERI5
 70
     0
  9
$USERR1
 40
0.0
  9
$USERR2
 40
0.0
  9
$USERR3
 40
0.0
  9
$USERR4
 40
0.0
  9
$USERR5
 40
0.0
  9
$WORLDVIEW
 70
     1
  9
$SHADEDGE
 70
     3
  9
$SHADEDIF
 70
    70
  9
$TILEMODE
 70
     1
  9
$MAXACTVP
 70
    16
  9
$PLIMCHECK
 70
     0
  9
$PEXTMIN
 10
1.0000000000000000E+020
 20
1.0000000000000000E+020
 30
1.0000000000000000E+020
  9
$PEXTMAX
 10
-1.0000000000000000E+020
 20
-1.0000000000000000E+020
 30
-1.0000000000000000E+020
  9
$PLIMMIN
 10
0.0
 20
0.0
  9
$PLIMMAX
 10
12.0
 20
9.0
  9
$UNITMODE
 70
     0
  9
$VISRETAIN
 70
     0
  9
$PLINEGEN
 70
     0
  9
$PSLTSCALE
 70
     1
  0
ENDSEC
  0
SECTION
  2
TABLES
  0
TABLE
  2
VPORT
 70
     2
  0
VPORT
  2
*ACTIVE
 70
     0
 10
0.0
 20
0.0
 11
1.0
 21
1.0
 12
163.20148565288201
 22
73.108749841466533
 13
0.0
 23
0.0
 14
10.0
 24
10.0
 15
10.0
 25
10.0
 16
0.0
 26
0.0
 36
1.0
 17
0.0
 27
0.0
 37
0.0
 40
129.3134466782283
 41
1.5717852684144811
 42
50.0
 43
0.0
 44
0.0
 50
0.0
 51
0.0
 71
     0
 72
   100
 73
     1
 74
     0
 75
     0
 76
     0
 77
     0
 78
     0
  0
ENDTAB
  0
TABLE
  2
LTYPE
 70
     2
  0
LTYPE
  2
CONTINUOUS
 70
     0
  3
Solid line
 72
    65
 73
     0
 40
0.0
  0
LTYPE
  2
CENTER
 70
     0
  3
Center ____ _ ____ _ ____ _ ____ _ ____ _ ____
 72
    65
 73
     4
 40
2.0
 49
1.25
 49
-0.25
 49
0.25
 49
-0.25
  0
ENDTAB
  0
TABLE
  2
LAYER
 70
     2
  0
LAYER
  2
0
 70
     0
 62
     7
  6
CONTINUOUS
  0
LAYER
  2
CENTER
 70
     0
 62
     1
  6
CENTER
  0
ENDTAB
  0
TABLE
  2
STYLE
 70
     1
  0
STYLE
  2
STANDARD
 70
     0
 40
0.0
 41
1.0
 50
0.0
 71
     0
 42
6.4000000000000012
  3
txt
  4

  0
ENDTAB
  0
TABLE
  2
VIEW
 70
     0
  0
ENDTAB
  0
TABLE
  2
UCS
 70
     0
  0
ENDTAB
  0
TABLE
  2
APPID
 70
     2
  0
APPID
  2
ACAD
 70
     0
  0
APPID
  2
ACAD_DSTYLE_DIMTEXT_FILL
 70
     0
  0
ENDTAB
  0
TABLE
  2
DIMSTYLE
 70
     1
  0
DIMSTYLE
  2
MISUMI
 70
     0
  3

  4

  5

  6

  7

 40
1.0
 41
3.0
 42
1.0
 43
0.0
 44
1.0
 45
0.0
 46
0.0
 47
0.0
 48
0.0
140
3.2000000000000002
141
0.0
142
0.0
143
0.04
144
1.0
145
1.0
146
0.6
147
1.0
 71
     0
 72
     0
 73
     0
 74
     0
 75
     0
 76
     0
 77
     1
 78
     8
170
     0
171
     2
172
     1
173
     0
174
     1
175
     0
176
     0
177
     0
178
     0
  0
ENDTAB
  0
ENDSEC
  0
SECTION
  2
BLOCKS
  0
BLOCK
  8
0
  2
$MODEL_SPACE
 70
     0
 10
0.0
 20
0.0
 30
0.0
  3
$MODEL_SPACE
  1

  0
ENDBLK
  5
1C42
  8
0
  0
BLOCK
 67
     1
  8
0
  2
$PAPER_SPACE
 70
     0
 10
0.0
 20
0.0
 30
0.0
  3
$PAPER_SPACE
  1

  0
ENDBLK
  5
1C3E
 67
     1
  8
0
  0
ENDSEC
  0
SECTION
  2
ENTITIES
  0
LINE
  5
502
  8
0
  6
CONTINUOUS
 62
     7
 10
107.61748274038101
 20
93.966892822022743
 30
0.0
 11
110.0372289981197
 21
93.966892822022743
 31
0.0
  0
LINE
  5
503
  8
0
  6
CONTINUOUS
 62
     7
 10
107.6174832403904
 20
85.96689282202307
 30
0.0
 11
110.0372327890163
 21
85.966892822023013
 31
0.0
  0
LINE
  5
504
  8
CENTER
  6
CENTER
 62
     1
 10
98.056844740390432
 20
89.966892822023027
 30
0.0
 11
143.0568447403904
 21
89.966892822023027
 31
0.0
  0
TEXT
  5
505
  8
0
  6
CONTINUOUS
 62
     7
 10
62.154716015763249
 20
50.58578548777777
 30
0.0
 40
4.0
  1
HFSP5-4020-50
  0
TEXT
  5
506
  8
0
  6
CONTINUOUS
 62
     7
 10
62.154716015763249
 20
44.152733564237842
 30
0.0
 40
4.0
  1
HP54020
  0
LINE
  5
507
  8
0
  6
CONTINUOUS
 62
     7
 10
100.5568442403904
 20
86.966892822023013
 30
0.0
 11
100.5568442403904
 21
80.966892822022984
 31
0.0
  0
LINE
  5
508
  8
0
  6
CONTINUOUS
 62
     7
 10
107.55684374039051
 20
80.366890922023003
 30
0.0
 11
107.55684374039051
 21
81.966892822022984
 31
0.0
  0
LINE
  5
509
  8
0
  6
CONTINUOUS
 62
     7
 10
100.75684424039029
 20
80.366892822023004
 30
0.0
 11
107.55684374039051
 21
80.366892822023004
 31
0.0
  0
LINE
  5
50B
  8
0
  6
CONTINUOUS
 62
     7
 10
100.5568442403904
 20
98.966892822022984
 30
0.0
 11
100.5568442403904
 21
92.966892822022956
 31
0.0
  0
LINE
  5
50C
  8
0
  6
CONTINUOUS
 62
     7
 10
107.55684374039051
 20
99.566892822022993
 30
0.0
 11
107.55684374039051
 21
97.966892822022984
 31
0.0
  0
LINE
  5
50E
  8
0
  6
CONTINUOUS
 62
     7
 10
104.5568357403905
 20
82.906227472023019
 30
0.0
 11
107.6174987403904
 21
85.966888972023071
 31
0.0
  0
LINE
  5
50F
  8
0
  6
CONTINUOUS
 62
     7
 10
102.5568442403904
 20
83.966892822022999
 30
0.0
 11
102.5568442403904
 21
86.966892822023013
 31
0.0
  0
LINE
  5
510
  8
0
  6
CONTINUOUS
 62
     7
 10
103.4961757403904
 20
83.966886622023097
 30
0.0
 11
106.5568579403902
 21
87.027569522027221
 31
0.0
  0
LINE
  5
511
  8
0
  6
CONTINUOUS
 62
     7
 10
102.5568442403904
 20
83.966892822022999
 30
0.0
 11
103.4961752403904
 21
83.966892822022999
 31
0.0
  0
LINE
  5
512
  8
0
  6
CONTINUOUS
 62
     7
 10
104.5568437403906
 20
81.966892822022984
 30
0.0
 11
107.55684374039051
 21
81.966892822022984
 31
0.0
  0
LINE
  5
513
  8
0
  6
CONTINUOUS
 62
     7
 10
104.5568437403906
 20
82.906232622023026
 30
0.0
 11
104.5568437403906
 21
81.966892822022984
 31
0.0
  0
LINE
  5
514
  8
0
  6
CONTINUOUS
 62
     7
 10
100.5568442403904
 20
86.966892822023013
 30
0.0
 11
102.5568442403904
 21
86.966892822023013
 31
0.0
  0
LINE
  5
516
  8
0
  6
CONTINUOUS
 62
     7
 10
104.5568347403904
 20
97.027538822023004
 30
0.0
 11
107.61748274038101
 21
93.966892822022743
 31
0.0
  0
LINE
  5
517
  8
0
  6
CONTINUOUS
 62
     7
 10
103.4961642403904
 20
95.966890822022734
 30
0.0
 11
106.5568579403902
 21
92.906197622027946
 31
0.0
  0
LINE
  5
518
  8
0
  6
CONTINUOUS
 62
     7
 10
102.5568442403904
 20
95.966892822022871
 30
0.0
 11
102.5568442403904
 21
92.966892822022956
 31
0.0
  0
LINE
  5
519
  8
0
  6
CONTINUOUS
 62
     7
 10
100.5568442403904
 20
92.966892822022956
 30
0.0
 11
102.5568442403904
 21
92.966892822022956
 31
0.0
  0
LINE
  5
51C
  8
0
  6
CONTINUOUS
 62
     7
 10
102.5568442403904
 20
95.966892822022871
 30
0.0
 11
103.4961752403904
 21
95.966892822022871
 31
0.0
  0
LINE
  5
51D
  8
0
  6
CONTINUOUS
 62
     7
 10
104.5568437403906
 20
97.966892822022984
 30
0.0
 11
107.55684374039051
 21
97.966892822022984
 31
0.0
  0
LINE
  5
51E
  8
0
  6
CONTINUOUS
 62
     7
 10
104.5568437403906
 20
97.966892822022984
 30
0.0
 11
104.5568437403906
 21
97.027550322022989
 31
0.0
  0
LINE
  5
51F
  8
0
  6
CONTINUOUS
 62
     7
 10
100.75684424039039
 20
99.566892822022993
 30
0.0
 11
107.55684374039051
 21
99.566892822022993
 31
0.0
  0
LINE
  5
521
  8
0
  6
CONTINUOUS
 62
     7
 10
225.8220429243141
 20
99.566892822022993
 30
0.0
 11
175.8220429243143
 21
99.566892822022993
 31
0.0
  0
LINE
  5
522
  8
0
  6
CONTINUOUS
 62
     7
 10
175.8220429243143
 20
80.366892822023004
 30
0.0
 11
225.8220429243141
 21
80.366892822023004
 31
0.0
  0
LINE
  5
523
  8
0
  6
CONTINUOUS
 62
     7
 10
225.8220429243141
 20
92.966892822022956
 30
0.0
 11
175.8220429243143
 21
92.966892822022956
 31
0.0
  0
LINE
  5
524
  8
0
  6
CONTINUOUS
 62
     7
 10
225.8220429243141
 20
86.966892822023013
 30
0.0
 11
175.8220429243143
 21
86.966892822023013
 31
0.0
  0
LINE
  5
525
  8
0
  6
CONTINUOUS
 62
     7
 10
140.55684424039049
 20
86.966892822023013
 30
0.0
 11
140.55684424039049
 21
80.966892822022984
 31
0.0
  0
LINE
  5
526
  8
0
  6
CONTINUOUS
 62
     7
 10
175.8220429243143
 20
99.566892822022993
 30
0.0
 11
175.8220429243143
 21
80.366892822023004
 31
0.0
  0
LINE
  5
527
  8
0
  6
CONTINUOUS
 62
     7
 10
133.5568442403904
 20
80.366892822023004
 30
0.0
 11
133.5568442403904
 21
81.966892822022984
 31
0.0
  0
LINE
  5
528
  8
0
  6
CONTINUOUS
 62
     7
 10
127.5568442403904
 20
80.366892822023004
 30
0.0
 11
127.5568442403904
 21
81.966892822022984
 31
0.0
  0
LINE
  5
529
  8
0
  6
CONTINUOUS
 62
     7
 10
113.55684374039051
 20
80.366892822023004
 30
0.0
 11
113.55684374039051
 21
81.966892822023013
 31
0.0
  0
LINE
  5
52A
  8
CENTER
  6
CENTER
 62
     1
 10
130.55684424039049
 20
94.566892722022985
 30
0.0
 11
130.55684424039049
 21
85.366894822023013
 31
0.0
  0
LINE
  5
52B
  8
CENTER
  6
CENTER
 62
     1
 10
110.5568442403905
 20
94.566888222022996
 30
0.0
 11
110.5568442403905
 21
85.366892922023027
 31
0.0
  0
LINE
  5
52C
  8
0
  6
CONTINUOUS
 62
     7
 10
113.55684374039051
 20
80.366892822023004
 30
0.0
 11
127.5568442403904
 21
80.366892822023004
 31
0.0
  0
LINE
  5
52D
  8
0
  6
CONTINUOUS
 62
     7
 10
140.3568442403905
 20
80.366892822023004
 30
0.0
 11
133.5568442403904
 21
80.366892822023004
 31
0.0
  0
LINE
  5
52F
  8
0
  6
CONTINUOUS
 62
     7
 10
140.55684424039049
 20
98.966892822022984
 30
0.0
 11
140.55684424039049
 21
92.966892822022956
 31
0.0
  0
LINE
  5
530
  8
0
  6
CONTINUOUS
 62
     7
 10
133.5568442403904
 20
99.566892822022993
 30
0.0
 11
133.5568442403904
 21
97.966892822022984
 31
0.0
  0
LINE
  5
531
  8
0
  6
CONTINUOUS
 62
     7
 10
127.5568442403904
 20
99.566892822022993
 30
0.0
 11
127.5568442403904
 21
97.966892822022984
 31
0.0
  0
LINE
  5
532
  8
0
  6
CONTINUOUS
 62
     7
 10
113.55684374039051
 20
99.566892822022993
 30
0.0
 11
113.55684374039051
 21
97.966892822022984
 31
0.0
  0
LINE
  5
533
  8
0
  6
CONTINUOUS
 62
     7
 10
124.5568442403905
 20
97.966892822022984
 30
0.0
 11
127.5568442403904
 21
97.966892822022984
 31
0.0
  0
LINE
  5
534
  8
0
  6
CONTINUOUS
 62
     7
 10
122.6447147403904
 20
83.115425112023019
 30
0.0
 11
126.5568442403904
 21
87.027557322022375
 31
0.0
  0
LINE
  5
535
  8
0
  6
CONTINUOUS
 62
     7
 10
124.5568572403905
 20
82.906227822023027
 30
0.0
 11
127.61752309040349
 21
85.96689282202307
 31
0.0
  0
LINE
  5
536
  8
0
  6
CONTINUOUS
 62
     7
 10
124.5568442403905
 20
81.966892822022984
 30
0.0
 11
127.5568442403904
 21
81.966892822022984
 31
0.0
  0
LINE
  5
537
  8
0
  6
CONTINUOUS
 62
     7
 10
124.5568467403905
 20
97.027549322022864
 30
0.0
 11
127.61750874039051
 21
93.966888322022854
 31
0.0
  0
LINE
  5
538
  8
0
  6
CONTINUOUS
 62
     7
 10
122.6447147403904
 20
96.818363822022931
 30
0.0
 11
126.5568442403904
 21
92.906231822023145
 31
0.0
  0
CIRCLE
  5
53A
  8
0
  6
CONTINUOUS
 62
     7
 10
110.5568442403905
 20
89.966892822023027
 30
0.0
 40
2.099999899999998
  0
LINE
  5
53B
  8
0
  6
CONTINUOUS
 62
     7
 10
118.4689803403904
 20
83.115414362023017
 30
0.0
 11
114.5568579403901
 21
87.027547671991925
 31
0.0
  0
LINE
  5
53C
  8
0
  6
CONTINUOUS
 62
     7
 10
116.5568268763906
 20
82.906227822023027
 30
0.0
 11
113.4961610903778
 21
85.96689282202307
 31
0.0
  0
LINE
  5
53E
  8
0
  6
CONTINUOUS
 62
     7
 10
116.5568437363905
 20
82.906236422023014
 30
0.0
 11
116.5568437363905
 21
81.966892822023013
 31
0.0
  0
LINE
  5
542
  8
0
  6
CONTINUOUS
 62
     7
 10
118.85683194039019
 20
81.966892817023052
 30
0.0
 11
122.25685624039041
 21
81.966892817023052
 31
0.0
  0
ARC
  5
543
  8
0
  6
CONTINUOUS
 62
     7
 10
118.25685624039031
 20
82.903285762023046
 30
0.0
 40
0.30000001
 50
0.0
 51
45.000000999999983
  0
ARC
  5
544
  8
0
  6
CONTINUOUS
 62
     7
 10
118.856831906248
 20
82.266891967880909
 30
0.0
 40
0.2999999758578618
 50
179.99999111876701
 51
270.00000652066763
  0
LINE
  5
545
  8
0
  6
CONTINUOUS
 62
     7
 10
118.5568439903905
 20
82.266891962023024
 30
0.0
 11
118.5568439903905
 21
82.903285762023046
 31
0.0
  0
ARC
  5
546
  8
0
  6
CONTINUOUS
 62
     7
 10
122.85683174039031
 20
82.903291462022977
 30
0.0
 40
0.30000001
 50
135.0
 51
180.0000099999998
  0
ARC
  5
547
  8
0
  6
CONTINUOUS
 62
     7
 10
122.2568562745325
 20
82.266891967880909
 30
0.0
 40
0.2999999758578601
 50
269.9999934793297
 51
359.99999888123187
  0
LINE
  5
548
  8
0
  6
CONTINUOUS
 62
     7
 10
122.55684374039051
 20
82.266891962023024
 30
0.0
 11
122.55684374039051
 21
82.903291462022977
 31
0.0
  0
LINE
  5
549
  8
0
  6
CONTINUOUS
 62
     7
 10
124.5568442403905
 20
82.906236422023014
 30
0.0
 11
124.5568442403905
 21
81.966892822022984
 31
0.0
  0
LINE
  5
54A
  8
0
  6
CONTINUOUS
 62
     7
 10
118.46898094039049
 20
96.818374322023004
 30
0.0
 11
114.5568579403902
 21
92.906241022050565
 31
0.0
  0
LINE
  5
54B
  8
0
  6
CONTINUOUS
 62
     7
 10
116.55683817039051
 20
97.027549322022864
 30
0.0
 11
113.49618044039219
 21
93.966892822022743
 31
0.0
  0
LINE
  5
54F
  8
0
  6
CONTINUOUS
 62
     7
 10
116.5568437353905
 20
97.966892822022984
 30
0.0
 11
113.55684374039051
 21
97.966892822022984
 31
0.0
  0
LINE
  5
550
  8
0
  6
CONTINUOUS
 62
     7
 10
116.5568437353905
 20
97.966892822022984
 30
0.0
 11
116.5568437353905
 21
97.027552322022984
 31
0.0
  0
LINE
  5
551
  8
0
  6
CONTINUOUS
 62
     7
 10
118.85683194039019
 20
97.966892822022643
 30
0.0
 11
122.25685624039041
 21
97.966892822022643
 31
0.0
  0
LINE
  5
552
  8
0
  6
CONTINUOUS
 62
     7
 10
118.5568439903905
 20
97.666893822022914
 30
0.0
 11
118.5568439903905
 21
97.030499322022933
 31
0.0
  0
ARC
  5
553
  8
0
  6
CONTINUOUS
 62
     7
 10
118.85683194039019
 20
97.666893822022914
 30
0.0
 40
0.30000001
 50
90.000003000000007
 51
180.0000099999998
  0
ARC
  5
554
  8
0
  6
CONTINUOUS
 62
     7
 10
118.25685856271279
 20
97.030499360083255
 30
0.0
 40
0.2999976876774562
 50
314.99981628234798
 51
359.99999273095813
  0
LINE
  5
555
  8
0
  6
CONTINUOUS
 62
     7
 10
122.55684374039051
 20
97.666893822022914
 30
0.0
 11
122.55684374039051
 21
97.030494322022847
 31
0.0
  0
ARC
  5
556
  8
0
  6
CONTINUOUS
 62
     7
 10
122.25685624039041
 20
97.666893822022914
 30
0.0
 40
0.30000001
 50
0.0
 51
90.000003000000007
  0
ARC
  5
557
  8
0
  6
CONTINUOUS
 62
     7
 10
122.8568294180682
 20
97.030494360083352
 30
0.0
 40
0.2999976876778877
 50
179.99999726899961
 51
225.0001837176153
  0
LINE
  5
558
  8
0
  6
CONTINUOUS
 62
     7
 10
124.5568442403905
 20
97.966892822022984
 30
0.0
 11
124.5568442403905
 21
97.027552322022984
 31
0.0
  0
CIRCLE
  5
55A
  8
0
  6
CONTINUOUS
 62
     7
 10
130.55684424039049
 20
89.966892822023027
 30
0.0
 40
2.099999899999998
  0
LINE
  5
55B
  8
0
  6
CONTINUOUS
 62
     7
 10
126.5568442403904
 20
87.027557322022375
 30
0.0
 11
126.5568442403904
 21
92.906231822023145
 31
0.0
  0
LINE
  5
55C
  8
0
  6
CONTINUOUS
 62
     7
 10
136.55684824039059
 20
82.906227822023027
 30
0.0
 11
133.49618289038759
 21
85.96689282202307
 31
0.0
  0
LINE
  5
55E
  8
0
  6
CONTINUOUS
 62
     7
 10
137.61750974039029
 20
83.966887072023013
 30
0.0
 11
134.5568442403904
 21
87.027552322014046
 31
0.0
  0
LINE
  5
560
  8
0
  6
CONTINUOUS
 62
     7
 10
127.61752309040349
 20
85.96689282202307
 30
0.0
 11
130.03722899811979
 21
85.96689282202307
 31
0.0
  0
LINE
  5
564
  8
0
  6
CONTINUOUS
 62
     7
 10
138.5568442403904
 20
83.966892822022999
 30
0.0
 11
138.5568442403904
 21
86.966892822023013
 31
0.0
  0
LINE
  5
565
  8
0
  6
CONTINUOUS
 62
     7
 10
136.5568442403904
 20
82.906232622023026
 30
0.0
 11
136.5568442403904
 21
81.966892822022984
 31
0.0
  0
LINE
  5
566
  8
0
  6
CONTINUOUS
 62
     7
 10
138.5568442403904
 20
83.966892822022999
 30
0.0
 11
137.61751324039051
 21
83.966892822022999
 31
0.0
  0
LINE
  5
567
  8
0
  6
CONTINUOUS
 62
     7
 10
140.55684424039049
 20
86.966892822023013
 30
0.0
 11
138.5568442403904
 21
86.966892822023013
 31
0.0
  0
LINE
  5
568
  8
0
  6
CONTINUOUS
 62
     7
 10
136.5568442403904
 20
97.966892822022984
 30
0.0
 11
133.5568442403904
 21
97.966892822022984
 31
0.0
  0
LINE
  5
569
  8
0
  6
CONTINUOUS
 62
     7
 10
136.55684824039059
 20
97.027538822023004
 30
0.0
 11
133.4962007403924
 21
93.966892822022757
 31
0.0
  0
LINE
  5
56A
  8
0
  6
CONTINUOUS
 62
     7
 10
137.61751924039041
 20
95.966889822022935
 30
0.0
 11
134.5568442403904
 21
92.906214322080217
 31
0.0
  0
LINE
  5
56C
  8
0
  6
CONTINUOUS
 62
     7
 10
127.61751324039049
 20
93.966892822022757
 30
0.0
 11
130.03723679234849
 21
93.966892822022757
 31
0.0
  0
LINE
  5
56F
  8
0
  6
CONTINUOUS
 62
     7
 10
134.5568442403904
 20
92.906214322080217
 30
0.0
 11
134.5568442403904
 21
90.486476887379382
 31
0.0
  0
LINE
  5
571
  8
0
  6
CONTINUOUS
 62
     7
 10
138.5568442403904
 20
95.966892822022871
 30
0.0
 11
138.5568442403904
 21
92.966892822022956
 31
0.0
  0
LINE
  5
572
  8
0
  6
CONTINUOUS
 62
     7
 10
140.55684424039049
 20
92.966892822022956
 30
0.0
 11
138.5568442403904
 21
92.966892822022956
 31
0.0
  0
LINE
  5
573
  8
0
  6
CONTINUOUS
 62
     7
 10
138.5568442403904
 20
95.966892822022871
 30
0.0
 11
137.61751324039051
 21
95.966892822022871
 31
0.0
  0
LINE
  5
574
  8
0
  6
CONTINUOUS
 62
     7
 10
136.5568442403904
 20
97.966892822022984
 30
0.0
 11
136.5568442403904
 21
97.027550322022989
 31
0.0
  0
LINE
  5
575
  8
0
  6
CONTINUOUS
 62
     7
 10
113.55684374039051
 20
99.566892822022993
 30
0.0
 11
127.5568442403904
 21
99.566892822022993
 31
0.0
  0
LINE
  5
576
  8
0
  6
CONTINUOUS
 62
     7
 10
140.3568442403905
 20
99.566892822022993
 30
0.0
 11
133.5568442403904
 21
99.566892822022993
 31
0.0
  0
LINE
  5
578
  8
0
  6
CONTINUOUS
 62
     7
 10
225.8220429243141
 20
99.566892822022993
 30
0.0
 11
225.8220429243141
 21
80.366892822023004
 31
0.0
  0
LINE
  5
10D7
  8
0
  6
CONTINUOUS
 62
     7
 10
130.55684424039049
 20
93.666897322022763
 30
0.0
 11
130.03723679234849
 21
93.966892822022757
 31
0.0
  0
LINE
  5
10D8
  8
0
  6
CONTINUOUS
 62
     7
 10
130.55684424039049
 20
93.666897322022763
 30
0.0
 11
131.07645168843251
 21
93.966892822022757
 31
0.0
  0
LINE
  5
10DA
  8
0
  6
CONTINUOUS
 62
     7
 10
131.07645168843251
 20
93.966892822022757
 30
0.0
 11
133.4962007403924
 21
93.966892822022757
 31
0.0
  0
LINE
  5
10DF
  8
0
  6
CONTINUOUS
 62
     7
 10
130.55684424039049
 20
86.266892822023067
 30
0.0
 11
131.07645948266111
 21
85.96689282202307
 31
0.0
  0
LINE
  5
10E0
  8
0
  6
CONTINUOUS
 62
     7
 10
130.55684424039049
 20
86.266892822023067
 30
0.0
 11
130.03722899811979
 21
85.96689282202307
 31
0.0
  0
LINE
  5
10E1
  8
0
  6
CONTINUOUS
 62
     7
 10
134.25686224039021
 20
89.966892822023027
 30
0.0
 11
134.5568577403902
 21
90.486500270064994
 31
0.0
  0
LINE
  5
10E2
  8
0
  6
CONTINUOUS
 62
     7
 10
134.25686224039021
 20
89.966892822023027
 30
0.0
 11
134.5568577403902
 21
89.447285373980975
 31
0.0
  0
LINE
  5
10E6
  8
0
  6
CONTINUOUS
 62
     7
 10
134.5568442403904
 20
89.447308756666501
 30
0.0
 11
134.5568442403904
 21
87.027552322014046
 31
0.0
  0
LINE
  5
10E7
  8
0
  6
CONTINUOUS
 62
     7
 10
131.07645948266111
 20
85.96689282202307
 30
0.0
 11
133.49618289038759
 21
85.96689282202307
 31
0.0
  0
LINE
  5
10EA
  8
0
  6
CONTINUOUS
 62
     7
 10
110.5568447403905
 20
86.266890922023066
 30
0.0
 11
111.07645998266101
 21
85.966890922023069
 31
0.0
  0
LINE
  5
10EB
  8
0
  6
CONTINUOUS
 62
     7
 10
110.5568447403905
 20
86.266890922023066
 30
0.0
 11
110.0372294981198
 21
85.966890922023069
 31
0.0
  0
LINE
  5
10EC
  8
0
  6
CONTINUOUS
 62
     7
 10
111.07645669176461
 20
85.96689282202307
 30
0.0
 11
113.4961610903778
 21
85.96689282202307
 31
0.0
  0
LINE
  5
10F4
  8
0
  6
CONTINUOUS
 62
     7
 10
106.5568579403902
 20
92.906197622027946
 30
0.0
 11
106.5568579403902
 21
90.486476887379496
 31
0.0
  0
LINE
  5
10F6
  8
0
  6
CONTINUOUS
 62
     7
 10
106.8568399403904
 20
89.966892822023027
 30
0.0
 11
106.55684444039041
 21
90.486500270064994
 31
0.0
  0
LINE
  5
10F7
  8
0
  6
CONTINUOUS
 62
     7
 10
106.8568399403904
 20
89.966892822023027
 30
0.0
 11
106.5568442403904
 21
89.447285027570814
 31
0.0
  0
LINE
  5
10F9
  8
0
  6
CONTINUOUS
 62
     7
 10
110.5568442403905
 20
93.66689282202276
 30
0.0
 11
110.0372289981198
 21
93.966892822022743
 31
0.0
  0
LINE
  5
10FA
  8
0
  6
CONTINUOUS
 62
     7
 10
110.5568442403905
 20
93.66689282202276
 30
0.0
 11
111.07645948266099
 21
93.966892822022743
 31
0.0
  0
LINE
  5
1108
  8
0
  6
CONTINUOUS
 62
     7
 10
111.07645948266099
 20
93.966892822022743
 30
0.0
 11
113.49618044039219
 21
93.966892822022743
 31
0.0
  0
LINE
  5
110D
  8
CENTER
  6
CENTER
 62
     1
 10
173.3220429243143
 20
89.966892822023027
 30
0.0
 11
228.32204292431399
 21
89.966892822023027
 31
0.0
  0
LINE
  5
1178
  8
0
  6
CONTINUOUS
 62
     7
 10
225.8220429243141
 20
90.486500270064994
 30
0.0
 11
175.8220429243143
 21
90.486500270064994
 31
0.0
  0
LINE
  5
1179
  8
0
  6
CONTINUOUS
 62
     7
 10
225.8220429243141
 20
89.447285373980975
 30
0.0
 11
175.8220429243143
 21
89.447285373980975
 31
0.0
  0
ARC
  5
1360
  8
0
  6
CONTINUOUS
 62
     7
 10
101.5568442403903
 20
80.966892822022885
 30
0.0
 40
1.0
 50
179.9999999999992
 51
216.86989764584041
  0
ARC
  5
1361
  8
0
  6
CONTINUOUS
 62
     7
 10
139.55684424039049
 20
80.966892822022885
 30
0.0
 40
1.0
 50
323.13010235415948
 51
0.0000000000008142
  0
ARC
  5
1362
  8
0
  6
CONTINUOUS
 62
     7
 10
139.55684424039049
 20
98.966892822023027
 30
0.0
 40
1.0
 50
359.9999999999992
 51
36.86989764584338
  0
ARC
  5
1363
  8
0
  6
CONTINUOUS
 62
     7
 10
101.5568442403904
 20
98.966892822023027
 30
0.0
 40
1.0
 50
143.13010235415609
 51
180.0000000000008
  0
LINE
  5
1417
  8
CENTER
  6
CENTER
 62
     1
 10
120.5568442403905
 20
102.06689282202289
 30
0.0
 11
120.5568442403905
 21
77.866892822023019
 31
0.0
  0
LINE
  5
1833
  8
0
  6
CONTINUOUS
 62
     7
 10
106.5568579403902
 20
89.447308756666501
 30
0.0
 11
106.5568579403902
 21
87.027569522027221
 31
0.0
  0
LINE
  5
1855
  8
0
  6
CONTINUOUS
 62
     7
 10
114.5568579403902
 20
92.906241022050565
 30
0.0
 11
114.5568579403901
 21
87.027547671991925
 31
0.0
  0
LINE
  5
196A
  8
0
  6
CONTINUOUS
 62
     7
 10
113.55684374039051
 20
81.966892822023013
 30
0.0
 11
116.5568437363905
 21
81.966892822023013
 31
0.0
  0
LINE
  5
1B5A
  8
0
  6
CONTINUOUS
 62
     7
 10
136.5568442403904
 20
81.966892822022984
 30
0.0
 11
133.5568442403904
 21
81.966892822022984
 31
0.0
  0
ENDSEC
  0
EOF
