  0
SECTION
  2
HEADER
  9
$ACADVER
  1
AC1009
  9
$INSBASE
 10
0.0
 20
0.0
 30
0.0
  9
$EXTMIN
 10
-0.0000001659321924
 20
-0.0000001302659598
 30
0.0
  9
$EXTMAX
 10
138.6704053257935
 20
114.85955901955209
 30
0.0
  9
$LIMMIN
 10
0.0
 20
0.0
  9
$LIMMAX
 10
297.0
 20
210.0
  9
$ORTHOMODE
 70
     0
  9
$REGENMODE
 70
     1
  9
$FILLMODE
 70
     1
  9
$QTEXTMODE
 70
     0
  9
$MIRRTEXT
 70
     1
  9
$DRAGMODE
 70
     2
  9
$LTSCALE
 40
1.0
  9
$OSMODE
 70
    57
  9
$ATTMODE
 70
     1
  9
$TEXTSIZE
 40
6.4000000000000012
  9
$TRACEWID
 40
0.05
  9
$TEXTSTYLE
  7
STANDARD
  9
$CLAYER
  8
0
  9
$CELTYPE
  6
CONTINUOUS
  9
$CECOLOR
 62
     7
  9
$DIMSCALE
 40
1.0
  9
$DIMASZ
 40
3.0
  9
$DIMEXO
 40
1.0
  9
$DIMDLI
 40
0.0
  9
$DIMRND
 40
0.0
  9
$DIMDLE
 40
0.0
  9
$DIMEXE
 40
1.0
  9
$DIMTP
 40
0.0
  9
$DIMTM
 40
0.0
  9
$DIMTXT
 40
3.2000000000000002
  9
$DIMCEN
 40
0.0
  9
$DIMTSZ
 40
0.0
  9
$DIMTOL
 70
     0
  9
$DIMLIM
 70
     0
  9
$DIMTIH
 70
     0
  9
$DIMTOH
 70
     0
  9
$DIMSE1
 70
     0
  9
$DIMSE2
 70
     0
  9
$DIMTAD
 70
     1
  9
$DIMZIN
 70
     8
  9
$DIMBLK
  1

  9
$DIMASO
 70
     1
  9
$DIMSHO
 70
     1
  9
$DIMPOST
  1

  9
$DIMAPOST
  1

  9
$DIMALT
 70
     0
  9
$DIMALTD
 70
     2
  9
$DIMALTF
 40
0.04
  9
$DIMLFAC
 40
1.0
  9
$DIMTOFL
 70
     1
  9
$DIMTVP
 40
1.0
  9
$DIMTIX
 70
     1
  9
$DIMSOXD
 70
     0
  9
$DIMSAH
 70
     0
  9
$DIMBLK1
  1

  9
$DIMBLK2
  1

  9
$DIMSTYLE
  2
MISUMI
  9
$DIMCLRD
 70
     0
  9
$DIMCLRE
 70
     0
  9
$DIMCLRT
 70
     0
  9
$DIMTFAC
 40
0.6
  9
$DIMGAP
 40
1.0
  9
$LUNITS
 70
     2
  9
$LUPREC
 70
     4
  9
$SKETCHINC
 40
0.1
  9
$FILLETRAD
 40
0.0
  9
$AUNITS
 70
     0
  9
$AUPREC
 70
     0
  9
$MENU
  1
acad
  9
$ELEVATION
 40
0.0
  9
$PELEVATION
 40
0.0
  9
$THICKNESS
 40
0.0
  9
$LIMCHECK
 70
     0
  9
$BLIPMODE
 70
     1
  9
$CHAMFERA
 40
0.5
  9
$CHAMFERB
 40
0.5
  9
$SKPOLY
 70
     0
  9
$TDCREATE
 40
2451464.6006649309
  9
$TDUPDATE
 40
2453776.7022131719
  9
$TDINDWG
 40
0.2425644444
  9
$TDUSRTIMER
 40
0.2425618866
  9
$USRTIMER
 70
     1
  9
$ANGBASE
 50
0.0
  9
$ANGDIR
 70
     0
  9
$PDMODE
 70
     0
  9
$PDSIZE
 40
0.0
  9
$PLINEWID
 40
0.0
  9
$COORDS
 70
     0
  9
$SPLFRAME
 70
     0
  9
$SPLINETYPE
 70
     6
  9
$SPLINESEGS
 70
     8
  9
$ATTDIA
 70
     0
  9
$ATTREQ
 70
     1
  9
$HANDLING
 70
     1
  9
$HANDSEED
  5
1AC1
  9
$SURFTAB1
 70
     6
  9
$SURFTAB2
 70
     6
  9
$SURFTYPE
 70
     6
  9
$SURFU
 70
     6
  9
$SURFV
 70
     6
  9
$UCSNAME
  2

  9
$UCSORG
 10
0.0
 20
0.0
 30
0.0
  9
$UCSXDIR
 10
1.0
 20
0.0
 30
0.0
  9
$UCSYDIR
 10
0.0
 20
1.0
 30
0.0
  9
$PUCSNAME
  2

  9
$PUCSORG
 10
0.0
 20
0.0
 30
0.0
  9
$PUCSXDIR
 10
1.0
 20
0.0
 30
0.0
  9
$PUCSYDIR
 10
0.0
 20
1.0
 30
0.0
  9
$USERI1
 70
     0
  9
$USERI2
 70
     0
  9
$USERI3
 70
     0
  9
$USERI4
 70
     0
  9
$USERI5
 70
     0
  9
$USERR1
 40
0.0
  9
$USERR2
 40
0.0
  9
$USERR3
 40
0.0
  9
$USERR4
 40
0.0
  9
$USERR5
 40
0.0
  9
$WORLDVIEW
 70
     1
  9
$SHADEDGE
 70
     3
  9
$SHADEDIF
 70
    70
  9
$TILEMODE
 70
     1
  9
$MAXACTVP
 70
    16
  9
$PLIMCHECK
 70
     0
  9
$PEXTMIN
 10
1.0000000000000000E+020
 20
1.0000000000000000E+020
 30
1.0000000000000000E+020
  9
$PEXTMAX
 10
-1.0000000000000000E+020
 20
-1.0000000000000000E+020
 30
-1.0000000000000000E+020
  9
$PLIMMIN
 10
0.0
 20
0.0
  9
$PLIMMAX
 10
12.0
 20
9.0
  9
$UNITMODE
 70
     0
  9
$VISRETAIN
 70
     0
  9
$PLINEGEN
 70
     0
  9
$PSLTSCALE
 70
     1
  0
ENDSEC
  0
SECTION
  2
TABLES
  0
TABLE
  2
VPORT
 70
     2
  0
VPORT
  2
*ACTIVE
 70
     0
 10
0.0
 20
0.0
 11
1.0
 21
1.0
 12
80.718163740364844
 22
65.370747425442033
 13
0.0
 23
0.0
 14
10.0
 24
10.0
 15
10.0
 25
10.0
 16
0.0
 26
0.0
 36
1.0
 17
0.0
 27
0.0
 37
0.0
 40
145.70830312932401
 41
1.5717852684144811
 42
50.0
 43
0.0
 44
0.0
 50
0.0
 51
0.0
 71
     0
 72
   100
 73
     1
 74
     0
 75
     0
 76
     0
 77
     0
 78
     0
  0
ENDTAB
  0
TABLE
  2
LTYPE
 70
     2
  0
LTYPE
  2
CONTINUOUS
 70
     0
  3
Solid line
 72
    65
 73
     0
 40
0.0
  0
LTYPE
  2
CENTER
 70
     0
  3
Center ____ _ ____ _ ____ _ ____ _ ____ _ ____
 72
    65
 73
     4
 40
2.0
 49
1.25
 49
-0.25
 49
0.25
 49
-0.25
  0
ENDTAB
  0
TABLE
  2
LAYER
 70
     2
  0
LAYER
  2
0
 70
     0
 62
     7
  6
CONTINUOUS
  0
LAYER
  2
CENTER
 70
     0
 62
     1
  6
CENTER
  0
ENDTAB
  0
TABLE
  2
STYLE
 70
     1
  0
STYLE
  2
STANDARD
 70
     0
 40
0.0
 41
1.0
 50
0.0
 71
     0
 42
6.4000000000000012
  3
txt
  4

  0
ENDTAB
  0
TABLE
  2
VIEW
 70
     0
  0
ENDTAB
  0
TABLE
  2
UCS
 70
     0
  0
ENDTAB
  0
TABLE
  2
APPID
 70
     2
  0
APPID
  2
ACAD
 70
     0
  0
APPID
  2
ACAD_DSTYLE_DIMTEXT_FILL
 70
     0
  0
ENDTAB
  0
TABLE
  2
DIMSTYLE
 70
     1
  0
DIMSTYLE
  2
MISUMI
 70
     0
  3

  4

  5

  6

  7

 40
1.0
 41
3.0
 42
1.0
 43
0.0
 44
1.0
 45
0.0
 46
0.0
 47
0.0
 48
0.0
140
3.2000000000000002
141
0.0
142
0.0
143
0.04
144
1.0
145
1.0
146
0.6
147
1.0
 71
     0
 72
     0
 73
     0
 74
     0
 75
     0
 76
     0
 77
     1
 78
     8
170
     0
171
     2
172
     1
173
     0
174
     1
175
     0
176
     0
177
     0
178
     0
  0
ENDTAB
  0
ENDSEC
  0
SECTION
  2
BLOCKS
  0
BLOCK
  8
0
  2
$MODEL_SPACE
 70
     0
 10
0.0
 20
0.0
 30
0.0
  3
$MODEL_SPACE
  1

  0
ENDBLK
  5
1A30
  8
0
  0
BLOCK
 67
     1
  8
0
  2
$PAPER_SPACE
 70
     0
 10
0.0
 20
0.0
 30
0.0
  3
$PAPER_SPACE
  1

  0
ENDBLK
  5
1A2C
 67
     1
  8
0
  0
ENDSEC
  0
SECTION
  2
ENTITIES
  0
TEXT
  5
547
  8
0
  6
CONTINUOUS
 62
     7
 10
-0.0000001659321924
 20
-0.0000001302659598
 30
0.0
 40
4.0
  1
HP52080
  0
TEXT
  5
548
  8
0
  6
CONTINUOUS
 62
     7
 10
-0.0000001659321924
 20
6.6740141168377241
 30
0.0
 40
4.0
  1
HFSP5-2080-50
  0
LINE
  5
549
  8
CENTER
  6
CENTER
 62
     1
 10
43.517769036893043
 20
114.85955901955209
 30
0.0
 11
43.517769036893043
 21
30.659559019552031
 31
0.0
  0
LINE
  5
54A
  8
CENTER
  6
CENTER
 62
     1
 10
31.01776903689295
 20
62.759559019552078
 30
0.0
 11
56.017769036892979
 21
62.759559019552078
 31
0.0
  0
LINE
  5
54B
  8
CENTER
  6
CENTER
 62
     1
 10
31.017769036892929
 20
42.75955901955215
 30
0.0
 11
56.017769036892979
 21
42.75955901955215
 31
0.0
  0
LINE
  5
54E
  8
0
  6
CONTINUOUS
 62
     7
 10
53.51776903689295
 20
33.75955901955215
 30
0.0
 11
53.517769036892979
 21
39.459556019552132
 31
0.0
  0
LINE
  5
54F
  8
0
  6
CONTINUOUS
 62
     7
 10
49.517760036892959
 20
35.698909019552147
 30
0.0
 11
46.457109836893153
 21
38.759559019552327
 31
0.0
  0
LINE
  5
550
  8
0
  6
CONTINUOUS
 62
     7
 10
50.578420536892999
 20
36.759568519551941
 30
0.0
 11
47.517769036893043
 21
39.820221419548041
 31
0.0
  0
LINE
  5
551
  8
0
  6
CONTINUOUS
 62
     7
 10
51.517769036893043
 20
36.759559019552043
 30
0.0
 11
51.517769036893043
 21
39.75955901955215
 31
0.0
  0
LINE
  5
552
  8
0
  6
CONTINUOUS
 62
     7
 10
53.317769036892848
 20
33.15955901955202
 30
0.0
 11
46.517769036892858
 21
33.15955901955202
 31
0.0
  0
LINE
  5
553
  8
0
  6
CONTINUOUS
 62
     7
 10
49.517769036892872
 20
34.75955901955215
 30
0.0
 11
46.517769036892872
 21
34.75955901955215
 31
0.0
  0
LINE
  5
555
  8
0
  6
CONTINUOUS
 62
     7
 10
49.517769036892872
 20
34.75955901955215
 30
0.0
 11
49.517769036892872
 21
35.698890019552067
 31
0.0
  0
LINE
  5
556
  8
0
  6
CONTINUOUS
 62
     7
 10
51.517769036893043
 20
36.759559019552043
 30
0.0
 11
50.578422536892873
 21
36.759559019552043
 31
0.0
  0
LINE
  5
557
  8
0
  6
CONTINUOUS
 62
     7
 10
46.517769036892858
 20
33.15955901955202
 30
0.0
 11
46.517769036892872
 21
34.75955901955215
 31
0.0
  0
LINE
  5
559
  8
0
  6
CONTINUOUS
 62
     7
 10
53.217766036892968
 20
39.75955901955215
 30
0.0
 11
51.517769036893043
 21
39.75955901955215
 31
0.0
  0
ARC
  5
55A
  8
0
  6
CONTINUOUS
 62
     7
 10
53.217766036892968
 20
39.459556019552153
 30
0.0
 40
0.30000001
 50
0.0
 51
90.0
  0
LINE
  5
55B
  8
0
  6
CONTINUOUS
 62
     7
 10
47.517769036893043
 20
39.820221419548041
 30
0.0
 11
47.517769036893043
 21
42.239943777281447
 31
0.0
  0
LINE
  5
55E
  8
0
  6
CONTINUOUS
 62
     7
 10
40.578428236892343
 20
38.759559019551979
 30
0.0
 11
42.998153794622318
 21
38.75955901955215
 31
0.0
  0
LINE
  5
562
  8
0
  6
CONTINUOUS
 62
     7
 10
40.578406486893449
 20
58.759559019552078
 30
0.0
 11
46.457131586892487
 21
58.759559019552078
 31
0.0
  0
LINE
  5
563
  8
0
  6
CONTINUOUS
 62
     7
 10
40.57845573688914
 20
46.759559019552142
 30
0.0
 11
46.457082336896562
 21
46.759559019552142
 31
0.0
  0
LINE
  5
564
  8
0
  6
CONTINUOUS
 62
     7
 10
53.517769036892979
 20
46.059562019551961
 30
0.0
 11
53.517769036892979
 21
59.459555969552078
 31
0.0
  0
LINE
  5
565
  8
0
  6
CONTINUOUS
 62
     7
 10
51.517769036893043
 20
51.059608019552137
 30
0.0
 11
51.517769036893043
 21
54.459632019552153
 31
0.0
  0
LINE
  5
566
  8
0
  6
CONTINUOUS
 62
     7
 10
50.578422536892873
 20
48.759580019552153
 30
0.0
 11
47.517769036893043
 21
45.698925619554643
 31
0.0
  0
LINE
  5
567
  8
0
  6
CONTINUOUS
 62
     7
 10
50.369234036893062
 20
50.67171151955214
 30
0.0
 11
46.457082336896562
 21
46.759559019552142
 31
0.0
  0
LINE
  5
568
  8
0
  6
CONTINUOUS
 62
     7
 10
51.517769036893043
 20
48.759559019552142
 30
0.0
 11
51.517769036893043
 21
45.759559019551958
 31
0.0
  0
LINE
  5
569
  8
0
  6
CONTINUOUS
 62
     7
 10
53.217766036892968
 20
45.759559019551958
 30
0.0
 11
51.517769036893043
 21
45.759559019551958
 31
0.0
  0
ARC
  5
56A
  8
0
  6
CONTINUOUS
 62
     7
 10
53.217766036892968
 20
46.059562019551969
 30
0.0
 40
0.30000001
 50
270.00001000000088
 51
0.0
  0
LINE
  5
56B
  8
0
  6
CONTINUOUS
 62
     7
 10
51.517769036893043
 20
48.759559019552142
 30
0.0
 11
50.578422536892873
 21
48.759559019552142
 31
0.0
  0
ARC
  5
56C
  8
0
  6
CONTINUOUS
 62
     7
 10
51.217766036892741
 20
51.059608019552137
 30
0.0
 40
0.30000001
 50
269.999989999999
 51
0.0
  0
ARC
  5
56D
  8
0
  6
CONTINUOUS
 62
     7
 10
50.58136753689304
 20
50.459632019552167
 30
0.0
 40
0.30000001
 50
89.999989999999016
 51
134.99999400000021
  0
LINE
  5
56E
  8
0
  6
CONTINUOUS
 62
     7
 10
51.217766036892741
 20
50.759559019552071
 30
0.0
 11
50.58136753689304
 21
50.759559019552071
 31
0.0
  0
LINE
  5
56F
  8
0
  6
CONTINUOUS
 62
     7
 10
50.578422536892873
 20
56.759588019552119
 30
0.0
 11
47.517769036893057
 21
59.82024201955057
 31
0.0
  0
LINE
  5
570
  8
0
  6
CONTINUOUS
 62
     7
 10
50.369234036893062
 20
54.847456519551791
 30
0.0
 11
46.457131586892487
 21
58.759559019552078
 31
0.0
  0
ARC
  5
571
  8
0
  6
CONTINUOUS
 62
     7
 10
51.217766036892741
 20
54.459632019552153
 30
0.0
 40
0.30000001
 50
359.999989999999
 51
90.000000683246213
  0
ARC
  5
572
  8
0
  6
CONTINUOUS
 62
     7
 10
50.58136753689304
 20
55.059608019552151
 30
0.0
 40
0.30000001
 50
225.0
 51
270.00001000000088
  0
LINE
  5
573
  8
0
  6
CONTINUOUS
 62
     7
 10
51.217766036892741
 20
54.759559019552093
 30
0.0
 11
50.58136753689304
 21
54.759559019552093
 31
0.0
  0
LINE
  5
574
  8
0
  6
CONTINUOUS
 62
     7
 10
53.217766036892968
 20
59.759559019552093
 30
0.0
 11
51.517769036893043
 21
59.759559019552093
 31
0.0
  0
ARC
  5
575
  8
0
  6
CONTINUOUS
 62
     7
 10
53.217766036892968
 20
59.459555969552099
 30
0.0
 40
0.30000001
 50
0.0
 51
90.0
  0
LINE
  5
576
  8
0
  6
CONTINUOUS
 62
     7
 10
51.517769036893043
 20
56.7595590195521
 30
0.0
 11
51.517769036893043
 21
59.759559019552093
 31
0.0
  0
LINE
  5
577
  8
0
  6
CONTINUOUS
 62
     7
 10
51.517769036893043
 20
56.7595590195521
 30
0.0
 11
50.578422536892873
 21
56.7595590195521
 31
0.0
  0
LINE
  5
578
  8
0
  6
CONTINUOUS
 62
     7
 10
40.578477086888171
 20
66.7595590195521
 30
0.0
 11
46.457060986897602
 21
66.7595590195521
 31
0.0
  0
LINE
  5
579
  8
0
  6
CONTINUOUS
 62
     7
 10
50.578423036893042
 20
68.759601019552065
 30
0.0
 11
47.517769036893043
 21
65.698947069552119
 31
0.0
  0
LINE
  5
57A
  8
0
  6
CONTINUOUS
 62
     7
 10
51.517769036893043
 20
68.7595590195521
 30
0.0
 11
51.517769036893043
 21
65.7595590195521
 31
0.0
  0
LINE
  5
57B
  8
0
  6
CONTINUOUS
 62
     7
 10
50.369234036893062
 20
70.671732519552094
 30
0.0
 11
46.457060986897602
 21
66.7595590195521
 31
0.0
  0
LINE
  5
57C
  8
0
  6
CONTINUOUS
 62
     7
 10
53.217769036893039
 20
65.7595590195521
 30
0.0
 11
51.517769036893043
 21
65.7595590195521
 31
0.0
  0
LINE
  5
581
  8
0
  6
CONTINUOUS
 62
     7
 10
51.517769036893043
 20
68.7595590195521
 30
0.0
 11
50.57842253689288
 21
68.7595590195521
 31
0.0
  0
ARC
  5
582
  8
0
  6
CONTINUOUS
 62
     7
 10
51.217766036892762
 20
71.059608019552144
 30
0.0
 40
0.30000001
 50
270.00001000000088
 51
0.0
  0
ARC
  5
583
  8
0
  6
CONTINUOUS
 62
     7
 10
50.581367536893062
 20
70.459632019552188
 30
0.0
 40
0.30000001
 50
89.999989999999016
 51
134.99999400000021
  0
LINE
  5
584
  8
0
  6
CONTINUOUS
 62
     7
 10
51.217766036892762
 20
70.7595590195521
 30
0.0
 11
50.581367536893062
 21
70.7595590195521
 31
0.0
  0
LINE
  5
585
  8
0
  6
CONTINUOUS
 62
     7
 10
136.17040532579361
 20
33.15955901955212
 30
0.0
 11
86.170405325793567
 21
33.15955901955212
 31
0.0
  0
LINE
  5
586
  8
0
  6
CONTINUOUS
 62
     7
 10
86.170405325793567
 20
39.759559019552228
 30
0.0
 11
136.17040532579361
 21
39.759559019552228
 31
0.0
  0
LINE
  5
587
  8
0
  6
CONTINUOUS
 62
     7
 10
86.170405325793567
 20
45.759559019552107
 30
0.0
 11
136.17040532579361
 21
45.759559019552107
 31
0.0
  0
LINE
  5
589
  8
0
  6
CONTINUOUS
 62
     7
 10
86.170405325793567
 20
112.35955901955199
 30
0.0
 11
86.170405325793567
 21
33.15955901955212
 31
0.0
  0
LINE
  5
58A
  8
0
  6
CONTINUOUS
 62
     7
 10
136.17040532579361
 20
33.15955901955212
 30
0.0
 11
136.17040532579361
 21
112.35955901955199
 31
0.0
  0
LINE
  5
58B
  8
0
  6
CONTINUOUS
 62
     7
 10
37.517769036892929
 20
34.75955901955215
 30
0.0
 11
37.517769036892929
 21
35.698890019552067
 31
0.0
  0
LINE
  5
58C
  8
0
  6
CONTINUOUS
 62
     7
 10
33.517769036892922
 20
33.75955901955215
 30
0.0
 11
33.517769036892929
 21
39.459556019552132
 31
0.0
  0
LINE
  5
58D
  8
0
  6
CONTINUOUS
 62
     7
 10
40.517769036893043
 20
33.15955901955202
 30
0.0
 11
40.517769036893043
 21
34.75955901955215
 31
0.0
  0
LINE
  5
58F
  8
0
  6
CONTINUOUS
 62
     7
 10
33.717769036893017
 20
33.15955901955202
 30
0.0
 11
40.517769036893043
 21
33.15955901955202
 31
0.0
  0
LINE
  5
590
  8
0
  6
CONTINUOUS
 62
     7
 10
37.517769036892929
 20
34.75955901955215
 30
0.0
 11
40.517769036893043
 21
34.75955901955215
 31
0.0
  0
LINE
  5
593
  8
0
  6
CONTINUOUS
 62
     7
 10
35.517769036892922
 20
48.759559019552128
 30
0.0
 11
35.517769036892929
 21
45.759559019551958
 31
0.0
  0
LINE
  5
594
  8
0
  6
CONTINUOUS
 62
     7
 10
36.666304036893202
 20
50.67171151955214
 30
0.0
 11
40.57845573688914
 21
46.759559019552142
 31
0.0
  0
LINE
  5
595
  8
0
  6
CONTINUOUS
 62
     7
 10
36.457115536892871
 20
48.759580019552153
 30
0.0
 11
39.51776903689305
 21
45.69892561955465
 31
0.0
  0
LINE
  5
596
  8
0
  6
CONTINUOUS
 62
     7
 10
33.517769036892929
 20
46.059562019551961
 30
0.0
 11
33.51776903689295
 21
59.459555969552078
 31
0.0
  0
LINE
  5
597
  8
0
  6
CONTINUOUS
 62
     7
 10
39.51776903689305
 20
39.820221419548041
 30
0.0
 11
39.51776903689305
 21
42.239943777281511
 31
0.0
  0
LINE
  5
598
  8
0
  6
CONTINUOUS
 62
     7
 10
35.517769036892929
 20
36.759559019552043
 30
0.0
 11
36.457115536892871
 21
36.759559019552043
 31
0.0
  0
LINE
  5
599
  8
0
  6
CONTINUOUS
 62
     7
 10
37.517778036892793
 20
35.698909019552147
 30
0.0
 11
40.578428236892343
 21
38.759559019551979
 31
0.0
  0
LINE
  5
59A
  8
0
  6
CONTINUOUS
 62
     7
 10
36.457117536892873
 20
36.759568519551941
 30
0.0
 11
39.51776903689305
 21
39.820221419548041
 31
0.0
  0
LINE
  5
59B
  8
0
  6
CONTINUOUS
 62
     7
 10
35.517769036892929
 20
36.759559019552043
 30
0.0
 11
35.517769036892929
 21
39.75955901955215
 31
0.0
  0
ARC
  5
59C
  8
0
  6
CONTINUOUS
 62
     7
 10
33.817772036892769
 20
39.459556019552153
 30
0.0
 40
0.30000001
 50
90.0
 51
180.0
  0
LINE
  5
59D
  8
0
  6
CONTINUOUS
 62
     7
 10
33.817772036892769
 20
39.75955901955215
 30
0.0
 11
35.517769036892929
 21
39.75955901955215
 31
0.0
  0
ARC
  5
5A1
  8
0
  6
CONTINUOUS
 62
     7
 10
33.817772036892769
 20
46.059562019551969
 30
0.0
 40
0.30000001
 50
180.0
 51
269.999989999999
  0
LINE
  5
5A2
  8
0
  6
CONTINUOUS
 62
     7
 10
33.817772036892769
 20
45.759559019551958
 30
0.0
 11
35.517769036892929
 21
45.759559019551958
 31
0.0
  0
LINE
  5
5A3
  8
0
  6
CONTINUOUS
 62
     7
 10
36.666304036893202
 20
54.847456519551791
 30
0.0
 11
40.578406486893449
 21
58.759559019552078
 31
0.0
  0
ARC
  5
5A4
  8
0
  6
CONTINUOUS
 62
     7
 10
35.817772036893111
 20
54.459632019552153
 30
0.0
 40
0.30000001
 50
89.999999316753744
 51
180.00001000000091
  0
ARC
  5
5A5
  8
0
  6
CONTINUOUS
 62
     7
 10
36.454170536892697
 20
55.059608019552151
 30
0.0
 40
0.30000001
 50
269.999989999999
 51
315.0
  0
LINE
  5
5A6
  8
0
  6
CONTINUOUS
 62
     7
 10
35.817772036893111
 20
54.759559019552093
 30
0.0
 11
36.454170536892697
 21
54.759559019552093
 31
0.0
  0
ARC
  5
5A7
  8
0
  6
CONTINUOUS
 62
     7
 10
35.817772036893111
 20
51.059608019552137
 30
0.0
 40
0.30000001
 50
180.0
 51
270.00001000000088
  0
ARC
  5
5A8
  8
0
  6
CONTINUOUS
 62
     7
 10
36.454170536892697
 20
50.459632019552167
 30
0.0
 40
0.30000001
 50
45.00000599999985
 51
90.000010000001026
  0
LINE
  5
5A9
  8
0
  6
CONTINUOUS
 62
     7
 10
35.817772036893111
 20
50.759559019552071
 30
0.0
 11
36.454170536892697
 21
50.759559019552071
 31
0.0
  0
LINE
  5
5AA
  8
0
  6
CONTINUOUS
 62
     7
 10
35.517769036892922
 20
48.759559019552128
 30
0.0
 11
36.457115536892871
 21
48.759559019552142
 31
0.0
  0
LINE
  5
5AB
  8
0
  6
CONTINUOUS
 62
     7
 10
35.517769036892929
 20
51.059608019552137
 30
0.0
 11
35.517769036892929
 21
54.459632019552153
 31
0.0
  0
ARC
  5
5AC
  8
0
  6
CONTINUOUS
 62
     7
 10
33.817772036892769
 20
59.459555969552099
 30
0.0
 40
0.30000001
 50
90.0
 51
180.0
  0
LINE
  5
5AD
  8
0
  6
CONTINUOUS
 62
     7
 10
33.817772036892769
 20
59.759559019552093
 30
0.0
 11
35.517769036892943
 21
59.759559019552093
 31
0.0
  0
LINE
  5
5AE
  8
0
  6
CONTINUOUS
 62
     7
 10
35.517769036892929
 20
56.7595590195521
 30
0.0
 11
36.457115536892871
 21
56.7595590195521
 31
0.0
  0
LINE
  5
5AF
  8
0
  6
CONTINUOUS
 62
     7
 10
36.457115536892871
 20
56.759588019552119
 30
0.0
 11
39.517769036893078
 21
59.820242019550889
 31
0.0
  0
LINE
  5
5B0
  8
0
  6
CONTINUOUS
 62
     7
 10
35.517769036892929
 20
56.7595590195521
 30
0.0
 11
35.517769036892943
 21
59.759559019552093
 31
0.0
  0
LINE
  5
5B1
  8
0
  6
CONTINUOUS
 62
     7
 10
36.457115036892937
 20
68.759601019552065
 30
0.0
 11
39.517769036893071
 21
65.698947069551892
 31
0.0
  0
LINE
  5
5B2
  8
0
  6
CONTINUOUS
 62
     7
 10
35.517769036892943
 20
68.7595590195521
 30
0.0
 11
35.517769036892943
 21
65.7595590195521
 31
0.0
  0
LINE
  5
5B3
  8
0
  6
CONTINUOUS
 62
     7
 10
36.666304036893202
 20
70.671732519552094
 30
0.0
 11
40.578477086888171
 21
66.7595590195521
 31
0.0
  0
LINE
  5
5B8
  8
0
  6
CONTINUOUS
 62
     7
 10
33.81776903689304
 20
65.7595590195521
 30
0.0
 11
35.517769036892943
 21
65.7595590195521
 31
0.0
  0
ARC
  5
5B9
  8
0
  6
CONTINUOUS
 62
     7
 10
35.817772036893118
 20
71.059608019552144
 30
0.0
 40
0.30000001
 50
180.0
 51
269.999989999999
  0
ARC
  5
5BA
  8
0
  6
CONTINUOUS
 62
     7
 10
36.454170536892697
 20
70.459632019552188
 30
0.0
 40
0.30000001
 50
45.00000599999985
 51
90.000010000001026
  0
LINE
  5
5BB
  8
0
  6
CONTINUOUS
 62
     7
 10
35.817772036893118
 20
70.7595590195521
 30
0.0
 11
36.454170536892697
 21
70.7595590195521
 31
0.0
  0
LINE
  5
5BC
  8
0
  6
CONTINUOUS
 62
     7
 10
35.517769036892943
 20
68.7595590195521
 30
0.0
 11
36.457115536892879
 21
68.7595590195521
 31
0.0
  0
LINE
  5
5BE
  8
0
  6
CONTINUOUS
 62
     7
 10
35.517772026893041
 20
71.059608019552144
 30
0.0
 11
35.517772026893041
 21
72.7595590195521
 31
0.0
  0
LINE
  5
5BF
  8
0
  6
CONTINUOUS
 62
     7
 10
51.51776604689271
 20
71.059608019552144
 30
0.0
 11
51.51776604689271
 21
72.7595590195521
 31
0.0
  0
LINE
  5
5C4
  8
CENTER
  6
CENTER
 62
     1
 10
31.01776903689295
 20
102.7595590195522
 30
0.0
 11
56.017769036892979
 21
102.7595590195522
 31
0.0
  0
LINE
  5
5C5
  8
CENTER
  6
CENTER
 62
     1
 10
31.01776903689295
 20
82.759559019552029
 30
0.0
 11
56.017769036892979
 21
82.759559019552029
 31
0.0
  0
LINE
  5
5C6
  8
0
  6
CONTINUOUS
 62
     7
 10
35.517769036892943
 20
108.7595590195521
 30
0.0
 11
35.517769036892943
 21
105.7595590195523
 31
0.0
  0
LINE
  5
5C7
  8
0
  6
CONTINUOUS
 62
     7
 10
36.457117536892873
 20
108.7595495195521
 30
0.0
 11
39.517769036893071
 21
105.6988966195559
 31
0.0
  0
LINE
  5
5C8
  8
0
  6
CONTINUOUS
 62
     7
 10
33.51776903689295
 20
111.7595590195522
 30
0.0
 11
33.51776903689295
 21
106.0595620195521
 31
0.0
  0
LINE
  5
5CB
  8
0
  6
CONTINUOUS
 62
     7
 10
51.517769036893043
 20
108.7595590195521
 30
0.0
 11
51.517769036893043
 21
105.7595590195523
 31
0.0
  0
LINE
  5
5CC
  8
0
  6
CONTINUOUS
 62
     7
 10
50.578420536892999
 20
108.7595495195521
 30
0.0
 11
47.517769036893029
 21
105.6988966195559
 31
0.0
  0
LINE
  5
5CD
  8
0
  6
CONTINUOUS
 62
     7
 10
53.517769036892979
 20
111.7595590195522
 30
0.0
 11
53.517769036892979
 21
106.0595620195521
 31
0.0
  0
LINE
  5
5D0
  8
0
  6
CONTINUOUS
 62
     7
 10
46.517769036892858
 20
112.35955901955209
 30
0.0
 11
46.517769036892872
 21
110.7595590195522
 31
0.0
  0
LINE
  5
5D1
  8
0
  6
CONTINUOUS
 62
     7
 10
51.517769036893043
 20
108.7595590195521
 30
0.0
 11
50.57842253689288
 21
108.7595590195521
 31
0.0
  0
LINE
  5
5D2
  8
0
  6
CONTINUOUS
 62
     7
 10
49.517769036892879
 20
110.7595590195522
 30
0.0
 11
49.517769036892879
 21
109.8202280195522
 31
0.0
  0
LINE
  5
5D4
  8
0
  6
CONTINUOUS
 62
     7
 10
49.517769036892879
 20
110.7595590195522
 30
0.0
 11
46.517769036892872
 21
110.7595590195522
 31
0.0
  0
LINE
  5
5D5
  8
0
  6
CONTINUOUS
 62
     7
 10
53.317769036893111
 20
112.35955901955199
 30
0.0
 11
46.517769036892858
 21
112.35955901955209
 31
0.0
  0
LINE
  5
5D6
  8
0
  6
CONTINUOUS
 62
     7
 10
49.517760036892959
 20
109.82020901955219
 30
0.0
 11
46.457109836893252
 21
106.759559019552
 31
0.0
  0
LINE
  5
5D7
  8
0
  6
CONTINUOUS
 62
     7
 10
37.517778036892807
 20
109.82020901955219
 30
0.0
 11
40.578428236892087
 21
106.7595590195524
 31
0.0
  0
LINE
  5
5D8
  8
0
  6
CONTINUOUS
 62
     7
 10
35.517769036892943
 20
108.7595590195521
 30
0.0
 11
36.457115536892879
 21
108.7595590195521
 31
0.0
  0
LINE
  5
5D9
  8
0
  6
CONTINUOUS
 62
     7
 10
37.517769036892943
 20
110.7595590195522
 30
0.0
 11
40.517769036893043
 21
110.7595590195522
 31
0.0
  0
LINE
  5
5DA
  8
0
  6
CONTINUOUS
 62
     7
 10
33.717769036892861
 20
112.35955901955209
 30
0.0
 11
40.517769036893043
 21
112.35955901955199
 31
0.0
  0
LINE
  5
5DC
  8
0
  6
CONTINUOUS
 62
     7
 10
40.517769036893043
 20
112.35955901955199
 30
0.0
 11
40.517769036893043
 21
110.7595590195522
 31
0.0
  0
LINE
  5
5DD
  8
0
  6
CONTINUOUS
 62
     7
 10
37.517769036892943
 20
110.7595590195522
 30
0.0
 11
37.517769036892943
 21
109.8202280195522
 31
0.0
  0
LINE
  5
5DF
  8
0
  6
CONTINUOUS
 62
     7
 10
35.517769036892943
 20
94.459510019552113
 30
0.0
 11
35.517769036892943
 21
91.059486019552082
 31
0.0
  0
LINE
  5
5E0
  8
0
  6
CONTINUOUS
 62
     7
 10
33.51776903689295
 20
99.459556019551982
 30
0.0
 11
33.51776903689295
 21
86.059562069552044
 31
0.0
  0
LINE
  5
5E1
  8
0
  6
CONTINUOUS
 62
     7
 10
51.517769036893043
 20
94.459510019552113
 30
0.0
 11
51.517769036893043
 21
91.059486019552082
 31
0.0
  0
LINE
  5
5E2
  8
0
  6
CONTINUOUS
 62
     7
 10
53.517769036892979
 20
99.459556019551982
 30
0.0
 11
53.517769036892979
 21
86.059562069552044
 31
0.0
  0
LINE
  5
5E3
  8
0
  6
CONTINUOUS
 62
     7
 10
40.57845573688914
 20
98.759559019552114
 30
0.0
 11
46.45708233689664
 21
98.759559019552114
 31
0.0
  0
ARC
  5
5E8
  8
0
  6
CONTINUOUS
 62
     7
 10
53.217766036892968
 20
106.0595620195521
 30
0.0
 40
0.30000001
 50
270.0
 51
0.0
  0
LINE
  5
5E9
  8
0
  6
CONTINUOUS
 62
     7
 10
53.217766036892968
 20
105.7595590195523
 30
0.0
 11
51.517769036893043
 21
105.7595590195523
 31
0.0
  0
LINE
  5
5EA
  8
0
  6
CONTINUOUS
 62
     7
 10
51.217766036892762
 20
94.759559019552114
 30
0.0
 11
50.581367536893062
 21
94.759559019552114
 31
0.0
  0
ARC
  5
5EB
  8
0
  6
CONTINUOUS
 62
     7
 10
50.581367536893062
 20
95.059486019552111
 30
0.0
 40
0.30000001
 50
225.0000059999997
 51
270.00001000000088
  0
ARC
  5
5EC
  8
0
  6
CONTINUOUS
 62
     7
 10
51.217766036892762
 20
94.459510019552113
 30
0.0
 40
0.30000001
 50
0.0
 51
90.000010000001026
  0
LINE
  5
5ED
  8
0
  6
CONTINUOUS
 62
     7
 10
51.517769036893043
 20
96.759559019552114
 30
0.0
 11
50.57842253689288
 21
96.759559019552114
 31
0.0
  0
ARC
  5
5EE
  8
0
  6
CONTINUOUS
 62
     7
 10
53.217766036892968
 20
99.459556019551982
 30
0.0
 40
0.30000001
 50
0.0
 51
89.999989999999016
  0
LINE
  5
5EF
  8
0
  6
CONTINUOUS
 62
     7
 10
53.217766036892968
 20
99.759559019552086
 30
0.0
 11
51.517769036893043
 21
99.759559019552086
 31
0.0
  0
LINE
  5
5F0
  8
0
  6
CONTINUOUS
 62
     7
 10
51.517769036893043
 20
96.759559019552114
 30
0.0
 11
51.517769036893043
 21
99.759559019552086
 31
0.0
  0
LINE
  5
5F1
  8
0
  6
CONTINUOUS
 62
     7
 10
50.369234036893062
 20
94.847406519552109
 30
0.0
 11
46.45708233689664
 21
98.759559019552114
 31
0.0
  0
LINE
  5
5F2
  8
0
  6
CONTINUOUS
 62
     7
 10
50.57842253689288
 20
96.759538019552139
 30
0.0
 11
47.517769036893057
 21
99.820192419549613
 31
0.0
  0
LINE
  5
5F6
  8
0
  6
CONTINUOUS
 62
     7
 10
33.817772036892769
 20
105.7595590195523
 30
0.0
 11
35.517769036892943
 21
105.7595590195523
 31
0.0
  0
ARC
  5
5F7
  8
0
  6
CONTINUOUS
 62
     7
 10
33.817772036892769
 20
106.0595620195521
 30
0.0
 40
0.30000001
 50
180.0
 51
270.0
  0
LINE
  5
5F9
  8
0
  6
CONTINUOUS
 62
     7
 10
35.517769036892943
 20
96.759559019552114
 30
0.0
 11
36.457115536892879
 21
96.759559019552114
 31
0.0
  0
LINE
  5
5FA
  8
0
  6
CONTINUOUS
 62
     7
 10
35.817772036893118
 20
94.759559019552114
 30
0.0
 11
36.454170536892697
 21
94.759559019552114
 31
0.0
  0
ARC
  5
5FB
  8
0
  6
CONTINUOUS
 62
     7
 10
36.454170536892697
 20
95.059486019552111
 30
0.0
 40
0.30000001
 50
269.999989999999
 51
314.9999940000003
  0
ARC
  5
5FC
  8
0
  6
CONTINUOUS
 62
     7
 10
35.817772036893118
 20
94.459510019552113
 30
0.0
 40
0.30000001
 50
89.999989999999016
 51
180.0
  0
LINE
  5
5FD
  8
0
  6
CONTINUOUS
 62
     7
 10
33.817772036892769
 20
99.759559019552086
 30
0.0
 11
35.517769036892943
 21
99.759559019552086
 31
0.0
  0
ARC
  5
5FE
  8
0
  6
CONTINUOUS
 62
     7
 10
33.817772036892769
 20
99.459556019551982
 30
0.0
 40
0.30000001
 50
90.000010000001026
 51
180.0
  0
LINE
  5
5FF
  8
0
  6
CONTINUOUS
 62
     7
 10
36.457115536892879
 20
96.759538019552139
 30
0.0
 11
39.517769036893071
 21
99.820192419549613
 31
0.0
  0
LINE
  5
600
  8
0
  6
CONTINUOUS
 62
     7
 10
36.666304036893202
 20
94.847406519552109
 30
0.0
 11
40.57845573688914
 21
98.759559019552114
 31
0.0
  0
LINE
  5
601
  8
0
  6
CONTINUOUS
 62
     7
 10
35.517769036892943
 20
96.759559019552114
 30
0.0
 11
35.517769036892943
 21
99.759559019552086
 31
0.0
  0
LINE
  5
602
  8
0
  6
CONTINUOUS
 62
     7
 10
40.578406486893449
 20
86.759559019552114
 30
0.0
 11
46.457131586892487
 21
86.759559019552114
 31
0.0
  0
LINE
  5
603
  8
0
  6
CONTINUOUS
 62
     7
 10
51.517769036893043
 20
88.7595590195521
 30
0.0
 11
51.517769036893043
 21
85.759559019552043
 31
0.0
  0
LINE
  5
604
  8
0
  6
CONTINUOUS
 62
     7
 10
50.369234036893062
 20
90.671661519552103
 30
0.0
 11
46.457131586892487
 21
86.759559019552114
 31
0.0
  0
LINE
  5
605
  8
0
  6
CONTINUOUS
 62
     7
 10
50.57842253689288
 20
88.759530019552187
 30
0.0
 11
47.517769036893043
 21
85.698876019553566
 31
0.0
  0
LINE
  5
606
  8
0
  6
CONTINUOUS
 62
     7
 10
51.517769036893043
 20
88.7595590195521
 30
0.0
 11
50.57842253689288
 21
88.7595590195521
 31
0.0
  0
LINE
  5
607
  8
0
  6
CONTINUOUS
 62
     7
 10
51.217766036892762
 20
90.759559019552114
 30
0.0
 11
50.581367536893062
 21
90.759559019552114
 31
0.0
  0
ARC
  5
608
  8
0
  6
CONTINUOUS
 62
     7
 10
50.581367536893062
 20
90.459510019552113
 30
0.0
 40
0.30000001
 50
89.999989999999016
 51
135.0
  0
ARC
  5
609
  8
0
  6
CONTINUOUS
 62
     7
 10
51.217766036892762
 20
91.059486019552082
 30
0.0
 40
0.30000001
 50
269.9999993167537
 51
0.0000100000009873
  0
ARC
  5
60C
  8
0
  6
CONTINUOUS
 62
     7
 10
53.217766036892968
 20
86.059562069552044
 30
0.0
 40
0.30000001
 50
270.0
 51
0.0
  0
LINE
  5
60D
  8
0
  6
CONTINUOUS
 62
     7
 10
53.217766036892968
 20
85.759559019552043
 30
0.0
 11
51.517769036893043
 21
85.759559019552043
 31
0.0
  0
LINE
  5
60F
  8
0
  6
CONTINUOUS
 62
     7
 10
35.517769036892943
 20
88.7595590195521
 30
0.0
 11
35.517769036892943
 21
85.759559019552043
 31
0.0
  0
LINE
  5
610
  8
0
  6
CONTINUOUS
 62
     7
 10
36.457115536892879
 20
88.759530019552187
 30
0.0
 11
39.517769036893071
 21
85.698876019553254
 31
0.0
  0
LINE
  5
611
  8
0
  6
CONTINUOUS
 62
     7
 10
36.666304036893202
 20
90.671661519552103
 30
0.0
 11
40.578406486893449
 21
86.759559019552114
 31
0.0
  0
LINE
  5
612
  8
0
  6
CONTINUOUS
 62
     7
 10
35.517769036892943
 20
88.7595590195521
 30
0.0
 11
36.457115536892879
 21
88.7595590195521
 31
0.0
  0
LINE
  5
613
  8
0
  6
CONTINUOUS
 62
     7
 10
35.817772036893118
 20
90.759559019552114
 30
0.0
 11
36.454170536892697
 21
90.759559019552114
 31
0.0
  0
ARC
  5
614
  8
0
  6
CONTINUOUS
 62
     7
 10
36.454170536892697
 20
90.459510019552113
 30
0.0
 40
0.30000001
 50
45.0
 51
90.000010000001026
  0
ARC
  5
615
  8
0
  6
CONTINUOUS
 62
     7
 10
35.817772036893118
 20
91.059486019552082
 30
0.0
 40
0.30000001
 50
179.999989999999
 51
270.00000068324601
  0
LINE
  5
618
  8
0
  6
CONTINUOUS
 62
     7
 10
33.817772036892769
 20
85.759559019552043
 30
0.0
 11
35.517769036892943
 21
85.759559019552043
 31
0.0
  0
ARC
  5
619
  8
0
  6
CONTINUOUS
 62
     7
 10
33.817772036892769
 20
86.059562069552044
 30
0.0
 40
0.30000001
 50
180.0
 51
270.0
  0
LINE
  5
61B
  8
0
  6
CONTINUOUS
 62
     7
 10
40.578477086888171
 20
78.7595590195521
 30
0.0
 11
46.457060986897602
 21
78.7595590195521
 31
0.0
  0
LINE
  5
61D
  8
0
  6
CONTINUOUS
 62
     7
 10
50.369234036893062
 20
74.847385519552091
 30
0.0
 11
46.457060986897602
 21
78.7595590195521
 31
0.0
  0
LINE
  5
61E
  8
0
  6
CONTINUOUS
 62
     7
 10
51.517769036893043
 20
76.7595590195521
 30
0.0
 11
50.57842253689288
 21
76.7595590195521
 31
0.0
  0
LINE
  5
620
  8
0
  6
CONTINUOUS
 62
     7
 10
53.217769036893039
 20
79.759559019552043
 30
0.0
 11
51.517769036893043
 21
79.759559019552043
 31
0.0
  0
LINE
  5
621
  8
0
  6
CONTINUOUS
 62
     7
 10
51.517769036893043
 20
76.7595590195521
 30
0.0
 11
51.517769036893043
 21
79.759559019552043
 31
0.0
  0
LINE
  5
622
  8
0
  6
CONTINUOUS
 62
     7
 10
50.578423036893042
 20
76.75951701955232
 30
0.0
 11
47.517769036893029
 21
79.82017096955191
 31
0.0
  0
LINE
  5
623
  8
0
  6
CONTINUOUS
 62
     7
 10
51.51776604689271
 20
74.459510019552127
 30
0.0
 11
51.51776604689271
 21
72.7595590195521
 31
0.0
  0
LINE
  5
624
  8
0
  6
CONTINUOUS
 62
     7
 10
51.217766036892762
 20
74.759559019552043
 30
0.0
 11
50.581367536893062
 21
74.759559019552043
 31
0.0
  0
ARC
  5
625
  8
0
  6
CONTINUOUS
 62
     7
 10
50.581367536893062
 20
75.059486019551983
 30
0.0
 40
0.30000001
 50
225.0000059999997
 51
270.00001000000088
  0
ARC
  5
626
  8
0
  6
CONTINUOUS
 62
     7
 10
51.217766036892762
 20
74.459510019552127
 30
0.0
 40
0.30000001
 50
0.0
 51
89.999989999999016
  0
LINE
  5
628
  8
0
  6
CONTINUOUS
 62
     7
 10
36.666304036893202
 20
74.847385519552091
 30
0.0
 11
40.578477086888171
 21
78.7595590195521
 31
0.0
  0
LINE
  5
629
  8
0
  6
CONTINUOUS
 62
     7
 10
35.517769036892943
 20
76.7595590195521
 30
0.0
 11
36.457115536892879
 21
76.7595590195521
 31
0.0
  0
LINE
  5
62A
  8
0
  6
CONTINUOUS
 62
     7
 10
33.81776903689304
 20
79.759559019552043
 30
0.0
 11
35.517769036892943
 21
79.759559019552043
 31
0.0
  0
LINE
  5
62C
  8
0
  6
CONTINUOUS
 62
     7
 10
35.517769036892943
 20
76.7595590195521
 30
0.0
 11
35.517769036892943
 21
79.759559019552043
 31
0.0
  0
LINE
  5
62D
  8
0
  6
CONTINUOUS
 62
     7
 10
36.457115036892937
 20
76.75951701955232
 30
0.0
 11
39.517769036893071
 21
79.820170969552152
 31
0.0
  0
LINE
  5
62E
  8
0
  6
CONTINUOUS
 62
     7
 10
35.517772026893041
 20
74.459510019552127
 30
0.0
 11
35.517772026893041
 21
72.7595590195521
 31
0.0
  0
LINE
  5
62F
  8
0
  6
CONTINUOUS
 62
     7
 10
35.817772036893118
 20
74.759559019552043
 30
0.0
 11
36.454170536892697
 21
74.759559019552043
 31
0.0
  0
ARC
  5
630
  8
0
  6
CONTINUOUS
 62
     7
 10
36.454170536892697
 20
75.059486019551983
 30
0.0
 40
0.30000001
 50
269.999989999999
 51
314.9999940000003
  0
ARC
  5
631
  8
0
  6
CONTINUOUS
 62
     7
 10
35.817772036893118
 20
74.459510019552127
 30
0.0
 40
0.30000001
 50
90.000010000001026
 51
180.0
  0
CIRCLE
  5
632
  8
0
  6
CONTINUOUS
 62
     7
 10
43.517769036893043
 20
42.75955901955215
 30
0.0
 40
2.1000000000000001
  0
CIRCLE
  5
633
  8
0
  6
CONTINUOUS
 62
     7
 10
43.517769036893043
 20
62.7595590195521
 30
0.0
 40
2.1000000000000001
  0
CIRCLE
  5
634
  8
0
  6
CONTINUOUS
 62
     7
 10
43.517769036893043
 20
82.759559019552029
 30
0.0
 40
2.1000000000000001
  0
CIRCLE
  5
635
  8
0
  6
CONTINUOUS
 62
     7
 10
43.517769036893043
 20
102.7595590195522
 30
0.0
 40
2.1000000000000001
  0
LINE
  5
A54
  8
0
  6
CONTINUOUS
 62
     7
 10
39.81776903689304
 20
42.75955901955215
 30
0.0
 11
39.51776903689305
 21
42.239943777281447
 31
0.0
  0
LINE
  5
A55
  8
0
  6
CONTINUOUS
 62
     7
 10
39.81776903689304
 20
42.75955901955215
 30
0.0
 11
39.51776903689305
 21
43.279174261822789
 31
0.0
  0
LINE
  5
A57
  8
0
  6
CONTINUOUS
 62
     7
 10
43.517769036893043
 20
39.059559019552147
 30
0.0
 11
42.998153794622318
 21
38.75955901955215
 31
0.0
  0
LINE
  5
A58
  8
0
  6
CONTINUOUS
 62
     7
 10
43.517769036893043
 20
39.059559019552147
 30
0.0
 11
44.037384279163653
 21
38.759559019552192
 31
0.0
  0
LINE
  5
A59
  8
0
  6
CONTINUOUS
 62
     7
 10
47.217769036893039
 20
42.75955901955215
 30
0.0
 11
47.517769036893029
 21
42.239943777281511
 31
0.0
  0
LINE
  5
A5A
  8
0
  6
CONTINUOUS
 62
     7
 10
47.217769036893039
 20
42.75955901955215
 30
0.0
 11
47.517769036893043
 21
43.279174261822767
 31
0.0
  0
LINE
  5
A86
  8
0
  6
CONTINUOUS
 62
     7
 10
39.51776903689305
 20
43.279174261822789
 30
0.0
 11
39.51776903689305
 21
45.69892561955465
 31
0.0
  0
LINE
  5
A89
  8
0
  6
CONTINUOUS
 62
     7
 10
44.037384279163653
 20
38.759559019552192
 30
0.0
 11
46.457109836893153
 21
38.759559019552327
 31
0.0
  0
LINE
  5
A8A
  8
0
  6
CONTINUOUS
 62
     7
 10
47.517769036893043
 20
43.279174261822767
 30
0.0
 11
47.517769036893043
 21
45.698925619554643
 31
0.0
  0
LINE
  5
A8B
  8
0
  6
CONTINUOUS
 62
     7
 10
47.517769036893057
 20
59.82024201955057
 30
0.0
 11
47.517769036893043
 21
62.239943777281503
 31
0.0
  0
LINE
  5
A8C
  8
0
  6
CONTINUOUS
 62
     7
 10
47.517769036893043
 20
63.279174261822789
 30
0.0
 11
47.517769036893043
 21
65.698947069552119
 31
0.0
  0
LINE
  5
A8F
  8
0
  6
CONTINUOUS
 62
     7
 10
39.517769036893078
 20
59.820242019550889
 30
0.0
 11
39.517769036893071
 21
62.239943777281503
 31
0.0
  0
LINE
  5
A90
  8
0
  6
CONTINUOUS
 62
     7
 10
39.517769036893071
 20
63.279174261822789
 30
0.0
 11
39.517769036893071
 21
65.698947069551892
 31
0.0
  0
LINE
  5
A91
  8
0
  6
CONTINUOUS
 62
     7
 10
39.817769036893047
 20
62.759559019552142
 30
0.0
 11
39.517769036893071
 21
62.239943777281503
 31
0.0
  0
LINE
  5
A92
  8
0
  6
CONTINUOUS
 62
     7
 10
39.817769036893047
 20
62.759559019552142
 30
0.0
 11
39.517769036893071
 21
63.279174261822789
 31
0.0
  0
LINE
  5
A95
  8
0
  6
CONTINUOUS
 62
     7
 10
47.217769036893039
 20
62.759559019552142
 30
0.0
 11
47.517769036893029
 21
62.239943777281503
 31
0.0
  0
LINE
  5
A96
  8
0
  6
CONTINUOUS
 62
     7
 10
47.217769036893039
 20
62.759559019552142
 30
0.0
 11
47.517769036893043
 21
63.279174261822789
 31
0.0
  0
LINE
  5
A97
  8
0
  6
CONTINUOUS
 62
     7
 10
47.517769036893029
 20
79.82017096955191
 30
0.0
 11
47.517769036893043
 21
82.239943777281454
 31
0.0
  0
LINE
  5
A98
  8
0
  6
CONTINUOUS
 62
     7
 10
47.517769036893043
 20
83.279174261822718
 30
0.0
 11
47.517769036893043
 21
85.698876019553566
 31
0.0
  0
LINE
  5
A9B
  8
0
  6
CONTINUOUS
 62
     7
 10
39.517769036893071
 20
79.820170969552152
 30
0.0
 11
39.517769036893071
 21
82.239943777281454
 31
0.0
  0
LINE
  5
A9C
  8
0
  6
CONTINUOUS
 62
     7
 10
39.517769036893071
 20
83.279174261822718
 30
0.0
 11
39.517769036893071
 21
85.698876019553254
 31
0.0
  0
LINE
  5
A9D
  8
0
  6
CONTINUOUS
 62
     7
 10
39.817769036893047
 20
82.759559019552142
 30
0.0
 11
39.517769036893071
 21
82.239943777281454
 31
0.0
  0
LINE
  5
A9E
  8
0
  6
CONTINUOUS
 62
     7
 10
39.817769036893047
 20
82.759559019552142
 30
0.0
 11
39.517769036893071
 21
83.279174261822718
 31
0.0
  0
LINE
  5
AA1
  8
0
  6
CONTINUOUS
 62
     7
 10
47.217769036893039
 20
82.759559019552142
 30
0.0
 11
47.517769036893029
 21
82.239943777281454
 31
0.0
  0
LINE
  5
AA2
  8
0
  6
CONTINUOUS
 62
     7
 10
47.217769036893039
 20
82.759559019552142
 30
0.0
 11
47.517769036893043
 21
83.279174261822718
 31
0.0
  0
LINE
  5
AA3
  8
0
  6
CONTINUOUS
 62
     7
 10
47.517769036893057
 20
99.820192419549613
 30
0.0
 11
47.517769036893043
 21
102.2399437772814
 31
0.0
  0
LINE
  5
AA4
  8
0
  6
CONTINUOUS
 62
     7
 10
47.517769036893043
 20
103.2791742618228
 30
0.0
 11
47.517769036893029
 21
105.6988966195559
 31
0.0
  0
LINE
  5
AA7
  8
0
  6
CONTINUOUS
 62
     7
 10
39.517769036893071
 20
99.820192419549613
 30
0.0
 11
39.517769036893071
 21
102.2399437772814
 31
0.0
  0
LINE
  5
AA8
  8
0
  6
CONTINUOUS
 62
     7
 10
39.517769036893071
 20
103.2791742618228
 30
0.0
 11
39.517769036893071
 21
105.6988966195559
 31
0.0
  0
LINE
  5
AA9
  8
0
  6
CONTINUOUS
 62
     7
 10
39.817769036893047
 20
102.7595590195521
 30
0.0
 11
39.517769036893071
 21
102.2399437772814
 31
0.0
  0
LINE
  5
AAA
  8
0
  6
CONTINUOUS
 62
     7
 10
39.817769036893047
 20
102.7595590195521
 30
0.0
 11
39.517769036893071
 21
103.2791742618228
 31
0.0
  0
LINE
  5
AAD
  8
0
  6
CONTINUOUS
 62
     7
 10
47.217769036893039
 20
102.7595590195521
 30
0.0
 11
47.517769036893029
 21
102.2399437772814
 31
0.0
  0
LINE
  5
AAE
  8
0
  6
CONTINUOUS
 62
     7
 10
47.217769036893039
 20
102.7595590195521
 30
0.0
 11
47.517769036893043
 21
103.2791742618228
 31
0.0
  0
LINE
  5
AAF
  8
0
  6
CONTINUOUS
 62
     7
 10
40.578428236892087
 20
106.7595590195524
 30
0.0
 11
42.998153794622318
 21
106.7595590195523
 31
0.0
  0
LINE
  5
AB0
  8
0
  6
CONTINUOUS
 62
     7
 10
44.037384279163653
 20
106.7595590195522
 30
0.0
 11
46.457109836893252
 21
106.759559019552
 31
0.0
  0
LINE
  5
AB1
  8
0
  6
CONTINUOUS
 62
     7
 10
43.517769036893043
 20
106.4595590195522
 30
0.0
 11
42.998153794622318
 21
106.7595590195523
 31
0.0
  0
LINE
  5
AB2
  8
0
  6
CONTINUOUS
 62
     7
 10
43.517769036893043
 20
106.4595590195522
 30
0.0
 11
44.037384279163653
 21
106.7595590195522
 31
0.0
  0
LINE
  5
AB9
  8
CENTER
  6
CENTER
 62
     1
 10
138.6704053257935
 20
42.759559019552057
 30
0.0
 11
83.670405325793453
 21
42.759559019552057
 31
0.0
  0
LINE
  5
DEA
  8
0
  6
CONTINUOUS
 62
     7
 10
136.17040532579361
 20
43.279174261822767
 30
0.0
 11
86.170405325793567
 21
43.279174261822767
 31
0.0
  0
LINE
  5
DEB
  8
0
  6
CONTINUOUS
 62
     7
 10
136.17040532579361
 20
42.239943777281511
 30
0.0
 11
86.170405325793567
 21
42.239943777281511
 31
0.0
  0
LINE
  5
DEC
  8
0
  6
CONTINUOUS
 62
     7
 10
86.170405325793567
 20
59.759559019552228
 30
0.0
 11
136.17040532579361
 21
59.759559019552228
 31
0.0
  0
LINE
  5
DED
  8
0
  6
CONTINUOUS
 62
     7
 10
86.170405325793567
 20
65.759559019552142
 30
0.0
 11
136.17040532579361
 21
65.759559019552142
 31
0.0
  0
LINE
  5
DEE
  8
CENTER
  6
CENTER
 62
     1
 10
138.6704053257935
 20
62.759559019552057
 30
0.0
 11
83.670405325793453
 21
62.759559019552057
 31
0.0
  0
LINE
  5
DEF
  8
0
  6
CONTINUOUS
 62
     7
 10
136.17040532579361
 20
63.279174261822781
 30
0.0
 11
86.170405325793567
 21
63.279174261822781
 31
0.0
  0
LINE
  5
DF0
  8
0
  6
CONTINUOUS
 62
     7
 10
136.17040532579361
 20
62.239943777281503
 30
0.0
 11
86.170405325793567
 21
62.239943777281503
 31
0.0
  0
LINE
  5
DF1
  8
0
  6
CONTINUOUS
 62
     7
 10
86.170405325793567
 20
79.759559019552228
 30
0.0
 11
136.17040532579361
 21
79.759559019552228
 31
0.0
  0
LINE
  5
DF2
  8
0
  6
CONTINUOUS
 62
     7
 10
86.170405325793567
 20
85.759559019552128
 30
0.0
 11
136.17040532579361
 21
85.759559019552128
 31
0.0
  0
LINE
  5
DF3
  8
CENTER
  6
CENTER
 62
     1
 10
138.6704053257935
 20
82.759559019552029
 30
0.0
 11
83.670405325793453
 21
82.759559019552029
 31
0.0
  0
LINE
  5
DF4
  8
0
  6
CONTINUOUS
 62
     7
 10
136.17040532579361
 20
83.27917426182276
 30
0.0
 11
86.170405325793567
 21
83.27917426182276
 31
0.0
  0
LINE
  5
DF5
  8
0
  6
CONTINUOUS
 62
     7
 10
136.17040532579361
 20
82.239943777281454
 30
0.0
 11
86.170405325793567
 21
82.239943777281454
 31
0.0
  0
LINE
  5
DF6
  8
0
  6
CONTINUOUS
 62
     7
 10
86.170405325793567
 20
99.759559019552242
 30
0.0
 11
136.17040532579361
 21
99.759559019552242
 31
0.0
  0
LINE
  5
DF7
  8
0
  6
CONTINUOUS
 62
     7
 10
86.170405325793567
 20
105.7595590195521
 30
0.0
 11
136.17040532579361
 21
105.7595590195521
 31
0.0
  0
LINE
  5
DF8
  8
CENTER
  6
CENTER
 62
     1
 10
138.6704053257935
 20
102.759559019552
 30
0.0
 11
83.670405325793453
 21
102.759559019552
 31
0.0
  0
LINE
  5
DF9
  8
0
  6
CONTINUOUS
 62
     7
 10
136.17040532579361
 20
103.2791742618228
 30
0.0
 11
86.170405325793567
 21
103.2791742618228
 31
0.0
  0
LINE
  5
DFA
  8
0
  6
CONTINUOUS
 62
     7
 10
136.17040532579361
 20
102.2399437772815
 30
0.0
 11
86.170405325793567
 21
102.2399437772815
 31
0.0
  0
ARC
  5
EB6
  8
0
  6
CONTINUOUS
 62
     7
 10
34.51776903689295
 20
111.7595590195522
 30
0.0
 40
1.0
 50
143.1301023541663
 51
180.0000000000008
  0
ARC
  5
EB7
  8
0
  6
CONTINUOUS
 62
     7
 10
52.517769036892993
 20
111.7595590195522
 30
0.0
 40
1.0
 50
359.9999999999992
 51
36.869897645832317
  0
ARC
  5
EB9
  8
0
  6
CONTINUOUS
 62
     7
 10
52.517769036892958
 20
33.759559019552157
 30
0.0
 40
1.0
 50
323.13010235414617
 51
359.9999999999996
  0
ARC
  5
EBA
  8
0
  6
CONTINUOUS
 62
     7
 10
34.517769036892922
 20
33.759559019552157
 30
0.0
 40
1.0
 50
180.0000000000004
 51
216.8698976458534
  0
LINE
  5
1162
  8
0
  6
CONTINUOUS
 62
     7
 10
33.51776903689305
 20
79.45955901955206
 30
0.0
 11
33.51776903689305
 21
66.059559019552097
 31
0.0
  0
ARC
  5
1163
  8
0
  6
CONTINUOUS
 62
     7
 10
33.817769036893047
 20
79.45955901955206
 30
0.0
 40
0.3
 50
90.000000000002728
 51
180.0000000000027
  0
ARC
  5
1164
  8
0
  6
CONTINUOUS
 62
     7
 10
33.817769036893047
 20
66.059559019552111
 30
0.0
 40
0.3
 50
180.0000000000027
 51
269.99999999999869
  0
LINE
  5
1218
  8
0
  6
CONTINUOUS
 62
     7
 10
53.517769036893029
 20
79.45955901955206
 30
0.0
 11
53.517769036893029
 21
66.059559019552097
 31
0.0
  0
ARC
  5
121B
  8
0
  6
CONTINUOUS
 62
     7
 10
53.217769036893039
 20
79.45955901955206
 30
0.0
 40
0.3
 50
0.0
 51
90.0
  0
ARC
  5
121C
  8
0
  6
CONTINUOUS
 62
     7
 10
53.217769036893039
 20
66.059559019552097
 30
0.0
 40
0.3
 50
270.0
 51
0.0
  0
LINE
  5
16C3
  8
0
  6
CONTINUOUS
 62
     7
 10
86.170405325793567
 20
112.35955901955199
 30
0.0
 11
136.17040532579361
 21
112.35955901955199
 31
0.0
  0
ENDSEC
  0
EOF
