  0
SECTION
  2
HEADER
  9
$ACADVER
  1
AC1009
  9
$INSBASE
 10
0.0
 20
0.0
 30
0.0
  9
$EXTMIN
 10
0.0000001555740141
 20
-0.0000000866882033
 30
0.0
  9
$EXTMAX
 10
151.66605685819169
 20
45.255639587832931
 30
0.0
  9
$LIMMIN
 10
0.0
 20
0.0
  9
$LIMMAX
 10
297.0
 20
210.0
  9
$ORTHOMODE
 70
     0
  9
$REGENMODE
 70
     1
  9
$FILLMODE
 70
     1
  9
$QTEXTMODE
 70
     0
  9
$MIRRTEXT
 70
     1
  9
$DRAGMODE
 70
     2
  9
$LTSCALE
 40
1.0
  9
$OSMODE
 70
    57
  9
$ATTMODE
 70
     1
  9
$TEXTSIZE
 40
6.4000000000000012
  9
$TRACEWID
 40
0.05
  9
$TEXTSTYLE
  7
STANDARD
  9
$CLAYER
  8
0
  9
$CELTYPE
  6
CONTINUOUS
  9
$CECOLOR
 62
     7
  9
$DIMSCALE
 40
1.0
  9
$DIMASZ
 40
3.0
  9
$DIMEXO
 40
1.0
  9
$DIMDLI
 40
0.0
  9
$DIMRND
 40
0.0
  9
$DIMDLE
 40
0.0
  9
$DIMEXE
 40
1.0
  9
$DIMTP
 40
0.0
  9
$DIMTM
 40
0.0
  9
$DIMTXT
 40
3.2000000000000002
  9
$DIMCEN
 40
0.0
  9
$DIMTSZ
 40
0.0
  9
$DIMTOL
 70
     0
  9
$DIMLIM
 70
     0
  9
$DIMTIH
 70
     0
  9
$DIMTOH
 70
     0
  9
$DIMSE1
 70
     0
  9
$DIMSE2
 70
     0
  9
$DIMTAD
 70
     1
  9
$DIMZIN
 70
     8
  9
$DIMBLK
  1

  9
$DIMASO
 70
     1
  9
$DIMSHO
 70
     1
  9
$DIMPOST
  1

  9
$DIMAPOST
  1

  9
$DIMALT
 70
     0
  9
$DIMALTD
 70
     2
  9
$DIMALTF
 40
0.04
  9
$DIMLFAC
 40
1.0
  9
$DIMTOFL
 70
     1
  9
$DIMTVP
 40
1.0
  9
$DIMTIX
 70
     1
  9
$DIMSOXD
 70
     0
  9
$DIMSAH
 70
     0
  9
$DIMBLK1
  1

  9
$DIMBLK2
  1

  9
$DIMSTYLE
  2
MISUMI
  9
$DIMCLRD
 70
     0
  9
$DIMCLRE
 70
     0
  9
$DIMCLRT
 70
     0
  9
$DIMTFAC
 40
0.6
  9
$DIMGAP
 40
1.0
  9
$LUNITS
 70
     2
  9
$LUPREC
 70
     4
  9
$SKETCHINC
 40
0.1
  9
$FILLETRAD
 40
0.0
  9
$AUNITS
 70
     0
  9
$AUPREC
 70
     0
  9
$MENU
  1
acad
  9
$ELEVATION
 40
0.0
  9
$PELEVATION
 40
0.0
  9
$THICKNESS
 40
0.0
  9
$LIMCHECK
 70
     0
  9
$BLIPMODE
 70
     1
  9
$CHAMFERA
 40
0.5
  9
$CHAMFERB
 40
0.5
  9
$SKPOLY
 70
     0
  9
$TDCREATE
 40
2451464.6006649309
  9
$TDUPDATE
 40
2453776.7024842598
  9
$TDINDWG
 40
0.2213401505
  9
$TDUSRTIMER
 40
0.2213379745
  9
$USRTIMER
 70
     1
  9
$ANGBASE
 50
0.0
  9
$ANGDIR
 70
     0
  9
$PDMODE
 70
     0
  9
$PDSIZE
 40
0.0
  9
$PLINEWID
 40
0.0
  9
$COORDS
 70
     0
  9
$SPLFRAME
 70
     0
  9
$SPLINETYPE
 70
     6
  9
$SPLINESEGS
 70
     8
  9
$ATTDIA
 70
     0
  9
$ATTREQ
 70
     1
  9
$HANDLING
 70
     1
  9
$HANDSEED
  5
2166
  9
$SURFTAB1
 70
     6
  9
$SURFTAB2
 70
     6
  9
$SURFTYPE
 70
     6
  9
$SURFU
 70
     6
  9
$SURFV
 70
     6
  9
$UCSNAME
  2

  9
$UCSORG
 10
0.0
 20
0.0
 30
0.0
  9
$UCSXDIR
 10
1.0
 20
0.0
 30
0.0
  9
$UCSYDIR
 10
0.0
 20
1.0
 30
0.0
  9
$PUCSNAME
  2

  9
$PUCSORG
 10
0.0
 20
0.0
 30
0.0
  9
$PUCSXDIR
 10
1.0
 20
0.0
 30
0.0
  9
$PUCSYDIR
 10
0.0
 20
1.0
 30
0.0
  9
$USERI1
 70
     0
  9
$USERI2
 70
     0
  9
$USERI3
 70
     0
  9
$USERI4
 70
     0
  9
$USERI5
 70
     0
  9
$USERR1
 40
0.0
  9
$USERR2
 40
0.0
  9
$USERR3
 40
0.0
  9
$USERR4
 40
0.0
  9
$USERR5
 40
0.0
  9
$WORLDVIEW
 70
     1
  9
$SHADEDGE
 70
     3
  9
$SHADEDIF
 70
    70
  9
$TILEMODE
 70
     1
  9
$MAXACTVP
 70
    16
  9
$PLIMCHECK
 70
     0
  9
$PEXTMIN
 10
1.0000000000000000E+020
 20
1.0000000000000000E+020
 30
1.0000000000000000E+020
  9
$PEXTMAX
 10
-1.0000000000000000E+020
 20
-1.0000000000000000E+020
 30
-1.0000000000000000E+020
  9
$PLIMMIN
 10
0.0
 20
0.0
  9
$PLIMMAX
 10
12.0
 20
9.0
  9
$UNITMODE
 70
     0
  9
$VISRETAIN
 70
     0
  9
$PLINEGEN
 70
     0
  9
$PSLTSCALE
 70
     1
  0
ENDSEC
  0
SECTION
  2
TABLES
  0
TABLE
  2
VPORT
 70
     2
  0
VPORT
  2
*ACTIVE
 70
     0
 10
0.0
 20
0.0
 11
1.0
 21
1.0
 12
75.78915118302514
 22
25.516160222987711
 13
0.0
 23
0.0
 14
10.0
 24
10.0
 15
10.0
 25
10.0
 16
0.0
 26
0.0
 36
1.0
 17
0.0
 27
0.0
 37
0.0
 40
132.36104890093779
 41
1.5717852684144811
 42
50.0
 43
0.0
 44
0.0
 50
0.0
 51
0.0
 71
     0
 72
   100
 73
     1
 74
     0
 75
     0
 76
     0
 77
     0
 78
     0
  0
ENDTAB
  0
TABLE
  2
LTYPE
 70
     2
  0
LTYPE
  2
CONTINUOUS
 70
     0
  3
Solid line
 72
    65
 73
     0
 40
0.0
  0
LTYPE
  2
CENTER
 70
     0
  3
Center ____ _ ____ _ ____ _ ____ _ ____ _ ____
 72
    65
 73
     4
 40
2.0
 49
1.25
 49
-0.25
 49
0.25
 49
-0.25
  0
ENDTAB
  0
TABLE
  2
LAYER
 70
     2
  0
LAYER
  2
0
 70
     0
 62
     7
  6
CONTINUOUS
  0
LAYER
  2
CENTER
 70
     0
 62
     1
  6
CENTER
  0
ENDTAB
  0
TABLE
  2
STYLE
 70
     1
  0
STYLE
  2
STANDARD
 70
     0
 40
0.0
 41
1.0
 50
0.0
 71
     0
 42
6.4000000000000012
  3
txt
  4

  0
ENDTAB
  0
TABLE
  2
VIEW
 70
     0
  0
ENDTAB
  0
TABLE
  2
UCS
 70
     0
  0
ENDTAB
  0
TABLE
  2
APPID
 70
     2
  0
APPID
  2
ACAD
 70
     0
  0
APPID
  2
ACAD_DSTYLE_DIMTEXT_FILL
 70
     0
  0
ENDTAB
  0
TABLE
  2
DIMSTYLE
 70
     1
  0
DIMSTYLE
  2
MISUMI
 70
     0
  3

  4

  5

  6

  7

 40
1.0
 41
3.0
 42
1.0
 43
0.0
 44
1.0
 45
0.0
 46
0.0
 47
0.0
 48
0.0
140
3.2000000000000002
141
0.0
142
0.0
143
0.04
144
1.0
145
1.0
146
0.6
147
1.0
 71
     0
 72
     0
 73
     0
 74
     0
 75
     0
 76
     0
 77
     1
 78
     8
170
     0
171
     2
172
     1
173
     0
174
     1
175
     0
176
     0
177
     0
178
     0
  0
ENDTAB
  0
ENDSEC
  0
SECTION
  2
BLOCKS
  0
BLOCK
  8
0
  2
$MODEL_SPACE
 70
     0
 10
0.0
 20
0.0
 30
0.0
  3
$MODEL_SPACE
  1

  0
ENDBLK
  5
2104
  8
0
  0
BLOCK
 67
     1
  8
0
  2
$PAPER_SPACE
 70
     0
 10
0.0
 20
0.0
 30
0.0
  3
$PAPER_SPACE
  1

  0
ENDBLK
  5
2100
 67
     1
  8
0
  0
ENDSEC
  0
SECTION
  2
ENTITIES
  0
LINE
  5
569
  8
0
  6
CONTINUOUS
 62
     7
 10
66.16605685466088
 20
36.155630347811723
 30
0.0
 11
68.166056858191752
 21
36.15563034781173
 31
0.0
  0
LINE
  5
56A
  8
0
  6
CONTINUOUS
 62
     7
 10
68.166056858191752
 20
30.155630345731961
 30
0.0
 11
66.1660568626681
 21
30.155630345731961
 31
0.0
  0
LINE
  5
56C
  8
CENTER
  6
CENTER
 62
     1
 10
5.6660694817409833
 20
33.155630349280933
 30
0.0
 11
70.666043767640033
 21
33.155630349280933
 31
0.0
  0
LINE
  5
56D
  8
0
  6
CONTINUOUS
 62
     7
 10
8.1660568617409854
 20
36.155630347830041
 30
0.0
 11
8.1660568617409854
 21
42.155638317814088
 31
0.0
  0
LINE
  5
56E
  8
0
  6
CONTINUOUS
 62
     7
 10
22.166056868191809
 20
36.094973949280053
 30
0.0
 11
26.076491392781801
 21
40.005394654046519
 31
0.0
  0
LINE
  5
56F
  8
0
  6
CONTINUOUS
 62
     7
 10
21.105397188185389
 20
37.155630349280933
 30
0.0
 11
24.166056864648741
 21
40.216302152831808
 31
0.0
  0
LINE
  5
570
  8
0
  6
CONTINUOUS
 62
     7
 10
14.16605686319852
 20
36.094958874316148
 30
0.0
 11
11.10537436174066
 21
39.155630347830161
 31
0.0
  0
LINE
  5
571
  8
0
  6
CONTINUOUS
 62
     7
 10
10.16605686174098
 20
39.155630347830161
 30
0.0
 11
10.16605686174098
 21
36.155630347830041
 31
0.0
  0
LINE
  5
572
  8
0
  6
CONTINUOUS
 62
     7
 10
12.166056866699041
 20
40.21627481781556
 30
0.0
 11
15.22670111817026
 21
37.155630349280933
 31
0.0
  0
LINE
  5
573
  8
0
  6
CONTINUOUS
 62
     7
 10
32.166056856710711
 20
40.216293277798258
 30
0.0
 11
35.22670665813753
 21
37.155630349280941
 31
0.0
  0
LINE
  5
574
  8
0
  6
CONTINUOUS
 62
     7
 10
30.25564928360166
 20
40.00539465404659
 30
0.0
 11
34.166056858191673
 21
36.094973949280053
 31
0.0
  0
LINE
  5
575
  8
0
  6
CONTINUOUS
 62
     7
 10
46.076477962781851
 20
40.00539465404659
 30
0.0
 11
42.16605685819188
 21
36.094973949280053
 31
0.0
  0
LINE
  5
576
  8
0
  6
CONTINUOUS
 62
     7
 10
44.16605685968733
 20
40.21628097783767
 30
0.0
 11
41.105405858192277
 21
37.155630349280941
 31
0.0
  0
LINE
  5
577
  8
0
  6
CONTINUOUS
 62
     7
 10
55.226713111122358
 20
37.155630349280948
 30
0.0
 11
52.16605685968954
 21
40.21629972780368
 31
0.0
  0
LINE
  5
578
  8
0
  6
CONTINUOUS
 62
     7
 10
54.16605686266805
 20
36.094960924805058
 30
0.0
 11
50.255622733601683
 21
40.005394654046547
 31
0.0
  0
LINE
  5
579
  8
0
  6
CONTINUOUS
 62
     7
 10
66.166056854660894
 20
39.155630347811851
 30
0.0
 11
66.16605685466088
 21
36.155630347811723
 31
0.0
  0
LINE
  5
57A
  8
0
  6
CONTINUOUS
 62
     7
 10
62.166056853184998
 20
36.094960874275749
 30
0.0
 11
65.226739234661238
 21
39.155630347811851
 31
0.0
  0
LINE
  5
57B
  8
0
  6
CONTINUOUS
 62
     7
 10
64.166056857640072
 20
40.216274392818278
 30
0.0
 11
61.105412501165141
 21
37.155630349280941
 31
0.0
  0
LINE
  5
57C
  8
CENTER
  6
CENTER
 62
     1
 10
58.166056861170532
 20
37.755630249280927
 30
0.0
 11
58.166056861170532
 21
28.55563044928093
 31
0.0
  0
LINE
  5
57D
  8
CENTER
  6
CENTER
 62
     1
 10
38.166056858191759
 20
45.255639587832931
 30
0.0
 11
38.166056858191759
 21
21.055637835777191
 31
0.0
  0
LINE
  5
57E
  8
CENTER
  6
CENTER
 62
     1
 10
18.166056863183591
 20
37.755630249280927
 30
0.0
 11
18.166056863183591
 21
28.55563044928093
 31
0.0
  0
TEXT
  5
57F
  8
0
  6
CONTINUOUS
 62
     7
 10
0.0000001555740141
 20
3.4983791774803281
 30
0.0
 40
2.0
  1
HFSP5-6020-50
  0
TEXT
  5
580
  8
0
  6
CONTINUOUS
 62
     7
 10
0.0000001555740141
 20
-0.0000000866882033
 30
0.0
 40
2.0
  1
HP56020
  0
LINE
  5
582
  8
0
  6
CONTINUOUS
 62
     7
 10
34.16605685819178
 20
30.216286749281821
 30
0.0
 11
30.25564928360166
 21
26.305866044515579
 31
0.0
  0
LINE
  5
583
  8
0
  6
CONTINUOUS
 62
     7
 10
35.226717583253141
 20
29.155630344313611
 30
0.0
 11
32.166056861736671
 21
26.094966395737661
 31
0.0
  0
CIRCLE
  5
586
  8
0
  6
CONTINUOUS
 62
     7
 10
18.166056863183591
 20
33.155630349280933
 30
0.0
 40
2.099999899999998
  0
LINE
  5
588
  8
0
  6
CONTINUOUS
 62
     7
 10
8.166056861722609
 20
24.155629255750309
 30
0.0
 11
8.166056861722609
 21
30.1556303457503
 31
0.0
  0
LINE
  5
589
  8
0
  6
CONTINUOUS
 62
     7
 10
11.105374361722269
 20
27.155630345750211
 30
0.0
 11
14.166056863198531
 21
30.216300824282609
 31
0.0
  0
LINE
  5
58A
  8
0
  6
CONTINUOUS
 62
     7
 10
10.166056861722581
 20
30.1556303457503
 30
0.0
 11
10.166056861722581
 21
27.155630345750211
 31
0.0
  0
LINE
  5
58B
  8
0
  6
CONTINUOUS
 62
     7
 10
15.22670923324395
 20
29.155630344313629
 30
0.0
 11
12.166056861722581
 21
26.094992755748859
 31
0.0
  0
LINE
  5
58E
  8
0
  6
CONTINUOUS
 62
     7
 10
12.166056861722581
 20
26.094992755748859
 30
0.0
 11
12.166056861722581
 21
25.15563034928093
 31
0.0
  0
LINE
  5
58F
  8
0
  6
CONTINUOUS
 62
     7
 10
10.166056861722581
 20
27.155630345750211
 30
0.0
 11
11.105374361722269
 21
27.155630345750211
 31
0.0
  0
LINE
  5
590
  8
0
  6
CONTINUOUS
 62
     7
 10
15.166056861722581
 20
25.15563034928093
 30
0.0
 11
15.166056861722581
 21
23.555630349280921
 31
0.0
  0
LINE
  5
591
  8
0
  6
CONTINUOUS
 62
     7
 10
8.166056861722609
 20
30.1556303457503
 30
0.0
 11
10.166056861722581
 21
30.1556303457503
 31
0.0
  0
LINE
  5
592
  8
0
  6
CONTINUOUS
 62
     7
 10
10.16605686174098
 20
36.155630347830041
 30
0.0
 11
8.1660568617409854
 21
36.155630347830041
 31
0.0
  0
LINE
  5
597
  8
0
  6
CONTINUOUS
 62
     7
 10
24.16605685966163
 20
26.09497527077831
 30
0.0
 11
21.105400423177102
 21
29.155630344313629
 31
0.0
  0
LINE
  5
598
  8
0
  6
CONTINUOUS
 62
     7
 10
26.076491392781801
 20
26.305866044515579
 30
0.0
 11
22.166056868191809
 21
30.216286749281821
 31
0.0
  0
LINE
  5
59A
  8
0
  6
CONTINUOUS
 62
     7
 10
21.166056864661648
 20
23.555630349280928
 30
0.0
 11
21.166056864661648
 21
25.15563034928093
 31
0.0
  0
LINE
  5
59B
  8
0
  6
CONTINUOUS
 62
     7
 10
24.16605685966163
 20
25.15563034928093
 30
0.0
 11
24.16605685966163
 21
26.09497527077831
 31
0.0
  0
LINE
  5
59E
  8
0
  6
CONTINUOUS
 62
     7
 10
26.166070138191781
 20
25.45563034928092
 30
0.0
 11
26.166070138191781
 21
26.089312683756329
 31
0.0
  0
ARC
  5
59F
  8
0
  6
CONTINUOUS
 62
     7
 10
25.866082388348438
 20
26.09202484934595
 30
0.0
 40
0.3000000098304385
 50
359.48200748866509
 51
45.463513638610067
  0
LINE
  5
5A1
  8
0
  6
CONTINUOUS
 62
     7
 10
32.166056861736671
 20
26.094966395737661
 30
0.0
 11
32.166056861736671
 21
25.15563034928093
 31
0.0
  0
ARC
  5
5A2
  8
0
  6
CONTINUOUS
 62
     7
 10
30.466058288035029
 20
26.09202484934573
 30
0.0
 40
0.3000000098304405
 50
134.53648636135941
 51
180.5179925112968
  0
LINE
  5
5A3
  8
0
  6
CONTINUOUS
 62
     7
 10
30.166070538191661
 20
26.08931268375628
 30
0.0
 11
30.166070538191661
 21
25.455630349280931
 31
0.0
  0
LINE
  5
5A4
  8
0
  6
CONTINUOUS
 62
     7
 10
22.166056868191809
 20
30.216286749281821
 30
0.0
 11
22.166056868191809
 21
36.094973949280053
 31
0.0
  0
LINE
  5
5AC
  8
0
  6
CONTINUOUS
 62
     7
 10
50.25562273360174
 20
26.305866044515579
 30
0.0
 11
54.166056862668057
 21
30.21629977375682
 31
0.0
  0
LINE
  5
5AD
  8
0
  6
CONTINUOUS
 62
     7
 10
42.166056858191773
 20
30.216286749281821
 30
0.0
 11
46.076477962781851
 21
26.305866044515579
 31
0.0
  0
LINE
  5
5AE
  8
0
  6
CONTINUOUS
 62
     7
 10
41.105390583204922
 20
29.155630344313629
 30
0.0
 11
44.166056859715447
 21
26.094972845743101
 31
0.0
  0
LINE
  5
5B0
  8
0
  6
CONTINUOUS
 62
     7
 10
35.166056854661612
 20
25.15563034928093
 30
0.0
 11
35.16605685466164
 21
23.555630349280921
 31
0.0
  0
LINE
  5
5B1
  8
0
  6
CONTINUOUS
 62
     7
 10
41.166056854715357
 20
25.15563034928093
 30
0.0
 11
41.166056854715357
 21
23.555630349280921
 31
0.0
  0
LINE
  5
5B3
  8
0
  6
CONTINUOUS
 62
     7
 10
46.166056708191888
 20
26.089312683756329
 30
0.0
 11
46.166056708191888
 21
25.455630349280931
 31
0.0
  0
ARC
  5
5B4
  8
0
  6
CONTINUOUS
 62
     7
 10
45.866068958348542
 20
26.09202484934573
 30
0.0
 40
0.3000000098304405
 50
359.48200748870971
 51
45.463513638641388
  0
LINE
  5
5B5
  8
0
  6
CONTINUOUS
 62
     7
 10
44.166056859715447
 20
26.094972845743101
 30
0.0
 11
44.166056859715447
 21
25.15563034928093
 31
0.0
  0
ARC
  5
5B8
  8
0
  6
CONTINUOUS
 62
     7
 10
50.466031738035099
 20
26.09202484934595
 30
0.0
 40
0.3000000098304385
 50
134.5364863613899
 51
180.5179925113076
  0
LINE
  5
5B9
  8
0
  6
CONTINUOUS
 62
     7
 10
50.166043988191731
 20
25.45563034928092
 30
0.0
 11
50.166043988191738
 21
26.089312683756479
 31
0.0
  0
LINE
  5
5BA
  8
0
  6
CONTINUOUS
 62
     7
 10
34.166056858191673
 20
36.094973949280053
 30
0.0
 11
34.16605685819178
 21
30.216286749281821
 31
0.0
  0
LINE
  5
5BB
  8
0
  6
CONTINUOUS
 62
     7
 10
42.16605685819188
 20
36.094973949280053
 30
0.0
 11
42.166056858191773
 21
30.216286749281821
 31
0.0
  0
CIRCLE
  5
5BC
  8
0
  6
CONTINUOUS
 62
     7
 10
38.166056858191759
 20
33.155630349280933
 30
0.0
 40
2.099999899999998
  0
LINE
  5
5C6
  8
0
  6
CONTINUOUS
 62
     7
 10
65.226739764642957
 20
27.1556303457319
 30
0.0
 11
62.166056862668057
 21
30.216301344768151
 31
0.0
  0
LINE
  5
5C7
  8
0
  6
CONTINUOUS
 62
     7
 10
52.166056864715351
 20
26.094972845743101
 30
0.0
 11
55.226711136225731
 21
29.155630344313611
 31
0.0
  0
LINE
  5
5C8
  8
0
  6
CONTINUOUS
 62
     7
 10
61.105409656189529
 20
29.155630344313629
 30
0.0
 11
64.1660568626681
 21
26.094992330773149
 31
0.0
  0
LINE
  5
5CA
  8
0
  6
CONTINUOUS
 62
     7
 10
52.166056864715351
 20
25.15563034928093
 30
0.0
 11
52.166056864715351
 21
26.094972845743101
 31
0.0
  0
LINE
  5
5CB
  8
0
  6
CONTINUOUS
 62
     7
 10
55.16605685971534
 20
23.555630349280921
 30
0.0
 11
55.16605685971534
 21
25.15563034928093
 31
0.0
  0
LINE
  5
5CD
  8
0
  6
CONTINUOUS
 62
     7
 10
61.166056862668093
 20
25.15563034928093
 30
0.0
 11
61.166056862668093
 21
23.555630349280921
 31
0.0
  0
LINE
  5
5CE
  8
0
  6
CONTINUOUS
 62
     7
 10
66.1660568626681
 20
27.155630345731922
 30
0.0
 11
65.226739764642957
 21
27.1556303457319
 31
0.0
  0
LINE
  5
5CF
  8
0
  6
CONTINUOUS
 62
     7
 10
64.1660568626681
 20
26.094992330773149
 30
0.0
 11
64.1660568626681
 21
25.15563034928093
 31
0.0
  0
CIRCLE
  5
5D1
  8
0
  6
CONTINUOUS
 62
     7
 10
58.166056861170532
 20
33.155630349280933
 30
0.0
 40
2.099999899999998
  0
LINE
  5
5E2
  8
0
  6
CONTINUOUS
 62
     7
 10
12.166056866699041
 20
41.155630349280933
 30
0.0
 11
12.166056866699041
 21
40.21627481781556
 31
0.0
  0
LINE
  5
5E3
  8
0
  6
CONTINUOUS
 62
     7
 10
11.10537436174066
 20
39.155630347830161
 30
0.0
 11
10.16605686174098
 21
39.155630347830161
 31
0.0
  0
LINE
  5
5E4
  8
0
  6
CONTINUOUS
 62
     7
 10
15.16605686669906
 20
42.755630349280928
 30
0.0
 11
15.166056866699069
 21
41.155638317814088
 31
0.0
  0
LINE
  5
5E6
  8
0
  6
CONTINUOUS
 62
     7
 10
21.166056864648741
 20
41.15563958783293
 30
0.0
 11
21.166056864648741
 21
42.755630349280928
 31
0.0
  0
LINE
  5
5E7
  8
0
  6
CONTINUOUS
 62
     7
 10
24.166056864648741
 20
40.216302152831808
 30
0.0
 11
24.166056864648731
 21
41.155630349280933
 31
0.0
  0
ARC
  5
5EA
  8
0
  6
CONTINUOUS
 62
     7
 10
25.866082388348559
 20
40.219235849216361
 30
0.0
 40
0.3000000098304405
 50
314.53648636134409
 51
0.5179925112968802
  0
LINE
  5
5EB
  8
0
  6
CONTINUOUS
 62
     7
 10
26.16607013819193
 20
40.22194801480579
 30
0.0
 11
26.166070138191781
 21
40.855630349280837
 31
0.0
  0
LINE
  5
5ED
  8
0
  6
CONTINUOUS
 62
     7
 10
32.166056856710718
 20
41.155630349280941
 30
0.0
 11
32.166056856710711
 21
40.216293277798258
 31
0.0
  0
ARC
  5
5EE
  8
0
  6
CONTINUOUS
 62
     7
 10
30.466058288035029
 20
40.219235849216361
 30
0.0
 40
0.3000000098304385
 50
179.48200748869209
 51
225.46351363862871
  0
LINE
  5
5EF
  8
0
  6
CONTINUOUS
 62
     7
 10
30.166070538191772
 20
40.855630349280879
 30
0.0
 11
30.166070538191661
 21
40.221948014805832
 31
0.0
  0
LINE
  5
5F2
  8
0
  6
CONTINUOUS
 62
     7
 10
35.166056861710807
 20
42.755630349280942
 30
0.0
 11
35.166056861710807
 21
41.155630349280941
 31
0.0
  0
LINE
  5
5F3
  8
0
  6
CONTINUOUS
 62
     7
 10
41.166056859687266
 20
42.755630349280928
 30
0.0
 11
41.166056859687266
 21
41.155630349280933
 31
0.0
  0
LINE
  5
5F5
  8
0
  6
CONTINUOUS
 62
     7
 10
46.166056708191768
 20
40.855630349280879
 30
0.0
 11
46.166056708191888
 21
40.221948014805747
 31
0.0
  0
LINE
  5
5F6
  8
0
  6
CONTINUOUS
 62
     7
 10
44.166056859687338
 20
41.155630349280933
 30
0.0
 11
44.16605685968733
 21
40.21628097783767
 31
0.0
  0
ARC
  5
5F7
  8
0
  6
CONTINUOUS
 62
     7
 10
45.866068958348542
 20
40.219235849216361
 30
0.0
 40
0.3000000098304385
 50
314.53648636137109
 51
0.5179925112914852
  0
LINE
  5
5F9
  8
0
  6
CONTINUOUS
 62
     7
 10
50.166043988191632
 20
40.221948014805747
 30
0.0
 11
50.166043988191717
 21
40.855630349280879
 31
0.0
  0
ARC
  5
5FB
  8
0
  6
CONTINUOUS
 62
     7
 10
50.466031738034992
 20
40.219235849216361
 30
0.0
 40
0.3000000098304405
 50
179.48200748870801
 51
225.4635136386436
  0
LINE
  5
5FD
  8
0
  6
CONTINUOUS
 62
     7
 10
52.16605685968954
 20
40.21629972780368
 30
0.0
 11
52.16605685968954
 21
41.155630349280933
 31
0.0
  0
LINE
  5
5FE
  8
0
  6
CONTINUOUS
 62
     7
 10
55.166056864689523
 20
41.155630349280933
 30
0.0
 11
55.166056864689459
 21
42.755630349280928
 31
0.0
  0
LINE
  5
600
  8
0
  6
CONTINUOUS
 62
     7
 10
61.166056857640029
 20
42.755630349280928
 30
0.0
 11
61.166056857640029
 21
41.155637892816813
 31
0.0
  0
LINE
  5
601
  8
0
  6
CONTINUOUS
 62
     7
 10
64.166056857640044
 20
41.155630349280933
 30
0.0
 11
64.166056857640072
 21
40.216274392818278
 31
0.0
  0
LINE
  5
602
  8
0
  6
CONTINUOUS
 62
     7
 10
65.226739234661238
 20
39.155630347811851
 30
0.0
 11
66.166056854660894
 21
39.155630347811851
 31
0.0
  0
LINE
  5
603
  8
0
  6
CONTINUOUS
 62
     7
 10
149.16605685819169
 20
23.555630349280939
 30
0.0
 11
149.16605685819169
 21
42.755630349280928
 31
0.0
  0
LINE
  5
604
  8
0
  6
CONTINUOUS
 62
     7
 10
99.166056858191666
 20
42.755630349280928
 30
0.0
 11
99.166056858191666
 21
23.555630349280939
 31
0.0
  0
LINE
  5
606
  8
0
  6
CONTINUOUS
 62
     7
 10
99.166056858191666
 20
36.155630349280941
 30
0.0
 11
149.16605685819169
 21
36.155630349280941
 31
0.0
  0
LINE
  5
607
  8
0
  6
CONTINUOUS
 62
     7
 10
99.166056858191666
 20
30.155630349280919
 30
0.0
 11
149.16605685819169
 21
30.155630349280919
 31
0.0
  0
LINE
  5
608
  8
0
  6
CONTINUOUS
 62
     7
 10
149.16605685819169
 20
23.555630349280939
 30
0.0
 11
99.166056858191666
 21
23.555630349280939
 31
0.0
  0
LINE
  5
609
  8
CENTER
  6
CENTER
 62
     1
 10
151.66605685819169
 20
33.155630349280933
 30
0.0
 11
96.666056858191666
 21
33.155630349280933
 31
0.0
  0
LINE
  5
60B
  8
0
  6
CONTINUOUS
 62
     7
 10
149.16605685819169
 20
42.755630349280928
 30
0.0
 11
99.166056858191666
 21
42.755630349280928
 31
0.0
  0
LINE
  5
CA1
  8
0
  6
CONTINUOUS
 62
     7
 10
18.166056863183591
 20
36.855638474302502
 30
0.0
 11
17.64644307415228
 21
37.155630349280919
 31
0.0
  0
LINE
  5
CA2
  8
0
  6
CONTINUOUS
 62
     7
 10
18.166056863183591
 20
36.855638474302502
 30
0.0
 11
18.685658032504069
 21
37.155630349280933
 31
0.0
  0
LINE
  5
CA7
  8
0
  6
CONTINUOUS
 62
     7
 10
14.166056863198531
 20
30.216300824282609
 30
0.0
 11
14.166056863198531
 21
32.636026879096207
 31
0.0
  0
LINE
  5
CA8
  8
0
  6
CONTINUOUS
 62
     7
 10
14.466068233179779
 20
33.155638224298691
 30
0.0
 11
14.166056863198531
 21
32.636026879096207
 31
0.0
  0
LINE
  5
CA9
  8
0
  6
CONTINUOUS
 62
     7
 10
14.466068233179779
 20
33.155638224298691
 30
0.0
 11
14.16605686319852
 21
33.675251301473381
 31
0.0
  0
LINE
  5
CAA
  8
0
  6
CONTINUOUS
 62
     7
 10
21.105400423177102
 20
29.155630344313629
 30
0.0
 11
18.685669940358281
 21
29.155630344313629
 31
0.0
  0
LINE
  5
CAB
  8
0
  6
CONTINUOUS
 62
     7
 10
17.646443786008891
 20
29.155630344313629
 30
0.0
 11
15.22670923324395
 21
29.155630344313629
 31
0.0
  0
LINE
  5
CAC
  8
0
  6
CONTINUOUS
 62
     7
 10
18.166056863183591
 20
29.455629094294881
 30
0.0
 11
18.685669940358238
 21
29.155630344313629
 31
0.0
  0
LINE
  5
CAD
  8
0
  6
CONTINUOUS
 62
     7
 10
18.166056863183591
 20
29.455629094294881
 30
0.0
 11
17.646443786008899
 21
29.155630344313629
 31
0.0
  0
LINE
  5
CB4
  8
0
  6
CONTINUOUS
 62
     7
 10
38.166043333183588
 20
36.855638474302502
 30
0.0
 11
37.646442163863071
 21
37.155630349280933
 31
0.0
  0
LINE
  5
CB5
  8
0
  6
CONTINUOUS
 62
     7
 10
38.166043333183588
 20
36.855638474302502
 30
0.0
 11
38.685644502504097
 21
37.155630349280941
 31
0.0
  0
LINE
  5
CB6
  8
0
  6
CONTINUOUS
 62
     7
 10
41.105390583204922
 20
29.155630344313629
 30
0.0
 11
38.685656410358291
 21
29.155630344313629
 31
0.0
  0
LINE
  5
CB7
  8
0
  6
CONTINUOUS
 62
     7
 10
37.646430256008898
 20
29.155630344313629
 30
0.0
 11
35.226717583253141
 21
29.155630344313611
 31
0.0
  0
LINE
  5
CB8
  8
0
  6
CONTINUOUS
 62
     7
 10
38.166043333183588
 20
29.455629094294881
 30
0.0
 11
38.685656410358249
 21
29.155630344313629
 31
0.0
  0
LINE
  5
CB9
  8
0
  6
CONTINUOUS
 62
     7
 10
38.166043333183588
 20
29.455629094294881
 30
0.0
 11
37.646430256008919
 21
29.155630344313629
 31
0.0
  0
LINE
  5
CD6
  8
0
  6
CONTINUOUS
 62
     7
 10
58.16603021318361
 20
36.855638474302502
 30
0.0
 11
57.646429043862973
 21
37.155630349280948
 31
0.0
  0
LINE
  5
CD7
  8
0
  6
CONTINUOUS
 62
     7
 10
58.16603021318361
 20
36.855638474302502
 30
0.0
 11
58.685644472204153
 21
37.155630349280948
 31
0.0
  0
LINE
  5
CD8
  8
0
  6
CONTINUOUS
 62
     7
 10
61.105409656189529
 20
29.155630344313629
 30
0.0
 11
58.685655910358278
 21
29.155630344313629
 31
0.0
  0
LINE
  5
CD9
  8
0
  6
CONTINUOUS
 62
     7
 10
57.646417136008893
 20
29.155630344313629
 30
0.0
 11
55.226711136225731
 21
29.155630344313611
 31
0.0
  0
LINE
  5
CDA
  8
0
  6
CONTINUOUS
 62
     7
 10
58.16603021318361
 20
29.455629094294881
 30
0.0
 11
58.685655910358243
 21
29.155630344313629
 31
0.0
  0
LINE
  5
CDB
  8
0
  6
CONTINUOUS
 62
     7
 10
58.16603021318361
 20
29.455629094294881
 30
0.0
 11
57.646417136008893
 21
29.155630344313629
 31
0.0
  0
LINE
  5
CDE
  8
0
  6
CONTINUOUS
 62
     7
 10
61.866045013203752
 20
33.155638224298691
 30
0.0
 11
62.166056862668057
 21
32.63602431666996
 31
0.0
  0
LINE
  5
CDF
  8
0
  6
CONTINUOUS
 62
     7
 10
61.866045013203752
 20
33.155638224298691
 30
0.0
 11
62.166043763185002
 21
33.675251301473367
 31
0.0
  0
LINE
  5
CE0
  8
0
  6
CONTINUOUS
 62
     7
 10
149.16605685819169
 20
33.675251301473367
 30
0.0
 11
99.166056858191666
 21
33.675251301473367
 31
0.0
  0
LINE
  5
CE1
  8
0
  6
CONTINUOUS
 62
     7
 10
149.16605685819169
 20
32.636025147123988
 30
0.0
 11
99.166056858191666
 21
32.636025147123988
 31
0.0
  0
ARC
  5
EFB
  8
0
  6
CONTINUOUS
 62
     7
 10
9.1660568617409872
 20
42.155638317814088
 30
0.0
 40
1.0
 50
143.13067305617341
 51
180.0000000000004
  0
ARC
  5
EFC
  8
0
  6
CONTINUOUS
 62
     7
 10
9.1660568617226108
 20
24.15562925575033
 30
0.0
 40
1.0
 50
180.0000000000004
 51
216.8698193275238
  0
ARC
  5
EFE
  8
0
  6
CONTINUOUS
 62
     7
 10
67.166056862668086
 20
24.155629255750309
 30
0.0
 40
1.0
 50
323.13018067247708
 51
359.99999999999977
  0
LINE
  5
1202
  8
0
  6
CONTINUOUS
 62
     7
 10
8.3660560415758276
 20
23.555630349280928
 30
0.0
 11
15.166056861722581
 21
23.555630349280921
 31
0.0
  0
LINE
  5
1203
  8
0
  6
CONTINUOUS
 62
     7
 10
8.3660508854031228
 20
42.755630349280928
 30
0.0
 11
15.16605686669906
 21
42.755630349280928
 31
0.0
  0
LINE
  5
1210
  8
0
  6
CONTINUOUS
 62
     7
 10
61.166056862668093
 20
23.555630349280921
 30
0.0
 11
67.966057682814849
 21
23.555630349280921
 31
0.0
  0
LINE
  5
1211
  8
0
  6
CONTINUOUS
 62
     7
 10
41.166056854715357
 20
23.555630349280921
 30
0.0
 11
55.16605685971534
 21
23.555630349280921
 31
0.0
  0
LINE
  5
1212
  8
0
  6
CONTINUOUS
 62
     7
 10
21.166056864661648
 20
23.555630349280928
 30
0.0
 11
35.16605685466164
 21
23.555630349280921
 31
0.0
  0
LINE
  5
1234
  8
0
  6
CONTINUOUS
 62
     7
 10
61.166056857640029
 20
42.755630349280928
 30
0.0
 11
67.966062833977958
 21
42.755630349280928
 31
0.0
  0
LINE
  5
1235
  8
0
  6
CONTINUOUS
 62
     7
 10
41.166056859687266
 20
42.755630349280928
 30
0.0
 11
55.166056864689459
 21
42.755630349280928
 31
0.0
  0
LINE
  5
1236
  8
0
  6
CONTINUOUS
 62
     7
 10
21.166056864648741
 20
42.755630349280928
 30
0.0
 11
35.166056861710807
 21
42.755630349280942
 31
0.0
  0
LINE
  5
18D2
  8
0
  6
CONTINUOUS
 62
     7
 10
62.166043763184973
 20
33.675251301473367
 30
0.0
 11
62.166056853184998
 21
36.094960874275749
 31
0.0
  0
LINE
  5
196B
  8
0
  6
CONTINUOUS
 62
     7
 10
66.1660568626681
 20
27.155630345731922
 30
0.0
 11
66.1660568626681
 21
30.155630345731961
 31
0.0
  0
LINE
  5
1982
  8
0
  6
CONTINUOUS
 62
     7
 10
62.166056862668057
 20
30.216301344768151
 30
0.0
 11
62.166056862668057
 21
32.63602431666996
 31
0.0
  0
LINE
  5
1A3C
  8
0
  6
CONTINUOUS
 62
     7
 10
68.166056858191752
 20
30.155630345731961
 30
0.0
 11
68.166056858191752
 21
24.155534637232339
 31
0.0
  0
LINE
  5
1A7D
  8
0
  6
CONTINUOUS
 62
     7
 10
68.166056858191752
 20
42.155726061320728
 30
0.0
 11
68.166056858191752
 21
36.15563034781173
 31
0.0
  0
ARC
  5
1A7E
  8
0
  6
CONTINUOUS
 62
     7
 10
67.166056862668086
 20
42.15563144281154
 30
0.0
 40
1.0
 50
0.0000000000002176
 51
36.869819327522912
  0
LINE
  5
1AEF
  8
0
  6
CONTINUOUS
 62
     7
 10
54.166056862668057
 20
30.21629977375682
 30
0.0
 11
54.16605686266805
 21
36.094960924805058
 31
0.0
  0
LINE
  5
1C56
  8
0
  6
CONTINUOUS
 62
     7
 10
14.16605686319852
 20
33.675251301473381
 30
0.0
 11
14.16605686319852
 21
36.094958874316148
 31
0.0
  0
LINE
  5
1CB8
  8
0
  6
CONTINUOUS
 62
     7
 10
12.166056866699041
 20
41.155630349280933
 30
0.0
 11
15.16605686669906
 21
41.155630349280933
 31
0.0
  0
LINE
  5
1CB9
  8
0
  6
CONTINUOUS
 62
     7
 10
21.166056864648741
 20
41.155630349280933
 30
0.0
 11
24.166056864648731
 21
41.155630349280933
 31
0.0
  0
LINE
  5
1CE6
  8
0
  6
CONTINUOUS
 62
     7
 10
26.466070138191771
 20
41.155630349280933
 30
0.0
 11
29.866070538191771
 21
41.155630349280933
 31
0.0
  0
LINE
  5
1CE7
  8
0
  6
CONTINUOUS
 62
     7
 10
41.166056859687266
 20
41.155630349280933
 30
0.0
 11
44.166056859687338
 21
41.155630349280933
 31
0.0
  0
ARC
  5
1CE8
  8
0
  6
CONTINUOUS
 62
     7
 10
26.466070138191771
 20
40.855630349280922
 30
0.0
 40
0.3
 50
90.000000000000057
 51
180.0000000000129
  0
ARC
  5
1CE9
  8
0
  6
CONTINUOUS
 62
     7
 10
29.866070538191771
 20
40.855630349280922
 30
0.0
 40
0.3
 50
359.99999999999011
 51
90.000000000000114
  0
LINE
  5
1CEA
  8
0
  6
CONTINUOUS
 62
     7
 10
32.166056856710718
 20
41.155630349280941
 30
0.0
 11
35.166056861710807
 21
41.155630349280941
 31
0.0
  0
LINE
  5
1D59
  8
0
  6
CONTINUOUS
 62
     7
 10
46.466056708191779
 20
41.155630349280941
 30
0.0
 11
49.86604398819172
 21
41.155630349280933
 31
0.0
  0
ARC
  5
1D5A
  8
0
  6
CONTINUOUS
 62
     7
 10
46.466056708191779
 20
40.855630349280943
 30
0.0
 40
0.3
 50
90.0
 51
180.0000000000116
  0
ARC
  5
1D5B
  8
0
  6
CONTINUOUS
 62
     7
 10
49.86604398819172
 20
40.855630349280922
 30
0.0
 40
0.3
 50
359.99999999999022
 51
89.999999999999943
  0
LINE
  5
1D7D
  8
0
  6
CONTINUOUS
 62
     7
 10
52.16605685968954
 20
41.155630349280933
 30
0.0
 11
55.166056864689523
 21
41.155630349280933
 31
0.0
  0
LINE
  5
1D8A
  8
0
  6
CONTINUOUS
 62
     7
 10
61.166056857640029
 20
41.155630349280933
 30
0.0
 11
64.166056857640044
 21
41.155630349280933
 31
0.0
  0
LINE
  5
1DEE
  8
0
  6
CONTINUOUS
 62
     7
 10
55.226713111122358
 20
37.155630349280948
 30
0.0
 11
57.646429043862973
 21
37.155630349280948
 31
0.0
  0
LINE
  5
1DFA
  8
0
  6
CONTINUOUS
 62
     7
 10
58.685644472204153
 20
37.155630349280948
 30
0.0
 11
61.105412501165141
 21
37.155630349280941
 31
0.0
  0
LINE
  5
1E11
  8
0
  6
CONTINUOUS
 62
     7
 10
35.22670665813753
 20
37.155630349280941
 30
0.0
 11
37.646442163863071
 21
37.155630349280933
 31
0.0
  0
LINE
  5
1E12
  8
0
  6
CONTINUOUS
 62
     7
 10
38.685644502504097
 20
37.155630349280941
 30
0.0
 11
41.105405858192277
 21
37.155630349280941
 31
0.0
  0
LINE
  5
1E3F
  8
0
  6
CONTINUOUS
 62
     7
 10
15.22670111817026
 20
37.155630349280933
 30
0.0
 11
17.64644307415228
 21
37.155630349280919
 31
0.0
  0
LINE
  5
1E40
  8
0
  6
CONTINUOUS
 62
     7
 10
18.685658032504069
 20
37.155630349280933
 30
0.0
 11
21.105397188185389
 21
37.155630349280933
 31
0.0
  0
LINE
  5
1E78
  8
0
  6
CONTINUOUS
 62
     7
 10
12.166056861722581
 20
25.15563034928093
 30
0.0
 11
15.166056861722581
 21
25.15563034928093
 31
0.0
  0
LINE
  5
1E79
  8
0
  6
CONTINUOUS
 62
     7
 10
21.166056864661648
 20
25.15563034928093
 30
0.0
 11
24.16605685966163
 21
25.15563034928093
 31
0.0
  0
LINE
  5
1E7A
  8
0
  6
CONTINUOUS
 62
     7
 10
41.166056854715357
 20
25.15563034928093
 30
0.0
 11
44.166056859715447
 21
25.15563034928093
 31
0.0
  0
LINE
  5
1E7B
  8
0
  6
CONTINUOUS
 62
     7
 10
61.166056862668093
 20
25.15563034928093
 30
0.0
 11
64.1660568626681
 21
25.15563034928093
 31
0.0
  0
LINE
  5
1E7C
  8
0
  6
CONTINUOUS
 62
     7
 10
32.166056861736671
 20
25.15563034928093
 30
0.0
 11
35.166056854661612
 21
25.15563034928093
 31
0.0
  0
LINE
  5
1E7D
  8
0
  6
CONTINUOUS
 62
     7
 10
26.466070138191771
 20
25.15563034928093
 30
0.0
 11
29.866070538191661
 21
25.15563034928093
 31
0.0
  0
ARC
  5
1E7E
  8
0
  6
CONTINUOUS
 62
     7
 10
29.866070538191661
 20
25.455630349280931
 30
0.0
 40
0.3
 50
270.0
 51
0.0
  0
ARC
  5
1E7F
  8
0
  6
CONTINUOUS
 62
     7
 10
26.466070138191771
 20
25.45563034928092
 30
0.0
 40
0.3
 50
180.0
 51
270.0
  0
LINE
  5
1F04
  8
0
  6
CONTINUOUS
 62
     7
 10
46.466056708191871
 20
25.15563034928093
 30
0.0
 11
49.866043988191727
 21
25.155630349280919
 31
0.0
  0
ARC
  5
1F05
  8
0
  6
CONTINUOUS
 62
     7
 10
46.466056708191871
 20
25.455630349280931
 30
0.0
 40
0.3
 50
180.0
 51
270.0
  0
ARC
  5
1F06
  8
0
  6
CONTINUOUS
 62
     7
 10
49.866043988191727
 20
25.45563034928092
 30
0.0
 40
0.3
 50
270.0
 51
0.0
  0
LINE
  5
1F28
  8
0
  6
CONTINUOUS
 62
     7
 10
52.166056864715351
 20
25.15563034928093
 30
0.0
 11
55.16605685971534
 21
25.15563034928093
 31
0.0
  0
ENDSEC
  0
EOF
