  0
SECTION
  2
HEADER
  9
$ACADVER
  1
AC1009
  9
$INSBASE
 10
0.0
 20
0.0
 30
0.0
  9
$EXTMIN
 10
-0.0000000095431573
 20
-0.0000001277930439
 30
0.0
  9
$EXTMAX
 10
188.59711631462051
 20
126.616651936925
 30
0.0
  9
$LIMMIN
 10
0.0
 20
0.0
  9
$LIMMAX
 10
297.0
 20
210.0
  9
$ORTHOMODE
 70
     1
  9
$REGENMODE
 70
     1
  9
$FILLMODE
 70
     1
  9
$QTEXTMODE
 70
     0
  9
$MIRRTEXT
 70
     1
  9
$DRAGMODE
 70
     2
  9
$LTSCALE
 40
1.0
  9
$OSMODE
 70
    57
  9
$ATTMODE
 70
     1
  9
$TEXTSIZE
 40
6.4000000000000012
  9
$TRACEWID
 40
0.05
  9
$TEXTSTYLE
  7
STANDARD
  9
$CLAYER
  8
0
  9
$CELTYPE
  6
CONTINUOUS
  9
$CECOLOR
 62
     7
  9
$DIMSCALE
 40
1.0
  9
$DIMASZ
 40
3.0
  9
$DIMEXO
 40
1.0
  9
$DIMDLI
 40
0.0
  9
$DIMRND
 40
0.0
  9
$DIMDLE
 40
0.0
  9
$DIMEXE
 40
1.0
  9
$DIMTP
 40
0.0
  9
$DIMTM
 40
0.0
  9
$DIMTXT
 40
3.2000000000000002
  9
$DIMCEN
 40
0.0
  9
$DIMTSZ
 40
0.0
  9
$DIMTOL
 70
     0
  9
$DIMLIM
 70
     0
  9
$DIMTIH
 70
     0
  9
$DIMTOH
 70
     0
  9
$DIMSE1
 70
     0
  9
$DIMSE2
 70
     0
  9
$DIMTAD
 70
     1
  9
$DIMZIN
 70
     8
  9
$DIMBLK
  1

  9
$DIMASO
 70
     1
  9
$DIMSHO
 70
     1
  9
$DIMPOST
  1

  9
$DIMAPOST
  1

  9
$DIMALT
 70
     0
  9
$DIMALTD
 70
     2
  9
$DIMALTF
 40
0.04
  9
$DIMLFAC
 40
1.0
  9
$DIMTOFL
 70
     1
  9
$DIMTVP
 40
1.0
  9
$DIMTIX
 70
     1
  9
$DIMSOXD
 70
     0
  9
$DIMSAH
 70
     0
  9
$DIMBLK1
  1

  9
$DIMBLK2
  1

  9
$DIMSTYLE
  2
MISUMI
  9
$DIMCLRD
 70
     0
  9
$DIMCLRE
 70
     0
  9
$DIMCLRT
 70
     0
  9
$DIMTFAC
 40
0.6
  9
$DIMGAP
 40
1.0
  9
$LUNITS
 70
     2
  9
$LUPREC
 70
     4
  9
$SKETCHINC
 40
0.1
  9
$FILLETRAD
 40
0.3
  9
$AUNITS
 70
     0
  9
$AUPREC
 70
     0
  9
$MENU
  1
acad
  9
$ELEVATION
 40
0.0
  9
$PELEVATION
 40
0.0
  9
$THICKNESS
 40
0.0
  9
$LIMCHECK
 70
     0
  9
$BLIPMODE
 70
     1
  9
$CHAMFERA
 40
0.5
  9
$CHAMFERB
 40
0.5
  9
$SKPOLY
 70
     0
  9
$TDCREATE
 40
2451464.6006649309
  9
$TDUPDATE
 40
2453776.702424224
  9
$TDINDWG
 40
0.1378434954
  9
$TDUSRTIMER
 40
0.1378411227
  9
$USRTIMER
 70
     1
  9
$ANGBASE
 50
0.0
  9
$ANGDIR
 70
     0
  9
$PDMODE
 70
     0
  9
$PDSIZE
 40
0.0
  9
$PLINEWID
 40
0.0
  9
$COORDS
 70
     0
  9
$SPLFRAME
 70
     0
  9
$SPLINETYPE
 70
     6
  9
$SPLINESEGS
 70
     8
  9
$ATTDIA
 70
     0
  9
$ATTREQ
 70
     1
  9
$HANDLING
 70
     1
  9
$HANDSEED
  5
780
  9
$SURFTAB1
 70
     6
  9
$SURFTAB2
 70
     6
  9
$SURFTYPE
 70
     6
  9
$SURFU
 70
     6
  9
$SURFV
 70
     6
  9
$UCSNAME
  2

  9
$UCSORG
 10
0.0
 20
0.0
 30
0.0
  9
$UCSXDIR
 10
1.0
 20
0.0
 30
0.0
  9
$UCSYDIR
 10
0.0
 20
1.0
 30
0.0
  9
$PUCSNAME
  2

  9
$PUCSORG
 10
0.0
 20
0.0
 30
0.0
  9
$PUCSXDIR
 10
1.0
 20
0.0
 30
0.0
  9
$PUCSYDIR
 10
0.0
 20
1.0
 30
0.0
  9
$USERI1
 70
     0
  9
$USERI2
 70
     0
  9
$USERI3
 70
     0
  9
$USERI4
 70
     0
  9
$USERI5
 70
     0
  9
$USERR1
 40
0.0
  9
$USERR2
 40
0.0
  9
$USERR3
 40
0.0
  9
$USERR4
 40
0.0
  9
$USERR5
 40
0.0
  9
$WORLDVIEW
 70
     1
  9
$SHADEDGE
 70
     3
  9
$SHADEDIF
 70
    70
  9
$TILEMODE
 70
     1
  9
$MAXACTVP
 70
    16
  9
$PLIMCHECK
 70
     0
  9
$PEXTMIN
 10
1.0000000000000000E+020
 20
1.0000000000000000E+020
 30
1.0000000000000000E+020
  9
$PEXTMAX
 10
-1.0000000000000000E+020
 20
-1.0000000000000000E+020
 30
-1.0000000000000000E+020
  9
$PLIMMIN
 10
0.0
 20
0.0
  9
$PLIMMAX
 10
12.0
 20
9.0
  9
$UNITMODE
 70
     0
  9
$VISRETAIN
 70
     0
  9
$PLINEGEN
 70
     0
  9
$PSLTSCALE
 70
     1
  0
ENDSEC
  0
SECTION
  2
TABLES
  0
TABLE
  2
VPORT
 70
     2
  0
VPORT
  2
*ACTIVE
 70
     0
 10
0.0
 20
0.0
 11
1.0
 21
1.0
 12
114.6862890833864
 22
63.308918865318397
 13
0.0
 23
0.0
 14
10.0
 24
10.0
 15
10.0
 25
10.0
 16
0.0
 26
0.0
 36
1.0
 17
0.0
 27
0.0
 37
0.0
 40
146.76925503180561
 41
1.5717852684144811
 42
50.0
 43
0.0
 44
0.0
 50
0.0
 51
0.0
 71
     0
 72
   100
 73
     1
 74
     0
 75
     0
 76
     0
 77
     0
 78
     0
  0
ENDTAB
  0
TABLE
  2
LTYPE
 70
     2
  0
LTYPE
  2
CONTINUOUS
 70
     0
  3
Solid line
 72
    65
 73
     0
 40
0.0
  0
LTYPE
  2
CENTER
 70
     0
  3
Center ____ _ ____ _ ____ _ ____ _ ____ _ ____
 72
    65
 73
     4
 40
2.0
 49
1.25
 49
-0.25
 49
0.25
 49
-0.25
  0
ENDTAB
  0
TABLE
  2
LAYER
 70
     2
  0
LAYER
  2
0
 70
     0
 62
     7
  6
CONTINUOUS
  0
LAYER
  2
CENTER
 70
     0
 62
     1
  6
CENTER
  0
ENDTAB
  0
TABLE
  2
STYLE
 70
     1
  0
STYLE
  2
STANDARD
 70
     0
 40
0.0
 41
1.0
 50
0.0
 71
     0
 42
6.4000000000000012
  3
txt
  4

  0
ENDTAB
  0
TABLE
  2
VIEW
 70
     0
  0
ENDTAB
  0
TABLE
  2
UCS
 70
     0
  0
ENDTAB
  0
TABLE
  2
APPID
 70
     2
  0
APPID
  2
ACAD
 70
     0
  0
APPID
  2
ACAD_DSTYLE_DIMTEXT_FILL
 70
     0
  0
ENDTAB
  0
TABLE
  2
DIMSTYLE
 70
     1
  0
DIMSTYLE
  2
MISUMI
 70
     0
  3

  4

  5

  6

  7

 40
1.0
 41
3.0
 42
1.0
 43
0.0
 44
1.0
 45
0.0
 46
0.0
 47
0.0
 48
0.0
140
3.2000000000000002
141
0.0
142
0.0
143
0.04
144
1.0
145
1.0
146
0.6
147
1.0
 71
     0
 72
     0
 73
     0
 74
     0
 75
     0
 76
     0
 77
     1
 78
     8
170
     0
171
     2
172
     1
173
     0
174
     1
175
     0
176
     0
177
     0
178
     0
  0
ENDTAB
  0
ENDSEC
  0
SECTION
  2
BLOCKS
  0
BLOCK
  8
0
  2
$MODEL_SPACE
 70
     0
 10
0.0
 20
0.0
 30
0.0
  3
$MODEL_SPACE
  1

  0
ENDBLK
  5
743
  8
0
  0
BLOCK
 67
     1
  8
0
  2
$PAPER_SPACE
 70
     0
 10
0.0
 20
0.0
 30
0.0
  3
$PAPER_SPACE
  1

  0
ENDBLK
  5
73F
 67
     1
  8
0
  0
ENDSEC
  0
SECTION
  2
ENTITIES
  0
TEXT
  5
5A8
  8
0
  6
CONTINUOUS
 62
     7
 10
-0.0000000095431573
 20
-0.0000001277930437
 30
0.0
 40
4.0
  1
HP54080
  0
TEXT
  5
5A9
  8
0
  6
CONTINUOUS
 62
     7
 10
-0.0000000095431573
 20
6.891467989840633
 30
0.0
 40
4.0
  1
HFSP5-4080-50
  0
LINE
  5
5AA
  8
0
  6
CONTINUOUS
 62
     7
 10
186.09711631462051
 20
44.916661946925231
 30
0.0
 11
136.09711631462059
 21
44.916661946925231
 31
0.0
  0
LINE
  5
5AB
  8
0
  6
CONTINUOUS
 62
     7
 10
136.09711631462059
 20
51.516661946925353
 30
0.0
 11
186.09711631462051
 21
51.516661946925353
 31
0.0
  0
LINE
  5
5AC
  8
0
  6
CONTINUOUS
 62
     7
 10
136.09711631462059
 20
57.51666194692524
 30
0.0
 11
186.09711631462051
 21
57.51666194692524
 31
0.0
  0
LINE
  5
5AD
  8
0
  6
CONTINUOUS
 62
     7
 10
186.09711631462051
 20
124.11666194692521
 30
0.0
 11
136.09711631462059
 21
124.11666194692521
 31
0.0
  0
LINE
  5
5AE
  8
0
  6
CONTINUOUS
 62
     7
 10
136.09711631462059
 20
124.11666194692521
 30
0.0
 11
136.09711631462059
 21
44.916661946925231
 31
0.0
  0
LINE
  5
5AF
  8
0
  6
CONTINUOUS
 62
     7
 10
186.09711631462051
 20
44.916661946925231
 30
0.0
 11
186.09711631462051
 21
124.11666194692521
 31
0.0
  0
LINE
  5
5B0
  8
0
  6
CONTINUOUS
 62
     7
 10
136.09711631462059
 20
71.516671956925265
 30
0.0
 11
186.09711631462051
 21
71.516671956925265
 31
0.0
  0
LINE
  5
5B1
  8
0
  6
CONTINUOUS
 62
     7
 10
136.09711631462059
 20
77.516671956925293
 30
0.0
 11
186.09711631462051
 21
77.516671956925293
 31
0.0
  0
LINE
  5
5B2
  8
0
  6
CONTINUOUS
 62
     7
 10
50.332948738481207
 20
82.491521926925145
 30
0.0
 11
50.332948738481207
 21
86.541751926925087
 31
0.0
  0
LINE
  5
5B3
  8
0
  6
CONTINUOUS
 62
     7
 10
46.832948738481321
 20
77.816621926925151
 30
0.0
 11
46.832948738481321
 21
91.216651926925223
 31
0.0
  0
LINE
  5
5B4
  8
0
  6
CONTINUOUS
 62
     7
 10
60.832938728481452
 20
56.516641926925182
 30
0.0
 11
60.832938728481452
 21
51.99155192692524
 31
0.0
  0
LINE
  5
5B5
  8
0
  6
CONTINUOUS
 62
     7
 10
47.032948738481352
 20
44.916641926925131
 30
0.0
 11
53.832938738481211
 21
44.916641926925131
 31
0.0
  0
LINE
  5
5B6
  8
0
  6
CONTINUOUS
 62
     7
 10
47.132938738481293
 20
51.516641926924933
 30
0.0
 11
48.832938738481353
 21
51.516641926924933
 31
0.0
  0
LINE
  5
5B7
  8
CENTER
  6
CENTER
 62
     1
 10
53.232938728481358
 20
54.516641926925182
 30
0.0
 11
60.432938728481332
 21
54.516641926925182
 31
0.0
  0
LINE
  5
5B8
  8
0
  6
CONTINUOUS
 62
     7
 10
59.77226872848113
 20
50.516641926925153
 30
0.0
 11
57.352553970751963
 21
50.516641926925168
 31
0.0
  0
LINE
  5
5B9
  8
0
  6
CONTINUOUS
 62
     7
 10
62.832998728481073
 20
47.455941926925149
 30
0.0
 11
59.77233872848106
 21
50.516611926925243
 31
0.0
  0
LINE
  5
5BA
  8
0
  6
CONTINUOUS
 62
     7
 10
64.100778728481089
 20
48.309491926925141
 30
0.0
 11
61.125838728481369
 21
51.28444192692524
 31
0.0
  0
ARC
  5
5BB
  8
0
  6
CONTINUOUS
 62
     7
 10
64.807858728480994
 20
49.016641926925182
 30
0.0
 40
1.0
 50
225.0
 51
270.000010000001
  0
LINE
  5
5BC
  8
0
  6
CONTINUOUS
 62
     7
 10
62.832938728481217
 20
46.516641926925168
 30
0.0
 11
59.832938728481217
 21
46.516641926925168
 31
0.0
  0
LINE
  5
5BD
  8
0
  6
CONTINUOUS
 62
     7
 10
59.832938728481217
 20
44.916621916924903
 30
0.0
 11
59.832938728481217
 21
46.516641926925168
 31
0.0
  0
LINE
  5
5BE
  8
0
  6
CONTINUOUS
 62
     7
 10
62.832938728481217
 20
46.516641926925168
 30
0.0
 11
62.832938728481217
 21
47.455971926925137
 31
0.0
  0
ARC
  5
5BF
  8
0
  6
CONTINUOUS
 62
     7
 10
61.83293872848121
 20
51.99155192692524
 30
0.0
 40
1.0
 50
180.00000300000099
 51
225.0
  0
LINE
  5
5C0
  8
0
  6
CONTINUOUS
 62
     7
 10
50.832988738480999
 20
47.455941926925149
 30
0.0
 11
53.893678738383237
 21
50.516641926925153
 31
0.0
  0
LINE
  5
5C1
  8
0
  6
CONTINUOUS
 62
     7
 10
50.832938738481232
 20
46.516641926925168
 30
0.0
 11
53.832938738481218
 21
46.516641926925168
 31
0.0
  0
LINE
  5
5C2
  8
0
  6
CONTINUOUS
 62
     7
 10
53.832938738481211
 20
44.916641926925131
 30
0.0
 11
53.832938738481218
 21
46.516641926925168
 31
0.0
  0
LINE
  5
5C3
  8
0
  6
CONTINUOUS
 62
     7
 10
50.832938738481232
 20
46.516641926925168
 30
0.0
 11
50.832938738481232
 21
47.455971926925137
 31
0.0
  0
LINE
  5
5C4
  8
0
  6
CONTINUOUS
 62
     7
 10
52.832938738481317
 20
51.57731192692524
 30
0.0
 11
52.832938738481381
 21
53.997026684654521
 31
0.0
  0
LINE
  5
5C5
  8
0
  6
CONTINUOUS
 62
     7
 10
49.772338738481203
 20
48.516611926925137
 30
0.0
 11
52.832998738481322
 21
51.577271926925242
 31
0.0
  0
LINE
  5
5C6
  8
0
  6
CONTINUOUS
 62
     7
 10
48.832938738481353
 20
48.516641926925168
 30
0.0
 11
48.832938738481353
 21
51.516641926924933
 31
0.0
  0
LINE
  5
5C7
  8
0
  6
CONTINUOUS
 62
     7
 10
48.832938738481353
 20
48.516641926925168
 30
0.0
 11
49.7722687384816
 21
48.516641926925168
 31
0.0
  0
LINE
  5
5C8
  8
0
  6
CONTINUOUS
 62
     7
 10
46.832948738481321
 20
45.516641926925153
 30
0.0
 11
46.832948738481321
 21
51.21665192692511
 31
0.0
  0
ARC
  5
5C9
  8
0
  6
CONTINUOUS
 62
     7
 10
47.132938738481293
 20
51.21665192692511
 30
0.0
 40
0.30000001
 50
90.0
 51
180.00000300000099
  0
LINE
  5
5CA
  8
CENTER
  6
CENTER
 62
     1
 10
53.232938828481331
 20
74.516641926925161
 30
0.0
 11
60.432938628481352
 21
74.516641926925161
 31
0.0
  0
LINE
  5
5CB
  8
0
  6
CONTINUOUS
 62
     7
 10
47.132938738481293
 20
57.516641926925161
 30
0.0
 11
48.832938738481353
 21
57.516641926925161
 31
0.0
  0
LINE
  5
5CC
  8
0
  6
CONTINUOUS
 62
     7
 10
47.132938738481293
 20
71.516641926925161
 30
0.0
 11
48.832938738481353
 21
71.516641926925161
 31
0.0
  0
LINE
  5
5CD
  8
0
  6
CONTINUOUS
 62
     7
 10
47.132938738481293
 20
77.516641926925161
 30
0.0
 11
48.832938738481353
 21
77.516641926925161
 31
0.0
  0
ARC
  5
5CE
  8
0
  6
CONTINUOUS
 62
     7
 10
61.83293872848121
 20
71.516641926925161
 30
0.0
 40
1.0
 50
180.00000300000099
 51
270.000010000001
  0
LINE
  5
5CF
  8
0
  6
CONTINUOUS
 62
     7
 10
49.772288738481222
 20
68.516591926925216
 30
0.0
 11
52.832948738481321
 21
71.577241926925126
 31
0.0
  0
LINE
  5
5D0
  8
0
  6
CONTINUOUS
 62
     7
 10
48.832938738481353
 20
68.516641926924933
 30
0.0
 11
48.832938738481353
 21
71.516641926925161
 31
0.0
  0
LINE
  5
5D1
  8
0
  6
CONTINUOUS
 62
     7
 10
58.832938728481203
 20
58.516641926925168
 30
0.0
 11
54.307798738481253
 21
58.516641926925168
 31
0.0
  0
ARC
  5
5D2
  8
0
  6
CONTINUOUS
 62
     7
 10
58.832938728481203
 20
56.516641926925182
 30
0.0
 40
2.0
 50
0.0
 51
90.0
  0
LINE
  5
5D3
  8
0
  6
CONTINUOUS
 62
     7
 10
50.332938738481232
 20
62.491491926925242
 30
0.0
 11
50.332938738481232
 21
66.541751926925144
 31
0.0
  0
LINE
  5
5D4
  8
0
  6
CONTINUOUS
 62
     7
 10
50.62583873848115
 20
61.784371926925147
 30
0.0
 11
53.600708738481153
 21
58.809501926924881
 31
0.0
  0
ARC
  5
5D5
  8
0
  6
CONTINUOUS
 62
     7
 10
54.307798738481253
 20
59.516641926925061
 30
0.0
 40
1.0
 50
225.0
 51
270.000010000001
  0
LINE
  5
5D6
  8
0
  6
CONTINUOUS
 62
     7
 10
48.832938738481353
 20
60.516641926925153
 30
0.0
 11
48.832938738481353
 21
57.516641926925161
 31
0.0
  0
LINE
  5
5D7
  8
0
  6
CONTINUOUS
 62
     7
 10
49.772338738481203
 20
60.516621926925183
 30
0.0
 11
52.83293873848136
 21
57.456011929081569
 31
0.0
  0
ARC
  5
5D8
  8
0
  6
CONTINUOUS
 62
     7
 10
51.332938738481218
 20
62.491491926925242
 30
0.0
 40
1.0
 50
180.00000300000099
 51
225.0
  0
LINE
  5
5D9
  8
0
  6
CONTINUOUS
 62
     7
 10
48.832938738481353
 20
60.516641926925153
 30
0.0
 11
49.7722687384816
 21
60.516641926925153
 31
0.0
  0
ARC
  5
5DA
  8
0
  6
CONTINUOUS
 62
     7
 10
51.332938738481218
 20
66.541751926925144
 30
0.0
 40
1.0
 50
135.0000009999992
 51
180.00000300000099
  0
ARC
  5
5DB
  8
0
  6
CONTINUOUS
 62
     7
 10
52.807828738481312
 20
68.016641926925033
 30
0.0
 40
1.0
 50
90.0
 51
135.0000009999992
  0
LINE
  5
5DC
  8
0
  6
CONTINUOUS
 62
     7
 10
50.625858738480993
 20
67.24883192692522
 30
0.0
 11
52.100738738481283
 21
68.723711926924963
 31
0.0
  0
LINE
  5
5DD
  8
0
  6
CONTINUOUS
 62
     7
 10
48.832938738481353
 20
68.516641926924933
 30
0.0
 11
49.7722687384816
 21
68.516641926924933
 31
0.0
  0
ARC
  5
5DE
  8
0
  6
CONTINUOUS
 62
     7
 10
56.832938728481317
 20
74.516641926925161
 30
0.0
 40
2.099999899999998
 50
131.08749099999969
 51
48.912520000000526
  0
LINE
  5
5DF
  8
0
  6
CONTINUOUS
 62
     7
 10
58.998008728480997
 20
78.266621926925197
 30
0.0
 11
58.108678728481379
 21
76.726261926925091
 31
0.0
  0
ARC
  5
5E0
  8
0
  6
CONTINUOUS
 62
     7
 10
60.332938728481217
 20
78.016641926925161
 30
0.0
 40
0.5
 50
0.0
 51
90.0
  0
LINE
  5
5E1
  8
0
  6
CONTINUOUS
 62
     7
 10
60.832938728481452
 20
71.516641926925161
 30
0.0
 11
60.832938728481452
 21
78.016641926925161
 31
0.0
  0
ARC
  5
5E2
  8
0
  6
CONTINUOUS
 62
     7
 10
59.43102872848128
 20
78.016641926925161
 30
0.0
 40
0.5
 50
90.0
 51
150.0000020000013
  0
LINE
  5
5E3
  8
0
  6
CONTINUOUS
 62
     7
 10
59.43102872848128
 20
78.516641926925161
 30
0.0
 11
60.332938728481217
 21
78.516641926925161
 31
0.0
  0
LINE
  5
5E4
  8
0
  6
CONTINUOUS
 62
     7
 10
48.832938738481353
 20
80.516641926925018
 30
0.0
 11
48.832938738481353
 21
77.516641926925161
 31
0.0
  0
LINE
  5
5E5
  8
0
  6
CONTINUOUS
 62
     7
 10
49.772288738481222
 20
80.516591926925159
 30
0.0
 11
52.832948738481321
 21
77.455941926925135
 31
0.0
  0
LINE
  5
5E6
  8
0
  6
CONTINUOUS
 62
     7
 10
50.625848738481153
 20
81.784381926925164
 30
0.0
 11
55.38404872848097
 21
77.02617192692496
 31
0.0
  0
ARC
  5
5E7
  8
0
  6
CONTINUOUS
 62
     7
 10
58.541678728481017
 20
76.476261926925119
 30
0.0
 40
0.5
 50
150.0000020000013
 51
228.9125099999994
  0
ARC
  5
5E8
  8
0
  6
CONTINUOUS
 62
     7
 10
55.124198728481282
 20
76.476261926925119
 30
0.0
 40
0.5
 50
311.08748999999813
 51
30.000000000000529
  0
LINE
  5
5E9
  8
0
  6
CONTINUOUS
 62
     7
 10
55.557218728481239
 20
76.726261926925091
 30
0.0
 11
55.384058728481321
 21
77.026191926925193
 31
0.0
  0
LINE
  5
5EA
  8
0
  6
CONTINUOUS
 62
     7
 10
52.832938738481332
 20
71.57731192692512
 30
0.0
 11
52.832938738481367
 21
73.997199889735271
 31
0.0
  0
LINE
  5
5EB
  8
0
  6
CONTINUOUS
 62
     7
 10
52.832938738481332
 20
77.455971926925145
 30
0.0
 11
52.832938738481332
 21
75.036103965193305
 31
0.0
  0
ARC
  5
5EC
  8
0
  6
CONTINUOUS
 62
     7
 10
51.332948738481221
 20
82.491521926925145
 30
0.0
 40
1.0
 50
180.00000300000099
 51
225.0
  0
LINE
  5
5ED
  8
0
  6
CONTINUOUS
 62
     7
 10
48.832938738481353
 20
80.516641926925018
 30
0.0
 11
49.7722687384816
 21
80.516641926925018
 31
0.0
  0
LINE
  5
5EE
  8
0
  6
CONTINUOUS
 62
     7
 10
46.832948738481321
 20
57.816621926925059
 30
0.0
 11
46.832948738481321
 21
71.216651926925124
 31
0.0
  0
ARC
  5
5EF
  8
0
  6
CONTINUOUS
 62
     7
 10
47.132938738481293
 20
57.816621926925059
 30
0.0
 40
0.30000001
 50
180.00000300000099
 51
270.000010000001
  0
ARC
  5
5F0
  8
0
  6
CONTINUOUS
 62
     7
 10
47.132938738481293
 20
71.216651926925124
 30
0.0
 40
0.30000001
 50
90.0
 51
180.00000300000099
  0
ARC
  5
5F1
  8
0
  6
CONTINUOUS
 62
     7
 10
47.132938738481293
 20
77.816621926925151
 30
0.0
 40
0.30000001
 50
180.00000300000099
 51
270.000010000001
  0
LINE
  5
5F2
  8
0
  6
CONTINUOUS
 62
     7
 10
60.832948738481427
 20
112.5166419269251
 30
0.0
 11
60.832948738481427
 21
117.04172192692479
 31
0.0
  0
LINE
  5
5F3
  8
0
  6
CONTINUOUS
 62
     7
 10
52.832948738481342
 20
117.4559719269251
 30
0.0
 11
52.83294873848137
 21
115.03610396519321
 31
0.0
  0
LINE
  5
5F4
  8
0
  6
CONTINUOUS
 62
     7
 10
47.132938738481293
 20
111.516641926925
 30
0.0
 11
48.832948738481349
 21
111.516641926925
 31
0.0
  0
LINE
  5
5F5
  8
CENTER
  6
CENTER
 62
     1
 10
53.232938728481358
 20
114.516641926925
 30
0.0
 11
60.432938728481332
 21
114.516641926925
 31
0.0
  0
LINE
  5
5F6
  8
0
  6
CONTINUOUS
 62
     7
 10
47.132938738481293
 20
91.516641926925246
 30
0.0
 11
48.832948738481349
 21
91.516641926925246
 31
0.0
  0
LINE
  5
5F7
  8
0
  6
CONTINUOUS
 62
     7
 10
47.132938738481293
 20
97.516641926925075
 30
0.0
 11
48.832948738481349
 21
97.516641926925075
 31
0.0
  0
LINE
  5
5F8
  8
0
  6
CONTINUOUS
 62
     7
 10
50.625828738481282
 20
101.7844019269251
 30
0.0
 11
52.100708738481167
 21
100.3095319269249
 31
0.0
  0
ARC
  5
5F9
  8
0
  6
CONTINUOUS
 62
     7
 10
56.832938728481317
 20
94.516641926925104
 30
0.0
 40
2.099999899999998
 50
311.08748999999813
 51
228.9125099999994
  0
LINE
  5
5FA
  8
0
  6
CONTINUOUS
 62
     7
 10
58.998018728480972
 20
90.766621926925296
 30
0.0
 11
58.108688728480999
 21
92.306981926925246
 31
0.0
  0
LINE
  5
5FB
  8
CENTER
  6
CENTER
 62
     1
 10
53.232933838463929
 20
94.516641926925104
 30
0.0
 11
60.432933638498582
 21
94.516641926925104
 31
0.0
  0
LINE
  5
5FC
  8
0
  6
CONTINUOUS
 62
     7
 10
60.832948738481427
 20
97.516641926925075
 30
0.0
 11
60.832948738481427
 21
91.016641926925146
 31
0.0
  0
ARC
  5
5FD
  8
0
  6
CONTINUOUS
 62
     7
 10
59.43102872848128
 20
91.016641926925146
 30
0.0
 40
0.5
 50
210.0000000000004
 51
270.000010000001
  0
ARC
  5
5FE
  8
0
  6
CONTINUOUS
 62
     7
 10
60.3329487384812
 20
91.016641926925146
 30
0.0
 40
0.5
 50
269.999989999999
 51
0.0
  0
LINE
  5
5FF
  8
0
  6
CONTINUOUS
 62
     7
 10
59.43102872848128
 20
90.516641926925089
 30
0.0
 11
60.3329487384812
 21
90.516641926925089
 31
0.0
  0
ARC
  5
600
  8
0
  6
CONTINUOUS
 62
     7
 10
61.832948738481207
 20
97.516641926925075
 30
0.0
 40
1.0
 50
90.0
 51
180.00000300000099
  0
LINE
  5
601
  8
0
  6
CONTINUOUS
 62
     7
 10
52.832948738481342
 20
91.577261926925161
 30
0.0
 11
52.832948738481342
 21
93.997199889735242
 31
0.0
  0
LINE
  5
602
  8
0
  6
CONTINUOUS
 62
     7
 10
50.625858738481213
 20
87.248841926924939
 30
0.0
 11
55.384058728481321
 21
92.007051926925314
 31
0.0
  0
ARC
  5
603
  8
0
  6
CONTINUOUS
 62
     7
 10
58.541678728481017
 20
92.55698192692499
 30
0.0
 40
0.5
 50
131.08749099999969
 51
210.0000000000004
  0
ARC
  5
604
  8
0
  6
CONTINUOUS
 62
     7
 10
55.124198728481282
 20
92.55698192692499
 30
0.0
 40
0.5
 50
329.99999999999937
 51
48.912509999999401
  0
LINE
  5
605
  8
0
  6
CONTINUOUS
 62
     7
 10
55.55720872848115
 20
92.306981926925246
 30
0.0
 11
55.38404872848097
 21
92.007071926925065
 31
0.0
  0
LINE
  5
606
  8
0
  6
CONTINUOUS
 62
     7
 10
49.7722687384816
 20
88.516591926925216
 30
0.0
 11
52.832948738481342
 21
91.577261926925161
 31
0.0
  0
LINE
  5
607
  8
0
  6
CONTINUOUS
 62
     7
 10
48.832948738481342
 20
88.516641926925061
 30
0.0
 11
48.832948738481349
 21
91.516641926925246
 31
0.0
  0
ARC
  5
608
  8
0
  6
CONTINUOUS
 62
     7
 10
51.332948738481221
 20
86.541751926925087
 30
0.0
 40
1.0
 50
135.0000009999992
 51
180.00000300000099
  0
LINE
  5
609
  8
0
  6
CONTINUOUS
 62
     7
 10
48.832948738481342
 20
88.516641926925061
 30
0.0
 11
49.7722687384816
 21
88.516641926925061
 31
0.0
  0
LINE
  5
60A
  8
0
  6
CONTINUOUS
 62
     7
 10
52.832948738481342
 20
97.455951926859498
 30
0.0
 11
52.832948738481342
 21
95.036103965193291
 31
0.0
  0
ARC
  5
60B
  8
0
  6
CONTINUOUS
 62
     7
 10
52.807828738481312
 20
101.016641926925
 30
0.0
 40
1.0
 50
225.0
 51
270.000010000001
  0
LINE
  5
60C
  8
0
  6
CONTINUOUS
 62
     7
 10
48.832948738481342
 20
100.516641926925
 30
0.0
 11
48.832948738481349
 21
97.516641926925075
 31
0.0
  0
LINE
  5
60D
  8
0
  6
CONTINUOUS
 62
     7
 10
49.772258738481312
 20
100.516641926925
 30
0.0
 11
52.832948738481342
 21
97.455951926859498
 31
0.0
  0
LINE
  5
60E
  8
0
  6
CONTINUOUS
 62
     7
 10
48.832948738481342
 20
100.516641926925
 30
0.0
 11
49.7722687384816
 21
100.516641926925
 31
0.0
  0
LINE
  5
60F
  8
0
  6
CONTINUOUS
 62
     7
 10
58.832938728481203
 20
110.516641926925
 30
0.0
 11
54.307768738481201
 21
110.516641926925
 31
0.0
  0
ARC
  5
610
  8
0
  6
CONTINUOUS
 62
     7
 10
58.832940194408962
 20
112.5166504710149
 30
0.0
 40
2.0000085440905182
 50
269.99994800448479
 51
359.99975523090512
  0
LINE
  5
611
  8
0
  6
CONTINUOUS
 62
     7
 10
50.625828738481282
 20
107.2488919269252
 30
0.0
 11
53.600668738481033
 21
110.2237319269252
 31
0.0
  0
LINE
  5
612
  8
0
  6
CONTINUOUS
 62
     7
 10
50.332938738481232
 20
102.491521926925
 30
0.0
 11
50.332938738481232
 21
106.5417819269251
 31
0.0
  0
ARC
  5
613
  8
0
  6
CONTINUOUS
 62
     7
 10
51.332938738481218
 20
102.491521926925
 30
0.0
 40
1.0
 50
180.00000300000099
 51
225.0
  0
ARC
  5
614
  8
0
  6
CONTINUOUS
 62
     7
 10
51.332938738481218
 20
106.5417819269251
 30
0.0
 40
1.0
 50
135.0000009999992
 51
180.00000300000099
  0
ARC
  5
615
  8
0
  6
CONTINUOUS
 62
     7
 10
54.307768738481201
 20
109.516641926925
 30
0.0
 40
1.0
 50
90.0
 51
135.0000009999992
  0
LINE
  5
616
  8
0
  6
CONTINUOUS
 62
     7
 10
52.832948738481342
 20
111.5773319269254
 30
0.0
 11
52.832948738481342
 21
113.9971998897352
 31
0.0
  0
LINE
  5
617
  8
0
  6
CONTINUOUS
 62
     7
 10
49.772258738481312
 20
108.5166419269251
 30
0.0
 11
52.832948738481342
 21
111.5773319269254
 31
0.0
  0
LINE
  5
618
  8
0
  6
CONTINUOUS
 62
     7
 10
48.832948738481349
 20
108.5166419269251
 30
0.0
 11
48.832948738481349
 21
111.516641926925
 31
0.0
  0
LINE
  5
619
  8
0
  6
CONTINUOUS
 62
     7
 10
48.832948738481349
 20
108.5166419269251
 30
0.0
 11
49.7722687384816
 21
108.5166419269251
 31
0.0
  0
LINE
  5
61A
  8
0
  6
CONTINUOUS
 62
     7
 10
46.832948738481321
 20
97.816621926925237
 30
0.0
 11
46.832948738481321
 21
111.2166519269248
 31
0.0
  0
ARC
  5
61B
  8
0
  6
CONTINUOUS
 62
     7
 10
47.132938738481293
 20
91.216651926925223
 30
0.0
 40
0.30000001
 50
90.0
 51
180.00000300000099
  0
ARC
  5
61C
  8
0
  6
CONTINUOUS
 62
     7
 10
47.132938738481293
 20
97.816621926925237
 30
0.0
 40
0.30000001
 50
180.00000300000099
 51
270.000010000001
  0
ARC
  5
61D
  8
0
  6
CONTINUOUS
 62
     7
 10
47.132938738481293
 20
111.2166519269248
 30
0.0
 40
0.30000001
 50
90.0
 51
180.00000300000099
  0
LINE
  5
61E
  8
0
  6
CONTINUOUS
 62
     7
 10
47.032948738481409
 20
124.1166419269251
 30
0.0
 11
53.832948738481221
 21
124.1166419269251
 31
0.0
  0
LINE
  5
61F
  8
0
  6
CONTINUOUS
 62
     7
 10
47.132938738481293
 20
117.516641926925
 30
0.0
 11
48.832948738481363
 21
117.5166419269251
 31
0.0
  0
LINE
  5
620
  8
0
  6
CONTINUOUS
 62
     7
 10
59.772258728448307
 20
118.516641926925
 30
0.0
 11
57.352579104375458
 21
118.516641926925
 31
0.0
  0
LINE
  5
621
  8
0
  6
CONTINUOUS
 62
     7
 10
59.8329487384812
 20
124.116651936925
 30
0.0
 11
59.8329487384812
 21
122.516641926925
 31
0.0
  0
ARC
  5
622
  8
0
  6
CONTINUOUS
 62
     7
 10
64.807858728480994
 20
120.016641926925
 30
0.0
 40
1.0
 50
90.0
 51
135.0000009999992
  0
LINE
  5
623
  8
0
  6
CONTINUOUS
 62
     7
 10
64.100758728481026
 20
120.723731926925
 30
0.0
 11
61.125848738481359
 21
117.748811926925
 31
0.0
  0
LINE
  5
624
  8
0
  6
CONTINUOUS
 62
     7
 10
62.8329487384812
 20
121.5773219269249
 30
0.0
 11
59.772258728448307
 21
118.516641926925
 31
0.0
  0
ARC
  5
625
  8
0
  6
CONTINUOUS
 62
     7
 10
61.832948738481207
 20
117.04172192692479
 30
0.0
 40
1.0
 50
135.0000009999992
 51
180.00000300000099
  0
LINE
  5
626
  8
0
  6
CONTINUOUS
 62
     7
 10
62.832948738481207
 20
122.5166419269251
 30
0.0
 11
59.8329487384812
 21
122.516641926925
 31
0.0
  0
LINE
  5
627
  8
0
  6
CONTINUOUS
 62
     7
 10
62.8329487384812
 20
121.57731192692511
 30
0.0
 11
62.832948738481207
 21
122.5166419269251
 31
0.0
  0
LINE
  5
628
  8
0
  6
CONTINUOUS
 62
     7
 10
53.832948738481221
 20
124.1166419269251
 30
0.0
 11
53.832948738481221
 21
122.516641926925
 31
0.0
  0
LINE
  5
629
  8
0
  6
CONTINUOUS
 62
     7
 10
50.832978738481131
 20
121.57727192692521
 30
0.0
 11
53.893598738579023
 21
118.516641926925
 31
0.0
  0
LINE
  5
62A
  8
0
  6
CONTINUOUS
 62
     7
 10
50.832948738481242
 20
122.516641926925
 30
0.0
 11
53.832948738481221
 21
122.516641926925
 31
0.0
  0
LINE
  5
62B
  8
0
  6
CONTINUOUS
 62
     7
 10
53.893598738579023
 20
118.516641926925
 30
0.0
 11
56.313329374827781
 21
118.516641926925
 31
0.0
  0
LINE
  5
62C
  8
0
  6
CONTINUOUS
 62
     7
 10
48.832948738481363
 20
120.5166419269251
 30
0.0
 11
48.832948738481363
 21
117.5166419269251
 31
0.0
  0
LINE
  5
62D
  8
0
  6
CONTINUOUS
 62
     7
 10
49.772278738481042
 20
120.5166419269251
 30
0.0
 11
52.832978738481373
 21
117.455951926925
 31
0.0
  0
LINE
  5
62E
  8
0
  6
CONTINUOUS
 62
     7
 10
48.832948738481363
 20
120.5166419269251
 30
0.0
 11
49.772278738481042
 21
120.5166419269251
 31
0.0
  0
LINE
  5
62F
  8
0
  6
CONTINUOUS
 62
     7
 10
50.832948738481242
 20
121.57731192692511
 30
0.0
 11
50.832948738481242
 21
122.516641926925
 31
0.0
  0
LINE
  5
630
  8
0
  6
CONTINUOUS
 62
     7
 10
46.832948738481321
 20
117.8166219269249
 30
0.0
 11
46.832948738481321
 21
123.516641926925
 31
0.0
  0
ARC
  5
631
  8
0
  6
CONTINUOUS
 62
     7
 10
47.132938738481293
 20
117.8166219269249
 30
0.0
 40
0.30000001
 50
180.00000300000099
 51
270.000010000001
  0
CIRCLE
  5
632
  8
0
  6
CONTINUOUS
 62
     7
 10
56.832938728481317
 20
54.516641926925182
 30
0.0
 40
2.1000000000000001
  0
CIRCLE
  5
633
  8
0
  6
CONTINUOUS
 62
     7
 10
56.832938728481317
 20
114.516641926925
 30
0.0
 40
2.1000000000000001
  0
LINE
  5
634
  8
0
  6
CONTINUOUS
 62
     7
 10
86.83294873848142
 20
97.816621926925237
 30
0.0
 11
86.83294873848142
 21
111.2166519269248
 31
0.0
  0
ARC
  5
635
  8
0
  6
CONTINUOUS
 62
     7
 10
82.33295873848121
 20
102.491521926925
 30
0.0
 40
1.0
 50
315.0
 51
359.99999699999893
  0
LINE
  5
636
  8
0
  6
CONTINUOUS
 62
     7
 10
80.832958738481196
 20
51.577311926925233
 30
0.0
 11
80.832958738481196
 21
53.99719988973532
 31
0.0
  0
ARC
  5
637
  8
0
  6
CONTINUOUS
 62
     7
 10
71.832958748481403
 20
51.99155192692524
 30
0.0
 40
1.0
 50
315.0
 51
359.99999699999893
  0
LINE
  5
638
  8
0
  6
CONTINUOUS
 62
     7
 10
73.832958748481374
 20
44.916621916924903
 30
0.0
 11
59.832938728481217
 21
44.916621916924903
 31
0.0
  0
LINE
  5
639
  8
0
  6
CONTINUOUS
 62
     7
 10
69.565118748481325
 20
48.309491926925141
 30
0.0
 11
72.540058748481243
 21
51.28444192692524
 31
0.0
  0
LINE
  5
63A
  8
0
  6
CONTINUOUS
 62
     7
 10
68.858038573948349
 20
48.016641926925153
 30
0.0
 11
64.80785872848115
 21
48.016641926924478
 31
0.0
  0
ARC
  5
63B
  8
0
  6
CONTINUOUS
 62
     7
 10
68.858038748481292
 20
49.016641926925182
 30
0.0
 40
1.0
 50
269.999989999999
 51
315.0
  0
LINE
  5
63C
  8
0
  6
CONTINUOUS
 62
     7
 10
82.83295873848121
 20
46.516641926925168
 30
0.0
 11
79.832958738481508
 21
46.516641926925168
 31
0.0
  0
LINE
  5
63D
  8
0
  6
CONTINUOUS
 62
     7
 10
82.832908738481336
 20
47.455941926925149
 30
0.0
 11
79.772248738481309
 21
50.516611926925243
 31
0.0
  0
LINE
  5
63E
  8
0
  6
CONTINUOUS
 62
     7
 10
86.632948738481375
 20
44.916641926925131
 30
0.0
 11
79.83295873848148
 21
44.916641926925131
 31
0.0
  0
LINE
  5
63F
  8
0
  6
CONTINUOUS
 62
     7
 10
79.83295873848148
 20
44.916641926925131
 30
0.0
 11
79.832958738481508
 21
46.516641926925168
 31
0.0
  0
LINE
  5
640
  8
0
  6
CONTINUOUS
 62
     7
 10
73.832958748481374
 20
44.916621916924903
 30
0.0
 11
73.832958748481374
 21
46.516641926925168
 31
0.0
  0
LINE
  5
641
  8
0
  6
CONTINUOUS
 62
     7
 10
79.77231873848126
 20
50.516641926925153
 30
0.0
 11
77.352553970751984
 21
50.516641926925153
 31
0.0
  0
LINE
  5
642
  8
0
  6
CONTINUOUS
 62
     7
 10
70.832958748481289
 20
46.516641926925168
 30
0.0
 11
70.832958748481289
 21
47.455971926925137
 31
0.0
  0
LINE
  5
643
  8
0
  6
CONTINUOUS
 62
     7
 10
70.832958748481289
 20
46.516641926925168
 30
0.0
 11
73.832958748481374
 21
46.516641926925168
 31
0.0
  0
LINE
  5
644
  8
0
  6
CONTINUOUS
 62
     7
 10
70.832898748481355
 20
47.455941926925149
 30
0.0
 11
73.893558748481311
 21
50.516611926925243
 31
0.0
  0
LINE
  5
645
  8
0
  6
CONTINUOUS
 62
     7
 10
73.893628748481333
 20
50.516641926925153
 30
0.0
 11
76.313323486210692
 21
50.516641926925153
 31
0.0
  0
LINE
  5
646
  8
0
  6
CONTINUOUS
 62
     7
 10
86.83294873848142
 20
45.516641926925153
 30
0.0
 11
86.83294873848142
 21
51.21665192692511
 31
0.0
  0
ARC
  5
647
  8
0
  6
CONTINUOUS
 62
     7
 10
86.532958738481469
 20
51.21665192692511
 30
0.0
 40
0.30000001
 50
359.99999699999893
 51
90.0
  0
LINE
  5
648
  8
0
  6
CONTINUOUS
 62
     7
 10
84.83295873848131
 20
48.516641926925168
 30
0.0
 11
83.893628738481254
 21
48.516641926925168
 31
0.0
  0
LINE
  5
649
  8
0
  6
CONTINUOUS
 62
     7
 10
84.83295873848131
 20
48.516641926925168
 30
0.0
 11
84.83295873848131
 21
51.516641926924933
 31
0.0
  0
LINE
  5
64A
  8
0
  6
CONTINUOUS
 62
     7
 10
83.893558738481218
 20
48.516611926925137
 30
0.0
 11
80.832898738481333
 21
51.577271926925206
 31
0.0
  0
LINE
  5
64B
  8
0
  6
CONTINUOUS
 62
     7
 10
82.83295873848121
 20
46.516641926925168
 30
0.0
 11
82.83295873848121
 21
47.455971926925137
 31
0.0
  0
LINE
  5
64C
  8
0
  6
CONTINUOUS
 62
     7
 10
86.532958738481469
 20
51.516641926924933
 30
0.0
 11
84.83295873848131
 21
51.516641926924933
 31
0.0
  0
LINE
  5
64D
  8
0
  6
CONTINUOUS
 62
     7
 10
80.832948738481235
 20
77.455951926892425
 30
0.0
 11
80.832948738481235
 21
75.03610396519322
 31
0.0
  0
LINE
  5
64E
  8
0
  6
CONTINUOUS
 62
     7
 10
83.040048738481346
 20
81.784381926925164
 30
0.0
 11
78.28184874848138
 21
77.02617192692496
 31
0.0
  0
LINE
  5
64F
  8
0
  6
CONTINUOUS
 62
     7
 10
72.832948738481335
 20
71.516641926925161
 30
0.0
 11
72.832948738481335
 21
78.016641926925161
 31
0.0
  0
LINE
  5
650
  8
0
  6
CONTINUOUS
 62
     7
 10
74.66788874848163
 20
78.266621926925197
 30
0.0
 11
75.557218748481333
 21
76.726261926925091
 31
0.0
  0
LINE
  5
651
  8
0
  6
CONTINUOUS
 62
     7
 10
71.832948563948364
 20
70.516641926925161
 30
0.0
 11
61.832938728481253
 21
70.516641926924947
 31
0.0
  0
LINE
  5
652
  8
0
  6
CONTINUOUS
 62
     7
 10
80.858068738481265
 20
69.016641926925161
 30
0.0
 11
52.807828738481312
 21
69.016641926925161
 31
0.0
  0
LINE
  5
653
  8
CENTER
  6
CENTER
 62
     1
 10
80.43295874848134
 20
54.516641926925182
 30
0.0
 11
73.23295874848138
 21
54.516641926925182
 31
0.0
  0
LINE
  5
654
  8
0
  6
CONTINUOUS
 62
     7
 10
86.83294873848142
 20
57.816621926925052
 30
0.0
 11
86.83294873848142
 21
71.216651926925124
 31
0.0
  0
LINE
  5
655
  8
0
  6
CONTINUOUS
 62
     7
 10
83.332958738481196
 20
62.491491926925242
 30
0.0
 11
83.332958738481196
 21
66.541751926925144
 31
0.0
  0
LINE
  5
656
  8
0
  6
CONTINUOUS
 62
     7
 10
83.040058738481335
 20
61.784371926925118
 30
0.0
 11
80.065188738481254
 21
58.809501926924881
 31
0.0
  0
ARC
  5
657
  8
0
  6
CONTINUOUS
 62
     7
 10
74.832958748481374
 20
56.516641926925182
 30
0.0
 40
2.0
 50
90.0
 51
180.0
  0
CIRCLE
  5
658
  8
0
  6
CONTINUOUS
 62
     7
 10
76.832958748481332
 20
54.516641926925182
 30
0.0
 40
2.1000000000000001
  0
LINE
  5
659
  8
0
  6
CONTINUOUS
 62
     7
 10
72.832958748481332
 20
56.516641926925182
 30
0.0
 11
72.832958748481332
 21
51.99155192692524
 31
0.0
  0
ARC
  5
65A
  8
0
  6
CONTINUOUS
 62
     7
 10
79.358098738481331
 20
59.516641926925061
 30
0.0
 40
1.0
 50
269.999989999999
 51
315.0
  0
LINE
  5
65B
  8
0
  6
CONTINUOUS
 62
     7
 10
74.832958748481374
 20
58.516641926925168
 30
0.0
 11
79.358098738481331
 21
58.516641926925168
 31
0.0
  0
LINE
  5
65C
  8
0
  6
CONTINUOUS
 62
     7
 10
83.893558738481218
 20
60.516621926925183
 30
0.0
 11
80.832898738481333
 21
57.455951926925152
 31
0.0
  0
LINE
  5
65D
  8
0
  6
CONTINUOUS
 62
     7
 10
84.83295873848131
 20
60.516641926925153
 30
0.0
 11
84.83295873848131
 21
57.516641926925161
 31
0.0
  0
ARC
  5
65E
  8
0
  6
CONTINUOUS
 62
     7
 10
86.532958738481469
 20
57.816621926925059
 30
0.0
 40
0.30000001
 50
269.999989999999
 51
359.99999699999893
  0
LINE
  5
65F
  8
0
  6
CONTINUOUS
 62
     7
 10
86.532958738481469
 20
57.516641926925161
 30
0.0
 11
84.83295873848131
 21
57.516641926925161
 31
0.0
  0
LINE
  5
660
  8
0
  6
CONTINUOUS
 62
     7
 10
80.832958738481196
 20
57.455971926924967
 30
0.0
 11
80.832958738481196
 21
55.036103965193213
 31
0.0
  0
LINE
  5
661
  8
0
  6
CONTINUOUS
 62
     7
 10
84.83295873848131
 20
60.516641926925153
 30
0.0
 11
83.893628738481254
 21
60.516641926925153
 31
0.0
  0
ARC
  5
662
  8
0
  6
CONTINUOUS
 62
     7
 10
82.33295873848121
 20
62.491491926925242
 30
0.0
 40
1.0
 50
315.0
 51
359.99999699999893
  0
LINE
  5
663
  8
CENTER
  6
CENTER
 62
     1
 10
80.432958648481332
 20
74.516641926925161
 30
0.0
 11
73.232958848481331
 21
74.516641926925161
 31
0.0
  0
ARC
  5
664
  8
0
  6
CONTINUOUS
 62
     7
 10
71.832948738481406
 20
71.516641926925161
 30
0.0
 40
1.0
 50
269.999989999999
 51
359.99999699999893
  0
LINE
  5
665
  8
0
  6
CONTINUOUS
 62
     7
 10
78.108678748481481
 20
76.726261926925091
 30
0.0
 11
78.281838748481334
 21
77.026191926925193
 31
0.0
  0
ARC
  5
666
  8
0
  6
CONTINUOUS
 62
     7
 10
78.541698748481565
 20
76.476261926925119
 30
0.0
 40
0.5
 50
149.9999999999994
 51
228.9125099999994
  0
ARC
  5
667
  8
0
  6
CONTINUOUS
 62
     7
 10
75.124218748481425
 20
76.476261926925119
 30
0.0
 40
0.5
 50
311.08748999999813
 51
29.999997999998691
  0
ARC
  5
668
  8
0
  6
CONTINUOUS
 62
     7
 10
76.832958748481332
 20
74.516641926925161
 30
0.0
 40
2.099999899999998
 50
131.0874799999994
 51
48.91250900000027
  0
LINE
  5
669
  8
0
  6
CONTINUOUS
 62
     7
 10
84.832948738481306
 20
68.516641926924933
 30
0.0
 11
84.832948738481335
 21
71.516641926925161
 31
0.0
  0
LINE
  5
66A
  8
0
  6
CONTINUOUS
 62
     7
 10
83.893608738481376
 20
68.516591926925216
 30
0.0
 11
80.832948738481235
 21
71.577231926957822
 31
0.0
  0
LINE
  5
66B
  8
0
  6
CONTINUOUS
 62
     7
 10
84.832948738481306
 20
68.516641926924933
 30
0.0
 11
83.893628738481254
 21
68.516641926924933
 31
0.0
  0
LINE
  5
66C
  8
0
  6
CONTINUOUS
 62
     7
 10
83.040038738481286
 20
67.24883192692522
 30
0.0
 11
81.565158738481557
 21
68.723711926924963
 31
0.0
  0
ARC
  5
66D
  8
0
  6
CONTINUOUS
 62
     7
 10
80.858068738481265
 20
68.016641926925033
 30
0.0
 40
1.0
 50
44.999999000000791
 51
90.0
  0
ARC
  5
66E
  8
0
  6
CONTINUOUS
 62
     7
 10
82.33295873848121
 20
66.541751926925144
 30
0.0
 40
1.0
 50
359.99999699999893
 51
44.999999000000791
  0
ARC
  5
66F
  8
0
  6
CONTINUOUS
 62
     7
 10
86.532958738481469
 20
71.216651926925124
 30
0.0
 40
0.30000001
 50
359.99999699999893
 51
90.0
  0
LINE
  5
670
  8
0
  6
CONTINUOUS
 62
     7
 10
80.832948738481235
 20
71.577231926957822
 30
0.0
 11
80.832948738481235
 21
73.997199889735285
 31
0.0
  0
LINE
  5
671
  8
0
  6
CONTINUOUS
 62
     7
 10
86.532958738481469
 20
71.516641926925161
 30
0.0
 11
84.832948738481335
 21
71.516641926925161
 31
0.0
  0
LINE
  5
672
  8
0
  6
CONTINUOUS
 62
     7
 10
80.858068563948351
 20
100.0166419269251
 30
0.0
 11
52.807828738481312
 21
100.0166419269251
 31
0.0
  0
LINE
  5
673
  8
0
  6
CONTINUOUS
 62
     7
 10
71.832948738481406
 20
98.516641926925104
 30
0.0
 11
61.832948738481207
 21
98.516641926925104
 31
0.0
  0
LINE
  5
674
  8
0
  6
CONTINUOUS
 62
     7
 10
84.832948738481306
 20
88.516641926925061
 30
0.0
 11
84.832948738481306
 21
91.516641926925246
 31
0.0
  0
LINE
  5
675
  8
0
  6
CONTINUOUS
 62
     7
 10
83.893578738481423
 20
88.516641926925061
 30
0.0
 11
80.832948738481235
 21
91.577261926925161
 31
0.0
  0
LINE
  5
676
  8
0
  6
CONTINUOUS
 62
     7
 10
83.040038738481329
 20
87.248841926924939
 30
0.0
 11
78.281838748481334
 21
92.007051926925314
 31
0.0
  0
LINE
  5
677
  8
0
  6
CONTINUOUS
 62
     7
 10
86.83294873848142
 20
77.816621926925151
 30
0.0
 11
86.83294873848142
 21
91.216651926925223
 31
0.0
  0
LINE
  5
678
  8
0
  6
CONTINUOUS
 62
     7
 10
74.234868748481503
 20
78.516641926925161
 30
0.0
 11
73.332948738481335
 21
78.516641926925161
 31
0.0
  0
ARC
  5
679
  8
0
  6
CONTINUOUS
 62
     7
 10
74.234868748481503
 20
78.016641926925161
 30
0.0
 40
0.5
 50
29.999997999998691
 51
90.0
  0
ARC
  5
67A
  8
0
  6
CONTINUOUS
 62
     7
 10
73.332948738481335
 20
78.016641926925161
 30
0.0
 40
0.5
 50
90.0
 51
180.0
  0
LINE
  5
67B
  8
0
  6
CONTINUOUS
 62
     7
 10
83.332948738481235
 20
82.491521926925145
 30
0.0
 11
83.332948738481235
 21
86.541751926925087
 31
0.0
  0
ARC
  5
67C
  8
0
  6
CONTINUOUS
 62
     7
 10
86.532958738481469
 20
77.816621926925151
 30
0.0
 40
0.30000001
 50
269.999989999999
 51
359.99999699999893
  0
LINE
  5
67D
  8
0
  6
CONTINUOUS
 62
     7
 10
84.832948738481306
 20
80.516641926925018
 30
0.0
 11
83.893628738481254
 21
80.516641926925018
 31
0.0
  0
ARC
  5
67E
  8
0
  6
CONTINUOUS
 62
     7
 10
82.332948738481207
 20
82.491521926925145
 30
0.0
 40
1.0
 50
315.0
 51
359.99999699999893
  0
LINE
  5
67F
  8
0
  6
CONTINUOUS
 62
     7
 10
83.893608738481376
 20
80.516591926925159
 30
0.0
 11
80.832948738481235
 21
77.455951926892425
 31
0.0
  0
LINE
  5
680
  8
0
  6
CONTINUOUS
 62
     7
 10
84.832948738481306
 20
80.516641926925018
 30
0.0
 11
84.832948738481306
 21
77.516641926925161
 31
0.0
  0
LINE
  5
681
  8
0
  6
CONTINUOUS
 62
     7
 10
86.532958738481469
 20
77.516641926925161
 30
0.0
 11
84.832948738481306
 21
77.516641926925161
 31
0.0
  0
LINE
  5
682
  8
0
  6
CONTINUOUS
 62
     7
 10
84.832948738481306
 20
88.516641926925061
 30
0.0
 11
83.893578738481423
 21
88.516641926925061
 31
0.0
  0
ARC
  5
683
  8
0
  6
CONTINUOUS
 62
     7
 10
82.332948738481207
 20
86.541751926925087
 30
0.0
 40
1.0
 50
359.99999699999893
 51
44.999999000000791
  0
LINE
  5
684
  8
CENTER
  6
CENTER
 62
     1
 10
80.432938638467249
 20
94.516641926925104
 30
0.0
 11
73.232948838481335
 21
94.516641926925104
 31
0.0
  0
LINE
  5
685
  8
0
  6
CONTINUOUS
 62
     7
 10
72.832948738481335
 20
97.516641926925075
 30
0.0
 11
72.832948738481335
 21
91.016641926925146
 31
0.0
  0
ARC
  5
686
  8
0
  6
CONTINUOUS
 62
     7
 10
76.832958748481332
 20
94.516641926925104
 30
0.0
 40
2.099999899999998
 50
311.08748999999813
 51
228.9125099999994
  0
LINE
  5
687
  8
0
  6
CONTINUOUS
 62
     7
 10
78.108688748481256
 20
92.306981926925246
 30
0.0
 11
78.28184874848138
 21
92.007071926925065
 31
0.0
  0
ARC
  5
688
  8
0
  6
CONTINUOUS
 62
     7
 10
78.541698748481565
 20
92.55698192692499
 30
0.0
 40
0.5
 50
131.0874900000006
 51
210.0000000000004
  0
ARC
  5
689
  8
0
  6
CONTINUOUS
 62
     7
 10
75.124218748481425
 20
92.55698192692499
 30
0.0
 40
0.5
 50
329.99999999999937
 51
48.91250900000027
  0
LINE
  5
68A
  8
0
  6
CONTINUOUS
 62
     7
 10
74.234868748481503
 20
90.516641926925089
 30
0.0
 11
73.332948738481335
 21
90.516641926925089
 31
0.0
  0
ARC
  5
68B
  8
0
  6
CONTINUOUS
 62
     7
 10
73.332948738481335
 20
91.016641926925146
 30
0.0
 40
0.5
 50
180.0
 51
270.000010000001
  0
ARC
  5
68C
  8
0
  6
CONTINUOUS
 62
     7
 10
74.234868748481503
 20
91.016641926925146
 30
0.0
 40
0.5
 50
269.999989999999
 51
329.99999999999937
  0
LINE
  5
68D
  8
0
  6
CONTINUOUS
 62
     7
 10
74.667878748481385
 20
90.766621926925296
 30
0.0
 11
75.557208748481614
 21
92.306981926925246
 31
0.0
  0
ARC
  5
68E
  8
0
  6
CONTINUOUS
 62
     7
 10
71.832948738481406
 20
97.516641926925075
 30
0.0
 40
1.0
 50
359.99999699999893
 51
90.0
  0
LINE
  5
68F
  8
0
  6
CONTINUOUS
 62
     7
 10
80.832948738481235
 20
97.45595192685964
 30
0.0
 11
80.832948738481235
 21
95.03610396519322
 31
0.0
  0
ARC
  5
690
  8
0
  6
CONTINUOUS
 62
     7
 10
86.532958738481469
 20
91.216651926925223
 30
0.0
 40
0.30000001
 50
359.99999699999893
 51
90.0
  0
LINE
  5
691
  8
0
  6
CONTINUOUS
 62
     7
 10
80.832948738481235
 20
91.577261926925161
 30
0.0
 11
80.832948738481235
 21
93.997199889735313
 31
0.0
  0
LINE
  5
692
  8
0
  6
CONTINUOUS
 62
     7
 10
86.532958738481469
 20
91.516641926925246
 30
0.0
 11
84.832948738481306
 21
91.516641926925246
 31
0.0
  0
ARC
  5
693
  8
0
  6
CONTINUOUS
 62
     7
 10
86.532958738481469
 20
97.816621926925237
 30
0.0
 40
0.30000001
 50
269.999989999999
 51
359.99999699999893
  0
LINE
  5
694
  8
0
  6
CONTINUOUS
 62
     7
 10
84.832948738481306
 20
100.516641926925
 30
0.0
 11
83.893628738481254
 21
100.516641926925
 31
0.0
  0
LINE
  5
695
  8
0
  6
CONTINUOUS
 62
     7
 10
83.893638738481499
 20
100.516641926925
 30
0.0
 11
80.832948738481235
 21
97.45595192685964
 31
0.0
  0
LINE
  5
696
  8
0
  6
CONTINUOUS
 62
     7
 10
84.832948738481306
 20
100.516641926925
 30
0.0
 11
84.832948738481306
 21
97.516641926925075
 31
0.0
  0
ARC
  5
697
  8
0
  6
CONTINUOUS
 62
     7
 10
80.858068738481265
 20
101.016641926925
 30
0.0
 40
1.0
 50
269.999989999999
 51
315.0
  0
LINE
  5
698
  8
0
  6
CONTINUOUS
 62
     7
 10
83.040068738481224
 20
101.7844019269251
 30
0.0
 11
81.565188738481382
 21
100.3095319269249
 31
0.0
  0
LINE
  5
699
  8
0
  6
CONTINUOUS
 62
     7
 10
86.532958738481469
 20
97.516641926925075
 30
0.0
 11
84.832948738481306
 21
97.516641926925075
 31
0.0
  0
LINE
  5
69A
  8
0
  6
CONTINUOUS
 62
     7
 10
73.832948738481377
 20
124.116651936925
 30
0.0
 11
59.8329487384812
 21
124.116651936925
 31
0.0
  0
LINE
  5
69B
  8
0
  6
CONTINUOUS
 62
     7
 10
69.565138748481374
 20
120.723731926925
 30
0.0
 11
72.540048738481261
 21
117.748811926925
 31
0.0
  0
LINE
  5
69C
  8
CENTER
  6
CENTER
 62
     1
 10
80.432958748481397
 20
114.516641926925
 30
0.0
 11
73.23295874848138
 21
114.516641926925
 31
0.0
  0
LINE
  5
69D
  8
0
  6
CONTINUOUS
 62
     7
 10
68.858038748481292
 20
121.0166419269251
 30
0.0
 11
64.807858728480994
 21
121.0166419269251
 31
0.0
  0
ARC
  5
69E
  8
0
  6
CONTINUOUS
 62
     7
 10
68.858038748481292
 20
120.016641926925
 30
0.0
 40
1.0
 50
44.999999000000791
 51
90.0
  0
CIRCLE
  5
69F
  8
0
  6
CONTINUOUS
 62
     7
 10
76.832958748481332
 20
114.516641926925
 30
0.0
 40
2.1000000000000001
  0
LINE
  5
6A0
  8
0
  6
CONTINUOUS
 62
     7
 10
80.832948738481235
 20
117.45598192692491
 30
0.0
 11
80.832948738481235
 21
115.03610396519321
 31
0.0
  0
LINE
  5
6A1
  8
0
  6
CONTINUOUS
 62
     7
 10
72.832948738481335
 20
112.5166419269251
 30
0.0
 11
72.832948738481335
 21
117.04172192692479
 31
0.0
  0
LINE
  5
6A2
  8
0
  6
CONTINUOUS
 62
     7
 10
83.040068738481224
 20
107.2488919269252
 30
0.0
 11
80.065228738481423
 21
110.2237319269252
 31
0.0
  0
ARC
  5
6A3
  8
0
  6
CONTINUOUS
 62
     7
 10
79.358128738481312
 20
109.516641926925
 30
0.0
 40
1.0
 50
44.999999000000791
 51
90.0
  0
ARC
  5
6A4
  8
0
  6
CONTINUOUS
 62
     7
 10
74.832957282553622
 20
112.5166504710149
 30
0.0
 40
2.0000085440905071
 50
180.00024476909479
 51
270.00005199551509
  0
LINE
  5
6A5
  8
0
  6
CONTINUOUS
 62
     7
 10
74.832958748481374
 20
110.516641926925
 30
0.0
 11
79.358128738481312
 21
110.516641926925
 31
0.0
  0
LINE
  5
6A6
  8
0
  6
CONTINUOUS
 62
     7
 10
84.832948738481306
 20
108.5166419269251
 30
0.0
 11
84.832948738481306
 21
111.516641926925
 31
0.0
  0
LINE
  5
6A7
  8
0
  6
CONTINUOUS
 62
     7
 10
83.893638738481499
 20
108.5166419269251
 30
0.0
 11
80.832948738481235
 21
111.5773319269253
 31
0.0
  0
LINE
  5
6A8
  8
0
  6
CONTINUOUS
 62
     7
 10
84.832948738481306
 20
108.5166419269251
 30
0.0
 11
83.893628738481254
 21
108.5166419269251
 31
0.0
  0
ARC
  5
6A9
  8
0
  6
CONTINUOUS
 62
     7
 10
82.33295873848121
 20
106.5417819269251
 30
0.0
 40
1.0
 50
359.99999699999893
 51
44.999999000000791
  0
LINE
  5
6AA
  8
0
  6
CONTINUOUS
 62
     7
 10
83.332958738481196
 20
102.491521926925
 30
0.0
 11
83.332958738481196
 21
106.5417819269251
 31
0.0
  0
ARC
  5
6AB
  8
0
  6
CONTINUOUS
 62
     7
 10
86.532958738481469
 20
111.2166519269248
 30
0.0
 40
0.30000001
 50
359.99999699999893
 51
90.0
  0
LINE
  5
6AC
  8
0
  6
CONTINUOUS
 62
     7
 10
80.832948738481235
 20
111.5773319269253
 30
0.0
 11
80.832948738481235
 21
113.9971998897354
 31
0.0
  0
LINE
  5
6AD
  8
0
  6
CONTINUOUS
 62
     7
 10
86.532958738481469
 20
111.516641926925
 30
0.0
 11
84.832948738481306
 21
111.516641926925
 31
0.0
  0
LINE
  5
6AE
  8
0
  6
CONTINUOUS
 62
     7
 10
82.832948738481221
 20
122.516641926925
 30
0.0
 11
79.832948738481505
 21
122.516641926925
 31
0.0
  0
LINE
  5
6AF
  8
0
  6
CONTINUOUS
 62
     7
 10
82.832918738481254
 20
121.57727192692521
 30
0.0
 11
79.772298738383313
 21
118.516641926925
 31
0.0
  0
LINE
  5
6B0
  8
0
  6
CONTINUOUS
 62
     7
 10
86.632948738481346
 20
124.1166419269251
 30
0.0
 11
79.832948738481505
 21
124.1166419269251
 31
0.0
  0
LINE
  5
6B1
  8
0
  6
CONTINUOUS
 62
     7
 10
70.832948738481292
 20
121.5773219269249
 30
0.0
 11
73.893628748481333
 21
118.51665192692511
 31
0.0
  0
LINE
  5
6B2
  8
0
  6
CONTINUOUS
 62
     7
 10
79.772298738383313
 20
118.516641926925
 30
0.0
 11
77.352594500396904
 21
118.516641926925
 31
0.0
  0
ARC
  5
6B3
  8
0
  6
CONTINUOUS
 62
     7
 10
71.832948738481406
 20
117.04172192692479
 30
0.0
 40
1.0
 50
359.99999699999893
 51
44.999999000000791
  0
LINE
  5
6B4
  8
0
  6
CONTINUOUS
 62
     7
 10
73.893628748481333
 20
118.516641926925
 30
0.0
 11
76.313313978833932
 21
118.516641926925
 31
0.0
  0
LINE
  5
6B5
  8
0
  6
CONTINUOUS
 62
     7
 10
79.832948738481505
 20
124.1166419269251
 30
0.0
 11
79.832948738481505
 21
122.516641926925
 31
0.0
  0
LINE
  5
6B6
  8
0
  6
CONTINUOUS
 62
     7
 10
70.832948738481292
 20
121.57731192692511
 30
0.0
 11
70.832948738481292
 21
122.516641926925
 31
0.0
  0
LINE
  5
6B7
  8
0
  6
CONTINUOUS
 62
     7
 10
70.832948738481292
 20
122.516641926925
 30
0.0
 11
73.832948738481377
 21
122.516641926925
 31
0.0
  0
LINE
  5
6B8
  8
0
  6
CONTINUOUS
 62
     7
 10
73.832948738481377
 20
124.116651936925
 30
0.0
 11
73.832948738481377
 21
122.516641926925
 31
0.0
  0
LINE
  5
6B9
  8
0
  6
CONTINUOUS
 62
     7
 10
86.83294873848142
 20
117.8166219269249
 30
0.0
 11
86.83294873848142
 21
123.516641926925
 31
0.0
  0
ARC
  5
6BA
  8
0
  6
CONTINUOUS
 62
     7
 10
86.532958738481469
 20
117.8166219269249
 30
0.0
 40
0.30000001
 50
269.999989999999
 51
359.99999699999893
  0
LINE
  5
6BB
  8
0
  6
CONTINUOUS
 62
     7
 10
84.832948738481335
 20
120.5166419269251
 30
0.0
 11
83.893618738481635
 21
120.5166419269251
 31
0.0
  0
LINE
  5
6BC
  8
0
  6
CONTINUOUS
 62
     7
 10
83.893618738481635
 20
120.5166419269251
 30
0.0
 11
80.832948738481235
 21
117.45598192692491
 31
0.0
  0
LINE
  5
6BD
  8
0
  6
CONTINUOUS
 62
     7
 10
84.832948738481335
 20
120.5166419269251
 30
0.0
 11
84.832948738481306
 21
117.516641926925
 31
0.0
  0
LINE
  5
6BE
  8
0
  6
CONTINUOUS
 62
     7
 10
86.532958738481469
 20
117.516641926925
 30
0.0
 11
84.832948738481306
 21
117.516641926925
 31
0.0
  0
LINE
  5
6BF
  8
0
  6
CONTINUOUS
 62
     7
 10
82.832948738481221
 20
121.57731192692511
 30
0.0
 11
82.832948738481221
 21
122.516641926925
 31
0.0
  0
LINE
  5
6C0
  8
CENTER
  6
CENTER
 62
     1
 10
56.832948738481321
 20
50.916641926939057
 30
0.0
 11
56.832948738481321
 21
58.11664192691125
 31
0.0
  0
LINE
  5
6C1
  8
CENTER
  6
CENTER
 62
     1
 10
76.832948738481235
 20
50.916641926939057
 30
0.0
 11
76.832948738481235
 21
58.116641926911242
 31
0.0
  0
LINE
  5
6C2
  8
CENTER
  6
CENTER
 62
     1
 10
56.832948738481321
 20
70.916642026939044
 30
0.0
 11
56.832948738481321
 21
78.116641826911163
 31
0.0
  0
LINE
  5
6C3
  8
CENTER
  6
CENTER
 62
     1
 10
56.832948738481321
 20
90.916642026939115
 30
0.0
 11
56.832948738481321
 21
98.116641826911163
 31
0.0
  0
LINE
  5
6C4
  8
CENTER
  6
CENTER
 62
     1
 10
56.832948738481321
 20
110.91664192693889
 30
0.0
 11
56.832948738481321
 21
118.1166419269111
 31
0.0
  0
LINE
  5
6C5
  8
CENTER
  6
CENTER
 62
     1
 10
76.832948738481235
 20
70.916642026939044
 30
0.0
 11
76.832948738481235
 21
78.116641826911263
 31
0.0
  0
LINE
  5
6C6
  8
CENTER
  6
CENTER
 62
     1
 10
76.832948738481235
 20
90.916642026939115
 30
0.0
 11
76.832948738481235
 21
98.116641826911163
 31
0.0
  0
LINE
  5
6C7
  8
CENTER
  6
CENTER
 62
     1
 10
76.832948738481235
 20
110.91664192693889
 30
0.0
 11
76.832948738481235
 21
118.1166419269111
 31
0.0
  0
LINE
  5
6C8
  8
CENTER
  6
CENTER
 62
     1
 10
133.59711631462059
 20
74.516661946925197
 30
0.0
 11
188.59711631462051
 21
74.516661946925197
 31
0.0
  0
LINE
  5
6C9
  8
CENTER
  6
CENTER
 62
     1
 10
133.59711631462059
 20
54.516661946925211
 30
0.0
 11
188.59711631462051
 21
54.516661946925211
 31
0.0
  0
LINE
  5
6CA
  8
CENTER
  6
CENTER
 62
     1
 10
133.59711631462059
 20
84.516661946925197
 30
0.0
 11
188.59711631462051
 21
84.516661946925197
 31
0.0
  0
LINE
  5
6CB
  8
CENTER
  6
CENTER
 62
     1
 10
66.832948738481321
 20
42.416621916924903
 30
0.0
 11
66.832948738481321
 21
126.616651936925
 31
0.0
  0
LINE
  5
6CC
  8
CENTER
  6
CENTER
 62
     1
 10
44.332948738481321
 20
84.516641926925175
 30
0.0
 11
89.33294873848142
 21
84.516641926925175
 31
0.0
  0
LINE
  5
6CD
  8
0
  6
CONTINUOUS
 62
     7
 10
53.13293873848135
 20
54.516641926925182
 30
0.0
 11
52.83293873848136
 21
53.997026684654521
 31
0.0
  0
LINE
  5
6CE
  8
0
  6
CONTINUOUS
 62
     7
 10
53.13293873848135
 20
54.516661928003408
 30
0.0
 11
52.83293873848136
 21
55.036277170274019
 31
0.0
  0
LINE
  5
6CF
  8
0
  6
CONTINUOUS
 62
     7
 10
56.832938728481317
 20
50.816641926925172
 30
0.0
 11
56.313323486210678
 21
50.516641926925153
 31
0.0
  0
LINE
  5
6D0
  8
0
  6
CONTINUOUS
 62
     7
 10
56.832938728481317
 20
50.816641926925172
 30
0.0
 11
57.352553970751991
 21
50.516641926925153
 31
0.0
  0
LINE
  5
6D1
  8
0
  6
CONTINUOUS
 62
     7
 10
56.313323486210678
 20
50.516641926925168
 30
0.0
 11
53.893678738383237
 21
50.516641926925153
 31
0.0
  0
LINE
  5
6D2
  8
0
  6
CONTINUOUS
 62
     7
 10
52.83293873848136
 20
55.036277170274019
 30
0.0
 11
52.83293873848136
 21
57.456011929081569
 31
0.0
  0
LINE
  5
6D3
  8
0
  6
CONTINUOUS
 62
     7
 10
76.832938728481295
 20
50.816641926925172
 30
0.0
 11
76.313323486210692
 21
50.516641926925153
 31
0.0
  0
LINE
  5
6D4
  8
0
  6
CONTINUOUS
 62
     7
 10
76.832938728481295
 20
50.816641926925172
 30
0.0
 11
77.352553970751984
 21
50.516641926925153
 31
0.0
  0
LINE
  5
6D5
  8
0
  6
CONTINUOUS
 62
     7
 10
53.132838738481347
 20
74.516641926925161
 30
0.0
 11
52.832938738481367
 21
73.997199889735271
 31
0.0
  0
LINE
  5
6D6
  8
0
  6
CONTINUOUS
 62
     7
 10
53.132838738481347
 20
74.516661928003387
 30
0.0
 11
52.832938738481332
 21
75.036103965193305
 31
0.0
  0
LINE
  5
6D7
  8
0
  6
CONTINUOUS
 62
     7
 10
53.13284873848135
 20
94.516641926925175
 30
0.0
 11
52.832948738481342
 21
93.997199889735242
 31
0.0
  0
LINE
  5
6D8
  8
0
  6
CONTINUOUS
 62
     7
 10
53.13284873848135
 20
94.516661928003401
 30
0.0
 11
52.832948738481342
 21
95.036103965193291
 31
0.0
  0
LINE
  5
6D9
  8
0
  6
CONTINUOUS
 62
     7
 10
53.13284873848135
 20
114.5166419269251
 30
0.0
 11
52.832948738481342
 21
113.9971998897352
 31
0.0
  0
LINE
  5
6DA
  8
0
  6
CONTINUOUS
 62
     7
 10
53.13284873848135
 20
114.5166619280033
 30
0.0
 11
52.83294873848137
 21
115.03610396519321
 31
0.0
  0
LINE
  5
6DB
  8
0
  6
CONTINUOUS
 62
     7
 10
56.832953706258351
 20
118.2166363713705
 30
0.0
 11
56.313329374827781
 21
118.516641926925
 31
0.0
  0
LINE
  5
6DC
  8
0
  6
CONTINUOUS
 62
     7
 10
56.832953706258351
 20
118.2166363713705
 30
0.0
 11
57.352579104375458
 21
118.516641926925
 31
0.0
  0
LINE
  5
6DD
  8
0
  6
CONTINUOUS
 62
     7
 10
76.832953706256376
 20
118.2166274824813
 30
0.0
 11
76.313313978833932
 21
118.516641926925
 31
0.0
  0
LINE
  5
6DE
  8
0
  6
CONTINUOUS
 62
     7
 10
76.832953706256376
 20
118.2166274824813
 30
0.0
 11
77.352594500396904
 21
118.516641926925
 31
0.0
  0
LINE
  5
6DF
  8
0
  6
CONTINUOUS
 62
     7
 10
80.533058738481259
 20
54.516641926925182
 30
0.0
 11
80.832958738481196
 21
53.99719988973532
 31
0.0
  0
LINE
  5
6E0
  8
0
  6
CONTINUOUS
 62
     7
 10
80.533058738481259
 20
54.516661928003408
 30
0.0
 11
80.832958738481196
 21
55.036103965193213
 31
0.0
  0
LINE
  5
6E1
  8
0
  6
CONTINUOUS
 62
     7
 10
80.533048738481256
 20
74.516641926925161
 30
0.0
 11
80.832948738481235
 21
73.997199889735285
 31
0.0
  0
LINE
  5
6E2
  8
0
  6
CONTINUOUS
 62
     7
 10
80.533048738481256
 20
74.516661928003387
 30
0.0
 11
80.832948738481235
 21
75.03610396519322
 31
0.0
  0
LINE
  5
6E3
  8
0
  6
CONTINUOUS
 62
     7
 10
80.533048738481327
 20
94.516641926925175
 30
0.0
 11
80.832948738481235
 21
93.997199889735313
 31
0.0
  0
LINE
  5
6E4
  8
0
  6
CONTINUOUS
 62
     7
 10
80.533048738481327
 20
94.516661928003401
 30
0.0
 11
80.832948738481235
 21
95.03610396519322
 31
0.0
  0
LINE
  5
6E5
  8
0
  6
CONTINUOUS
 62
     7
 10
80.533048738481327
 20
114.5166419269251
 30
0.0
 11
80.832948738481235
 21
113.9971998897354
 31
0.0
  0
LINE
  5
6E6
  8
0
  6
CONTINUOUS
 62
     7
 10
80.533048738481327
 20
114.5166619280033
 30
0.0
 11
80.832948738481235
 21
115.03610396519321
 31
0.0
  0
LINE
  5
6E7
  8
0
  6
CONTINUOUS
 62
     7
 10
186.09711631462051
 20
75.036281310578744
 30
0.0
 11
136.09711631462059
 21
75.036281310578744
 31
0.0
  0
LINE
  5
6E8
  8
0
  6
CONTINUOUS
 62
     7
 10
186.09711631462051
 20
73.997031581031052
 30
0.0
 11
136.09711631462059
 21
73.997031581031052
 31
0.0
  0
LINE
  5
6E9
  8
0
  6
CONTINUOUS
 62
     7
 10
186.09711631462051
 20
55.036281310578737
 30
0.0
 11
136.09711631462059
 21
55.036281310578737
 31
0.0
  0
LINE
  5
6EA
  8
0
  6
CONTINUOUS
 62
     7
 10
186.09711631462051
 20
53.997031581031038
 30
0.0
 11
136.09711631462059
 21
53.997031581031038
 31
0.0
  0
LINE
  5
6EB
  8
0
  6
CONTINUOUS
 62
     7
 10
136.09711631462059
 20
91.516671956925265
 30
0.0
 11
186.09711631462051
 21
91.516671956925265
 31
0.0
  0
LINE
  5
6EC
  8
0
  6
CONTINUOUS
 62
     7
 10
136.09711631462059
 20
97.516671956925336
 30
0.0
 11
186.09711631462051
 21
97.516671956925336
 31
0.0
  0
LINE
  5
6ED
  8
CENTER
  6
CENTER
 62
     1
 10
133.59711631462059
 20
94.516661946925197
 30
0.0
 11
188.59711631462051
 21
94.516661946925197
 31
0.0
  0
LINE
  5
6EE
  8
0
  6
CONTINUOUS
 62
     7
 10
186.09711631462051
 20
95.036281310578786
 30
0.0
 11
136.09711631462059
 21
95.036281310578786
 31
0.0
  0
LINE
  5
6EF
  8
0
  6
CONTINUOUS
 62
     7
 10
186.09711631462051
 20
93.997031581031024
 30
0.0
 11
136.09711631462059
 21
93.997031581031024
 31
0.0
  0
LINE
  5
6F0
  8
0
  6
CONTINUOUS
 62
     7
 10
136.09711631462059
 20
111.51667195692519
 30
0.0
 11
186.09711631462051
 21
111.51667195692519
 31
0.0
  0
LINE
  5
6F1
  8
0
  6
CONTINUOUS
 62
     7
 10
136.09711631462059
 20
117.51667195692519
 30
0.0
 11
186.09711631462051
 21
117.51667195692519
 31
0.0
  0
LINE
  5
6F2
  8
CENTER
  6
CENTER
 62
     1
 10
133.59711631462059
 20
114.5166619469251
 30
0.0
 11
188.59711631462051
 21
114.5166619469251
 31
0.0
  0
LINE
  5
6F3
  8
0
  6
CONTINUOUS
 62
     7
 10
186.09711631462051
 20
115.0362813105787
 30
0.0
 11
136.09711631462059
 21
115.0362813105787
 31
0.0
  0
LINE
  5
6F4
  8
0
  6
CONTINUOUS
 62
     7
 10
186.09711631462051
 20
113.997031581031
 30
0.0
 11
136.09711631462059
 21
113.997031581031
 31
0.0
  0
ARC
  5
6F5
  8
0
  6
CONTINUOUS
 62
     7
 10
85.83294873848142
 20
123.516641926925
 30
0.0
 40
1.0
 50
0.0
 51
36.86989764585087
  0
ARC
  5
6F6
  8
0
  6
CONTINUOUS
 62
     7
 10
47.832948738481321
 20
123.516641926925
 30
0.0
 40
1.0
 50
143.13010235414711
 51
179.99999999999841
  0
ARC
  5
6F7
  8
0
  6
CONTINUOUS
 62
     7
 10
47.832948738481321
 20
45.516641926925168
 30
0.0
 40
1.0
 50
180.0000000000008
 51
216.86989764584649
  0
ARC
  5
6F8
  8
0
  6
CONTINUOUS
 62
     7
 10
85.83294873848142
 20
45.516641926925168
 30
0.0
 40
1.0
 50
323.13010235415283
 51
359.9999999999992
  0
ENDSEC
  0
EOF
