  0
SECTION
  2
HEADER
  9
$ACADVER
  1
AC1009
  9
$INSBASE
 10
0.0
 20
0.0
 30
0.0
  9
$EXTMIN
 10
0.0000001381732773
 20
0.0000000253236507
 30
0.0
  9
$EXTMAX
 10
178.01727640358871
 20
72.660404025323643
 30
0.0
  9
$LIMMIN
 10
0.0
 20
0.0
  9
$LIMMAX
 10
297.0
 20
210.0
  9
$ORTHOMODE
 70
     0
  9
$REGENMODE
 70
     1
  9
$FILLMODE
 70
     1
  9
$QTEXTMODE
 70
     0
  9
$MIRRTEXT
 70
     1
  9
$DRAGMODE
 70
     2
  9
$LTSCALE
 40
1.0
  9
$OSMODE
 70
    57
  9
$ATTMODE
 70
     1
  9
$TEXTSIZE
 40
6.4000000000000012
  9
$TRACEWID
 40
0.05
  9
$TEXTSTYLE
  7
STANDARD
  9
$CLAYER
  8
0
  9
$CELTYPE
  6
CONTINUOUS
  9
$CECOLOR
 62
     7
  9
$DIMSCALE
 40
1.0
  9
$DIMASZ
 40
3.0
  9
$DIMEXO
 40
1.0
  9
$DIMDLI
 40
0.0
  9
$DIMRND
 40
0.0
  9
$DIMDLE
 40
0.0
  9
$DIMEXE
 40
1.0
  9
$DIMTP
 40
0.0
  9
$DIMTM
 40
0.0
  9
$DIMTXT
 40
3.2000000000000002
  9
$DIMCEN
 40
0.0
  9
$DIMTSZ
 40
0.0
  9
$DIMTOL
 70
     0
  9
$DIMLIM
 70
     0
  9
$DIMTIH
 70
     0
  9
$DIMTOH
 70
     0
  9
$DIMSE1
 70
     0
  9
$DIMSE2
 70
     0
  9
$DIMTAD
 70
     1
  9
$DIMZIN
 70
     8
  9
$DIMBLK
  1

  9
$DIMASO
 70
     1
  9
$DIMSHO
 70
     1
  9
$DIMPOST
  1

  9
$DIMAPOST
  1

  9
$DIMALT
 70
     0
  9
$DIMALTD
 70
     2
  9
$DIMALTF
 40
0.04
  9
$DIMLFAC
 40
1.0
  9
$DIMTOFL
 70
     1
  9
$DIMTVP
 40
1.0
  9
$DIMTIX
 70
     1
  9
$DIMSOXD
 70
     0
  9
$DIMSAH
 70
     0
  9
$DIMBLK1
  1

  9
$DIMBLK2
  1

  9
$DIMSTYLE
  2
MISUMI
  9
$DIMCLRD
 70
     0
  9
$DIMCLRE
 70
     0
  9
$DIMCLRT
 70
     0
  9
$DIMTFAC
 40
0.6
  9
$DIMGAP
 40
1.0
  9
$LUNITS
 70
     2
  9
$LUPREC
 70
     4
  9
$SKETCHINC
 40
0.1
  9
$FILLETRAD
 40
0.0
  9
$AUNITS
 70
     0
  9
$AUPREC
 70
     0
  9
$MENU
  1
acad
  9
$ELEVATION
 40
0.0
  9
$PELEVATION
 40
0.0
  9
$THICKNESS
 40
0.0
  9
$LIMCHECK
 70
     0
  9
$BLIPMODE
 70
     1
  9
$CHAMFERA
 40
0.5
  9
$CHAMFERB
 40
0.5
  9
$SKPOLY
 70
     0
  9
$TDCREATE
 40
2451464.6006649309
  9
$TDUPDATE
 40
2453776.702514282
  9
$TDINDWG
 40
0.2321085301
  9
$TDUSRTIMER
 40
0.2321063426
  9
$USRTIMER
 70
     1
  9
$ANGBASE
 50
0.0
  9
$ANGDIR
 70
     0
  9
$PDMODE
 70
     0
  9
$PDSIZE
 40
0.0
  9
$PLINEWID
 40
0.0
  9
$COORDS
 70
     0
  9
$SPLFRAME
 70
     0
  9
$SPLINETYPE
 70
     6
  9
$SPLINESEGS
 70
     8
  9
$ATTDIA
 70
     0
  9
$ATTREQ
 70
     1
  9
$HANDLING
 70
     1
  9
$HANDSEED
  5
2426
  9
$SURFTAB1
 70
     6
  9
$SURFTAB2
 70
     6
  9
$SURFTYPE
 70
     6
  9
$SURFU
 70
     6
  9
$SURFV
 70
     6
  9
$UCSNAME
  2

  9
$UCSORG
 10
0.0
 20
0.0
 30
0.0
  9
$UCSXDIR
 10
1.0
 20
0.0
 30
0.0
  9
$UCSYDIR
 10
0.0
 20
1.0
 30
0.0
  9
$PUCSNAME
  2

  9
$PUCSORG
 10
0.0
 20
0.0
 30
0.0
  9
$PUCSXDIR
 10
1.0
 20
0.0
 30
0.0
  9
$PUCSYDIR
 10
0.0
 20
1.0
 30
0.0
  9
$USERI1
 70
     0
  9
$USERI2
 70
     0
  9
$USERI3
 70
     0
  9
$USERI4
 70
     0
  9
$USERI5
 70
     0
  9
$USERR1
 40
0.0
  9
$USERR2
 40
0.0
  9
$USERR3
 40
0.0
  9
$USERR4
 40
0.0
  9
$USERR5
 40
0.0
  9
$WORLDVIEW
 70
     1
  9
$SHADEDGE
 70
     3
  9
$SHADEDIF
 70
    70
  9
$TILEMODE
 70
     1
  9
$MAXACTVP
 70
    16
  9
$PLIMCHECK
 70
     0
  9
$PEXTMIN
 10
1.0000000000000000E+020
 20
1.0000000000000000E+020
 30
1.0000000000000000E+020
  9
$PEXTMAX
 10
-1.0000000000000000E+020
 20
-1.0000000000000000E+020
 30
-1.0000000000000000E+020
  9
$PLIMMIN
 10
0.0
 20
0.0
  9
$PLIMMAX
 10
12.0
 20
9.0
  9
$UNITMODE
 70
     0
  9
$VISRETAIN
 70
     0
  9
$PLINEGEN
 70
     0
  9
$PSLTSCALE
 70
     1
  0
ENDSEC
  0
SECTION
  2
TABLES
  0
TABLE
  2
VPORT
 70
     2
  0
VPORT
  2
*ACTIVE
 70
     0
 10
0.0
 20
0.0
 11
1.0
 21
1.0
 12
103.419607988149
 22
38.746607808263271
 13
0.0
 23
0.0
 14
10.0
 24
10.0
 15
10.0
 25
10.0
 16
0.0
 26
0.0
 36
1.0
 17
0.0
 27
0.0
 37
0.0
 40
138.51781928845011
 41
1.5717852684144811
 42
50.0
 43
0.0
 44
0.0
 50
0.0
 51
0.0
 71
     0
 72
   100
 73
     1
 74
     0
 75
     0
 76
     0
 77
     0
 78
     0
  0
ENDTAB
  0
TABLE
  2
LTYPE
 70
     2
  0
LTYPE
  2
CONTINUOUS
 70
     0
  3
Solid line
 72
    65
 73
     0
 40
0.0
  0
LTYPE
  2
CENTER
 70
     0
  3
Center ____ _ ____ _ ____ _ ____ _ ____ _ ____
 72
    65
 73
     4
 40
2.0
 49
1.25
 49
-0.25
 49
0.25
 49
-0.25
  0
ENDTAB
  0
TABLE
  2
LAYER
 70
     2
  0
LAYER
  2
0
 70
     0
 62
     7
  6
CONTINUOUS
  0
LAYER
  2
CENTER
 70
     0
 62
     1
  6
CENTER
  0
ENDTAB
  0
TABLE
  2
STYLE
 70
     1
  0
STYLE
  2
STANDARD
 70
     0
 40
0.0
 41
1.0
 50
0.0
 71
     0
 42
6.4000000000000012
  3
txt
  4

  0
ENDTAB
  0
TABLE
  2
VIEW
 70
     0
  0
ENDTAB
  0
TABLE
  2
UCS
 70
     0
  0
ENDTAB
  0
TABLE
  2
APPID
 70
     2
  0
APPID
  2
ACAD
 70
     0
  0
APPID
  2
ACAD_DSTYLE_DIMTEXT_FILL
 70
     0
  0
ENDTAB
  0
TABLE
  2
DIMSTYLE
 70
     1
  0
DIMSTYLE
  2
MISUMI
 70
     0
  3

  4

  5

  6

  7

 40
1.0
 41
3.0
 42
1.0
 43
0.0
 44
1.0
 45
0.0
 46
0.0
 47
0.0
 48
0.0
140
3.2000000000000002
141
0.0
142
0.0
143
0.04
144
1.0
145
1.0
146
0.6
147
1.0
 71
     0
 72
     0
 73
     0
 74
     0
 75
     0
 76
     0
 77
     1
 78
     8
170
     0
171
     2
172
     1
173
     0
174
     1
175
     0
176
     0
177
     0
178
     0
  0
ENDTAB
  0
ENDSEC
  0
SECTION
  2
BLOCKS
  0
BLOCK
  8
0
  2
$MODEL_SPACE
 70
     0
 10
0.0
 20
0.0
 30
0.0
  3
$MODEL_SPACE
  1

  0
ENDBLK
  5
237F
  8
0
  0
BLOCK
 67
     1
  8
0
  2
$PAPER_SPACE
 70
     0
 10
0.0
 20
0.0
 30
0.0
  3
$PAPER_SPACE
  1

  0
ENDBLK
  5
237B
 67
     1
  8
0
  0
ENDSEC
  0
SECTION
  2
ENTITIES
  0
LINE
  5
555
  8
0
  6
CONTINUOUS
 62
     7
 10
73.517276403588653
 20
70.160404025323643
 30
0.0
 11
73.517276403588653
 21
68.560404025323635
 31
0.0
  0
LINE
  5
556
  8
0
  6
CONTINUOUS
 62
     7
 10
76.517276403588653
 20
68.560404025323635
 30
0.0
 11
73.517276403588653
 21
68.560404025323635
 31
0.0
  0
LINE
  5
558
  8
0
  6
CONTINUOUS
 62
     7
 10
67.517276403588653
 20
70.160404025323615
 30
0.0
 11
67.517276403588653
 21
68.560404025323635
 31
0.0
  0
LINE
  5
55A
  8
0
  6
CONTINUOUS
 62
     7
 10
64.517276403588639
 20
68.560404025323635
 30
0.0
 11
67.517276403588653
 21
68.560404025323635
 31
0.0
  0
LINE
  5
55B
  8
0
  6
CONTINUOUS
 62
     7
 10
73.517276403588653
 20
70.160404025323643
 30
0.0
 11
80.317276403588622
 21
70.160404025323643
 31
0.0
  0
LINE
  5
55C
  8
0
  6
CONTINUOUS
 62
     7
 10
77.577929403588655
 20
66.560404025323635
 30
0.0
 11
78.517276403588653
 21
66.560404025323635
 31
0.0
  0
ARC
  5
55D
  8
0
  6
CONTINUOUS
 62
     7
 10
80.217275403588644
 20
63.86040502532363
 30
0.0
 40
0.3
 50
270.0
 51
0.0
  0
LINE
  5
55E
  8
0
  6
CONTINUOUS
 62
     7
 10
80.217275403588644
 20
63.560404025323642
 30
0.0
 11
78.517276403588653
 21
63.560404025323642
 31
0.0
  0
LINE
  5
55F
  8
0
  6
CONTINUOUS
 62
     7
 10
78.517276403588653
 20
66.560404025323635
 30
0.0
 11
78.517276403588653
 21
63.560404025323642
 31
0.0
  0
ARC
  5
560
  8
0
  6
CONTINUOUS
 62
     7
 10
80.217275403588644
 20
57.260404025323652
 30
0.0
 40
0.3
 50
0.0
 51
90.000003000000149
  0
LINE
  5
561
  8
0
  6
CONTINUOUS
 62
     7
 10
80.217275403588644
 20
57.560404025323642
 30
0.0
 11
78.517276403588653
 21
57.560404025323642
 31
0.0
  0
LINE
  5
562
  8
0
  6
CONTINUOUS
 62
     7
 10
77.577929403588655
 20
54.560404025323621
 30
0.0
 11
78.517276403588653
 21
54.560404025323621
 31
0.0
  0
LINE
  5
563
  8
0
  6
CONTINUOUS
 62
     7
 10
78.217273403588635
 20
52.560404025323649
 30
0.0
 11
77.580874403588652
 21
52.560404025323649
 31
0.0
  0
ARC
  5
564
  8
0
  6
CONTINUOUS
 62
     7
 10
78.217273403588635
 20
52.260417025323648
 30
0.0
 40
0.3
 50
0.0
 51
90.000003000000149
  0
ARC
  5
565
  8
0
  6
CONTINUOUS
 62
     7
 10
77.580874403588652
 20
52.860392025323641
 30
0.0
 40
0.3
 50
224.9999999999996
 51
270.0
  0
LINE
  5
566
  8
0
  6
CONTINUOUS
 62
     7
 10
77.577929403588655
 20
46.560404025323642
 30
0.0
 11
78.517276403588653
 21
46.560404025323642
 31
0.0
  0
LINE
  5
567
  8
0
  6
CONTINUOUS
 62
     7
 10
78.217273403588635
 20
48.560404025323642
 30
0.0
 11
77.580874403588652
 21
48.560404025323642
 31
0.0
  0
ARC
  5
568
  8
0
  6
CONTINUOUS
 62
     7
 10
78.217273403588635
 20
48.860392025323662
 30
0.0
 40
0.3
 50
269.9999899999998
 51
0.0000010000001821
  0
ARC
  5
569
  8
0
  6
CONTINUOUS
 62
     7
 10
77.580874403588652
 20
48.26041702532364
 30
0.0
 40
0.3
 50
90.000003000000149
 51
135.00000000000031
  0
LINE
  5
56A
  8
0
  6
CONTINUOUS
 62
     7
 10
78.517276403588653
 20
48.860392025323662
 30
0.0
 11
78.517276403588653
 21
52.260417025323648
 31
0.0
  0
LINE
  5
56B
  8
0
  6
CONTINUOUS
 62
     7
 10
78.517276403588653
 20
54.560404025323621
 30
0.0
 11
78.517276403588653
 21
57.560404025323642
 31
0.0
  0
LINE
  5
56E
  8
0
  6
CONTINUOUS
 62
     7
 10
73.456622403588639
 20
64.560404025323635
 30
0.0
 11
71.036882679162289
 21
64.560404025323635
 31
0.0
  0
LINE
  5
56F
  8
0
  6
CONTINUOUS
 62
     7
 10
76.517278403588662
 20
67.621069025323649
 30
0.0
 11
73.456618403588635
 21
64.560408025323653
 31
0.0
  0
LINE
  5
572
  8
0
  6
CONTINUOUS
 62
     7
 10
74.517276403588653
 20
57.621080025323643
 30
0.0
 11
74.517276403588653
 21
60.040788422856536
 31
0.0
  0
LINE
  5
573
  8
0
  6
CONTINUOUS
 62
     7
 10
74.517276403588653
 20
63.49974502532433
 30
0.0
 11
74.517276403588653
 21
61.080028641368763
 31
0.0
  0
ARC
  5
574
  8
0
  6
CONTINUOUS
 62
     7
 10
62.817262403588657
 20
67.624003025323645
 30
0.0
 40
0.3
 50
179.9999899999998
 51
224.9999999999996
  0
LINE
  5
575
  8
0
  6
CONTINUOUS
 62
     7
 10
64.517280403588643
 20
67.621081025323662
 30
0.0
 11
67.577939403588644
 21
64.560419025323654
 31
0.0
  0
LINE
  5
576
  8
0
  6
CONTINUOUS
 62
     7
 10
62.605145403588651
 20
67.411871025323634
 30
0.0
 11
66.517276403588625
 21
63.499740025323639
 31
0.0
  0
LINE
  5
577
  8
0
  6
CONTINUOUS
 62
     7
 10
66.517276403588653
 20
58.560404025323649
 30
0.0
 11
66.517276403588625
 21
63.499740025323639
 31
0.0
  0
LINE
  5
578
  8
0
  6
CONTINUOUS
 62
     7
 10
67.577945403588643
 20
64.560404025323635
 30
0.0
 11
69.997664734354345
 21
64.560404025323635
 31
0.0
  0
CIRCLE
  5
579
  8
0
  6
CONTINUOUS
 62
     7
 10
70.517276403588653
 20
60.560404025323642
 30
0.0
 40
2.1000000000000001
  0
LINE
  5
57A
  8
0
  6
CONTINUOUS
 62
     7
 10
73.456612403589901
 20
56.560404025323649
 30
0.0
 11
68.517276403588653
 21
56.560404025323649
 31
0.0
  0
ARC
  5
57B
  8
0
  6
CONTINUOUS
 62
     7
 10
68.517276550035319
 20
58.560403171770659
 30
0.0
 40
1.9999991464470011
 50
179.99996554749271
 51
269.99999580461019
  0
LINE
  5
57C
  8
0
  6
CONTINUOUS
 62
     7
 10
77.577939403588644
 20
66.560408025323653
 30
0.0
 11
74.517276403588653
 21
63.49974502532433
 31
0.0
  0
LINE
  5
57D
  8
0
  6
CONTINUOUS
 62
     7
 10
77.577939403588644
 20
54.56041702532363
 30
0.0
 11
74.517276403588653
 21
57.621080025323643
 31
0.0
  0
LINE
  5
57E
  8
0
  6
CONTINUOUS
 62
     7
 10
77.368741403588672
 20
52.648276025323632
 30
0.0
 11
73.456612403589901
 21
56.560404025323649
 31
0.0
  0
LINE
  5
57F
  8
0
  6
CONTINUOUS
 62
     7
 10
62.517274403588658
 20
68.260401025323645
 30
0.0
 11
62.517274403588658
 21
67.624003025323645
 31
0.0
  0
LINE
  5
580
  8
0
  6
CONTINUOUS
 62
     7
 10
80.517276403588639
 20
69.560404025323635
 30
0.0
 11
80.517276403588653
 21
63.86040502532363
 31
0.0
  0
LINE
  5
581
  8
0
  6
CONTINUOUS
 62
     7
 10
64.517276403588639
 20
68.560404025323635
 30
0.0
 11
64.517276403588639
 21
67.621073025323653
 31
0.0
  0
LINE
  5
582
  8
0
  6
CONTINUOUS
 62
     7
 10
76.517276403588653
 20
68.560404025323635
 30
0.0
 11
76.517276403588653
 21
67.621073025323653
 31
0.0
  0
LINE
  5
583
  8
0
  6
CONTINUOUS
 62
     7
 10
80.217275403588644
 20
43.560404025323642
 30
0.0
 11
78.517276403588653
 21
43.560404025323642
 31
0.0
  0
ARC
  5
584
  8
0
  6
CONTINUOUS
 62
     7
 10
80.217275403588644
 20
43.860404025323653
 30
0.0
 40
0.3
 50
270.0
 51
0.0
  0
ARC
  5
585
  8
0
  6
CONTINUOUS
 62
     7
 10
80.217275403588644
 20
37.260404025323652
 30
0.0
 40
0.3
 50
0.0
 51
90.000003000000149
  0
LINE
  5
586
  8
0
  6
CONTINUOUS
 62
     7
 10
80.217275403588644
 20
37.560404025323649
 30
0.0
 11
78.517276403588653
 21
37.560404025323649
 31
0.0
  0
LINE
  5
587
  8
0
  6
CONTINUOUS
 62
     7
 10
77.577929403588655
 20
34.560404025323649
 30
0.0
 11
78.517276403588653
 21
34.560404025323649
 31
0.0
  0
LINE
  5
589
  8
0
  6
CONTINUOUS
 62
     7
 10
80.517276403588653
 20
31.56040402532367
 30
0.0
 11
80.517276403588653
 21
37.260404025323652
 31
0.0
  0
LINE
  5
58A
  8
0
  6
CONTINUOUS
 62
     7
 10
78.517276403588653
 20
34.560404025323649
 30
0.0
 11
78.517276403588653
 21
37.560404025323649
 31
0.0
  0
LINE
  5
58B
  8
0
  6
CONTINUOUS
 62
     7
 10
74.517276403588653
 20
43.499735025323652
 30
0.0
 11
74.517276403588653
 21
41.080018627790807
 31
0.0
  0
LINE
  5
58D
  8
0
  6
CONTINUOUS
 62
     7
 10
74.517276403588639
 20
37.621059025323653
 30
0.0
 11
74.517276403588653
 21
40.04077840927858
 31
0.0
  0
LINE
  5
591
  8
0
  6
CONTINUOUS
 62
     7
 10
73.456609403586384
 20
36.560404025323649
 30
0.0
 11
71.036880947112337
 21
36.560404025323649
 31
0.0
  0
ARC
  5
593
  8
0
  6
CONTINUOUS
 62
     7
 10
68.51727740358865
 20
42.560404025323663
 30
0.0
 40
2.0
 50
90.000003000000149
 51
180.0000100000002
  0
LINE
  5
594
  8
0
  6
CONTINUOUS
 62
     7
 10
66.517276403588653
 20
37.621069025323649
 30
0.0
 11
66.517276403588653
 21
42.560404025323663
 31
0.0
  0
LINE
  5
595
  8
0
  6
CONTINUOUS
 62
     7
 10
73.456622403588639
 20
44.560404025323649
 30
0.0
 11
68.51727740358865
 21
44.560404025323649
 31
0.0
  0
LINE
  5
596
  8
0
  6
CONTINUOUS
 62
     7
 10
67.577955403567728
 20
36.560404025323649
 30
0.0
 11
69.997666466405818
 21
36.560404025323649
 31
0.0
  0
CIRCLE
  5
597
  8
0
  6
CONTINUOUS
 62
     7
 10
70.517276403588653
 20
40.560404025323649
 30
0.0
 40
2.1000000000000001
  0
LINE
  5
598
  8
0
  6
CONTINUOUS
 62
     7
 10
73.517276403588653
 20
30.96040402532369
 30
0.0
 11
73.517276403588653
 21
32.56040402532367
 31
0.0
  0
LINE
  5
599
  8
0
  6
CONTINUOUS
 62
     7
 10
76.517276403588653
 20
32.56040402532367
 30
0.0
 11
73.517276403588653
 21
32.56040402532367
 31
0.0
  0
LINE
  5
59A
  8
0
  6
CONTINUOUS
 62
     7
 10
76.517276403588653
 20
32.56040402532367
 30
0.0
 11
76.517276403588653
 21
33.499735025323652
 31
0.0
  0
LINE
  5
59C
  8
0
  6
CONTINUOUS
 62
     7
 10
67.517276403588653
 20
30.960404025323669
 30
0.0
 11
67.517276403588653
 21
32.56040402532367
 31
0.0
  0
LINE
  5
59E
  8
0
  6
CONTINUOUS
 62
     7
 10
62.517274403588658
 20
32.86040702532366
 30
0.0
 11
62.517274403588658
 21
33.496805025323653
 31
0.0
  0
ARC
  5
59F
  8
0
  6
CONTINUOUS
 62
     7
 10
62.817262403588657
 20
33.496805025323653
 30
0.0
 40
0.3
 50
135.00000000000031
 51
180.0000100000002
  0
LINE
  5
5A0
  8
0
  6
CONTINUOUS
 62
     7
 10
64.517276403588653
 20
32.560404025323692
 30
0.0
 11
64.517276403588653
 21
33.499735025323652
 31
0.0
  0
LINE
  5
5A1
  8
0
  6
CONTINUOUS
 62
     7
 10
64.517276403588653
 20
32.560404025323692
 30
0.0
 11
67.517276403588653
 21
32.56040402532367
 31
0.0
  0
LINE
  5
5A2
  8
0
  6
CONTINUOUS
 62
     7
 10
62.605145403588651
 20
33.708939025323652
 30
0.0
 11
66.517276403588653
 21
37.621069025323649
 31
0.0
  0
LINE
  5
5A3
  8
0
  6
CONTINUOUS
 62
     7
 10
64.517279403588645
 20
33.49972502532367
 30
0.0
 11
67.577955403567728
 21
36.560404025323649
 31
0.0
  0
LINE
  5
5A4
  8
0
  6
CONTINUOUS
 62
     7
 10
76.51727940358866
 20
33.499736025323656
 30
0.0
 11
73.456609403586384
 21
36.560404025323649
 31
0.0
  0
LINE
  5
5A5
  8
0
  6
CONTINUOUS
 62
     7
 10
73.517276403588653
 20
30.96040402532369
 30
0.0
 11
80.317276403588664
 21
30.960404025323669
 31
0.0
  0
LINE
  5
5A6
  8
0
  6
CONTINUOUS
 62
     7
 10
77.577939403588644
 20
34.560396025323662
 30
0.0
 11
74.517276403588639
 21
37.621059025323653
 31
0.0
  0
LINE
  5
5A7
  8
0
  6
CONTINUOUS
 62
     7
 10
80.517276403588653
 20
43.860404025323653
 30
0.0
 11
80.517276403588653
 21
57.260404025323652
 31
0.0
  0
LINE
  5
5A8
  8
0
  6
CONTINUOUS
 62
     7
 10
77.577939403588644
 20
46.560388025323633
 30
0.0
 11
74.517287403588654
 21
43.499736025323642
 31
0.0
  0
LINE
  5
5A9
  8
0
  6
CONTINUOUS
 62
     7
 10
78.517276403588653
 20
46.560404025323642
 30
0.0
 11
78.517276403588653
 21
43.560404025323642
 31
0.0
  0
LINE
  5
5AA
  8
0
  6
CONTINUOUS
 62
     7
 10
77.368750403588663
 20
48.472542025323648
 30
0.0
 11
73.456605403588682
 21
44.560396025323641
 31
0.0
  0
LINE
  5
5AB
  8
CENTER
  6
CENTER
 62
     1
 10
70.517276403588653
 20
64.160404025323615
 30
0.0
 11
70.517276403588653
 21
56.960404025323619
 31
0.0
  0
LINE
  5
5AC
  8
0
  6
CONTINUOUS
 62
     7
 10
58.817264403588638
 20
68.560404025323635
 30
0.0
 11
62.217286403588659
 21
68.560404025323635
 31
0.0
  0
ARC
  5
5AD
  8
0
  6
CONTINUOUS
 62
     7
 10
58.817264403588638
 20
68.260401025323645
 30
0.0
 40
0.3
 50
90.000003000000149
 51
180.0000100000002
  0
LINE
  5
5AE
  8
0
  6
CONTINUOUS
 62
     7
 10
53.51727640358866
 20
70.160404025323643
 30
0.0
 11
53.51727640358866
 21
68.560404025323635
 31
0.0
  0
LINE
  5
5B0
  8
0
  6
CONTINUOUS
 62
     7
 10
47.517276403588639
 20
70.160404025323643
 30
0.0
 11
47.517276403588639
 21
68.560404025323635
 31
0.0
  0
LINE
  5
5B1
  8
0
  6
CONTINUOUS
 62
     7
 10
56.517276403588639
 20
68.560404025323635
 30
0.0
 11
53.51727640358866
 21
68.560404025323635
 31
0.0
  0
ARC
  5
5B2
  8
0
  6
CONTINUOUS
 62
     7
 10
42.217288403588647
 20
68.260401025323645
 30
0.0
 40
0.3
 50
359.9999899999998
 51
90.000003000000149
  0
ARC
  5
5B3
  8
0
  6
CONTINUOUS
 62
     7
 10
38.817262403588657
 20
68.260401025323645
 30
0.0
 40
0.3
 50
89.999996000000067
 51
180.0000100000002
  0
LINE
  5
5B4
  8
0
  6
CONTINUOUS
 62
     7
 10
33.517276403588681
 20
70.160404025323643
 30
0.0
 11
33.517276403588681
 21
68.560404025323635
 31
0.0
  0
LINE
  5
5B6
  8
0
  6
CONTINUOUS
 62
     7
 10
36.51727640358866
 20
68.560404025323635
 30
0.0
 11
33.517276403588681
 21
68.560404025323635
 31
0.0
  0
LINE
  5
5B7
  8
0
  6
CONTINUOUS
 62
     7
 10
33.517276403588681
 20
70.160404025323643
 30
0.0
 11
47.517276403588639
 21
70.160404025323643
 31
0.0
  0
LINE
  5
5B8
  8
0
  6
CONTINUOUS
 62
     7
 10
42.217288403588647
 20
68.560404025323635
 30
0.0
 11
38.817262403588657
 21
68.560404025323635
 31
0.0
  0
LINE
  5
5B9
  8
0
  6
CONTINUOUS
 62
     7
 10
44.517276403588632
 20
68.560404025323635
 30
0.0
 11
47.517276403588639
 21
68.560404025323635
 31
0.0
  0
ARC
  5
5BB
  8
0
  6
CONTINUOUS
 62
     7
 10
58.217288403588647
 20
67.624003025323645
 30
0.0
 40
0.3
 50
315.00000000000028
 51
0.0
  0
ARC
  5
5BC
  8
0
  6
CONTINUOUS
 62
     7
 10
53.870829403588679
 20
63.560404025323642
 30
0.0
 40
0.5
 50
270.0
 51
315.00000000000028
  0
ARC
  5
5BD
  8
0
  6
CONTINUOUS
 62
     7
 10
51.76727640358866
 20
62.560404025323649
 30
0.0
 40
0.5
 50
90.000003000000149
 51
180.0000100000002
  0
LINE
  5
5BE
  8
0
  6
CONTINUOUS
 62
     7
 10
53.870829403588679
 20
63.060404025323649
 30
0.0
 11
51.76727640358866
 21
63.060404025323649
 31
0.0
  0
ARC
  5
5C1
  8
0
  6
CONTINUOUS
 62
     7
 10
49.26727640358866
 20
62.560404025323649
 30
0.0
 40
0.5
 50
0.0
 51
90.000003000000149
  0
LINE
  5
5C2
  8
0
  6
CONTINUOUS
 62
     7
 10
47.577954403580136
 20
64.560404025323621
 30
0.0
 11
49.997663161317988
 21
64.560404025323621
 31
0.0
  0
LINE
  5
5C3
  8
0
  6
CONTINUOUS
 62
     7
 10
53.456617403588638
 20
64.560404025323635
 30
0.0
 11
51.036893645859351
 21
64.560404025323635
 31
0.0
  0
LINE
  5
5C4
  8
0
  6
CONTINUOUS
 62
     7
 10
58.429413403588661
 20
67.411881025323638
 30
0.0
 11
54.224383403588668
 21
63.206852025323641
 31
0.0
  0
LINE
  5
5C5
  8
0
  6
CONTINUOUS
 62
     7
 10
56.517282403588638
 20
67.621069025323649
 30
0.0
 11
53.456617403588638
 21
64.560404025323635
 31
0.0
  0
ARC
  5
5C7
  8
0
  6
CONTINUOUS
 62
     7
 10
47.163723403588619
 20
63.560404025323642
 30
0.0
 40
0.5
 50
224.9999999999996
 51
270.0
  0
ARC
  5
5C8
  8
0
  6
CONTINUOUS
 62
     7
 10
42.81726340358864
 20
67.624003025323645
 30
0.0
 40
0.3
 50
180.0000100000002
 51
224.9999999999996
  0
LINE
  5
5C9
  8
0
  6
CONTINUOUS
 62
     7
 10
42.605140403588628
 20
67.411881025323638
 30
0.0
 11
46.810170403588629
 21
63.206852025323641
 31
0.0
  0
ARC
  5
5CA
  8
0
  6
CONTINUOUS
 62
     7
 10
38.217286403588659
 20
67.624003025323645
 30
0.0
 40
0.3
 50
315.00000000000028
 51
0.0000050000000961
  0
LINE
  5
5CB
  8
0
  6
CONTINUOUS
 62
     7
 10
38.429403403588672
 20
67.411871025323634
 30
0.0
 11
34.51727640358866
 21
63.499742025322107
 31
0.0
  0
LINE
  5
5CC
  8
0
  6
CONTINUOUS
 62
     7
 10
36.517281403588662
 20
67.621069025323649
 30
0.0
 11
33.456612403583421
 21
64.560404025323649
 31
0.0
  0
LINE
  5
5CD
  8
0
  6
CONTINUOUS
 62
     7
 10
34.51727640358866
 20
58.560404025323649
 30
0.0
 11
34.51727640358866
 21
63.499742025322107
 31
0.0
  0
ARC
  5
5CE
  8
0
  6
CONTINUOUS
 62
     7
 10
32.51727669648178
 20
58.560405732431271
 30
0.0
 40
2.0000017071076339
 50
269.99999160923818
 51
359.999951095011
  0
LINE
  5
5CF
  8
0
  6
CONTINUOUS
 62
     7
 10
49.26727640358866
 20
63.060404025323649
 30
0.0
 11
47.163723403588619
 21
63.060404025323649
 31
0.0
  0
LINE
  5
5D0
  8
0
  6
CONTINUOUS
 62
     7
 10
44.517279403588631
 20
67.621081025323662
 30
0.0
 11
47.577954403580136
 21
64.560404025323621
 31
0.0
  0
LINE
  5
5D1
  8
0
  6
CONTINUOUS
 62
     7
 10
38.517274403588658
 20
68.260401025323645
 30
0.0
 11
38.517274403588658
 21
67.624003025323645
 31
0.0
  0
LINE
  5
5D2
  8
0
  6
CONTINUOUS
 62
     7
 10
36.51727640358866
 20
68.560404025323635
 30
0.0
 11
36.51727640358866
 21
67.621073025323653
 31
0.0
  0
LINE
  5
5D3
  8
0
  6
CONTINUOUS
 62
     7
 10
42.517276403588639
 20
68.260401025323645
 30
0.0
 11
42.517276403588639
 21
67.624003025323645
 31
0.0
  0
LINE
  5
5D4
  8
0
  6
CONTINUOUS
 62
     7
 10
44.517276403588632
 20
68.560404025323635
 30
0.0
 11
44.517276403588632
 21
67.621073025323653
 31
0.0
  0
LINE
  5
5D5
  8
0
  6
CONTINUOUS
 62
     7
 10
56.517276403588639
 20
68.560404025323635
 30
0.0
 11
56.517276403588639
 21
67.621073025323653
 31
0.0
  0
LINE
  5
5D6
  8
0
  6
CONTINUOUS
 62
     7
 10
58.51727640358866
 20
68.260401025323645
 30
0.0
 11
58.51727640358866
 21
67.624003025323645
 31
0.0
  0
LINE
  5
5D7
  8
0
  6
CONTINUOUS
 62
     7
 10
27.517276403588671
 20
70.160404025323643
 30
0.0
 11
27.517276403588671
 21
68.560404025323635
 31
0.0
  0
LINE
  5
5DA
  8
0
  6
CONTINUOUS
 62
     7
 10
20.717276403588659
 20
70.160404025323643
 30
0.0
 11
27.517276403588671
 21
70.160404025323643
 31
0.0
  0
LINE
  5
5DB
  8
0
  6
CONTINUOUS
 62
     7
 10
24.51727640358866
 20
68.560404025323635
 30
0.0
 11
27.517276403588671
 21
68.560404025323635
 31
0.0
  0
LINE
  5
5DE
  8
0
  6
CONTINUOUS
 62
     7
 10
27.57795240357596
 20
64.560404025323621
 30
0.0
 11
29.997661161318021
 21
64.560404025323635
 31
0.0
  0
LINE
  5
5E1
  8
0
  6
CONTINUOUS
 62
     7
 10
26.51727640358866
 20
57.621073025323639
 30
0.0
 11
26.517276403588671
 21
60.040787051002177
 31
0.0
  0
LINE
  5
5E2
  8
0
  6
CONTINUOUS
 62
     7
 10
26.51727640358866
 20
63.49976002532464
 30
0.0
 11
26.51727640358866
 21
61.080020999645122
 31
0.0
  0
LINE
  5
5E3
  8
0
  6
CONTINUOUS
 62
     7
 10
22.517276403588671
 20
66.560404025323635
 30
0.0
 11
23.456622403588661
 21
66.560404025323635
 31
0.0
  0
LINE
  5
5E4
  8
0
  6
CONTINUOUS
 62
     7
 10
22.517276403588671
 20
66.560404025323635
 30
0.0
 11
22.517276403588671
 21
63.560404025323642
 31
0.0
  0
ARC
  5
5E5
  8
0
  6
CONTINUOUS
 62
     7
 10
20.81727540358866
 20
63.86040502532363
 30
0.0
 40
0.3
 50
179.9999899999998
 51
270.0
  0
LINE
  5
5E6
  8
0
  6
CONTINUOUS
 62
     7
 10
20.81727540358866
 20
63.560404025323642
 30
0.0
 11
22.517276403588671
 21
63.560404025323642
 31
0.0
  0
ARC
  5
5E7
  8
0
  6
CONTINUOUS
 62
     7
 10
20.81727540358866
 20
57.260405025323649
 30
0.0
 40
0.3
 50
90.000003000000149
 51
180.0000100000002
  0
LINE
  5
5E8
  8
0
  6
CONTINUOUS
 62
     7
 10
20.81727540358866
 20
57.560405025323639
 30
0.0
 11
22.517276403588671
 21
57.560405025323639
 31
0.0
  0
LINE
  5
5E9
  8
0
  6
CONTINUOUS
 62
     7
 10
23.456628403588681
 20
66.560410025323648
 30
0.0
 11
26.51727640358866
 21
63.49976002532464
 31
0.0
  0
LINE
  5
5EA
  8
0
  6
CONTINUOUS
 62
     7
 10
24.517278403588669
 20
67.621081025323662
 30
0.0
 11
27.57795240357596
 21
64.560404025323621
 31
0.0
  0
LINE
  5
5EB
  8
0
  6
CONTINUOUS
 62
     7
 10
22.517276403588671
 20
54.560405025323632
 30
0.0
 11
23.456622403588661
 21
54.560405025323632
 31
0.0
  0
ARC
  5
5EC
  8
0
  6
CONTINUOUS
 62
     7
 10
23.453677403588671
 20
52.860392025323641
 30
0.0
 40
0.3
 50
269.9999899999998
 51
315.00000000000028
  0
ARC
  5
5ED
  8
0
  6
CONTINUOUS
 62
     7
 10
22.81727940358866
 20
52.260417025323648
 30
0.0
 40
0.3
 50
90.000003000000149
 51
180.0000100000002
  0
LINE
  5
5EE
  8
0
  6
CONTINUOUS
 62
     7
 10
22.81727940358866
 20
52.560404025323649
 30
0.0
 11
23.453677403588671
 21
52.560404025323649
 31
0.0
  0
ARC
  5
5EF
  8
0
  6
CONTINUOUS
 62
     7
 10
23.453677403588671
 20
48.26041702532364
 30
0.0
 40
0.3
 50
44.999997999999891
 51
90.000003000000149
  0
ARC
  5
5F0
  8
0
  6
CONTINUOUS
 62
     7
 10
22.81727940358866
 20
48.860392025323662
 30
0.0
 40
0.3
 50
180.0000100000002
 51
270.0
  0
LINE
  5
5F1
  8
0
  6
CONTINUOUS
 62
     7
 10
22.517276403588671
 20
46.560404025323642
 30
0.0
 11
23.456622403588661
 21
46.560404025323642
 31
0.0
  0
LINE
  5
5F2
  8
0
  6
CONTINUOUS
 62
     7
 10
22.81727940358866
 20
48.560404025323642
 30
0.0
 11
23.453677403588671
 21
48.560404025323642
 31
0.0
  0
LINE
  5
5F3
  8
0
  6
CONTINUOUS
 62
     7
 10
22.517276403588671
 20
48.860392025323662
 30
0.0
 11
22.517276403588671
 21
52.260417025323648
 31
0.0
  0
LINE
  5
5F4
  8
0
  6
CONTINUOUS
 62
     7
 10
23.66580540358866
 20
52.648276025323632
 30
0.0
 11
27.577934403587399
 21
56.560404025323649
 31
0.0
  0
LINE
  5
5F5
  8
0
  6
CONTINUOUS
 62
     7
 10
23.456616403588662
 20
54.560408025323632
 30
0.0
 11
26.51727940358866
 21
57.621068025323652
 31
0.0
  0
LINE
  5
5F6
  8
0
  6
CONTINUOUS
 62
     7
 10
22.517276403588671
 20
54.560405025323632
 30
0.0
 11
22.517276403588671
 21
57.560405025323639
 31
0.0
  0
LINE
  5
5F7
  8
0
  6
CONTINUOUS
 62
     7
 10
20.51727640358866
 20
69.560404025323635
 30
0.0
 11
20.51727640358866
 21
63.86040502532363
 31
0.0
  0
LINE
  5
5F8
  8
0
  6
CONTINUOUS
 62
     7
 10
24.51727640358866
 20
68.560404025323635
 30
0.0
 11
24.51727640358866
 21
67.621073025323653
 31
0.0
  0
LINE
  5
5F9
  8
0
  6
CONTINUOUS
 62
     7
 10
32.517276403588681
 20
56.560404025323649
 30
0.0
 11
27.577934403587399
 21
56.560404025323649
 31
0.0
  0
LINE
  5
5FA
  8
0
  6
CONTINUOUS
 62
     7
 10
33.456612403583421
 20
64.560404025323649
 30
0.0
 11
31.036891645859331
 21
64.560404025323635
 31
0.0
  0
CIRCLE
  5
5FB
  8
0
  6
CONTINUOUS
 62
     7
 10
30.51727640358866
 20
60.560404025323642
 30
0.0
 40
2.1000000000000001
  0
ARC
  5
5FC
  8
0
  6
CONTINUOUS
 62
     7
 10
53.663722403588629
 20
37.060404025323663
 30
0.0
 40
1.0
 50
45.000001000000061
 51
90.000003000000149
  0
LINE
  5
5FD
  8
0
  6
CONTINUOUS
 62
     7
 10
53.663722403588629
 20
38.060404025323649
 30
0.0
 11
51.76727640358866
 21
38.060404025323649
 31
0.0
  0
ARC
  5
5FE
  8
0
  6
CONTINUOUS
 62
     7
 10
51.76727640358866
 20
38.560403025323652
 30
0.0
 40
0.5
 50
179.9999899999998
 51
270.0
  0
LINE
  5
601
  8
0
  6
CONTINUOUS
 62
     7
 10
49.26727640358866
 20
38.060404025323649
 30
0.0
 11
47.370830403588648
 21
38.060404025323649
 31
0.0
  0
LINE
  5
602
  8
0
  6
CONTINUOUS
 62
     7
 10
47.577945403588643
 20
36.560404025323649
 30
0.0
 11
49.997664893368707
 21
36.560404025323649
 31
0.0
  0
ARC
  5
603
  8
0
  6
CONTINUOUS
 62
     7
 10
49.26727640358866
 20
38.560403025323652
 30
0.0
 40
0.5
 50
270.0
 51
0.0
  0
LINE
  5
604
  8
0
  6
CONTINUOUS
 62
     7
 10
53.456611403584091
 20
36.560404025323663
 30
0.0
 11
51.036891913808653
 21
36.560404025323649
 31
0.0
  0
LINE
  5
605
  8
0
  6
CONTINUOUS
 62
     7
 10
58.51727640358866
 20
32.86040702532366
 30
0.0
 11
58.51727640358866
 21
33.496805025323653
 31
0.0
  0
LINE
  5
606
  8
0
  6
CONTINUOUS
 62
     7
 10
58.817264403588638
 20
32.56040402532367
 30
0.0
 11
62.217286403588659
 21
32.56040402532367
 31
0.0
  0
LINE
  5
607
  8
0
  6
CONTINUOUS
 62
     7
 10
56.517276403588639
 20
32.56040402532367
 30
0.0
 11
56.517276403588639
 21
33.499735025323652
 31
0.0
  0
ARC
  5
608
  8
0
  6
CONTINUOUS
 62
     7
 10
58.817264403588638
 20
32.86040702532366
 30
0.0
 40
0.3
 50
179.9999899999998
 51
270.0
  0
ARC
  5
609
  8
0
  6
CONTINUOUS
 62
     7
 10
58.217288403588647
 20
33.496805025323653
 30
0.0
 40
0.3
 50
0.0
 51
45.000001000000061
  0
LINE
  5
60A
  8
0
  6
CONTINUOUS
 62
     7
 10
53.517276403588639
 20
30.960404025323669
 30
0.0
 11
53.51727640358866
 21
32.56040402532367
 31
0.0
  0
LINE
  5
60C
  8
0
  6
CONTINUOUS
 62
     7
 10
47.517276403588639
 20
30.960404025323669
 30
0.0
 11
47.517276403588639
 21
32.56040402532367
 31
0.0
  0
LINE
  5
60D
  8
0
  6
CONTINUOUS
 62
     7
 10
56.517276403588639
 20
32.56040402532367
 30
0.0
 11
53.51727640358866
 21
32.56040402532367
 31
0.0
  0
LINE
  5
60E
  8
0
  6
CONTINUOUS
 62
     7
 10
58.429413403588661
 20
33.708928025323651
 30
0.0
 11
54.370829403588651
 21
37.76751102532365
 31
0.0
  0
LINE
  5
60F
  8
0
  6
CONTINUOUS
 62
     7
 10
56.517281403588662
 20
33.499736025323656
 30
0.0
 11
53.456611403584091
 21
36.560404025323663
 31
0.0
  0
ARC
  5
610
  8
0
  6
CONTINUOUS
 62
     7
 10
32.517278403588683
 20
42.560404025323663
 30
0.0
 40
2.0
 50
0.0
 51
90.000003000000149
  0
LINE
  5
611
  8
0
  6
CONTINUOUS
 62
     7
 10
34.51727640358866
 20
37.621069025322647
 30
0.0
 11
34.51727640358866
 21
42.560404025323663
 31
0.0
  0
LINE
  5
612
  8
0
  6
CONTINUOUS
 62
     7
 10
44.517276403588632
 20
32.56040402532367
 30
0.0
 11
44.517276403588632
 21
33.499735025323652
 31
0.0
  0
LINE
  5
613
  8
0
  6
CONTINUOUS
 62
     7
 10
42.517276403588639
 20
32.86040702532366
 30
0.0
 11
42.517276403588639
 21
33.496805025323653
 31
0.0
  0
ARC
  5
614
  8
0
  6
CONTINUOUS
 62
     7
 10
42.81726340358864
 20
33.496805025323653
 30
0.0
 40
0.3
 50
135.00000000000031
 51
180.0000100000002
  0
ARC
  5
615
  8
0
  6
CONTINUOUS
 62
     7
 10
42.217288403588647
 20
32.86040702532366
 30
0.0
 40
0.3
 50
270.0
 51
0.0000090000000101
  0
LINE
  5
616
  8
0
  6
CONTINUOUS
 62
     7
 10
38.517274403588658
 20
32.86040702532366
 30
0.0
 11
38.517274403588658
 21
33.496805025323653
 31
0.0
  0
ARC
  5
617
  8
0
  6
CONTINUOUS
 62
     7
 10
38.217286403588659
 20
33.496805025323653
 30
0.0
 40
0.3
 50
359.9999899999998
 51
45.000001000000061
  0
LINE
  5
618
  8
0
  6
CONTINUOUS
 62
     7
 10
36.51727640358866
 20
32.56040402532367
 30
0.0
 11
36.51727640358866
 21
33.499735025323652
 31
0.0
  0
ARC
  5
619
  8
0
  6
CONTINUOUS
 62
     7
 10
38.817262403588657
 20
32.86040702532366
 30
0.0
 40
0.3
 50
179.9999899999998
 51
270.0
  0
LINE
  5
61A
  8
0
  6
CONTINUOUS
 62
     7
 10
33.517276403588681
 20
30.960404025323669
 30
0.0
 11
33.517276403588681
 21
32.56040402532367
 31
0.0
  0
LINE
  5
61C
  8
0
  6
CONTINUOUS
 62
     7
 10
36.51727640358866
 20
32.56040402532367
 30
0.0
 11
33.517276403588681
 21
32.56040402532367
 31
0.0
  0
LINE
  5
61D
  8
0
  6
CONTINUOUS
 62
     7
 10
33.517276403588681
 20
30.960404025323669
 30
0.0
 11
47.517276403588639
 21
30.960404025323669
 31
0.0
  0
LINE
  5
61E
  8
0
  6
CONTINUOUS
 62
     7
 10
42.217288403588647
 20
32.56040402532367
 30
0.0
 11
38.817262403588657
 21
32.56040402532367
 31
0.0
  0
LINE
  5
61F
  8
0
  6
CONTINUOUS
 62
     7
 10
36.517281403588662
 20
33.499737025323647
 30
0.0
 11
33.456612403586711
 21
36.560404025323642
 31
0.0
  0
LINE
  5
620
  8
0
  6
CONTINUOUS
 62
     7
 10
42.605140403588628
 20
33.708927025323661
 30
0.0
 11
46.663723403588641
 21
37.76751102532365
 31
0.0
  0
LINE
  5
621
  8
0
  6
CONTINUOUS
 62
     7
 10
38.429403403588672
 20
33.708939025323652
 30
0.0
 11
34.51727640358866
 21
37.621069025322647
 31
0.0
  0
LINE
  5
622
  8
0
  6
CONTINUOUS
 62
     7
 10
44.517279403588631
 20
33.499726025323653
 30
0.0
 11
47.577941403588632
 21
36.560388025323661
 31
0.0
  0
LINE
  5
623
  8
0
  6
CONTINUOUS
 62
     7
 10
44.517276403588632
 20
32.56040402532367
 30
0.0
 11
47.517276403588639
 21
32.56040402532367
 31
0.0
  0
ARC
  5
624
  8
0
  6
CONTINUOUS
 62
     7
 10
47.370830403588648
 20
37.060404025323663
 30
0.0
 40
1.0
 50
90.000003000000149
 51
135.00000000000031
  0
LINE
  5
626
  8
0
  6
CONTINUOUS
 62
     7
 10
26.517276403588671
 20
43.499740025322637
 30
0.0
 11
26.51727640358866
 21
41.080019999645131
 31
0.0
  0
LINE
  5
62B
  8
0
  6
CONTINUOUS
 62
     7
 10
26.51727640358866
 20
37.621045025322672
 30
0.0
 11
26.51727640358866
 21
40.040786051002229
 31
0.0
  0
LINE
  5
62C
  8
0
  6
CONTINUOUS
 62
     7
 10
27.577958403588671
 20
36.560404025323649
 30
0.0
 11
29.99766289336873
 21
36.560404025323649
 31
0.0
  0
ARC
  5
62E
  8
0
  6
CONTINUOUS
 62
     7
 10
20.81727540358866
 20
43.860404025323653
 30
0.0
 40
0.3
 50
179.9999899999998
 51
270.0
  0
LINE
  5
62F
  8
0
  6
CONTINUOUS
 62
     7
 10
20.81727540358866
 20
43.560404025323642
 30
0.0
 11
22.517276403588671
 21
43.560404025323642
 31
0.0
  0
ARC
  5
630
  8
0
  6
CONTINUOUS
 62
     7
 10
20.81727540358866
 20
37.260405025323649
 30
0.0
 40
0.3
 50
90.000003000000149
 51
180.0000100000002
  0
LINE
  5
631
  8
0
  6
CONTINUOUS
 62
     7
 10
20.81727540358866
 20
37.560405025323647
 30
0.0
 11
22.517276403588671
 21
37.560405025323647
 31
0.0
  0
LINE
  5
632
  8
0
  6
CONTINUOUS
 62
     7
 10
27.517276403588671
 20
30.960404025323669
 30
0.0
 11
27.517276403588671
 21
32.56040402532367
 31
0.0
  0
LINE
  5
634
  8
0
  6
CONTINUOUS
 62
     7
 10
22.517276403588671
 20
34.560404025323649
 30
0.0
 11
23.456622403588661
 21
34.560404025323649
 31
0.0
  0
LINE
  5
635
  8
0
  6
CONTINUOUS
 62
     7
 10
24.51727640358866
 20
32.56040402532367
 30
0.0
 11
24.51727640358866
 21
33.499735025323652
 31
0.0
  0
LINE
  5
637
  8
0
  6
CONTINUOUS
 62
     7
 10
20.71727640358867
 20
30.96040402532369
 30
0.0
 11
27.517276403588671
 21
30.960404025323669
 31
0.0
  0
LINE
  5
638
  8
0
  6
CONTINUOUS
 62
     7
 10
24.51727640358866
 20
32.56040402532367
 30
0.0
 11
27.517276403588671
 21
32.56040402532367
 31
0.0
  0
LINE
  5
639
  8
0
  6
CONTINUOUS
 62
     7
 10
20.51727640358866
 20
31.56040402532367
 30
0.0
 11
20.51727640358866
 21
37.260405025323649
 31
0.0
  0
LINE
  5
63A
  8
0
  6
CONTINUOUS
 62
     7
 10
22.517276403588671
 20
34.560404025323649
 30
0.0
 11
22.517276403588671
 21
37.560405025323647
 31
0.0
  0
LINE
  5
63B
  8
0
  6
CONTINUOUS
 62
     7
 10
23.456628403588681
 20
34.560396025323662
 30
0.0
 11
26.51727640358866
 21
37.621045025322672
 31
0.0
  0
LINE
  5
63C
  8
0
  6
CONTINUOUS
 62
     7
 10
24.517278403588669
 20
33.49972502532367
 30
0.0
 11
27.577958403588671
 21
36.560404025323649
 31
0.0
  0
LINE
  5
63D
  8
0
  6
CONTINUOUS
 62
     7
 10
32.517278403588683
 20
44.560404025323649
 30
0.0
 11
27.577932403590459
 21
44.560404025323649
 31
0.0
  0
LINE
  5
63E
  8
0
  6
CONTINUOUS
 62
     7
 10
33.456612403586711
 20
36.560404025323642
 30
0.0
 11
31.036889913808611
 21
36.560404025323649
 31
0.0
  0
CIRCLE
  5
63F
  8
0
  6
CONTINUOUS
 62
     7
 10
30.51727640358866
 20
40.560404025323649
 30
0.0
 40
2.1000000000000001
  0
TEXT
  5
640
  8
0
  6
CONTINUOUS
 62
     7
 10
0.0000001381732773
 20
0.0000000253236507
 30
0.0
 40
4.0
  1
HP56040
  0
TEXT
  5
641
  8
0
  6
CONTINUOUS
 62
     7
 10
0.0000001381732773
 20
6.485849887378687
 30
0.0
 40
4.0
  1
HFSP5-6040-50
  0
LINE
  5
642
  8
0
  6
CONTINUOUS
 62
     7
 10
20.51727640358866
 20
43.860404025323653
 30
0.0
 11
20.51727640358866
 21
57.260405025323649
 31
0.0
  0
LINE
  5
643
  8
0
  6
CONTINUOUS
 62
     7
 10
23.456616403588662
 20
46.560399025323647
 30
0.0
 11
26.517276403588671
 21
43.499740025322637
 31
0.0
  0
LINE
  5
644
  8
0
  6
CONTINUOUS
 62
     7
 10
22.517276403588671
 20
46.560404025323642
 30
0.0
 11
22.517276403588671
 21
43.560404025323642
 31
0.0
  0
LINE
  5
645
  8
0
  6
CONTINUOUS
 62
     7
 10
49.76727640358866
 20
38.560403025323652
 30
0.0
 11
49.76727640358866
 21
62.560404025323649
 31
0.0
  0
LINE
  5
646
  8
0
  6
CONTINUOUS
 62
     7
 10
23.665795403588671
 20
48.472542025323648
 30
0.0
 11
27.577932403590459
 21
44.560404025323649
 31
0.0
  0
LINE
  5
647
  8
0
  6
CONTINUOUS
 62
     7
 10
51.26727640358866
 20
38.560403025323652
 30
0.0
 11
51.26727640358866
 21
62.560404025323649
 31
0.0
  0
LINE
  5
648
  8
CENTER
  6
CENTER
 62
     1
 10
50.51727640358866
 20
72.660404025323643
 30
0.0
 11
50.51727640358866
 21
28.460404025323669
 31
0.0
  0
LINE
  5
649
  8
CENTER
  6
CENTER
 62
     1
 10
30.51727640358866
 20
64.160405025323627
 30
0.0
 11
30.51727640358866
 21
56.960404025323619
 31
0.0
  0
LINE
  5
64A
  8
0
  6
CONTINUOUS
 62
     7
 10
53.517276403588639
 20
30.960404025323669
 30
0.0
 11
67.517276403588653
 21
30.960404025323669
 31
0.0
  0
LINE
  5
64B
  8
0
  6
CONTINUOUS
 62
     7
 10
53.51727640358866
 20
70.160404025323643
 30
0.0
 11
67.517276403588653
 21
70.160404025323615
 31
0.0
  0
LINE
  5
64C
  8
CENTER
  6
CENTER
 62
     1
 10
26.917276403588659
 20
60.560404025323642
 30
0.0
 11
34.117276403588662
 21
60.560404025323642
 31
0.0
  0
LINE
  5
64D
  8
CENTER
  6
CENTER
 62
     1
 10
26.917276403588659
 20
40.560404025323649
 30
0.0
 11
34.117276403588662
 21
40.560404025323649
 31
0.0
  0
ARC
  5
64E
  8
0
  6
CONTINUOUS
 62
     7
 10
62.217286403588659
 20
68.260401025323645
 30
0.0
 40
0.3
 50
0.0
 51
90.000003000000149
  0
ARC
  5
64F
  8
0
  6
CONTINUOUS
 62
     7
 10
62.217286403588659
 20
32.86040702532366
 30
0.0
 40
0.3
 50
270.0
 51
0.0
  0
LINE
  5
AB2
  8
CENTER
  6
CENTER
 62
     1
 10
30.51727640358866
 20
44.160404025323658
 30
0.0
 11
30.51727640358866
 21
36.960404025323662
 31
0.0
  0
LINE
  5
AB3
  8
CENTER
  6
CENTER
 62
     1
 10
66.917276403588659
 20
40.560404025323649
 30
0.0
 11
74.117276403588633
 21
40.560404025323649
 31
0.0
  0
LINE
  5
AB4
  8
CENTER
  6
CENTER
 62
     1
 10
66.917276403588659
 20
60.560404025323642
 30
0.0
 11
74.117276403588633
 21
60.560404025323642
 31
0.0
  0
LINE
  5
AB5
  8
CENTER
  6
CENTER
 62
     1
 10
70.517276403588653
 20
44.160404025323658
 30
0.0
 11
70.517276403588653
 21
36.960404025323662
 31
0.0
  0
LINE
  5
AB6
  8
CENTER
  6
CENTER
 62
     1
 10
83.017276403588653
 20
50.56040402532367
 30
0.0
 11
18.017276403588649
 21
50.56040402532367
 31
0.0
  0
LINE
  5
ABA
  8
CENTER
  6
CENTER
 62
     1
 10
178.0172764035886
 20
50.56040402532367
 30
0.0
 11
123.0172764035886
 21
50.560404025323649
 31
0.0
  0
LINE
  5
ABB
  8
0
  6
CONTINUOUS
 62
     7
 10
175.5172764035886
 20
70.160404025323643
 30
0.0
 11
125.5172764035886
 21
70.160404025323643
 31
0.0
  0
LINE
  5
ABC
  8
0
  6
CONTINUOUS
 62
     7
 10
175.51727640358871
 20
30.96040402532369
 30
0.0
 11
125.5172764035886
 21
30.96040402532369
 31
0.0
  0
LINE
  5
ABE
  8
0
  6
CONTINUOUS
 62
     7
 10
125.5172764035886
 20
70.160404025323643
 30
0.0
 11
125.5172764035886
 21
30.96040402532369
 31
0.0
  0
LINE
  5
ABF
  8
0
  6
CONTINUOUS
 62
     7
 10
175.5172764035886
 20
70.560404025323663
 30
0.0
 11
175.51727640358871
 21
30.560404025323681
 31
0.0
  0
LINE
  5
AC3
  8
0
  6
CONTINUOUS
 62
     7
 10
175.5172764035886
 20
60.860419025323651
 30
0.0
 11
125.5172764035886
 21
60.860419025323651
 31
0.0
  0
LINE
  5
AC4
  8
0
  6
CONTINUOUS
 62
     7
 10
175.5172764035886
 20
60.26041702532364
 30
0.0
 11
125.5172764035886
 21
60.26041702532364
 31
0.0
  0
LINE
  5
AC5
  8
0
  6
CONTINUOUS
 62
     7
 10
175.5172764035886
 20
40.860396025323631
 30
0.0
 11
125.5172764035886
 21
40.860396025323631
 31
0.0
  0
LINE
  5
AC6
  8
0
  6
CONTINUOUS
 62
     7
 10
175.51727640358871
 20
40.260387025323631
 30
0.0
 11
125.5172764035886
 21
40.260387025323631
 31
0.0
  0
LINE
  5
AC7
  8
CENTER
  6
CENTER
 62
     1
 10
178.01727640358871
 20
40.560404025323663
 30
0.0
 11
123.0172764035886
 21
40.560404025323663
 31
0.0
  0
LINE
  5
AC8
  8
CENTER
  6
CENTER
 62
     1
 10
178.0172764035886
 20
60.56040402532367
 30
0.0
 11
123.0172764035886
 21
60.560404025323649
 31
0.0
  0
LINE
  5
AC9
  8
0
  6
CONTINUOUS
 62
     7
 10
175.5172764035886
 20
63.560404025323642
 30
0.0
 11
125.5172764035886
 21
63.560404025323642
 31
0.0
  0
LINE
  5
ACA
  8
0
  6
CONTINUOUS
 62
     7
 10
175.5172764035886
 20
57.560404025323642
 30
0.0
 11
125.5172764035886
 21
57.560404025323642
 31
0.0
  0
LINE
  5
ACB
  8
0
  6
CONTINUOUS
 62
     7
 10
175.5172764035886
 20
43.560404025323642
 30
0.0
 11
125.5172764035886
 21
43.560404025323642
 31
0.0
  0
LINE
  5
ACC
  8
0
  6
CONTINUOUS
 62
     7
 10
175.51727640358871
 20
37.560404025323649
 30
0.0
 11
125.5172764035886
 21
37.560404025323649
 31
0.0
  0
ARC
  5
E7C
  8
0
  6
CONTINUOUS
 62
     7
 10
21.517276403588671
 20
69.560404025323649
 30
0.0
 40
1.0
 50
143.13010235415629
 51
180.0000000000008
  0
ARC
  5
E7D
  8
0
  6
CONTINUOUS
 62
     7
 10
79.517276403588639
 20
69.560404025323649
 30
0.0
 40
1.0
 50
359.9999999999992
 51
36.86989764584338
  0
ARC
  5
E7E
  8
0
  6
CONTINUOUS
 62
     7
 10
79.517276403588653
 20
31.56040402532367
 30
0.0
 40
1.0
 50
323.13010235415572
 51
0.0
  0
ARC
  5
E7F
  8
0
  6
CONTINUOUS
 62
     7
 10
21.517276403588671
 20
31.56040402532367
 30
0.0
 40
1.0
 50
180.0000000000002
 51
216.86989764584411
  0
LINE
  5
E91
  8
0
  6
CONTINUOUS
 62
     7
 10
30.51727640358866
 20
64.260404025323638
 30
0.0
 11
29.997661161318021
 21
64.560404025323635
 31
0.0
  0
LINE
  5
E92
  8
0
  6
CONTINUOUS
 62
     7
 10
30.51727640358866
 20
64.260404025323638
 30
0.0
 11
31.036891645859331
 21
64.560404025323635
 31
0.0
  0
LINE
  5
EA0
  8
0
  6
CONTINUOUS
 62
     7
 10
26.817277403588658
 20
60.560404025323642
 30
0.0
 11
26.517276403588671
 21
60.040787051002177
 31
0.0
  0
LINE
  5
EA1
  8
0
  6
CONTINUOUS
 62
     7
 10
26.817277403588658
 20
60.560404025323642
 30
0.0
 11
26.51727640358866
 21
61.080020999645122
 31
0.0
  0
LINE
  5
EA6
  8
0
  6
CONTINUOUS
 62
     7
 10
70.517273923950313
 20
64.260407645232931
 30
0.0
 11
71.036882679162289
 21
64.560404025323635
 31
0.0
  0
LINE
  5
EA7
  8
0
  6
CONTINUOUS
 62
     7
 10
70.517273923950313
 20
64.260407645232931
 30
0.0
 11
69.997664734354345
 21
64.560404025323635
 31
0.0
  0
LINE
  5
EA8
  8
0
  6
CONTINUOUS
 62
     7
 10
74.217273593633294
 20
60.560408314916032
 30
0.0
 11
74.517276403588653
 21
60.040788422856536
 31
0.0
  0
LINE
  5
EA9
  8
0
  6
CONTINUOUS
 62
     7
 10
74.217273593633294
 20
60.560408314916032
 30
0.0
 11
74.517276403588653
 21
61.080028641368763
 31
0.0
  0
LINE
  5
EAA
  8
0
  6
CONTINUOUS
 62
     7
 10
30.51727640358866
 20
36.860403025323699
 30
0.0
 11
29.99766289336873
 21
36.560404025323649
 31
0.0
  0
LINE
  5
EAB
  8
0
  6
CONTINUOUS
 62
     7
 10
30.51727640358866
 20
36.860403025323699
 30
0.0
 11
31.036889913808611
 21
36.560404025323649
 31
0.0
  0
LINE
  5
EAC
  8
0
  6
CONTINUOUS
 62
     7
 10
26.817277403588658
 20
40.560403025323687
 30
0.0
 11
26.51727640358866
 21
41.080019999645131
 31
0.0
  0
LINE
  5
EAD
  8
0
  6
CONTINUOUS
 62
     7
 10
26.817277403588658
 20
40.560403025323687
 30
0.0
 11
26.51727640358866
 21
40.040786051002229
 31
0.0
  0
LINE
  5
EAE
  8
0
  6
CONTINUOUS
 62
     7
 10
70.517273923950313
 20
36.860399405414427
 30
0.0
 11
71.036880947112337
 21
36.560404025323649
 31
0.0
  0
LINE
  5
EAF
  8
0
  6
CONTINUOUS
 62
     7
 10
70.517273923950313
 20
36.860399405414427
 30
0.0
 11
69.997666466405818
 21
36.560404025323649
 31
0.0
  0
LINE
  5
EB0
  8
0
  6
CONTINUOUS
 62
     7
 10
74.217273593633294
 20
40.56039873573129
 30
0.0
 11
74.517276403588653
 21
41.080018627790807
 31
0.0
  0
LINE
  5
EB1
  8
0
  6
CONTINUOUS
 62
     7
 10
74.217273593633294
 20
40.56039873573129
 30
0.0
 11
74.517276403588653
 21
40.04077840927858
 31
0.0
  0
LINE
  5
EB2
  8
0
  6
CONTINUOUS
 62
     7
 10
50.517278403588648
 20
64.260404025323638
 30
0.0
 11
49.997663161317988
 21
64.560404025323621
 31
0.0
  0
LINE
  5
EB3
  8
0
  6
CONTINUOUS
 62
     7
 10
50.517278403588648
 20
64.260404025323638
 30
0.0
 11
51.036893645859351
 21
64.560404025323635
 31
0.0
  0
LINE
  5
EB4
  8
0
  6
CONTINUOUS
 62
     7
 10
50.517278403588648
 20
36.860403025323699
 30
0.0
 11
49.997664893368707
 21
36.560404025323649
 31
0.0
  0
LINE
  5
EB5
  8
0
  6
CONTINUOUS
 62
     7
 10
50.517278403588648
 20
36.860403025323699
 30
0.0
 11
51.036891913808653
 21
36.560404025323649
 31
0.0
  0
ENDSEC
  0
EOF
