  0
SECTION
  2
HEADER
  9
$ACADVER
  1
AC1009
  9
$INSBASE
 10
0.0
 20
0.0
 30
0.0
  9
$EXTMIN
 10
0.0000001381732773
 20
0.0000000253236507
 30
0.0
  9
$EXTMAX
 10
158.16772593056081
 20
92.660404025323643
 30
0.0
  9
$LIMMIN
 10
0.0
 20
0.0
  9
$LIMMAX
 10
297.0
 20
210.0
  9
$ORTHOMODE
 70
     0
  9
$REGENMODE
 70
     1
  9
$FILLMODE
 70
     1
  9
$QTEXTMODE
 70
     0
  9
$MIRRTEXT
 70
     1
  9
$DRAGMODE
 70
     2
  9
$LTSCALE
 40
1.0
  9
$OSMODE
 70
    57
  9
$ATTMODE
 70
     1
  9
$TEXTSIZE
 40
6.4000000000000012
  9
$TRACEWID
 40
0.05
  9
$TEXTSTYLE
  7
STANDARD
  9
$CLAYER
  8
0
  9
$CELTYPE
  6
CONTINUOUS
  9
$CECOLOR
 62
     7
  9
$DIMSCALE
 40
1.0
  9
$DIMASZ
 40
3.0
  9
$DIMEXO
 40
1.0
  9
$DIMDLI
 40
0.0
  9
$DIMRND
 40
0.0
  9
$DIMDLE
 40
0.0
  9
$DIMEXE
 40
1.0
  9
$DIMTP
 40
0.0
  9
$DIMTM
 40
0.0
  9
$DIMTXT
 40
3.2000000000000002
  9
$DIMCEN
 40
0.0
  9
$DIMTSZ
 40
0.0
  9
$DIMTOL
 70
     0
  9
$DIMLIM
 70
     0
  9
$DIMTIH
 70
     0
  9
$DIMTOH
 70
     0
  9
$DIMSE1
 70
     0
  9
$DIMSE2
 70
     0
  9
$DIMTAD
 70
     1
  9
$DIMZIN
 70
     8
  9
$DIMBLK
  1

  9
$DIMASO
 70
     1
  9
$DIMSHO
 70
     1
  9
$DIMPOST
  1

  9
$DIMAPOST
  1

  9
$DIMALT
 70
     0
  9
$DIMALTD
 70
     2
  9
$DIMALTF
 40
0.04
  9
$DIMLFAC
 40
1.0
  9
$DIMTOFL
 70
     1
  9
$DIMTVP
 40
1.0
  9
$DIMTIX
 70
     1
  9
$DIMSOXD
 70
     0
  9
$DIMSAH
 70
     0
  9
$DIMBLK1
  1

  9
$DIMBLK2
  1

  9
$DIMSTYLE
  2
MISUMI
  9
$DIMCLRD
 70
     0
  9
$DIMCLRE
 70
     0
  9
$DIMCLRT
 70
     0
  9
$DIMTFAC
 40
0.6
  9
$DIMGAP
 40
1.0
  9
$LUNITS
 70
     2
  9
$LUPREC
 70
     4
  9
$SKETCHINC
 40
0.1
  9
$FILLETRAD
 40
0.0
  9
$AUNITS
 70
     0
  9
$AUPREC
 70
     0
  9
$MENU
  1
acad
  9
$ELEVATION
 40
0.0
  9
$PELEVATION
 40
0.0
  9
$THICKNESS
 40
0.0
  9
$LIMCHECK
 70
     0
  9
$BLIPMODE
 70
     1
  9
$CHAMFERA
 40
0.5
  9
$CHAMFERB
 40
0.5
  9
$SKPOLY
 70
     0
  9
$TDCREATE
 40
2451464.6006649309
  9
$TDUPDATE
 40
2453776.702394201
  9
$TDINDWG
 40
0.3322658565
  9
$TDUSRTIMER
 40
0.3322634838
  9
$USRTIMER
 70
     1
  9
$ANGBASE
 50
0.0
  9
$ANGDIR
 70
     0
  9
$PDMODE
 70
     0
  9
$PDSIZE
 40
0.0
  9
$PLINEWID
 40
0.0
  9
$COORDS
 70
     0
  9
$SPLFRAME
 70
     0
  9
$SPLINETYPE
 70
     6
  9
$SPLINESEGS
 70
     8
  9
$ATTDIA
 70
     0
  9
$ATTREQ
 70
     1
  9
$HANDLING
 70
     1
  9
$HANDSEED
  5
1EBF
  9
$SURFTAB1
 70
     6
  9
$SURFTAB2
 70
     6
  9
$SURFTYPE
 70
     6
  9
$SURFU
 70
     6
  9
$SURFV
 70
     6
  9
$UCSNAME
  2

  9
$UCSORG
 10
0.0
 20
0.0
 30
0.0
  9
$UCSXDIR
 10
1.0
 20
0.0
 30
0.0
  9
$UCSYDIR
 10
0.0
 20
1.0
 30
0.0
  9
$PUCSNAME
  2

  9
$PUCSORG
 10
0.0
 20
0.0
 30
0.0
  9
$PUCSXDIR
 10
1.0
 20
0.0
 30
0.0
  9
$PUCSYDIR
 10
0.0
 20
1.0
 30
0.0
  9
$USERI1
 70
     0
  9
$USERI2
 70
     0
  9
$USERI3
 70
     0
  9
$USERI4
 70
     0
  9
$USERI5
 70
     0
  9
$USERR1
 40
0.0
  9
$USERR2
 40
0.0
  9
$USERR3
 40
0.0
  9
$USERR4
 40
0.0
  9
$USERR5
 40
0.0
  9
$WORLDVIEW
 70
     1
  9
$SHADEDGE
 70
     3
  9
$SHADEDIF
 70
    70
  9
$TILEMODE
 70
     1
  9
$MAXACTVP
 70
    16
  9
$PLIMCHECK
 70
     0
  9
$PEXTMIN
 10
1.0000000000000000E+020
 20
1.0000000000000000E+020
 30
1.0000000000000000E+020
  9
$PEXTMAX
 10
-1.0000000000000000E+020
 20
-1.0000000000000000E+020
 30
-1.0000000000000000E+020
  9
$PLIMMIN
 10
0.0
 20
0.0
  9
$PLIMMAX
 10
12.0
 20
9.0
  9
$UNITMODE
 70
     0
  9
$VISRETAIN
 70
     0
  9
$PLINEGEN
 70
     0
  9
$PSLTSCALE
 70
     1
  0
ENDSEC
  0
SECTION
  2
TABLES
  0
TABLE
  2
VPORT
 70
     2
  0
VPORT
  2
*ACTIVE
 70
     0
 10
0.0
 20
0.0
 11
1.0
 21
1.0
 12
96.173799922273062
 22
46.328951138048708
 13
0.0
 23
0.0
 14
10.0
 24
10.0
 15
10.0
 25
10.0
 16
0.0
 26
0.0
 36
1.0
 17
0.0
 27
0.0
 37
0.0
 40
123.09496678018159
 41
1.5717852684144811
 42
50.0
 43
0.0
 44
0.0
 50
0.0
 51
0.0
 71
     0
 72
   100
 73
     1
 74
     0
 75
     0
 76
     0
 77
     0
 78
     0
  0
ENDTAB
  0
TABLE
  2
LTYPE
 70
     2
  0
LTYPE
  2
CONTINUOUS
 70
     0
  3
Solid line
 72
    65
 73
     0
 40
0.0
  0
LTYPE
  2
CENTER
 70
     0
  3
Center ____ _ ____ _ ____ _ ____ _ ____ _ ____
 72
    65
 73
     4
 40
2.0
 49
1.25
 49
-0.25
 49
0.25
 49
-0.25
  0
ENDTAB
  0
TABLE
  2
LAYER
 70
     2
  0
LAYER
  2
0
 70
     0
 62
     7
  6
CONTINUOUS
  0
LAYER
  2
CENTER
 70
     0
 62
     1
  6
CENTER
  0
ENDTAB
  0
TABLE
  2
STYLE
 70
     1
  0
STYLE
  2
STANDARD
 70
     0
 40
0.0
 41
1.0
 50
0.0
 71
     0
 42
6.4000000000000012
  3
txt
  4

  0
ENDTAB
  0
TABLE
  2
VIEW
 70
     0
  0
ENDTAB
  0
TABLE
  2
UCS
 70
     0
  0
ENDTAB
  0
TABLE
  2
APPID
 70
     2
  0
APPID
  2
ACAD
 70
     0
  0
APPID
  2
ACAD_DSTYLE_DIMTEXT_FILL
 70
     0
  0
ENDTAB
  0
TABLE
  2
DIMSTYLE
 70
     1
  0
DIMSTYLE
  2
MISUMI
 70
     0
  3

  4

  5

  6

  7

 40
1.0
 41
3.0
 42
1.0
 43
0.0
 44
1.0
 45
0.0
 46
0.0
 47
0.0
 48
0.0
140
3.2000000000000002
141
0.0
142
0.0
143
0.04
144
1.0
145
1.0
146
0.6
147
1.0
 71
     0
 72
     0
 73
     0
 74
     0
 75
     0
 76
     0
 77
     1
 78
     8
170
     0
171
     2
172
     1
173
     0
174
     1
175
     0
176
     0
177
     0
178
     0
  0
ENDTAB
  0
ENDSEC
  0
SECTION
  2
BLOCKS
  0
BLOCK
  8
0
  2
$MODEL_SPACE
 70
     0
 10
0.0
 20
0.0
 30
0.0
  3
$MODEL_SPACE
  1

  0
ENDBLK
  5
1E42
  8
0
  0
BLOCK
 67
     1
  8
0
  2
$PAPER_SPACE
 70
     0
 10
0.0
 20
0.0
 30
0.0
  3
$PAPER_SPACE
  1

  0
ENDBLK
  5
1E3E
 67
     1
  8
0
  0
ENDSEC
  0
SECTION
  2
ENTITIES
  0
LINE
  5
555
  8
0
  6
CONTINUOUS
 62
     7
 10
29.297065666540959
 20
83.560404025323635
 30
0.0
 11
30.99706666654096
 21
83.560404025323635
 31
0.0
  0
LINE
  5
556
  8
0
  6
CONTINUOUS
 62
     7
 10
30.99706666654096
 20
86.560404025323663
 30
0.0
 11
30.99706666654096
 21
83.560404025323635
 31
0.0
  0
ARC
  5
557
  8
0
  6
CONTINUOUS
 62
     7
 10
29.297065666540959
 20
83.860403025323663
 30
0.0
 40
0.3
 50
180.00000300000011
 51
270.0000100000002
  0
LINE
  5
558
  8
0
  6
CONTINUOUS
 62
     7
 10
29.297065666540959
 20
77.560404025323663
 30
0.0
 11
30.99706666654096
 21
77.560404025323663
 31
0.0
  0
ARC
  5
559
  8
0
  6
CONTINUOUS
 62
     7
 10
29.297065666540959
 20
77.26040302532364
 30
0.0
 40
0.3
 50
90.0
 51
180.00000300000011
  0
LINE
  5
55A
  8
0
  6
CONTINUOUS
 62
     7
 10
30.99706666654096
 20
74.560404025323663
 30
0.0
 11
30.99706666654096
 21
77.560404025323663
 31
0.0
  0
LINE
  5
55B
  8
0
  6
CONTINUOUS
 62
     7
 10
28.99706666654096
 20
83.860403025323663
 30
0.0
 11
28.99706666654096
 21
89.560404025323621
 31
0.0
  0
LINE
  5
55C
  8
0
  6
CONTINUOUS
 62
     7
 10
32.997065666540983
 20
87.621057025323623
 30
0.0
 11
32.997065666540983
 21
88.560404025323635
 31
0.0
  0
LINE
  5
55E
  8
0
  6
CONTINUOUS
 62
     7
 10
35.99706566654099
 20
90.160404025323643
 30
0.0
 11
35.99706566654099
 21
88.560404025323635
 31
0.0
  0
LINE
  5
55F
  8
0
  6
CONTINUOUS
 62
     7
 10
32.997065666540983
 20
88.560404025323635
 30
0.0
 11
35.99706566654099
 21
88.560404025323635
 31
0.0
  0
LINE
  5
561
  8
0
  6
CONTINUOUS
 62
     7
 10
41.997065666540962
 20
90.160404025323643
 30
0.0
 11
41.997065666540962
 21
88.560404025323635
 31
0.0
  0
LINE
  5
562
  8
0
  6
CONTINUOUS
 62
     7
 10
44.997065666540948
 20
87.621057025323623
 30
0.0
 11
44.997065666540948
 21
88.560404025323635
 31
0.0
  0
LINE
  5
563
  8
0
  6
CONTINUOUS
 62
     7
 10
46.997066666540967
 20
88.260401025323617
 30
0.0
 11
46.997066666540967
 21
87.624002025323676
 31
0.0
  0
ARC
  5
564
  8
0
  6
CONTINUOUS
 62
     7
 10
47.297053666540968
 20
88.260401025323617
 30
0.0
 40
0.3
 50
90.0
 51
180.00000300000011
  0
ARC
  5
565
  8
0
  6
CONTINUOUS
 62
     7
 10
46.697078666540953
 20
87.624002025323676
 30
0.0
 40
0.3
 50
314.99999999999977
 51
0.0
  0
LINE
  5
566
  8
0
  6
CONTINUOUS
 62
     7
 10
52.997066666540952
 20
87.621057025323623
 30
0.0
 11
52.997066666540952
 21
88.560404025323635
 31
0.0
  0
LINE
  5
567
  8
0
  6
CONTINUOUS
 62
     7
 10
50.99706666654096
 20
88.260401025323617
 30
0.0
 11
50.99706666654096
 21
87.624002025323676
 31
0.0
  0
ARC
  5
568
  8
0
  6
CONTINUOUS
 62
     7
 10
50.697078666540953
 20
88.260401025323617
 30
0.0
 40
0.3
 50
359.9999899999998
 51
90.000001000000196
  0
ARC
  5
569
  8
0
  6
CONTINUOUS
 62
     7
 10
51.297053666540947
 20
87.624002025323676
 30
0.0
 40
0.3
 50
180.00000300000011
 51
225.00000000000031
  0
LINE
  5
56A
  8
0
  6
CONTINUOUS
 62
     7
 10
50.697078666540953
 20
88.560404025323635
 30
0.0
 11
47.297053666540968
 21
88.560404025323635
 31
0.0
  0
LINE
  5
56B
  8
0
  6
CONTINUOUS
 62
     7
 10
44.997065666540948
 20
88.560404025323635
 30
0.0
 11
41.997065666540962
 21
88.560404025323635
 31
0.0
  0
LINE
  5
56E
  8
0
  6
CONTINUOUS
 62
     7
 10
34.997066666540967
 20
83.499742025324949
 30
0.0
 11
34.997066666540967
 21
81.07999848293845
 31
0.0
  0
LINE
  5
56F
  8
0
  6
CONTINUOUS
 62
     7
 10
31.93640166654097
 20
86.560406025323658
 30
0.0
 11
34.997066666540967
 21
83.499742025324949
 31
0.0
  0
LINE
  5
572
  8
0
  6
CONTINUOUS
 62
     7
 10
41.93638966654094
 20
84.560404025323635
 30
0.0
 11
39.516661856206518
 21
84.560404025323635
 31
0.0
  0
LINE
  5
573
  8
0
  6
CONTINUOUS
 62
     7
 10
36.057724666540977
 20
84.560404025323635
 30
0.0
 11
38.477545189343751
 21
84.560404025323635
 31
0.0
  0
ARC
  5
574
  8
0
  6
CONTINUOUS
 62
     7
 10
31.93346766654097
 20
72.860390025323653
 30
0.0
 40
0.3
 50
269.9999899999998
 51
314.99999999999977
  0
LINE
  5
575
  8
0
  6
CONTINUOUS
 62
     7
 10
31.936389666540951
 20
74.560408025323653
 30
0.0
 11
34.997051666540948
 21
77.621067025323654
 31
0.0
  0
LINE
  5
576
  8
0
  6
CONTINUOUS
 62
     7
 10
32.14559966654096
 20
72.648273025323661
 30
0.0
 11
36.057733666540962
 21
76.560404025323663
 31
0.0
  0
LINE
  5
577
  8
0
  6
CONTINUOUS
 62
     7
 10
40.997066666540952
 20
76.560400025323659
 30
0.0
 11
36.057704666540971
 21
76.560400025323659
 31
0.0
  0
LINE
  5
578
  8
0
  6
CONTINUOUS
 62
     7
 10
34.997066666540967
 20
77.621073025323653
 30
0.0
 11
34.997066666540967
 21
80.040885280177164
 31
0.0
  0
CIRCLE
  5
579
  8
0
  6
CONTINUOUS
 62
     7
 10
38.997065666540983
 20
80.560404025323649
 30
0.0
 40
2.1000000000000001
  0
LINE
  5
57A
  8
0
  6
CONTINUOUS
 62
     7
 10
42.997066666540952
 20
83.499750025323635
 30
0.0
 11
42.997066666540952
 21
78.560401025323628
 31
0.0
  0
ARC
  5
57B
  8
0
  6
CONTINUOUS
 62
     7
 10
40.997066666540952
 20
78.560401025323628
 30
0.0
 40
2.0
 50
269.9999899999998
 51
0.0
  0
LINE
  5
57C
  8
0
  6
CONTINUOUS
 62
     7
 10
32.997061666540972
 20
87.621067025323654
 30
0.0
 11
36.057724666540977
 21
84.560404025323635
 31
0.0
  0
LINE
  5
57D
  8
0
  6
CONTINUOUS
 62
     7
 10
44.997052666540952
 20
87.621067025323654
 30
0.0
 11
41.93638966654094
 21
84.560404025323635
 31
0.0
  0
LINE
  5
57E
  8
0
  6
CONTINUOUS
 62
     7
 10
46.909194666540948
 20
87.411869025323654
 30
0.0
 11
42.997061666540958
 21
83.499735025323659
 31
0.0
  0
LINE
  5
57F
  8
0
  6
CONTINUOUS
 62
     7
 10
31.29706966654096
 20
72.560402025323654
 30
0.0
 11
31.93346766654097
 21
72.560402025323654
 31
0.0
  0
LINE
  5
580
  8
0
  6
CONTINUOUS
 62
     7
 10
29.197066666540941
 20
90.160404025323643
 30
0.0
 11
35.99706566654099
 21
90.160404025323643
 31
0.0
  0
LINE
  5
581
  8
0
  6
CONTINUOUS
 62
     7
 10
30.99706666654096
 20
74.560404025323663
 30
0.0
 11
31.936397666540959
 21
74.560404025323663
 31
0.0
  0
LINE
  5
582
  8
0
  6
CONTINUOUS
 62
     7
 10
30.99706666654096
 20
86.560404025323663
 30
0.0
 11
31.936397666540959
 21
86.560404025323663
 31
0.0
  0
LINE
  5
583
  8
0
  6
CONTINUOUS
 62
     7
 10
55.99706666654096
 20
90.160404025323643
 30
0.0
 11
55.99706666654096
 21
88.560404025323635
 31
0.0
  0
LINE
  5
586
  8
0
  6
CONTINUOUS
 62
     7
 10
61.99706666654096
 20
90.160404025323643
 30
0.0
 11
61.99706666654096
 21
88.560404025323635
 31
0.0
  0
LINE
  5
587
  8
0
  6
CONTINUOUS
 62
     7
 10
64.997066666540974
 20
87.621057025323623
 30
0.0
 11
64.997066666540974
 21
88.560404025323635
 31
0.0
  0
LINE
  5
589
  8
0
  6
CONTINUOUS
 62
     7
 10
68.797066666540971
 20
90.160404025323643
 30
0.0
 11
61.99706666654096
 21
90.160404025323643
 31
0.0
  0
LINE
  5
58A
  8
0
  6
CONTINUOUS
 62
     7
 10
64.997066666540974
 20
88.560404025323635
 30
0.0
 11
61.99706666654096
 21
88.560404025323635
 31
0.0
  0
LINE
  5
58B
  8
0
  6
CONTINUOUS
 62
     7
 10
56.057745666540939
 20
84.560404025323635
 30
0.0
 11
58.477545189343758
 21
84.560404025323635
 31
0.0
  0
LINE
  5
58D
  8
0
  6
CONTINUOUS
 62
     7
 10
61.936411666540963
 20
84.560404025323635
 30
0.0
 11
59.516661856206561
 21
84.560404025323635
 31
0.0
  0
LINE
  5
591
  8
0
  6
CONTINUOUS
 62
     7
 10
62.997066666540952
 20
83.499737025321366
 30
0.0
 11
62.997066666540952
 21
81.079923502520927
 31
0.0
  0
ARC
  5
593
  8
0
  6
CONTINUOUS
 62
     7
 10
56.997058666540951
 20
78.560405025323632
 30
0.0
 40
2.0
 50
180.00000300000011
 51
270.0000100000002
  0
LINE
  5
594
  8
0
  6
CONTINUOUS
 62
     7
 10
61.936427666540972
 20
76.560404025323663
 30
0.0
 11
56.997058666540951
 21
76.560404025323663
 31
0.0
  0
LINE
  5
595
  8
0
  6
CONTINUOUS
 62
     7
 10
54.997058666540958
 20
83.499750025323635
 30
0.0
 11
54.997058666540958
 21
78.560405025323632
 31
0.0
  0
LINE
  5
596
  8
0
  6
CONTINUOUS
 62
     7
 10
62.997066666540952
 20
77.621073025323653
 30
0.0
 11
62.997066666540952
 21
80.040806835658074
 31
0.0
  0
CIRCLE
  5
597
  8
0
  6
CONTINUOUS
 62
     7
 10
58.99706666654096
 20
80.560404025323649
 30
0.0
 40
2.1000000000000001
  0
LINE
  5
598
  8
0
  6
CONTINUOUS
 62
     7
 10
68.697065666540965
 20
83.560404025323635
 30
0.0
 11
66.99706666654096
 21
83.560404025323635
 31
0.0
  0
LINE
  5
599
  8
0
  6
CONTINUOUS
 62
     7
 10
66.99706666654096
 20
86.560404025323663
 30
0.0
 11
66.99706666654096
 21
83.560404025323635
 31
0.0
  0
LINE
  5
59A
  8
0
  6
CONTINUOUS
 62
     7
 10
66.99706666654096
 20
86.560404025323663
 30
0.0
 11
66.05773166654194
 21
86.560404025323663
 31
0.0
  0
ARC
  5
59B
  8
0
  6
CONTINUOUS
 62
     7
 10
68.697065666540965
 20
83.860403025323663
 30
0.0
 40
0.3
 50
269.9999899999998
 51
0.0
  0
LINE
  5
59C
  8
0
  6
CONTINUOUS
 62
     7
 10
68.697065666540965
 20
77.560404025323663
 30
0.0
 11
66.99706666654096
 21
77.560404025323663
 31
0.0
  0
ARC
  5
59D
  8
0
  6
CONTINUOUS
 62
     7
 10
68.697065666540965
 20
77.26040302532364
 30
0.0
 40
0.3
 50
0.0
 51
90.0
  0
LINE
  5
59E
  8
0
  6
CONTINUOUS
 62
     7
 10
66.697063666540956
 20
72.560402025323654
 30
0.0
 11
66.060665666540956
 21
72.560402025323654
 31
0.0
  0
ARC
  5
59F
  8
0
  6
CONTINUOUS
 62
     7
 10
66.060665666540956
 20
72.860390025323653
 30
0.0
 40
0.3
 50
225.00000000000031
 51
270.0000100000002
  0
LINE
  5
5A0
  8
0
  6
CONTINUOUS
 62
     7
 10
66.99706666654096
 20
74.560404025323663
 30
0.0
 11
66.05773566654095
 21
74.560404025323663
 31
0.0
  0
LINE
  5
5A1
  8
0
  6
CONTINUOUS
 62
     7
 10
66.99706666654096
 20
74.560404025323663
 30
0.0
 11
66.99706666654096
 21
77.560404025323663
 31
0.0
  0
LINE
  5
5A2
  8
0
  6
CONTINUOUS
 62
     7
 10
65.84853166654095
 20
72.648273025323661
 30
0.0
 11
61.936397666540948
 21
76.560408025323653
 31
0.0
  0
LINE
  5
5A3
  8
0
  6
CONTINUOUS
 62
     7
 10
66.057745666540953
 20
74.560407025323656
 30
0.0
 11
62.997082666540962
 21
77.621067025323654
 31
0.0
  0
LINE
  5
5A4
  8
0
  6
CONTINUOUS
 62
     7
 10
66.05773166654194
 20
86.560404025323663
 30
0.0
 11
62.997066666540952
 21
83.499737025321366
 31
0.0
  0
LINE
  5
5A5
  8
0
  6
CONTINUOUS
 62
     7
 10
68.99706666654096
 20
83.860403025323663
 30
0.0
 11
68.99706666654096
 21
89.560404025323621
 31
0.0
  0
LINE
  5
5A6
  8
0
  6
CONTINUOUS
 62
     7
 10
64.997074666540954
 20
87.621067025323654
 30
0.0
 11
61.936411666540963
 21
84.560404025323635
 31
0.0
  0
LINE
  5
5A7
  8
0
  6
CONTINUOUS
 62
     7
 10
55.99706666654096
 20
90.160404025323643
 30
0.0
 11
41.997065666540962
 21
90.160404025323643
 31
0.0
  0
LINE
  5
5A8
  8
0
  6
CONTINUOUS
 62
     7
 10
52.997082666540962
 20
87.621067025323654
 30
0.0
 11
56.057745666540939
 21
84.560404025323635
 31
0.0
  0
LINE
  5
5A9
  8
0
  6
CONTINUOUS
 62
     7
 10
52.997066666540952
 20
88.560404025323635
 30
0.0
 11
55.99706666654096
 21
88.560404025323635
 31
0.0
  0
LINE
  5
5AA
  8
0
  6
CONTINUOUS
 62
     7
 10
51.084928666540961
 20
87.411878025323645
 30
0.0
 11
54.99706666654096
 21
83.499733025323664
 31
0.0
  0
LINE
  5
5AB
  8
CENTER
  6
CENTER
 62
     1
 10
35.397065666540982
 20
80.560404025323649
 30
0.0
 11
42.597065666540978
 21
80.560404025323649
 31
0.0
  0
LINE
  5
5AC
  8
0
  6
CONTINUOUS
 62
     7
 10
30.99706666654096
 20
68.860390025323653
 30
0.0
 11
30.99706666654096
 21
72.260414025323655
 31
0.0
  0
ARC
  5
5AD
  8
0
  6
CONTINUOUS
 62
     7
 10
31.29706966654097
 20
68.860390025323653
 30
0.0
 40
0.3
 50
180.00000300000011
 51
270.0000100000002
  0
LINE
  5
5AE
  8
0
  6
CONTINUOUS
 62
     7
 10
29.297065666540959
 20
63.560402025323661
 30
0.0
 11
30.99706666654096
 21
63.560402025323661
 31
0.0
  0
ARC
  5
5AF
  8
0
  6
CONTINUOUS
 62
     7
 10
29.297065666540959
 20
63.860402025323651
 30
0.0
 40
0.3
 50
180.00000300000011
 51
270.0000100000002
  0
LINE
  5
5B0
  8
0
  6
CONTINUOUS
 62
     7
 10
29.297065666540959
 20
57.56040202532364
 30
0.0
 11
30.99706666654096
 21
57.56040202532364
 31
0.0
  0
LINE
  5
5B1
  8
0
  6
CONTINUOUS
 62
     7
 10
30.99706666654096
 20
66.560402025323654
 30
0.0
 11
30.99706666654096
 21
63.560402025323661
 31
0.0
  0
ARC
  5
5B2
  8
0
  6
CONTINUOUS
 62
     7
 10
31.29706966654097
 20
52.260414025323662
 30
0.0
 40
0.3
 50
89.999989999999812
 51
180.00000300000011
  0
ARC
  5
5B3
  8
0
  6
CONTINUOUS
 62
     7
 10
31.29706966654097
 20
48.860390025323632
 30
0.0
 40
0.3
 50
179.99999600000001
 51
270.0000100000002
  0
LINE
  5
5B4
  8
0
  6
CONTINUOUS
 62
     7
 10
29.297065666540959
 20
43.56040402532367
 30
0.0
 11
30.99706666654096
 21
43.56040402532367
 31
0.0
  0
ARC
  5
5B5
  8
0
  6
CONTINUOUS
 62
     7
 10
29.297065666540959
 20
43.86040302532367
 30
0.0
 40
0.3
 50
180.00000300000011
 51
270.0000100000002
  0
LINE
  5
5B6
  8
0
  6
CONTINUOUS
 62
     7
 10
30.99706666654096
 20
46.560404025323642
 30
0.0
 11
30.99706666654096
 21
43.56040402532367
 31
0.0
  0
LINE
  5
5B7
  8
0
  6
CONTINUOUS
 62
     7
 10
28.99706666654096
 20
43.86040302532367
 30
0.0
 11
28.99706666654096
 21
57.260402025323657
 31
0.0
  0
LINE
  5
5B8
  8
0
  6
CONTINUOUS
 62
     7
 10
30.99706666654096
 20
52.260414025323662
 30
0.0
 11
30.99706666654096
 21
48.860390025323632
 31
0.0
  0
LINE
  5
5B9
  8
0
  6
CONTINUOUS
 62
     7
 10
30.99706666654096
 20
54.560402025323633
 30
0.0
 11
30.99706666654096
 21
57.56040202532364
 31
0.0
  0
ARC
  5
5BA
  8
0
  6
CONTINUOUS
 62
     7
 10
29.297065666540959
 20
57.260402025323657
 30
0.0
 40
0.3
 50
90.0
 51
180.00000300000011
  0
ARC
  5
5BB
  8
0
  6
CONTINUOUS
 62
     7
 10
31.93346766654097
 20
68.260414025323655
 30
0.0
 40
0.3
 50
45.000000000000313
 51
90.0
  0
ARC
  5
5BC
  8
0
  6
CONTINUOUS
 62
     7
 10
35.99706666654096
 20
63.913955025323659
 30
0.0
 40
0.5
 50
0.0
 51
45.000000000000313
  0
ARC
  5
5BD
  8
0
  6
CONTINUOUS
 62
     7
 10
36.99706666654096
 20
61.810402025323647
 30
0.0
 40
0.5
 50
180.00000300000011
 51
270.0000100000002
  0
LINE
  5
5BE
  8
0
  6
CONTINUOUS
 62
     7
 10
36.49706666654096
 20
63.913955025323659
 30
0.0
 11
36.49706666654096
 21
61.810402025323647
 31
0.0
  0
ARC
  5
5C1
  8
0
  6
CONTINUOUS
 62
     7
 10
36.99706666654096
 20
59.310402025323647
 30
0.0
 40
0.5
 50
90.0
 51
180.00000300000011
  0
LINE
  5
5C2
  8
0
  6
CONTINUOUS
 62
     7
 10
34.997066666540967
 20
57.621071025323658
 30
0.0
 11
34.997066666540967
 21
60.040885280177143
 31
0.0
  0
LINE
  5
5C3
  8
0
  6
CONTINUOUS
 62
     7
 10
34.997066666540967
 20
63.499748025323647
 30
0.0
 11
34.997066666540967
 21
61.079998482938443
 31
0.0
  0
LINE
  5
5C4
  8
0
  6
CONTINUOUS
 62
     7
 10
32.145589666540971
 20
68.472539025323655
 30
0.0
 11
36.350618666540981
 21
64.267509025323662
 31
0.0
  0
LINE
  5
5C5
  8
0
  6
CONTINUOUS
 62
     7
 10
31.93640166654097
 20
66.560408025323653
 30
0.0
 11
34.99706466654095
 21
63.499745025323648
 31
0.0
  0
ARC
  5
5C7
  8
0
  6
CONTINUOUS
 62
     7
 10
35.99706666654096
 20
57.206849025323649
 30
0.0
 40
0.5
 50
314.99999999999977
 51
0.0
  0
ARC
  5
5C8
  8
0
  6
CONTINUOUS
 62
     7
 10
31.93346766654097
 20
52.860389025323641
 30
0.0
 40
0.3
 50
270.0000100000002
 51
314.99999999999977
  0
LINE
  5
5C9
  8
0
  6
CONTINUOUS
 62
     7
 10
32.145589666540971
 20
52.64826602532365
 30
0.0
 11
36.350618666540981
 21
56.853296025323658
 31
0.0
  0
ARC
  5
5CA
  8
0
  6
CONTINUOUS
 62
     7
 10
31.93346766654097
 20
48.260414025323641
 30
0.0
 40
0.3
 50
45.000000000000313
 51
90.000005000000115
  0
LINE
  5
5CB
  8
0
  6
CONTINUOUS
 62
     7
 10
32.14559966654096
 20
48.472531025323661
 30
0.0
 11
36.057733666540962
 21
44.560398025323629
 31
0.0
  0
LINE
  5
5CC
  8
0
  6
CONTINUOUS
 62
     7
 10
31.93640166654097
 20
46.560409025323629
 30
0.0
 11
34.997066666540981
 21
43.499740025318403
 31
0.0
  0
LINE
  5
5CD
  8
0
  6
CONTINUOUS
 62
     7
 10
40.997066666540952
 20
44.560404025323642
 30
0.0
 11
36.057704666540957
 21
44.560404025323642
 31
0.0
  0
ARC
  5
5CE
  8
0
  6
CONTINUOUS
 62
     7
 10
40.997066666540952
 20
42.560406025323672
 30
0.0
 40
2.0
 50
0.0
 51
90.0
  0
LINE
  5
5CF
  8
0
  6
CONTINUOUS
 62
     7
 10
36.49706666654096
 20
59.310402025323647
 30
0.0
 11
36.49706666654096
 21
57.206849025323649
 31
0.0
  0
LINE
  5
5D0
  8
0
  6
CONTINUOUS
 62
     7
 10
31.936389666540951
 20
54.560405025323661
 30
0.0
 11
34.99705366654095
 21
57.62106702532364
 31
0.0
  0
LINE
  5
5D1
  8
0
  6
CONTINUOUS
 62
     7
 10
31.29706966654096
 20
48.560402025323661
 30
0.0
 11
31.93346766654097
 21
48.560402025323661
 31
0.0
  0
LINE
  5
5D2
  8
0
  6
CONTINUOUS
 62
     7
 10
30.99706666654096
 20
46.560404025323642
 30
0.0
 11
31.936397666540959
 21
46.560404025323642
 31
0.0
  0
LINE
  5
5D3
  8
0
  6
CONTINUOUS
 62
     7
 10
31.29706966654096
 20
52.56040202532364
 30
0.0
 11
31.93346766654097
 21
52.56040202532364
 31
0.0
  0
LINE
  5
5D4
  8
0
  6
CONTINUOUS
 62
     7
 10
30.99706666654096
 20
54.560402025323633
 30
0.0
 11
31.936397666540959
 21
54.560402025323633
 31
0.0
  0
LINE
  5
5D5
  8
0
  6
CONTINUOUS
 62
     7
 10
30.99706666654096
 20
66.560402025323654
 30
0.0
 11
31.936397666540959
 21
66.560402025323654
 31
0.0
  0
LINE
  5
5D6
  8
0
  6
CONTINUOUS
 62
     7
 10
31.29706966654096
 20
68.560402025323654
 30
0.0
 11
31.93346766654097
 21
68.560402025323654
 31
0.0
  0
LINE
  5
5D7
  8
0
  6
CONTINUOUS
 62
     7
 10
29.297065666540959
 20
37.56040402532367
 30
0.0
 11
30.99706666654096
 21
37.56040402532367
 31
0.0
  0
ARC
  5
5D8
  8
0
  6
CONTINUOUS
 62
     7
 10
29.297065666540959
 20
37.260403025323662
 30
0.0
 40
0.3
 50
90.0
 51
180.1479371253279
  0
LINE
  5
5DA
  8
0
  6
CONTINUOUS
 62
     7
 10
28.997066666540949
 20
31.56040402532367
 30
0.0
 11
28.99706666654096
 21
37.25962842920746
 31
0.0
  0
LINE
  5
5DB
  8
0
  6
CONTINUOUS
 62
     7
 10
30.99706666654096
 20
34.560404025323663
 30
0.0
 11
30.99706666654096
 21
37.56040402532367
 31
0.0
  0
LINE
  5
5DE
  8
0
  6
CONTINUOUS
 62
     7
 10
34.997066666540967
 20
37.621080025310967
 30
0.0
 11
34.997066666540981
 21
40.040885280177157
 31
0.0
  0
LINE
  5
5E1
  8
0
  6
CONTINUOUS
 62
     7
 10
41.936404666538976
 20
36.560404025323663
 30
0.0
 11
39.51658614373828
 21
36.560404025323663
 31
0.0
  0
LINE
  5
5E2
  8
0
  6
CONTINUOUS
 62
     7
 10
36.057709666539012
 20
36.560404025323663
 30
0.0
 11
38.477469476875378
 21
36.560404025323663
 31
0.0
  0
LINE
  5
5E3
  8
0
  6
CONTINUOUS
 62
     7
 10
32.997065666540983
 20
32.56040402532367
 30
0.0
 11
32.997065666540983
 21
33.499750025323657
 31
0.0
  0
LINE
  5
5E4
  8
0
  6
CONTINUOUS
 62
     7
 10
32.997065666540983
 20
32.56040402532367
 30
0.0
 11
35.997065666540962
 21
32.56040402532367
 31
0.0
  0
LINE
  5
5E6
  8
0
  6
CONTINUOUS
 62
     7
 10
35.997065666540962
 20
30.960404025323658
 30
0.0
 11
35.997065666540962
 21
32.56040402532367
 31
0.0
  0
LINE
  5
5E8
  8
0
  6
CONTINUOUS
 62
     7
 10
41.997065666540962
 20
30.960404025323658
 30
0.0
 11
41.997065666540962
 21
32.56040402532367
 31
0.0
  0
LINE
  5
5E9
  8
0
  6
CONTINUOUS
 62
     7
 10
32.99705966654097
 20
33.499756025323691
 30
0.0
 11
36.057709666539012
 21
36.560404025323663
 31
0.0
  0
LINE
  5
5EA
  8
0
  6
CONTINUOUS
 62
     7
 10
31.936389666540951
 20
34.560406025323658
 30
0.0
 11
34.997066666540967
 21
37.621080025310967
 31
0.0
  0
LINE
  5
5EB
  8
0
  6
CONTINUOUS
 62
     7
 10
44.997065666540948
 20
32.56040402532367
 30
0.0
 11
44.997065666540948
 21
33.499750025323657
 31
0.0
  0
ARC
  5
5EC
  8
0
  6
CONTINUOUS
 62
     7
 10
46.697078666540953
 20
33.496805025323653
 30
0.0
 40
0.3
 50
359.9999899999998
 51
45.000000000000313
  0
ARC
  5
5ED
  8
0
  6
CONTINUOUS
 62
     7
 10
47.297053666540947
 20
32.860407025323653
 30
0.0
 40
0.3
 50
180.00000300000011
 51
270.0000100000002
  0
LINE
  5
5EE
  8
0
  6
CONTINUOUS
 62
     7
 10
46.99706666654096
 20
32.860407025323653
 30
0.0
 11
46.99706666654096
 21
33.496805025323653
 31
0.0
  0
ARC
  5
5EF
  8
0
  6
CONTINUOUS
 62
     7
 10
51.297053666540947
 20
33.496805025323653
 30
0.0
 40
0.3
 50
134.99999799999969
 51
180.00000300000011
  0
ARC
  5
5F0
  8
0
  6
CONTINUOUS
 62
     7
 10
50.697078666540953
 20
32.860407025323653
 30
0.0
 40
0.3
 50
270.0000100000002
 51
0.0
  0
LINE
  5
5F1
  8
0
  6
CONTINUOUS
 62
     7
 10
52.997066666540952
 20
32.56040402532367
 30
0.0
 11
52.997066666540952
 21
33.499750025323657
 31
0.0
  0
LINE
  5
5F2
  8
0
  6
CONTINUOUS
 62
     7
 10
50.99706666654096
 20
32.860407025323653
 30
0.0
 11
50.99706666654096
 21
33.496805025323653
 31
0.0
  0
LINE
  5
5F3
  8
0
  6
CONTINUOUS
 62
     7
 10
50.697078666540953
 20
32.56040402532367
 30
0.0
 11
47.297053666540947
 21
32.56040402532367
 31
0.0
  0
LINE
  5
5F4
  8
0
  6
CONTINUOUS
 62
     7
 10
46.909194666540948
 20
33.70893302532366
 30
0.0
 11
42.997066666540952
 21
37.621062025322423
 31
0.0
  0
LINE
  5
5F5
  8
0
  6
CONTINUOUS
 62
     7
 10
44.997062666540948
 20
33.49974402532365
 30
0.0
 11
41.936404666538976
 21
36.560404025323663
 31
0.0
  0
LINE
  5
5F6
  8
0
  6
CONTINUOUS
 62
     7
 10
44.997065666540948
 20
32.56040402532367
 30
0.0
 11
41.997065666540962
 21
32.56040402532367
 31
0.0
  0
LINE
  5
5F7
  8
0
  6
CONTINUOUS
 62
     7
 10
29.197066666540959
 20
30.960404025323658
 30
0.0
 11
35.997065666540962
 21
30.960404025323658
 31
0.0
  0
LINE
  5
5F8
  8
0
  6
CONTINUOUS
 62
     7
 10
30.99706666654096
 20
34.560404025323663
 30
0.0
 11
31.936397666540959
 21
34.560404025323663
 31
0.0
  0
LINE
  5
5F9
  8
0
  6
CONTINUOUS
 62
     7
 10
42.997066666540952
 20
42.560406025323672
 30
0.0
 11
42.997066666540952
 21
37.621062025322423
 31
0.0
  0
LINE
  5
5FA
  8
0
  6
CONTINUOUS
 62
     7
 10
34.997066666540981
 20
43.499740025318403
 30
0.0
 11
34.997066666540967
 21
41.07999848293845
 31
0.0
  0
CIRCLE
  5
5FB
  8
0
  6
CONTINUOUS
 62
     7
 10
38.997065666540983
 20
40.560404025323663
 30
0.0
 40
2.1000000000000001
  0
ARC
  5
5FC
  8
0
  6
CONTINUOUS
 62
     7
 10
62.497065666540948
 20
63.706848025323652
 30
0.0
 40
1.0
 50
135.000001
 51
180.00000300000011
  0
LINE
  5
5FD
  8
0
  6
CONTINUOUS
 62
     7
 10
61.497065666540962
 20
63.706848025323652
 30
0.0
 11
61.497065666540962
 21
61.810402025323647
 31
0.0
  0
ARC
  5
5FE
  8
0
  6
CONTINUOUS
 62
     7
 10
60.99706666654096
 20
61.810402025323647
 30
0.0
 40
0.5
 50
269.9999899999998
 51
0.0
  0
LINE
  5
601
  8
0
  6
CONTINUOUS
 62
     7
 10
61.497065666540962
 20
59.310402025323647
 30
0.0
 11
61.497065666540962
 21
57.413956025323657
 31
0.0
  0
LINE
  5
602
  8
0
  6
CONTINUOUS
 62
     7
 10
62.997066666540938
 20
57.62108302531842
 30
0.0
 11
62.997066666540931
 21
60.040806835658067
 31
0.0
  0
ARC
  5
603
  8
0
  6
CONTINUOUS
 62
     7
 10
60.99706666654096
 20
59.310402025323647
 30
0.0
 40
0.5
 50
0.0
 51
90.0
  0
LINE
  5
604
  8
0
  6
CONTINUOUS
 62
     7
 10
62.997066666540952
 20
63.499737025321352
 30
0.0
 11
62.997066666540952
 21
61.079923502520927
 31
0.0
  0
LINE
  5
605
  8
0
  6
CONTINUOUS
 62
     7
 10
66.697063666540956
 20
68.560402025323654
 30
0.0
 11
66.060665666540956
 21
68.560402025323654
 31
0.0
  0
LINE
  5
606
  8
0
  6
CONTINUOUS
 62
     7
 10
66.99706666654096
 20
68.860390025323653
 30
0.0
 11
66.99706666654096
 21
72.260414025323655
 31
0.0
  0
LINE
  5
607
  8
0
  6
CONTINUOUS
 62
     7
 10
66.99706666654096
 20
66.560402025323654
 30
0.0
 11
66.05773566654095
 21
66.560402025323654
 31
0.0
  0
ARC
  5
608
  8
0
  6
CONTINUOUS
 62
     7
 10
66.697063666540956
 20
68.860390025323653
 30
0.0
 40
0.3
 50
269.9999899999998
 51
0.0
  0
ARC
  5
609
  8
0
  6
CONTINUOUS
 62
     7
 10
66.060665666540956
 20
68.260414025323655
 30
0.0
 40
0.3
 50
90.0
 51
135.000001
  0
LINE
  5
60A
  8
0
  6
CONTINUOUS
 62
     7
 10
68.697065666540965
 20
63.560402025323661
 30
0.0
 11
66.99706666654096
 21
63.560402025323661
 31
0.0
  0
ARC
  5
60B
  8
0
  6
CONTINUOUS
 62
     7
 10
68.697065666540965
 20
63.860402025323651
 30
0.0
 40
0.3
 50
269.9999899999998
 51
0.0
  0
LINE
  5
60C
  8
0
  6
CONTINUOUS
 62
     7
 10
68.697065666540965
 20
57.56040202532364
 30
0.0
 11
66.99706666654096
 21
57.56040202532364
 31
0.0
  0
LINE
  5
60D
  8
0
  6
CONTINUOUS
 62
     7
 10
66.99706666654096
 20
66.560402025323654
 30
0.0
 11
66.99706666654096
 21
63.560402025323661
 31
0.0
  0
LINE
  5
60E
  8
0
  6
CONTINUOUS
 62
     7
 10
65.848542666540965
 20
68.472539025323655
 30
0.0
 11
61.789958666540947
 21
64.413955025323645
 31
0.0
  0
LINE
  5
60F
  8
0
  6
CONTINUOUS
 62
     7
 10
66.057734666540952
 20
66.560407025323656
 30
0.0
 11
62.997066666540952
 21
63.499737025321352
 31
0.0
  0
ARC
  5
610
  8
0
  6
CONTINUOUS
 62
     7
 10
56.99706666654096
 20
42.560406025323672
 30
0.0
 40
2.0
 50
90.0
 51
180.00000300000011
  0
LINE
  5
611
  8
0
  6
CONTINUOUS
 62
     7
 10
61.936427666540958
 20
44.560404025323642
 30
0.0
 11
56.99706666654096
 21
44.560404025323642
 31
0.0
  0
LINE
  5
612
  8
0
  6
CONTINUOUS
 62
     7
 10
66.99706666654096
 20
54.560402025323633
 30
0.0
 11
66.05773566654095
 21
54.560402025323633
 31
0.0
  0
LINE
  5
613
  8
0
  6
CONTINUOUS
 62
     7
 10
66.697063666540942
 20
52.56040202532364
 30
0.0
 11
66.060665666540956
 21
52.56040202532364
 31
0.0
  0
ARC
  5
614
  8
0
  6
CONTINUOUS
 62
     7
 10
66.060665666540956
 20
52.860389025323641
 30
0.0
 40
0.3
 50
225.00000000000031
 51
270.0000100000002
  0
ARC
  5
615
  8
0
  6
CONTINUOUS
 62
     7
 10
66.697063666540942
 20
52.260414025323662
 30
0.0
 40
0.3
 50
0.0
 51
90.000009000000006
  0
LINE
  5
616
  8
0
  6
CONTINUOUS
 62
     7
 10
66.697063666540942
 20
48.560402025323661
 30
0.0
 11
66.060665666540956
 21
48.560402025323661
 31
0.0
  0
ARC
  5
617
  8
0
  6
CONTINUOUS
 62
     7
 10
66.060665666540956
 20
48.260414025323641
 30
0.0
 40
0.3
 50
89.999989999999812
 51
135.000001
  0
LINE
  5
618
  8
0
  6
CONTINUOUS
 62
     7
 10
66.99706666654096
 20
46.560404025323642
 30
0.0
 11
66.05773566654095
 21
46.560404025323642
 31
0.0
  0
ARC
  5
619
  8
0
  6
CONTINUOUS
 62
     7
 10
66.697063666540942
 20
48.860390025323632
 30
0.0
 40
0.3
 50
269.9999899999998
 51
0.0
  0
LINE
  5
61A
  8
0
  6
CONTINUOUS
 62
     7
 10
68.697065666540965
 20
43.56040402532367
 30
0.0
 11
66.99706666654096
 21
43.56040402532367
 31
0.0
  0
ARC
  5
61B
  8
0
  6
CONTINUOUS
 62
     7
 10
68.697065666540965
 20
43.86040302532367
 30
0.0
 40
0.3
 50
269.9999899999998
 51
0.0
  0
LINE
  5
61C
  8
0
  6
CONTINUOUS
 62
     7
 10
66.99706666654096
 20
46.560404025323642
 30
0.0
 11
66.99706666654096
 21
43.56040402532367
 31
0.0
  0
LINE
  5
61D
  8
0
  6
CONTINUOUS
 62
     7
 10
68.99706666654096
 20
43.86040302532367
 30
0.0
 11
68.99706666654096
 21
57.260402025323657
 31
0.0
  0
LINE
  5
61E
  8
0
  6
CONTINUOUS
 62
     7
 10
66.99706666654096
 20
52.260414025323662
 30
0.0
 11
66.99706666654096
 21
48.860390025323632
 31
0.0
  0
LINE
  5
61F
  8
0
  6
CONTINUOUS
 62
     7
 10
66.057733666540955
 20
46.560409025323629
 30
0.0
 11
62.997066666540952
 21
43.499740025321678
 31
0.0
  0
LINE
  5
620
  8
0
  6
CONTINUOUS
 62
     7
 10
65.848543666540962
 20
52.64826602532365
 30
0.0
 11
61.789958666540947
 21
56.706849025323642
 31
0.0
  0
LINE
  5
621
  8
0
  6
CONTINUOUS
 62
     7
 10
65.84853166654095
 20
48.472531025323661
 30
0.0
 11
61.936397666540948
 21
44.560400025323638
 31
0.0
  0
LINE
  5
622
  8
0
  6
CONTINUOUS
 62
     7
 10
66.057744666540955
 20
54.560405025323661
 30
0.0
 11
62.997066666540938
 21
57.62108302531842
 31
0.0
  0
LINE
  5
623
  8
0
  6
CONTINUOUS
 62
     7
 10
66.99706666654096
 20
54.560402025323633
 30
0.0
 11
66.99706666654096
 21
57.56040202532364
 31
0.0
  0
ARC
  5
624
  8
0
  6
CONTINUOUS
 62
     7
 10
62.497065666540948
 20
57.413956025323657
 30
0.0
 40
1.0
 50
180.00000300000011
 51
225.00000000000031
  0
ARC
  5
625
  8
0
  6
CONTINUOUS
 62
     7
 10
68.697065666540965
 20
57.260402025323657
 30
0.0
 40
0.3
 50
0.0
 51
90.0
  0
LINE
  5
626
  8
0
  6
CONTINUOUS
 62
     7
 10
56.057730666541957
 20
36.56040402532367
 30
0.0
 11
58.477469476875378
 21
36.560404025323663
 31
0.0
  0
LINE
  5
62B
  8
0
  6
CONTINUOUS
 62
     7
 10
61.936425666541922
 20
36.560404025323663
 30
0.0
 11
59.51658614373828
 21
36.560404025323663
 31
0.0
  0
LINE
  5
62C
  8
0
  6
CONTINUOUS
 62
     7
 10
62.997066666540952
 20
37.62108602532367
 30
0.0
 11
62.997066666540952
 21
40.040806835658088
 31
0.0
  0
LINE
  5
62F
  8
0
  6
CONTINUOUS
 62
     7
 10
55.99706666654096
 20
30.960404025323658
 30
0.0
 11
55.99706666654096
 21
32.56040402532367
 31
0.0
  0
LINE
  5
631
  8
0
  6
CONTINUOUS
 62
     7
 10
61.99706666654096
 20
30.960404025323658
 30
0.0
 11
61.99706666654096
 21
32.56040402532367
 31
0.0
  0
LINE
  5
632
  8
0
  6
CONTINUOUS
 62
     7
 10
68.697065666540965
 20
37.56040402532367
 30
0.0
 11
66.99706666654096
 21
37.56040402532367
 31
0.0
  0
ARC
  5
633
  8
0
  6
CONTINUOUS
 62
     7
 10
68.697065666540965
 20
37.260403025323662
 30
0.0
 40
0.3
 50
0.0
 51
90.0
  0
LINE
  5
634
  8
0
  6
CONTINUOUS
 62
     7
 10
64.99706666654096
 20
32.56040402532367
 30
0.0
 11
64.99706666654096
 21
33.499750025323657
 31
0.0
  0
LINE
  5
635
  8
0
  6
CONTINUOUS
 62
     7
 10
66.99706666654096
 20
34.560404025323663
 30
0.0
 11
66.05773566654095
 21
34.560404025323663
 31
0.0
  0
LINE
  5
637
  8
0
  6
CONTINUOUS
 62
     7
 10
68.997066666540931
 20
31.56040402532366
 30
0.0
 11
68.99706666654096
 21
37.260403025323662
 31
0.0
  0
LINE
  5
638
  8
0
  6
CONTINUOUS
 62
     7
 10
66.99706666654096
 20
34.560404025323663
 30
0.0
 11
66.99706666654096
 21
37.56040402532367
 31
0.0
  0
LINE
  5
639
  8
0
  6
CONTINUOUS
 62
     7
 10
68.797066666540928
 20
30.960404025323658
 30
0.0
 11
61.99706666654096
 21
30.960404025323658
 31
0.0
  0
LINE
  5
63A
  8
0
  6
CONTINUOUS
 62
     7
 10
64.99706666654096
 20
32.56040402532367
 30
0.0
 11
61.99706666654096
 21
32.56040402532367
 31
0.0
  0
LINE
  5
63B
  8
0
  6
CONTINUOUS
 62
     7
 10
64.997074666540954
 20
33.499756025323691
 30
0.0
 11
61.936425666541922
 21
36.560404025323663
 31
0.0
  0
LINE
  5
63C
  8
0
  6
CONTINUOUS
 62
     7
 10
66.057745666540939
 20
34.560406025323658
 30
0.0
 11
62.997066666540952
 21
37.62108602532367
 31
0.0
  0
LINE
  5
63D
  8
0
  6
CONTINUOUS
 62
     7
 10
54.99706666654096
 20
42.56040402532367
 30
0.0
 11
54.99706666654096
 21
37.621060025325477
 31
0.0
  0
LINE
  5
63E
  8
0
  6
CONTINUOUS
 62
     7
 10
62.997066666540952
 20
43.499740025321678
 30
0.0
 11
62.997066666540952
 21
41.079923502520948
 31
0.0
  0
CIRCLE
  5
63F
  8
0
  6
CONTINUOUS
 62
     7
 10
58.99706666654096
 20
40.560404025323663
 30
0.0
 40
2.1000000000000001
  0
TEXT
  5
640
  8
0
  6
CONTINUOUS
 62
     7
 10
0.0000001381732773
 20
0.0000000253236507
 30
0.0
 40
4.0
  1
HP54060
  0
TEXT
  5
641
  8
0
  6
CONTINUOUS
 62
     7
 10
0.0000001381732773
 20
6.485849887378687
 30
0.0
 40
4.0
  1
HFSP5-4060-50
  0
LINE
  5
642
  8
0
  6
CONTINUOUS
 62
     7
 10
55.99706666654096
 20
30.960404025323658
 30
0.0
 11
41.997065666540962
 21
30.960404025323658
 31
0.0
  0
LINE
  5
643
  8
0
  6
CONTINUOUS
 62
     7
 10
52.997071666540947
 20
33.49974402532365
 30
0.0
 11
56.057730666541957
 21
36.56040402532367
 31
0.0
  0
LINE
  5
644
  8
0
  6
CONTINUOUS
 62
     7
 10
52.997066666540952
 20
32.56040402532367
 30
0.0
 11
55.99706666654096
 21
32.56040402532367
 31
0.0
  0
LINE
  5
645
  8
0
  6
CONTINUOUS
 62
     7
 10
60.99706666654096
 20
59.810402025323661
 30
0.0
 11
36.99706666654096
 21
59.810402025323661
 31
0.0
  0
LINE
  5
646
  8
0
  6
CONTINUOUS
 62
     7
 10
51.084928666540961
 20
33.708923025323656
 30
0.0
 11
54.99706666654096
 21
37.621060025325477
 31
0.0
  0
LINE
  5
647
  8
0
  6
CONTINUOUS
 62
     7
 10
60.99706666654096
 20
61.31040202532364
 30
0.0
 11
36.99706666654096
 21
61.31040202532364
 31
0.0
  0
LINE
  5
648
  8
CENTER
  6
CENTER
 62
     1
 10
26.49706666654096
 20
60.560402025323647
 30
0.0
 11
71.49706666654096
 21
60.560402025323647
 31
0.0
  0
LINE
  5
649
  8
CENTER
  6
CENTER
 62
     1
 10
35.397065666540982
 20
40.560404025323663
 30
0.0
 11
42.597065666540978
 21
40.560404025323663
 31
0.0
  0
LINE
  5
64A
  8
0
  6
CONTINUOUS
 62
     7
 10
68.99706666654096
 20
63.860402025323651
 30
0.0
 11
68.99706666654096
 21
77.26040302532364
 31
0.0
  0
LINE
  5
64B
  8
0
  6
CONTINUOUS
 62
     7
 10
28.99706666654096
 20
63.860402025323651
 30
0.0
 11
28.99706666654096
 21
77.26040302532364
 31
0.0
  0
LINE
  5
64C
  8
CENTER
  6
CENTER
 62
     1
 10
38.997065666540983
 20
36.960404025323662
 30
0.0
 11
38.997065666540983
 21
44.160404025323658
 31
0.0
  0
LINE
  5
64D
  8
CENTER
  6
CENTER
 62
     1
 10
58.99706666654096
 20
36.960404025323662
 30
0.0
 11
58.99706666654096
 21
44.160404025323658
 31
0.0
  0
ARC
  5
64E
  8
0
  6
CONTINUOUS
 62
     7
 10
31.29706966654097
 20
72.260414025323655
 30
0.0
 40
0.3
 50
90.0
 51
180.00000300000011
  0
ARC
  5
64F
  8
0
  6
CONTINUOUS
 62
     7
 10
66.697063666540956
 20
72.260414025323655
 30
0.0
 40
0.3
 50
0.0
 51
90.0
  0
LINE
  5
AB2
  8
CENTER
  6
CENTER
 62
     1
 10
55.397066666540958
 20
40.560404025323663
 30
0.0
 11
62.597066666540947
 21
40.560404025323663
 31
0.0
  0
LINE
  5
AB3
  8
CENTER
  6
CENTER
 62
     1
 10
58.99706666654096
 20
76.960404025323655
 30
0.0
 11
58.99706666654096
 21
84.160404025323643
 31
0.0
  0
LINE
  5
AB4
  8
CENTER
  6
CENTER
 62
     1
 10
38.997065666540983
 20
76.960401025323634
 30
0.0
 11
38.997065666540983
 21
84.160404025323643
 31
0.0
  0
LINE
  5
AB5
  8
CENTER
  6
CENTER
 62
     1
 10
55.397066666540958
 20
80.560404025323649
 30
0.0
 11
62.597066666540947
 21
80.560404025323649
 31
0.0
  0
LINE
  5
AB6
  8
CENTER
  6
CENTER
 62
     1
 10
48.997066666540931
 20
92.660404025323643
 30
0.0
 11
48.997066666540931
 21
28.460404025323651
 31
0.0
  0
LINE
  5
ABB
  8
0
  6
CONTINUOUS
 62
     7
 10
155.66772593056069
 20
90.160404025323643
 30
0.0
 11
105.66772593056071
 21
90.160404025323643
 31
0.0
  0
LINE
  5
ABC
  8
0
  6
CONTINUOUS
 62
     7
 10
155.66772593056081
 20
30.96040402532369
 30
0.0
 11
105.66772593056071
 21
30.96040402532369
 31
0.0
  0
LINE
  5
ABE
  8
0
  6
CONTINUOUS
 62
     7
 10
105.66772593056071
 20
90.160404025323643
 30
0.0
 11
105.66772593056071
 21
30.96040402532369
 31
0.0
  0
LINE
  5
ABF
  8
0
  6
CONTINUOUS
 62
     7
 10
155.66772593056069
 20
90.160404025323643
 30
0.0
 11
155.66772593056081
 21
30.96040402532369
 31
0.0
  0
LINE
  5
AC3
  8
0
  6
CONTINUOUS
 62
     7
 10
155.66772593056069
 20
60.860419025323651
 30
0.0
 11
105.66772593056071
 21
60.860419025323651
 31
0.0
  0
LINE
  5
AC4
  8
0
  6
CONTINUOUS
 62
     7
 10
155.66772593056069
 20
60.26041702532364
 30
0.0
 11
105.66772593056071
 21
60.26041702532364
 31
0.0
  0
LINE
  5
AC5
  8
0
  6
CONTINUOUS
 62
     7
 10
155.66772593056069
 20
40.860396025323631
 30
0.0
 11
105.66772593056071
 21
40.860396025323631
 31
0.0
  0
LINE
  5
AC6
  8
0
  6
CONTINUOUS
 62
     7
 10
155.66772593056081
 20
40.260387025323631
 30
0.0
 11
105.66772593056071
 21
40.260387025323631
 31
0.0
  0
LINE
  5
AC7
  8
CENTER
  6
CENTER
 62
     1
 10
158.16772593056081
 20
40.560404025323663
 30
0.0
 11
103.16772593056071
 21
40.560404025323663
 31
0.0
  0
LINE
  5
AC8
  8
CENTER
  6
CENTER
 62
     1
 10
158.16772593056081
 20
60.56040402532367
 30
0.0
 11
103.16772593056071
 21
60.560404025323649
 31
0.0
  0
LINE
  5
AC9
  8
0
  6
CONTINUOUS
 62
     7
 10
155.66772593056069
 20
63.560404025323642
 30
0.0
 11
105.66772593056071
 21
63.560404025323642
 31
0.0
  0
LINE
  5
ACA
  8
0
  6
CONTINUOUS
 62
     7
 10
155.66772593056069
 20
57.560404025323642
 30
0.0
 11
105.66772593056071
 21
57.560404025323642
 31
0.0
  0
LINE
  5
ACB
  8
0
  6
CONTINUOUS
 62
     7
 10
155.66772593056069
 20
43.560404025323642
 30
0.0
 11
105.66772593056071
 21
43.560404025323642
 31
0.0
  0
LINE
  5
ACC
  8
0
  6
CONTINUOUS
 62
     7
 10
155.66772593056081
 20
37.560404025323649
 30
0.0
 11
105.66772593056071
 21
37.560404025323649
 31
0.0
  0
LINE
  5
E41
  8
0
  6
CONTINUOUS
 62
     7
 10
155.66772593056069
 20
80.860419025323651
 30
0.0
 11
105.66772593056071
 21
80.860419025323651
 31
0.0
  0
LINE
  5
E42
  8
0
  6
CONTINUOUS
 62
     7
 10
155.66772593056069
 20
80.260417025323648
 30
0.0
 11
105.66772593056071
 21
80.260417025323648
 31
0.0
  0
LINE
  5
E43
  8
CENTER
  6
CENTER
 62
     1
 10
158.16772593056081
 20
80.560404025323649
 30
0.0
 11
103.16772593056071
 21
80.560404025323649
 31
0.0
  0
LINE
  5
E44
  8
0
  6
CONTINUOUS
 62
     7
 10
155.66772593056069
 20
83.560404025323635
 30
0.0
 11
105.66772593056071
 21
83.560404025323635
 31
0.0
  0
LINE
  5
E45
  8
0
  6
CONTINUOUS
 62
     7
 10
155.66772593056069
 20
77.560404025323663
 30
0.0
 11
105.66772593056071
 21
77.560404025323663
 31
0.0
  0
ARC
  5
1156
  8
0
  6
CONTINUOUS
 62
     7
 10
29.997066666540949
 20
89.560404025323621
 30
0.0
 40
1.0
 50
143.1301023541553
 51
180.00000000000159
  0
ARC
  5
1157
  8
0
  6
CONTINUOUS
 62
     7
 10
67.997066666540974
 20
89.560404025323621
 30
0.0
 40
1.0
 50
359.99999999999841
 51
36.86989764584272
  0
ARC
  5
1158
  8
0
  6
CONTINUOUS
 62
     7
 10
67.997066666540931
 20
31.56040402532366
 30
0.0
 40
1.0
 50
323.13010235415658
 51
0.0000000000006107
  0
ARC
  5
1159
  8
0
  6
CONTINUOUS
 62
     7
 10
29.997066666540949
 20
31.56040402532367
 30
0.0
 40
1.0
 50
180.0
 51
216.8698976458453
  0
LINE
  5
1BD2
  8
0
  6
CONTINUOUS
 62
     7
 10
38.997065666540983
 20
36.860393025297
 30
0.0
 11
38.477469476875378
 21
36.560404025323663
 31
0.0
  0
LINE
  5
1BD3
  8
0
  6
CONTINUOUS
 62
     7
 10
38.997027810306832
 20
36.860371168990007
 30
0.0
 11
39.51658614373828
 21
36.560404025323663
 31
0.0
  0
LINE
  5
1BE3
  8
0
  6
CONTINUOUS
 62
     7
 10
58.997065666540969
 20
36.860393025297
 30
0.0
 11
58.477469476875378
 21
36.560404025323663
 31
0.0
  0
LINE
  5
1BE4
  8
0
  6
CONTINUOUS
 62
     7
 10
58.997027810306832
 20
36.860371168990007
 30
0.0
 11
59.51658614373828
 21
36.560404025323663
 31
0.0
  0
LINE
  5
1BE9
  8
0
  6
CONTINUOUS
 62
     7
 10
35.29705466651432
 20
40.560404025323663
 30
0.0
 11
34.997066666540967
 21
41.07999848293845
 31
0.0
  0
LINE
  5
1BEA
  8
0
  6
CONTINUOUS
 62
     7
 10
35.297032810207327
 20
40.560441881557807
 30
0.0
 11
34.997066666540981
 21
40.040885280177157
 31
0.0
  0
LINE
  5
1BEC
  8
0
  6
CONTINUOUS
 62
     7
 10
62.697077666567623
 20
40.56040302532368
 30
0.0
 11
62.997066666540952
 21
40.040806835658088
 31
0.0
  0
LINE
  5
1BED
  8
0
  6
CONTINUOUS
 62
     7
 10
62.697099522874602
 20
40.560365169089522
 30
0.0
 11
62.997066666540952
 21
41.079923502520948
 31
0.0
  0
LINE
  5
1BF2
  8
0
  6
CONTINUOUS
 62
     7
 10
35.29705466651432
 20
60.560404025323649
 30
0.0
 11
34.997066666540967
 21
61.079998482938443
 31
0.0
  0
LINE
  5
1BF3
  8
0
  6
CONTINUOUS
 62
     7
 10
35.297032810207327
 20
60.5604418815578
 30
0.0
 11
34.997066666540967
 21
60.040885280177143
 31
0.0
  0
LINE
  5
1BF4
  8
0
  6
CONTINUOUS
 62
     7
 10
62.697077666567623
 20
60.56040302532368
 30
0.0
 11
62.997066666540931
 21
60.040806835658067
 31
0.0
  0
LINE
  5
1BF5
  8
0
  6
CONTINUOUS
 62
     7
 10
62.697099522874602
 20
60.560365169089529
 30
0.0
 11
62.997066666540952
 21
61.079923502520927
 31
0.0
  0
LINE
  5
1BF6
  8
0
  6
CONTINUOUS
 62
     7
 10
35.29705466651432
 20
80.560404025323649
 30
0.0
 11
34.997066666540967
 21
81.07999848293845
 31
0.0
  0
LINE
  5
1BF7
  8
0
  6
CONTINUOUS
 62
     7
 10
35.297032810207327
 20
80.560441881557779
 30
0.0
 11
34.997066666540967
 21
80.040885280177164
 31
0.0
  0
LINE
  5
1BF8
  8
0
  6
CONTINUOUS
 62
     7
 10
62.697077666567623
 20
80.56040302532368
 30
0.0
 11
62.997066666540952
 21
80.040806835658074
 31
0.0
  0
LINE
  5
1BF9
  8
0
  6
CONTINUOUS
 62
     7
 10
62.697099522874602
 20
80.560365169089494
 30
0.0
 11
62.997066666540952
 21
81.079923502520927
 31
0.0
  0
LINE
  5
1BFE
  8
0
  6
CONTINUOUS
 62
     7
 10
38.997065666540983
 20
84.260415025350312
 30
0.0
 11
39.516661856206518
 21
84.560404025323635
 31
0.0
  0
LINE
  5
1BFF
  8
0
  6
CONTINUOUS
 62
     7
 10
38.997103522775113
 20
84.260436881657327
 30
0.0
 11
38.477545189343751
 21
84.560404025323635
 31
0.0
  0
LINE
  5
1C00
  8
0
  6
CONTINUOUS
 62
     7
 10
58.997065666540969
 20
84.260415025350312
 30
0.0
 11
59.516661856206561
 21
84.560404025323635
 31
0.0
  0
LINE
  5
1C01
  8
0
  6
CONTINUOUS
 62
     7
 10
58.997103522775113
 20
84.260436881657327
 30
0.0
 11
58.477545189343758
 21
84.560404025323635
 31
0.0
  0
ENDSEC
  0
EOF
