  0
SECTION
  2
HEADER
  9
$ACADVER
  1
AC1009
  9
$INSBASE
 10
0.0
 20
0.0
 30
0.0
  9
$EXTMIN
 10
-0.0000001659321924
 20
0.0000001017860427
 30
0.0
  9
$EXTMAX
 10
140.1611833849289
 20
72.395141479479889
 30
0.0
  9
$LIMMIN
 10
0.0
 20
0.0
  9
$LIMMAX
 10
297.0
 20
210.0
  9
$ORTHOMODE
 70
     0
  9
$REGENMODE
 70
     1
  9
$FILLMODE
 70
     1
  9
$QTEXTMODE
 70
     0
  9
$MIRRTEXT
 70
     1
  9
$DRAGMODE
 70
     2
  9
$LTSCALE
 40
1.0
  9
$OSMODE
 70
    57
  9
$ATTMODE
 70
     1
  9
$TEXTSIZE
 40
6.4000000000000012
  9
$TRACEWID
 40
0.05
  9
$TEXTSTYLE
  7
STANDARD
  9
$CLAYER
  8
0
  9
$CELTYPE
  6
CONTINUOUS
  9
$CECOLOR
 62
     7
  9
$DIMSCALE
 40
1.0
  9
$DIMASZ
 40
3.0
  9
$DIMEXO
 40
1.0
  9
$DIMDLI
 40
0.0
  9
$DIMRND
 40
0.0
  9
$DIMDLE
 40
0.0
  9
$DIMEXE
 40
1.0
  9
$DIMTP
 40
0.0
  9
$DIMTM
 40
0.0
  9
$DIMTXT
 40
3.2000000000000002
  9
$DIMCEN
 40
0.0
  9
$DIMTSZ
 40
0.0
  9
$DIMTOL
 70
     0
  9
$DIMLIM
 70
     0
  9
$DIMTIH
 70
     0
  9
$DIMTOH
 70
     0
  9
$DIMSE1
 70
     0
  9
$DIMSE2
 70
     0
  9
$DIMTAD
 70
     1
  9
$DIMZIN
 70
     8
  9
$DIMBLK
  1

  9
$DIMASO
 70
     1
  9
$DIMSHO
 70
     1
  9
$DIMPOST
  1

  9
$DIMAPOST
  1

  9
$DIMALT
 70
     0
  9
$DIMALTD
 70
     2
  9
$DIMALTF
 40
0.04
  9
$DIMLFAC
 40
1.0
  9
$DIMTOFL
 70
     1
  9
$DIMTVP
 40
1.0
  9
$DIMTIX
 70
     1
  9
$DIMSOXD
 70
     0
  9
$DIMSAH
 70
     0
  9
$DIMBLK1
  1

  9
$DIMBLK2
  1

  9
$DIMSTYLE
  2
MISUMI
  9
$DIMCLRD
 70
     0
  9
$DIMCLRE
 70
     0
  9
$DIMCLRT
 70
     0
  9
$DIMTFAC
 40
0.6
  9
$DIMGAP
 40
1.0
  9
$LUNITS
 70
     2
  9
$LUPREC
 70
     4
  9
$SKETCHINC
 40
0.1
  9
$FILLETRAD
 40
0.3
  9
$AUNITS
 70
     0
  9
$AUPREC
 70
     0
  9
$MENU
  1
acad
  9
$ELEVATION
 40
0.0
  9
$PELEVATION
 40
0.0
  9
$THICKNESS
 40
0.0
  9
$LIMCHECK
 70
     0
  9
$BLIPMODE
 70
     1
  9
$CHAMFERA
 40
0.5
  9
$CHAMFERB
 40
0.5
  9
$SKPOLY
 70
     0
  9
$TDCREATE
 40
2451464.6006649309
  9
$TDUPDATE
 40
2453776.7023640051
  9
$TDINDWG
 40
0.2378548843
  9
$TDUSRTIMER
 40
0.2378525231
  9
$USRTIMER
 70
     1
  9
$ANGBASE
 50
0.0
  9
$ANGDIR
 70
     0
  9
$PDMODE
 70
     0
  9
$PDSIZE
 40
0.0
  9
$PLINEWID
 40
0.0
  9
$COORDS
 70
     0
  9
$SPLFRAME
 70
     0
  9
$SPLINETYPE
 70
     6
  9
$SPLINESEGS
 70
     8
  9
$ATTDIA
 70
     0
  9
$ATTREQ
 70
     1
  9
$HANDLING
 70
     1
  9
$HANDSEED
  5
13A0
  9
$SURFTAB1
 70
     6
  9
$SURFTAB2
 70
     6
  9
$SURFTYPE
 70
     6
  9
$SURFU
 70
     6
  9
$SURFV
 70
     6
  9
$UCSNAME
  2

  9
$UCSORG
 10
0.0
 20
0.0
 30
0.0
  9
$UCSXDIR
 10
1.0
 20
0.0
 30
0.0
  9
$UCSYDIR
 10
0.0
 20
1.0
 30
0.0
  9
$PUCSNAME
  2

  9
$PUCSORG
 10
0.0
 20
0.0
 30
0.0
  9
$PUCSXDIR
 10
1.0
 20
0.0
 30
0.0
  9
$PUCSYDIR
 10
0.0
 20
1.0
 30
0.0
  9
$USERI1
 70
     0
  9
$USERI2
 70
     0
  9
$USERI3
 70
     0
  9
$USERI4
 70
     0
  9
$USERI5
 70
     0
  9
$USERR1
 40
0.0
  9
$USERR2
 40
0.0
  9
$USERR3
 40
0.0
  9
$USERR4
 40
0.0
  9
$USERR5
 40
0.0
  9
$WORLDVIEW
 70
     1
  9
$SHADEDGE
 70
     3
  9
$SHADEDIF
 70
    70
  9
$TILEMODE
 70
     1
  9
$MAXACTVP
 70
    16
  9
$PLIMCHECK
 70
     0
  9
$PEXTMIN
 10
1.0000000000000000E+020
 20
1.0000000000000000E+020
 30
1.0000000000000000E+020
  9
$PEXTMAX
 10
-1.0000000000000000E+020
 20
-1.0000000000000000E+020
 30
-1.0000000000000000E+020
  9
$PLIMMIN
 10
0.0
 20
0.0
  9
$PLIMMAX
 10
12.0
 20
9.0
  9
$UNITMODE
 70
     0
  9
$VISRETAIN
 70
     0
  9
$PLINEGEN
 70
     0
  9
$PSLTSCALE
 70
     1
  0
ENDSEC
  0
SECTION
  2
TABLES
  0
TABLE
  2
VPORT
 70
     2
  0
VPORT
  2
*ACTIVE
 70
     0
 10
0.0
 20
0.0
 11
1.0
 21
1.0
 12
72.505239594897347
 22
40.577909709154177
 13
0.0
 23
0.0
 14
10.0
 24
10.0
 15
10.0
 25
10.0
 16
0.0
 26
0.0
 36
1.0
 17
0.0
 27
0.0
 37
0.0
 40
122.3530604724709
 41
1.5717852684144811
 42
50.0
 43
0.0
 44
0.0
 50
0.0
 51
0.0
 71
     0
 72
   100
 73
     1
 74
     0
 75
     0
 76
     0
 77
     0
 78
     0
  0
ENDTAB
  0
TABLE
  2
LTYPE
 70
     2
  0
LTYPE
  2
CONTINUOUS
 70
     0
  3
Solid line
 72
    65
 73
     0
 40
0.0
  0
LTYPE
  2
CENTER
 70
     0
  3
Center ____ _ ____ _ ____ _ ____ _ ____ _ ____
 72
    65
 73
     4
 40
2.0
 49
1.25
 49
-0.25
 49
0.25
 49
-0.25
  0
ENDTAB
  0
TABLE
  2
LAYER
 70
     2
  0
LAYER
  2
0
 70
     0
 62
     7
  6
CONTINUOUS
  0
LAYER
  2
CENTER
 70
     0
 62
     1
  6
CENTER
  0
ENDTAB
  0
TABLE
  2
STYLE
 70
     1
  0
STYLE
  2
STANDARD
 70
     0
 40
0.0
 41
1.0
 50
0.0
 71
     0
 42
6.4000000000000012
  3
txt
  4

  0
ENDTAB
  0
TABLE
  2
VIEW
 70
     0
  0
ENDTAB
  0
TABLE
  2
UCS
 70
     0
  0
ENDTAB
  0
TABLE
  2
APPID
 70
     4
  0
APPID
  2
ACAD
 70
     0
  0
APPID
  2
GENIUS_GENODEF_13
 70
     0
  0
APPID
  2
GENIUS_GENOBJ-N-FIL_13
 70
     0
  0
APPID
  2
ACAD_DSTYLE_DIMTEXT_FILL
 70
     0
  0
ENDTAB
  0
TABLE
  2
DIMSTYLE
 70
     1
  0
DIMSTYLE
  2
MISUMI
 70
     0
  3

  4

  5

  6

  7

 40
1.0
 41
3.0
 42
1.0
 43
0.0
 44
1.0
 45
0.0
 46
0.0
 47
0.0
 48
0.0
140
3.2000000000000002
141
0.0
142
0.0
143
0.04
144
1.0
145
1.0
146
0.6
147
1.0
 71
     0
 72
     0
 73
     0
 74
     0
 75
     0
 76
     0
 77
     1
 78
     8
170
     0
171
     2
172
     1
173
     0
174
     1
175
     0
176
     0
177
     0
178
     0
  0
ENDTAB
  0
ENDSEC
  0
SECTION
  2
BLOCKS
  0
BLOCK
  8
0
  2
$MODEL_SPACE
 70
     0
 10
0.0
 20
0.0
 30
0.0
  3
$MODEL_SPACE
  1

  0
ENDBLK
  5
1379
  8
0
  0
BLOCK
 67
     1
  8
0
  2
$PAPER_SPACE
 70
     0
 10
0.0
 20
0.0
 30
0.0
  3
$PAPER_SPACE
  1

  0
ENDBLK
  5
1375
 67
     1
  8
0
  0
ENDSEC
  0
SECTION
  2
ENTITIES
  0
TEXT
  5
501
  8
0
  6
CONTINUOUS
 62
     7
 10
-0.0000001659321924
 20
0.0000001017860427
 30
0.0
 40
4.0
  1
HP54042
  0
TEXT
  5
502
  8
0
  6
CONTINUOUS
 62
     7
 10
-0.0000001659321924
 20
7.5895413716937661
 30
0.0
 40
4.0
  1
HFSP5-404020-50
  0
LINE
  5
503
  8
0
  6
CONTINUOUS
 62
     7
 10
137.6611833849289
 20
30.295141479479831
 30
0.0
 11
87.661183384928918
 21
30.295141479479831
 31
0.0
  0
LINE
  5
504
  8
0
  6
CONTINUOUS
 62
     7
 10
87.661183384928918
 20
36.89514147947996
 30
0.0
 11
137.6611833849289
 21
36.89514147947996
 31
0.0
  0
LINE
  5
505
  8
0
  6
CONTINUOUS
 62
     7
 10
87.661183384928918
 20
42.89514147947984
 30
0.0
 11
137.6611833849289
 21
42.89514147947984
 31
0.0
  0
LINE
  5
506
  8
0
  6
CONTINUOUS
 62
     7
 10
137.6611833849289
 20
69.495141479479898
 30
0.0
 11
87.661183384928918
 21
69.495141479479898
 31
0.0
  0
LINE
  5
507
  8
0
  6
CONTINUOUS
 62
     7
 10
87.661183384928918
 20
69.495141479479898
 30
0.0
 11
87.661183384928918
 21
30.295141479479831
 31
0.0
  0
LINE
  5
508
  8
0
  6
CONTINUOUS
 62
     7
 10
137.6611833849289
 20
30.295141479479831
 30
0.0
 11
137.6611833849289
 21
69.495141479479898
 31
0.0
  0
LINE
  5
509
  8
CENTER
  6
CENTER
 62
     1
 10
9.6139047894044989
 20
39.895141479479783
 30
0.0
 11
54.613904789404501
 21
39.895141479479783
 31
0.0
  0
LINE
  5
50A
  8
0
  6
CONTINUOUS
 62
     7
 10
24.204724789404509
 20
55.895141479479662
 30
0.0
 11
38.113904789404508
 21
41.985962479479667
 31
0.0
  0
LINE
  5
50B
  8
0
  6
CONTINUOUS
 62
     7
 10
29.613904789404501
 20
31.895141479479779
 30
0.0
 11
34.613904789404501
 21
31.895141479479779
 31
0.0
  0
LINE
  5
50D
  8
CENTER
  6
CENTER
 62
     1
 10
9.6139047894044989
 20
59.895141479479783
 30
0.0
 11
32.26853778940449
 21
59.895141479479783
 31
0.0
  0
LINE
  5
50E
  8
0
  6
CONTINUOUS
 62
     7
 10
31.813901789404209
 20
56.895141479479882
 30
0.0
 11
30.113904789404391
 21
56.895141479479882
 31
0.0
  0
LINE
  5
50F
  8
0
  6
CONTINUOUS
 62
     7
 10
31.813901789404209
 20
62.895141479479904
 30
0.0
 11
30.113904789404391
 21
62.895141479479904
 31
0.0
  0
LINE
  5
511
  8
CENTER
  6
CENTER
 62
     1
 10
22.113904789404501
 20
72.395141479479889
 30
0.0
 11
22.113904789404501
 21
27.395141479479829
 31
0.0
  0
LINE
  5
512
  8
0
  6
CONTINUOUS
 62
     7
 10
15.053239789404531
 20
33.895166479479769
 30
0.0
 11
18.113904789404501
 21
36.955830479478323
 31
0.0
  0
LINE
  5
513
  8
0
  6
CONTINUOUS
 62
     7
 10
12.113904789404501
 20
36.595153479479791
 30
0.0
 11
12.113904789404501
 21
30.895141479479779
 31
0.0
  0
LINE
  5
514
  8
0
  6
CONTINUOUS
 62
     7
 10
14.113904789404501
 20
33.895141479479953
 30
0.0
 11
14.113904789404501
 21
36.89514147947996
 31
0.0
  0
LINE
  5
515
  8
0
  6
CONTINUOUS
 62
     7
 10
29.613902789404509
 20
33.455791479479842
 30
0.0
 11
26.260337789404499
 21
36.809354479479772
 31
0.0
  0
LINE
  5
517
  8
0
  6
CONTINUOUS
 62
     7
 10
19.113904789404501
 20
30.295141479479831
 30
0.0
 11
19.113904789404501
 21
31.895141479479779
 31
0.0
  0
ARC
  5
519
  8
0
  6
CONTINUOUS
 62
     7
 10
13.113904789404501
 20
30.895141479479779
 30
0.0
 40
1.0
 50
179.999989999999
 51
216.86989764584001
  0
LINE
  5
51B
  8
0
  6
CONTINUOUS
 62
     7
 10
16.113900789404621
 20
32.834505479479787
 30
0.0
 11
19.174535789405631
 21
35.89514147947979
 31
0.0
  0
LINE
  5
51C
  8
0
  6
CONTINUOUS
 62
     7
 10
16.113904789404501
 20
31.895141479479779
 30
0.0
 11
19.113904789404501
 21
31.895141479479779
 31
0.0
  0
LINE
  5
51D
  8
0
  6
CONTINUOUS
 62
     7
 10
16.113904789404501
 20
32.834503479479793
 30
0.0
 11
16.113904789404501
 21
31.895141479479779
 31
0.0
  0
LINE
  5
51E
  8
0
  6
CONTINUOUS
 62
     7
 10
14.113904789404501
 20
33.895141479479953
 30
0.0
 11
15.053235789404541
 21
33.895141479479953
 31
0.0
  0
LINE
  5
51F
  8
0
  6
CONTINUOUS
 62
     7
 10
25.113904789404501
 20
30.29514147947982
 30
0.0
 11
25.113904789404501
 21
31.895141479479779
 31
0.0
  0
LINE
  5
524
  8
0
  6
CONTINUOUS
 62
     7
 10
28.113877789404459
 20
32.834494479479929
 30
0.0
 11
25.053231789402972
 21
35.89514147947979
 31
0.0
  0
LINE
  5
525
  8
0
  6
CONTINUOUS
 62
     7
 10
28.113904789404501
 20
31.895141479479779
 30
0.0
 11
25.113904789404501
 21
31.895141479479779
 31
0.0
  0
LINE
  5
526
  8
0
  6
CONTINUOUS
 62
     7
 10
29.613904789404501
 20
33.455779479479872
 30
0.0
 11
29.613904789404501
 21
31.895141479479779
 31
0.0
  0
LINE
  5
527
  8
0
  6
CONTINUOUS
 62
     7
 10
28.113904789404501
 20
32.834503479479793
 30
0.0
 11
28.113904789404501
 21
31.895141479479779
 31
0.0
  0
LINE
  5
52A
  8
0
  6
CONTINUOUS
 62
     7
 10
15.674546789404531
 20
47.395146479479841
 30
0.0
 11
19.02811978940462
 21
44.04157547947959
 31
0.0
  0
LINE
  5
52B
  8
0
  6
CONTINUOUS
 62
     7
 10
12.113904789404501
 20
56.595153479479791
 30
0.0
 11
12.113904789404501
 21
43.195159479479791
 31
0.0
  0
ARC
  5
52C
  8
0
  6
CONTINUOUS
 62
     7
 10
21.613905642957889
 20
39.395142333033391
 30
0.0
 40
2.0000008535535621
 50
179.9999858046192
 51
269.99997554750308
  0
ARC
  5
52D
  8
0
  6
CONTINUOUS
 62
     7
 10
17.613904789404391
 20
42.627361479479923
 30
0.0
 40
2.0
 50
0.0
 51
45.000000999999202
  0
LINE
  5
52E
  8
0
  6
CONTINUOUS
 62
     7
 10
18.113904789404501
 20
42.834502479479852
 30
0.0
 11
18.113904789404501
 21
40.414756721750408
 31
0.0
  0
LINE
  5
52F
  8
0
  6
CONTINUOUS
 62
     7
 10
12.413907789404449
 20
36.89514147947996
 30
0.0
 11
14.113904789404501
 21
36.89514147947996
 31
0.0
  0
ARC
  5
530
  8
0
  6
CONTINUOUS
 62
     7
 10
12.413907789404449
 20
36.595153479479791
 30
0.0
 40
0.3
 50
90.000003000000945
 51
180.00001000000091
  0
LINE
  5
534
  8
0
  6
CONTINUOUS
 62
     7
 10
12.413907789404449
 20
42.895141479479769
 30
0.0
 11
14.113904789404501
 21
42.895141479479769
 31
0.0
  0
ARC
  5
535
  8
0
  6
CONTINUOUS
 62
     7
 10
12.413907789404449
 20
43.195159479479791
 30
0.0
 40
0.3
 50
179.999989999999
 51
270.0
  0
LINE
  5
536
  8
0
  6
CONTINUOUS
 62
     7
 10
15.05321678940447
 20
45.895156479479972
 30
0.0
 11
18.113877789404231
 21
42.834493479479747
 31
0.0
  0
LINE
  5
537
  8
0
  6
CONTINUOUS
 62
     7
 10
14.113904789404501
 20
45.895141479479904
 30
0.0
 11
14.113904789404501
 21
42.895141479479769
 31
0.0
  0
LINE
  5
538
  8
0
  6
CONTINUOUS
 62
     7
 10
14.113904789404501
 20
45.895141479479904
 30
0.0
 11
15.053235789404541
 21
45.895141479479904
 31
0.0
  0
LINE
  5
539
  8
0
  6
CONTINUOUS
 62
     7
 10
19.613904789404501
 20
42.627361479479923
 30
0.0
 11
19.613904789404501
 21
39.39514247947978
 31
0.0
  0
ARC
  5
53A
  8
0
  6
CONTINUOUS
 62
     7
 10
24.846124789404481
 20
35.395141479479783
 30
0.0
 40
2.0
 50
45.000000999999202
 51
90.000003000000945
  0
LINE
  5
53B
  8
0
  6
CONTINUOUS
 62
     7
 10
24.846124789404481
 20
37.395141479479953
 30
0.0
 11
21.613904789404501
 21
37.395141479479953
 31
0.0
  0
LINE
  5
53C
  8
0
  6
CONTINUOUS
 62
     7
 10
24.204724789404509
 20
55.895141479479662
 30
0.0
 11
19.174527789404461
 21
55.895141479479662
 31
0.0
  0
LINE
  5
53D
  8
0
  6
CONTINUOUS
 62
     7
 10
14.113904789404501
 20
52.395141479479889
 30
0.0
 11
14.113904789404501
 21
47.395141479479783
 31
0.0
  0
LINE
  5
53E
  8
0
  6
CONTINUOUS
 62
     7
 10
14.113904789404501
 20
47.395141479479783
 30
0.0
 11
15.674543789404529
 21
47.395141479479783
 31
0.0
  0
LINE
  5
53F
  8
0
  6
CONTINUOUS
 62
     7
 10
12.413907789404449
 20
56.895141479479882
 30
0.0
 11
14.113904789404501
 21
56.895141479479882
 31
0.0
  0
ARC
  5
540
  8
0
  6
CONTINUOUS
 62
     7
 10
12.413907789404449
 20
56.595153479479791
 30
0.0
 40
0.3
 50
90.000003000000945
 51
180.00001000000091
  0
LINE
  5
541
  8
0
  6
CONTINUOUS
 62
     7
 10
15.05322878940421
 20
53.895153479479639
 30
0.0
 11
18.113904789404501
 21
56.955831479489483
 31
0.0
  0
LINE
  5
542
  8
0
  6
CONTINUOUS
 62
     7
 10
15.6745587894045
 20
52.39516247947995
 30
0.0
 11
19.17455078940452
 21
55.89515547947974
 31
0.0
  0
LINE
  5
543
  8
0
  6
CONTINUOUS
 62
     7
 10
14.113904789404501
 20
53.895141479479889
 30
0.0
 11
14.113904789404501
 21
56.895141479479882
 31
0.0
  0
LINE
  5
544
  8
0
  6
CONTINUOUS
 62
     7
 10
14.113904789404501
 20
52.395141479479889
 30
0.0
 11
15.674543789404529
 21
52.395141479479889
 31
0.0
  0
LINE
  5
545
  8
0
  6
CONTINUOUS
 62
     7
 10
14.113904789404501
 20
53.895141479479889
 30
0.0
 11
15.053235789404541
 21
53.895141479479889
 31
0.0
  0
LINE
  5
546
  8
0
  6
CONTINUOUS
 62
     7
 10
29.174560789404499
 20
53.895153479479639
 30
0.0
 11
26.113904789404391
 21
56.95581047947789
 31
0.0
  0
LINE
  5
547
  8
0
  6
CONTINUOUS
 62
     7
 10
30.113904789404391
 20
53.895141479479889
 30
0.0
 11
30.113904789404391
 21
56.895141479479882
 31
0.0
  0
LINE
  5
548
  8
0
  6
CONTINUOUS
 62
     7
 10
29.174573789404239
 20
53.895141479479889
 30
0.0
 11
30.113904789404391
 21
53.895141479479889
 31
0.0
  0
LINE
  5
549
  8
0
  6
CONTINUOUS
 62
     7
 10
12.113904789404501
 20
68.895141479479889
 30
0.0
 11
12.113904789404501
 21
63.195159479479798
 31
0.0
  0
LINE
  5
54A
  8
0
  6
CONTINUOUS
 62
     7
 10
16.113904789404501
 20
67.895141479479776
 30
0.0
 11
16.113904789404501
 21
66.955810479479624
 31
0.0
  0
LINE
  5
54B
  8
0
  6
CONTINUOUS
 62
     7
 10
28.113904789404501
 20
67.895141479479776
 30
0.0
 11
28.113904789404501
 21
66.955810479479624
 31
0.0
  0
LINE
  5
54C
  8
0
  6
CONTINUOUS
 62
     7
 10
19.1745587894045
 20
63.895141479479769
 30
0.0
 11
21.594289547133851
 21
63.895141479479769
 31
0.0
  0
LINE
  5
550
  8
0
  6
CONTINUOUS
 62
     7
 10
12.413907789404449
 20
62.895141479479904
 30
0.0
 11
14.113904789404501
 21
62.895141479479904
 31
0.0
  0
ARC
  5
551
  8
0
  6
CONTINUOUS
 62
     7
 10
12.413907789404449
 20
63.195159479479798
 30
0.0
 40
0.3
 50
179.999989999999
 51
270.0
  0
LINE
  5
552
  8
0
  6
CONTINUOUS
 62
     7
 10
16.113896789404521
 20
66.955816479479722
 30
0.0
 11
19.17455078940452
 21
63.895164479479931
 31
0.0
  0
LINE
  5
553
  8
0
  6
CONTINUOUS
 62
     7
 10
15.05322878940421
 20
65.895166479479826
 30
0.0
 11
18.113904789404501
 21
62.834487479464968
 31
0.0
  0
LINE
  5
554
  8
0
  6
CONTINUOUS
 62
     7
 10
14.113904789404501
 20
65.895141479479889
 30
0.0
 11
14.113904789404501
 21
62.895141479479904
 31
0.0
  0
LINE
  5
555
  8
0
  6
CONTINUOUS
 62
     7
 10
14.113904789404501
 20
65.895141479479889
 30
0.0
 11
15.053235789404541
 21
65.895141479479889
 31
0.0
  0
CIRCLE
  5
557
  8
0
  6
CONTINUOUS
 62
     7
 10
22.113904789404501
 20
59.895141479479783
 30
0.0
 40
2.1000000000000001
  0
LINE
  5
55D
  8
0
  6
CONTINUOUS
 62
     7
 10
29.17455078940452
 20
65.895154479479515
 30
0.0
 11
26.113904789404391
 21
62.834508479479503
 31
0.0
  0
LINE
  5
55E
  8
0
  6
CONTINUOUS
 62
     7
 10
30.113904789404391
 20
65.895141479479889
 30
0.0
 11
30.113904789404391
 21
62.895141479479904
 31
0.0
  0
LINE
  5
55F
  8
0
  6
CONTINUOUS
 62
     7
 10
28.113889789404539
 20
66.955816479479722
 30
0.0
 11
25.053214789404031
 21
63.895141479479769
 31
0.0
  0
LINE
  5
560
  8
0
  6
CONTINUOUS
 62
     7
 10
29.1745587894045
 20
65.895141479479889
 30
0.0
 11
30.113904789404391
 21
65.895141479479889
 31
0.0
  0
ARC
  5
562
  8
0
  6
CONTINUOUS
 62
     7
 10
13.113904789404501
 20
68.895141479479889
 30
0.0
 40
1.0
 50
143.13010235415609
 51
180.00001000000091
  0
LINE
  5
563
  8
0
  6
CONTINUOUS
 62
     7
 10
16.113904789404501
 20
67.895141479479776
 30
0.0
 11
19.113904789404501
 21
67.895141479479776
 31
0.0
  0
LINE
  5
564
  8
0
  6
CONTINUOUS
 62
     7
 10
19.113904789404501
 20
69.495141479479855
 30
0.0
 11
19.113904789404501
 21
67.895141479479776
 31
0.0
  0
LINE
  5
566
  8
0
  6
CONTINUOUS
 62
     7
 10
28.113904789404501
 20
67.895141479479776
 30
0.0
 11
25.113904789404501
 21
67.895141479479776
 31
0.0
  0
LINE
  5
567
  8
0
  6
CONTINUOUS
 62
     7
 10
25.113904789404501
 20
69.495141479479898
 30
0.0
 11
25.113904789404501
 21
67.895141479479776
 31
0.0
  0
LINE
  5
569
  8
0
  6
CONTINUOUS
 62
     7
 10
49.174560789404381
 20
33.895153479479973
 30
0.0
 11
46.113904789404501
 21
36.955810479477492
 31
0.0
  0
LINE
  5
56A
  8
0
  6
CONTINUOUS
 62
     7
 10
34.613896789404521
 20
33.455823479479882
 30
0.0
 11
38.113889789404553
 21
36.955817479479776
 31
0.0
  0
LINE
  5
56B
  8
0
  6
CONTINUOUS
 62
     7
 10
52.113904789404501
 20
36.595153479479791
 30
0.0
 11
52.113904789404501
 21
30.895141479479779
 31
0.0
  0
LINE
  5
56C
  8
0
  6
CONTINUOUS
 62
     7
 10
50.113904789404501
 20
33.895141479479953
 30
0.0
 11
50.113904789404501
 21
36.89514147947996
 31
0.0
  0
LINE
  5
56D
  8
0
  6
CONTINUOUS
 62
     7
 10
39.113904789404486
 20
30.295141479479831
 30
0.0
 11
39.113904789404486
 21
31.895141479479779
 31
0.0
  0
LINE
  5
56F
  8
0
  6
CONTINUOUS
 62
     7
 10
34.613904789404501
 20
33.455840479479789
 30
0.0
 11
34.613904789404501
 21
31.895141479479779
 31
0.0
  0
LINE
  5
570
  8
0
  6
CONTINUOUS
 62
     7
 10
36.113887789404551
 20
32.834494479479929
 30
0.0
 11
39.174534789404788
 21
35.895141479480401
 31
0.0
  0
LINE
  5
571
  8
0
  6
CONTINUOUS
 62
     7
 10
36.113904789404501
 20
31.895141479479779
 30
0.0
 11
39.113904789404486
 21
31.895141479479779
 31
0.0
  0
LINE
  5
572
  8
0
  6
CONTINUOUS
 62
     7
 10
36.113904789404501
 20
32.834503479479793
 30
0.0
 11
36.113904789404501
 21
31.895141479479779
 31
0.0
  0
LINE
  5
573
  8
0
  6
CONTINUOUS
 62
     7
 10
45.113904789404458
 20
30.295141479479831
 30
0.0
 11
45.113904789404501
 21
31.895141479479779
 31
0.0
  0
ARC
  5
576
  8
0
  6
CONTINUOUS
 62
     7
 10
51.113904789404387
 20
30.895141479479779
 30
0.0
 40
1.0
 50
323.13010235415987
 51
0.0
  0
LINE
  5
577
  8
0
  6
CONTINUOUS
 62
     7
 10
48.113889789404539
 20
32.83450447947979
 30
0.0
 11
45.053253789399598
 21
35.89514147948006
 31
0.0
  0
LINE
  5
578
  8
0
  6
CONTINUOUS
 62
     7
 10
48.113904789404501
 20
31.895141479479779
 30
0.0
 11
45.113904789404501
 21
31.895141479479779
 31
0.0
  0
LINE
  5
57B
  8
0
  6
CONTINUOUS
 62
     7
 10
48.113904789404501
 20
32.834503479479793
 30
0.0
 11
48.113904789404501
 21
31.895141479479779
 31
0.0
  0
LINE
  5
57C
  8
0
  6
CONTINUOUS
 62
     7
 10
49.174573789404462
 20
33.895141479479953
 30
0.0
 11
50.113904789404501
 21
33.895141479479953
 31
0.0
  0
LINE
  5
57E
  8
0
  6
CONTINUOUS
 62
     7
 10
52.113904789404501
 20
48.895141479479889
 30
0.0
 11
52.113904789404501
 21
43.195159479479791
 31
0.0
  0
LINE
  5
57F
  8
0
  6
CONTINUOUS
 62
     7
 10
36.113896789404528
 20
46.955816479480063
 30
0.0
 11
39.17457378942013
 21
43.895141479480053
 31
0.0
  0
LINE
  5
580
  8
0
  6
CONTINUOUS
 62
     7
 10
48.113889789404539
 20
46.955816479480063
 30
0.0
 11
45.053215789412093
 21
43.895141479480053
 31
0.0
  0
LINE
  5
581
  8
0
  6
CONTINUOUS
 62
     7
 10
38.113904789404508
 20
36.955810479479851
 30
0.0
 11
38.113904789404508
 21
41.985962479479667
 31
0.0
  0
LINE
  5
582
  8
0
  6
CONTINUOUS
 62
     7
 10
46.113904789404501
 20
42.834510479481821
 30
0.0
 11
46.113904789404501
 21
40.41475672175045
 31
0.0
  0
LINE
  5
586
  8
0
  6
CONTINUOUS
 62
     7
 10
51.813901789404213
 20
36.89514147947996
 30
0.0
 11
50.113904789404501
 21
36.89514147947996
 31
0.0
  0
ARC
  5
587
  8
0
  6
CONTINUOUS
 62
     7
 10
51.813901789404213
 20
36.595153479479791
 30
0.0
 40
0.3
 50
0.0
 51
90.000003000000945
  0
LINE
  5
588
  8
0
  6
CONTINUOUS
 62
     7
 10
49.174549789404523
 20
45.895156479479972
 30
0.0
 11
46.113904789404501
 21
42.834510479481821
 31
0.0
  0
LINE
  5
58B
  8
0
  6
CONTINUOUS
 62
     7
 10
50.113904789404501
 20
45.895141479479904
 30
0.0
 11
50.113904789404501
 21
42.895141479479769
 31
0.0
  0
ARC
  5
58C
  8
0
  6
CONTINUOUS
 62
     7
 10
51.813901789404213
 20
43.195159479479791
 30
0.0
 40
0.3
 50
270.0
 51
0.0
  0
LINE
  5
58D
  8
0
  6
CONTINUOUS
 62
     7
 10
51.813901789404213
 20
42.895141479479769
 30
0.0
 11
50.113904789404501
 21
42.895141479479769
 31
0.0
  0
LINE
  5
58E
  8
0
  6
CONTINUOUS
 62
     7
 10
49.1745587894045
 20
45.895141479479904
 30
0.0
 11
50.113904789404501
 21
45.895141479479904
 31
0.0
  0
LINE
  5
58F
  8
0
  6
CONTINUOUS
 62
     7
 10
32.113904789404501
 20
56.595153479479791
 30
0.0
 11
32.113904789404501
 21
50.195141479479886
 31
0.0
  0
LINE
  5
591
  8
0
  6
CONTINUOUS
 62
     7
 10
39.113904789404486
 20
49.595141479479892
 30
0.0
 11
39.113904789404486
 21
47.895141479479889
 31
0.0
  0
LINE
  5
592
  8
0
  6
CONTINUOUS
 62
     7
 10
36.113904789404501
 20
47.895141479479889
 30
0.0
 11
39.113904789404486
 21
47.895141479479889
 31
0.0
  0
LINE
  5
593
  8
0
  6
CONTINUOUS
 62
     7
 10
36.113904789404501
 20
47.895141479479889
 30
0.0
 11
36.113904789404501
 21
46.955810479480078
 31
0.0
  0
ARC
  5
595
  8
0
  6
CONTINUOUS
 62
     7
 10
31.813901789404209
 20
56.595153479479791
 30
0.0
 40
0.3
 50
0.0
 51
90.000003000000945
  0
LINE
  5
597
  8
0
  6
CONTINUOUS
 62
     7
 10
48.113904789404501
 20
47.895141479479889
 30
0.0
 11
45.113904789404501
 21
47.895141479479889
 31
0.0
  0
LINE
  5
598
  8
0
  6
CONTINUOUS
 62
     7
 10
45.113904789404501
 20
49.595141479479892
 30
0.0
 11
45.113904789404501
 21
47.895141479479889
 31
0.0
  0
LINE
  5
59A
  8
0
  6
CONTINUOUS
 62
     7
 10
48.113904789404501
 20
47.895141479479889
 30
0.0
 11
48.113904789404501
 21
46.955810479480078
 31
0.0
  0
LINE
  5
59B
  8
0
  6
CONTINUOUS
 62
     7
 10
32.113904789404501
 20
68.895141479479889
 30
0.0
 11
32.113904789404501
 21
63.195159479479798
 31
0.0
  0
ARC
  5
59C
  8
0
  6
CONTINUOUS
 62
     7
 10
31.813901789404209
 20
63.195159479479798
 30
0.0
 40
0.3
 50
270.0
 51
0.0
  0
ARC
  5
59D
  8
0
  6
CONTINUOUS
 62
     7
 10
31.113904789404501
 20
68.895141479479889
 30
0.0
 40
1.0
 50
0.0
 51
36.869897645843743
  0
LINE
  5
59E
  8
0
  6
CONTINUOUS
 62
     7
 10
87.661183384928918
 20
49.895141479479889
 30
0.0
 11
137.6611833849289
 21
49.895141479479889
 31
0.0
  0
LINE
  5
59F
  8
0
  6
CONTINUOUS
 62
     7
 10
87.661183384928918
 20
56.895141479479882
 30
0.0
 11
137.6611833849289
 21
56.895141479479882
 31
0.0
  0
LINE
  5
5A0
  8
0
  6
CONTINUOUS
 62
     7
 10
87.661183384928918
 20
62.895141479479904
 30
0.0
 11
137.6611833849289
 21
62.895141479479904
 31
0.0
  0
LINE
  5
5A1
  8
CENTER
  6
CENTER
 62
     1
 10
42.113904789404486
 20
52.395141479479889
 30
0.0
 11
42.113904789404486
 21
27.395141479479829
 31
0.0
  0
CIRCLE
  5
5A2
  8
0
  6
CONTINUOUS
 62
     7
 10
42.113904789404486
 20
39.895141479479783
 30
0.0
 40
2.1000000000000001
  0
LINE
  5
5A3
  8
0
  6
CONTINUOUS
 62
     7
 10
39.174534789404788
 20
35.895141479480401
 30
0.0
 11
41.594289547134473
 21
35.895141479480152
 31
0.0
  0
LINE
  5
5A4
  8
0
  6
CONTINUOUS
 62
     7
 10
39.174573789420378
 20
43.895141479480053
 30
0.0
 11
41.594289547133322
 21
43.895141479480053
 31
0.0
  0
LINE
  5
A5D
  8
0
  6
CONTINUOUS
 62
     7
 10
19.174535789405631
 20
35.89514147947979
 30
0.0
 11
21.59428954713384
 21
35.89514147947979
 31
0.0
  0
LINE
  5
BE5
  8
0
  6
CONTINUOUS
 62
     7
 10
18.113904789404501
 20
62.834487479464968
 30
0.0
 11
18.113904789404501
 21
60.414756721750422
 31
0.0
  0
LINE
  5
BE6
  8
0
  6
CONTINUOUS
 62
     7
 10
26.113904789404391
 20
62.834508479479503
 30
0.0
 11
26.113904789404391
 21
60.414756721750251
 31
0.0
  0
LINE
  5
C1F
  8
0
  6
CONTINUOUS
 62
     7
 10
22.113904789404501
 20
63.595141479479778
 30
0.0
 11
21.59428954713384
 21
63.895141479479783
 31
0.0
  0
LINE
  5
C20
  8
0
  6
CONTINUOUS
 62
     7
 10
22.113904789404501
 20
63.595141479479778
 30
0.0
 11
22.63352003167515
 21
63.895141479479769
 31
0.0
  0
LINE
  5
C24
  8
0
  6
CONTINUOUS
 62
     7
 10
18.413904789404501
 20
59.895141479479783
 30
0.0
 11
18.113904789404501
 21
59.375526237209108
 31
0.0
  0
LINE
  5
C25
  8
0
  6
CONTINUOUS
 62
     7
 10
18.413904789404501
 20
59.895141479479783
 30
0.0
 11
18.113904789404511
 21
60.414756721750422
 31
0.0
  0
LINE
  5
C28
  8
0
  6
CONTINUOUS
 62
     7
 10
25.813904789404511
 20
59.895141479479783
 30
0.0
 11
26.113904789404501
 21
60.414756721750422
 31
0.0
  0
LINE
  5
C29
  8
0
  6
CONTINUOUS
 62
     7
 10
25.813904789404511
 20
59.895141479479783
 30
0.0
 11
26.113904789404501
 21
59.375526237209129
 31
0.0
  0
LINE
  5
C2A
  8
0
  6
CONTINUOUS
 62
     7
 10
18.413904789404501
 20
39.895141479479783
 30
0.0
 11
18.113904789404501
 21
39.375526237209108
 31
0.0
  0
LINE
  5
C2B
  8
0
  6
CONTINUOUS
 62
     7
 10
18.413904789404501
 20
39.895141479479783
 30
0.0
 11
18.113904789404511
 21
40.414756721750408
 31
0.0
  0
LINE
  5
C2C
  8
0
  6
CONTINUOUS
 62
     7
 10
22.113904789404501
 20
36.19514147947978
 30
0.0
 11
22.633520031675161
 21
35.89514147947979
 31
0.0
  0
LINE
  5
C2D
  8
0
  6
CONTINUOUS
 62
     7
 10
22.113904789404501
 20
36.19514147947978
 30
0.0
 11
21.594289547133851
 21
35.89514147947979
 31
0.0
  0
LINE
  5
C32
  8
0
  6
CONTINUOUS
 62
     7
 10
26.113904789404391
 20
59.3755262372093
 30
0.0
 11
26.113904789404391
 21
56.95581047947789
 31
0.0
  0
LINE
  5
C33
  8
0
  6
CONTINUOUS
 62
     7
 10
18.113904789404501
 20
59.375526237209108
 30
0.0
 11
18.113904789404501
 21
56.955831479489483
 31
0.0
  0
LINE
  5
C34
  8
0
  6
CONTINUOUS
 62
     7
 10
22.63352003167514
 20
63.895141479479769
 30
0.0
 11
25.053214789404031
 21
63.895141479479769
 31
0.0
  0
LINE
  5
C35
  8
0
  6
CONTINUOUS
 62
     7
 10
22.633520031675161
 20
35.89514147947979
 30
0.0
 11
25.053231789402972
 21
35.89514147947979
 31
0.0
  0
LINE
  5
C36
  8
0
  6
CONTINUOUS
 62
     7
 10
18.113904789404501
 20
39.375526237209108
 30
0.0
 11
18.113904789404501
 21
36.955830479478323
 31
0.0
  0
LINE
  5
C37
  8
0
  6
CONTINUOUS
 62
     7
 10
42.113904789404486
 20
36.19514147947978
 30
0.0
 11
42.633520031675161
 21
35.89514147947979
 31
0.0
  0
LINE
  5
C38
  8
0
  6
CONTINUOUS
 62
     7
 10
42.113904789404486
 20
36.19514147947978
 30
0.0
 11
41.594289547133847
 21
35.89514147947979
 31
0.0
  0
LINE
  5
C39
  8
0
  6
CONTINUOUS
 62
     7
 10
45.813904789404482
 20
39.895141479479783
 30
0.0
 11
46.113904789404486
 21
40.414756721750408
 31
0.0
  0
LINE
  5
C3A
  8
0
  6
CONTINUOUS
 62
     7
 10
45.813904789404482
 20
39.895141479479783
 30
0.0
 11
46.113904789404479
 21
39.375526237209137
 31
0.0
  0
LINE
  5
C3B
  8
0
  6
CONTINUOUS
 62
     7
 10
42.113904789404472
 20
43.595141479479757
 30
0.0
 11
41.594289547133812
 21
43.895141479479761
 31
0.0
  0
LINE
  5
C3C
  8
0
  6
CONTINUOUS
 62
     7
 10
42.113904789404472
 20
43.595141479479757
 30
0.0
 11
42.633520031675097
 21
43.895141479479761
 31
0.0
  0
LINE
  5
C3F
  8
0
  6
CONTINUOUS
 62
     7
 10
42.633520031674678
 20
35.895141479480031
 30
0.0
 11
45.053253789399697
 21
35.89514147947979
 31
0.0
  0
LINE
  5
C40
  8
0
  6
CONTINUOUS
 62
     7
 10
46.113904789404501
 20
39.375526237209108
 30
0.0
 11
46.113904789404501
 21
36.955810479477492
 31
0.0
  0
LINE
  5
C41
  8
0
  6
CONTINUOUS
 62
     7
 10
42.633520031675637
 20
43.895141479480053
 30
0.0
 11
45.053215789412093
 21
43.895141479480053
 31
0.0
  0
LINE
  5
C75
  8
CENTER
  6
CENTER
 62
     1
 10
85.161183384928904
 20
39.895141479479783
 30
0.0
 11
140.1611833849289
 21
39.895141479479783
 31
0.0
  0
LINE
  5
C76
  8
CENTER
  6
CENTER
 62
     1
 10
85.161183384928947
 20
59.895141479479769
 30
0.0
 11
140.1611833849289
 21
59.895141479479769
 31
0.0
  0
LINE
  5
CB9
  8
0
  6
CONTINUOUS
 62
     7
 10
87.661183384928918
 20
60.414756721750422
 30
0.0
 11
137.6611833849289
 21
60.414756721750422
 31
0.0
  0
LINE
  5
CBA
  8
0
  6
CONTINUOUS
 62
     7
 10
87.661183384928918
 20
59.3755262372093
 30
0.0
 11
137.6611833849289
 21
59.3755262372093
 31
0.0
  0
LINE
  5
CBB
  8
0
  6
CONTINUOUS
 62
     7
 10
87.661183384928918
 20
40.41475672175045
 30
0.0
 11
137.6611833849289
 21
40.41475672175045
 31
0.0
  0
LINE
  5
CBC
  8
0
  6
CONTINUOUS
 62
     7
 10
87.661183384928918
 20
39.375526237209108
 30
0.0
 11
137.6611833849289
 21
39.375526237209108
 31
0.0
  0
LINE
  5
D28
  8
0
  6
CONTINUOUS
 62
     7
 10
31.913904789404508
 20
69.495141479479898
 30
0.0
 11
25.113904789404501
 21
69.495141479479898
 31
0.0
  0
LINE
  5
D29
  8
0
  6
CONTINUOUS
 62
     7
 10
12.313904789404461
 20
30.295141479479831
 30
0.0
 11
19.113904789404501
 21
30.295141479479831
 31
0.0
  0
LINE
  5
D2A
  8
0
  6
CONTINUOUS
 62
     7
 10
19.113904789404501
 20
69.495141479479855
 30
0.0
 11
12.313904789404489
 21
69.495141479479898
 31
0.0
  0
LINE
  5
D2B
  8
0
  6
CONTINUOUS
 62
     7
 10
51.113904789404501
 20
49.895141479479889
 30
0.0
 11
45.413904789404477
 21
49.895141479479889
 31
0.0
  0
LINE
  5
D2C
  8
0
  6
CONTINUOUS
 62
     7
 10
38.813904789404489
 20
49.895141479479889
 30
0.0
 11
32.413904789404491
 21
49.895141479479882
 31
0.0
  0
LINE
  5
D2D
  8
0
  6
CONTINUOUS
 62
     7
 10
45.113904789404458
 20
30.295141479479831
 30
0.0
 11
51.91390478940442
 21
30.295141479479831
 31
0.0
  0
LINE
  5
D2E
  8
0
  6
CONTINUOUS
 62
     7
 10
25.113904789404501
 20
30.29514147947982
 30
0.0
 11
39.113904789404486
 21
30.295141479479831
 31
0.0
  0
ARC
  5
D2F
  8
0
  6
CONTINUOUS
 62
     7
 10
51.113904789404501
 20
48.895141479479889
 30
0.0
 40
1.0
 50
0.0
 51
89.999999999999943
  0
ARC
  5
D30
  8
0
  6
CONTINUOUS
 62
     7
 10
32.413904789404491
 20
50.195141479479886
 30
0.0
 40
0.3
 50
180.0
 51
270.0
  0
ARC
  5
133E
  8
0
  6
CONTINUOUS
 62
     7
 10
38.813904789404489
 20
49.595141479479892
 30
0.0
 40
0.3
 50
0.0
 51
90.000000000000114
  0
ARC
  5
1341
  8
0
  6
CONTINUOUS
 62
     7
 10
45.413904789404477
 20
49.595141479479892
 30
0.0
 40
0.3
 50
90.0
 51
180.0
  0
ENDSEC
  0
EOF
